<?xml version="1.0" encoding="UTF-8" standalone="no"?>
<!-- Created with Inkscape (http://www.inkscape.org/) -->

<svg
   width="100mm"
   height="100mm"
   viewBox="0 0 100 100"
   version="1.1"
   id="svg5"
   inkscape:version="1.1.2 (b8e25be833, 2022-02-05)"
   sodipodi:docname="cueva.svg"
   xmlns:inkscape="http://www.inkscape.org/namespaces/inkscape"
   xmlns:sodipodi="http://sodipodi.sourceforge.net/DTD/sodipodi-0.dtd"
   xmlns="http://www.w3.org/2000/svg"
   xmlns:svg="http://www.w3.org/2000/svg">
  <sodipodi:namedview
     id="namedview7"
     pagecolor="#ffffff"
     bordercolor="#666666"
     borderopacity="1.0"
     inkscape:pageshadow="2"
     inkscape:pageopacity="0.0"
     inkscape:pagecheckerboard="0"
     inkscape:document-units="mm"
     showgrid="false"
     inkscape:zoom="0.52347032"
     inkscape:cx="-88.830252"
     inkscape:cy="275.08723"
     inkscape:window-width="1920"
     inkscape:window-height="1017"
     inkscape:window-x="-8"
     inkscape:window-y="-8"
     inkscape:window-maximized="1"
     inkscape:current-layer="layer1" />
  <defs
     id="defs2" />
  <g
     inkscape:label="Capa 1"
     inkscape:groupmode="layer"
     id="layer1">
    <g
       id="g34258"
       transform="translate(-228.02166,132.59567)"
       style="fill:#000000">
      <path
         style="fill:#000000;fill-opacity:1;stroke-width:0.264583"
         d="m 82.936784,72.019267 c 0.0127,-0.308227 0.07539,-0.37092 0.15985,-0.159854 0.07643,0.190995 0.06703,0.419198 -0.02087,0.507119 -0.08792,0.08792 -0.150453,-0.06835 -0.138965,-0.347265 z"
         id="path34270" />
      <path
         style="fill:#000000;fill-opacity:1;stroke-width:0.264583"
         d="m 140.54545,131.7887 c 0.191,-0.0764 0.4192,-0.067 0.50712,0.0209 0.0879,0.0879 -0.0684,0.15046 -0.34727,0.13897 -0.30822,-0.0127 -0.37092,-0.0754 -0.15985,-0.15985 z m 10.3053,-0.006 c 0.32912,-0.0633 0.80537,-0.0609 1.05833,0.005 0.25297,0.0662 -0.0163,0.118 -0.5984,0.11507 -0.58208,-0.003 -0.78905,-0.0571 -0.45993,-0.12041 z m -58.301593,-5.76599 c -2.65e-4,-2.47385 0.03947,-3.5215 0.08837,-2.32809 0.04891,1.1934 0.04916,3.21746 5.3e-4,4.49791 -0.0486,1.28046 -0.08862,0.30404 -0.08893,-2.16982 z M 57.780479,110.96746 c 0,-0.0549 0.208359,-0.2633 0.463021,-0.46302 0.419644,-0.32911 0.429002,-0.31975 0.0999,0.0999 -0.345644,0.44073 -0.562916,0.58089 -0.562916,0.36313 z M 82.95767,72.967356 c 0,-0.363802 0.06006,-0.51263 0.133453,-0.330729 0.0734,0.181901 0.0734,0.479557 0,0.661458 -0.0734,0.181901 -0.133453,0.03307 -0.133453,-0.330729 z m 33.29572,-40.845727 c 0,-0.05494 0.20836,-0.263302 0.46302,-0.463021 0.41965,-0.329107 0.42901,-0.319749 0.0999,0.0999 -0.34564,0.440729 -0.56292,0.580887 -0.56292,0.363126 z m 3.63802,-2.456584 c 0.18191,-0.0734 0.47956,-0.0734 0.66146,0 0.1819,0.0734 0.0331,0.133452 -0.33073,0.133452 -0.3638,0 -0.51263,-0.06005 -0.33073,-0.133452 z"
         id="path34268" />
      <path
         style="fill:#000000;fill-opacity:1;stroke-width:0.264583"
         d="m 57.466939,131.77132 c 2.665209,-0.0432 6.951458,-0.0431 9.524999,1.5e-4 2.573541,0.0433 0.392916,0.0786 -4.845834,0.0785 -5.23875,-9e-5 -7.344374,-0.0355 -4.679165,-0.0787 z m 14.534894,0.0229 c 0.181901,-0.0734 0.479557,-0.0734 0.661458,0 0.181901,0.0734 0.03307,0.13345 -0.330729,0.13345 -0.363802,0 -0.51263,-0.06 -0.330729,-0.13345 z m 12.052284,-0.0222 c 1.426387,-0.0477 3.688574,-0.0475 5.027083,5.3e-4 1.338508,0.0479 0.171466,0.0869 -2.59343,0.0867 -2.764896,-2.5e-4 -3.860041,-0.0395 -2.433653,-0.0871 z m 59.239543,5.3e-4 c 1.26594,-0.0484 3.40907,-0.0486 4.7625,-5.3e-4 1.35342,0.0481 0.31765,0.0877 -2.30173,0.088 -2.61937,2.6e-4 -3.72672,-0.0391 -2.46077,-0.0875 z M 57.119021,111.59652 c 0.263389,-0.29104 0.53842,-0.52917 0.611181,-0.52917 0.07276,0 -0.08321,0.23813 -0.346598,0.52917 -0.263389,0.29104 -0.53842,0.52917 -0.611181,0.52917 -0.07276,0 0.08321,-0.23813 0.346598,-0.52917 z m 2.778125,-2.48114 c 0,-0.055 0.208359,-0.2633 0.46302,-0.46303 0.419644,-0.3291 0.429003,-0.31974 0.0999,0.0999 -0.345643,0.44073 -0.562915,0.58089 -0.562915,0.36313 z m 2.38125,-2.11667 c 0,-0.0549 0.208359,-0.2633 0.46302,-0.46302 0.419644,-0.32911 0.429003,-0.31975 0.09989,0.0999 -0.345643,0.44073 -0.562915,0.58089 -0.562915,0.36313 z m 11.366025,-8.432917 c 1.096424,-1.168186 1.333974,-1.378239 1.333974,-1.179568 0,0.04246 -0.565547,0.608009 -1.256771,1.25677 l -1.25677,1.179568 z m 79.671529,-1.146527 c 0.0127,-0.308227 0.0754,-0.37092 0.15985,-0.159854 0.0764,0.190995 0.067,0.419201 -0.0209,0.507119 -0.0879,0.08792 -0.15045,-0.06835 -0.13896,-0.347265 z m -49.23339,-2.094619 c 0.34178,-0.363802 0.68094,-0.661458 0.7537,-0.661458 0.0728,0 -0.14734,0.297656 -0.48912,0.661458 -0.34177,0.363802 -0.68094,0.661458 -0.7537,0.661458 -0.0728,0 0.14735,-0.297656 0.48912,-0.661458 z m 21.3975,-2.711979 c -0.32911,-0.419645 -0.31975,-0.429004 0.0999,-0.0999 0.44073,0.345643 0.58088,0.562917 0.36312,0.562917 -0.0549,0 -0.2633,-0.20836 -0.46302,-0.463021 z M 82.982618,74.422564 c 0.0029,-0.582083 0.05712,-0.789053 0.120406,-0.459936 0.06329,0.329118 0.06088,0.805368 -0.0053,1.058334 -0.06622,0.252965 -0.118005,-0.01632 -0.115068,-0.598398 z M 117.44402,30.898607 c 0.26339,-0.291041 0.53842,-0.529166 0.61118,-0.529166 0.0728,0 -0.0832,0.238125 -0.3466,0.529166 -0.26339,0.291042 -0.53842,0.529167 -0.61118,0.529167 -0.0728,0 0.0832,-0.238125 0.3466,-0.529167 z"
         id="path34266" />
      <path
         style="fill:#000000;fill-opacity:1;stroke-width:0.264583"
         d="m 73.460679,131.77958 c 0.402183,-0.0608 0.997496,-0.0592 1.322917,0.004 0.325421,0.0628 -0.0036,0.11256 -0.731242,0.11057 -0.727605,-0.002 -0.993858,-0.0534 -0.591675,-0.11419 z m 3.577106,-0.006 c 0.768863,-0.0536 1.959488,-0.053 2.645833,10e-4 0.686345,0.0543 0.05728,0.0982 -1.397931,0.0975 -1.455209,-7.9e-4 -2.016765,-0.0451 -1.247902,-0.0987 z m -25.565529,-1.65672 c 0,-0.3638 0.06005,-0.51263 0.133452,-0.33072 0.0734,0.1819 0.0734,0.47955 0,0.66145 -0.0734,0.1819 -0.133452,0.0331 -0.133452,-0.33073 z M 153.39044,126.1486 c 0,-1.38244 0.0446,-1.94799 0.0991,-1.25677 0.0545,0.69123 0.0545,1.82232 0,2.51355 -0.0545,0.69122 -0.0991,0.12567 -0.0991,-1.25678 z m -0.009,-8.33437 c 0.001,-1.01865 0.049,-1.40294 0.10627,-0.854 0.0573,0.54895 0.0563,1.38239 -0.002,1.85209 -0.0584,0.4697 -0.10532,0.0206 -0.10414,-0.99809 z m 0.0314,-11.50938 c 0,-4.72942 0.0359,-6.664188 0.0797,-4.29947 0.0438,2.36471 0.0438,6.23424 0,8.59895 -0.0438,2.36472 -0.0797,0.42995 -0.0797,-4.29948 z m -94.309884,3.60428 c 0,-0.055 0.208359,-0.2633 0.463021,-0.46303 0.419643,-0.3291 0.429002,-0.31974 0.09989,0.0999 -0.345643,0.44073 -0.562915,0.58089 -0.562915,0.36313 z m 5.291666,-4.7625 c 0,-0.055 0.20836,-0.2633 0.463021,-0.46303 0.419644,-0.3291 0.429002,-0.31974 0.0999,0.0999 -0.345644,0.44073 -0.562916,0.58089 -0.562916,0.36313 z m 64.259998,-8.829796 c -0.32911,-0.419645 -0.31975,-0.429003 0.0999,-0.0999 0.25466,0.199721 0.46302,0.40808 0.46302,0.463021 0,0.217763 -0.21728,0.07761 -0.56292,-0.363125 z m -1.32292,-1.5875 c -0.3291,-0.419645 -0.31975,-0.429003 0.0999,-0.0999 0.44073,0.345644 0.58089,0.562917 0.36312,0.562917 -0.0549,0 -0.2633,-0.208359 -0.46302,-0.463021 z m -2.64583,-2.910416 c -0.32911,-0.419645 -0.31975,-0.429004 0.0999,-0.0999 0.25466,0.19972 0.46302,0.40808 0.46302,0.463021 0,0.217762 -0.21728,0.07761 -0.56292,-0.363125 z M 82.982618,76.274647 c 0.0029,-0.582083 0.05712,-0.789053 0.120406,-0.459935 0.06329,0.329118 0.06088,0.805368 -0.0053,1.058333 -0.06622,0.252965 -0.118005,-0.01633 -0.115068,-0.598398 z m 59.038162,-4.233333 c 5.3e-4,-1.891771 0.0426,-2.630961 0.0936,-1.642642 0.0511,0.988317 0.0507,2.53613 -7.9e-4,3.439584 -0.0515,0.903451 -0.0933,0.09483 -0.0928,-1.796942 z M 83.201367,67.785933 c 0.0127,-0.308226 0.07539,-0.370919 0.159851,-0.159853 0.07643,0.190995 0.06703,0.419198 -0.02088,0.507119 -0.08792,0.08792 -0.150452,-0.06835 -0.138964,-0.347266 z M 88.472145,56.99246 c 0,-0.05494 0.208359,-0.2633 0.463021,-0.463021 0.419645,-0.329107 0.429003,-0.319748 0.0999,0.0999 -0.345644,0.440729 -0.562917,0.580887 -0.562917,0.363124 z m 50.113405,-3.141249 -0.50403,-0.595313 0.59531,0.504029 c 0.55945,0.473662 0.71576,0.686596 0.50403,0.686596 -0.0502,0 -0.3181,-0.26789 -0.59531,-0.595312 z M 113.60756,35.296629 c 0,-0.05494 0.20836,-0.263302 0.46302,-0.463021 0.41965,-0.329107 0.429,-0.319749 0.0999,0.0999 -0.34565,0.440729 -0.56292,0.580887 -0.56292,0.363126 z"
         id="path34264" />
      <path
         style="fill:#000000;fill-opacity:1;stroke-width:0.264583"
         d="m 51.925897,131.24183 c -0.335893,-0.42829 -0.32344,-0.43391 0.166041,-0.0749 0.291041,0.21349 0.578776,0.42185 0.639409,0.46302 0.06063,0.0412 -0.01408,0.0749 -0.16604,0.0749 -0.151956,0 -0.439691,-0.20836 -0.63941,-0.46302 z m 88.354973,0.28228 c 0.19099,-0.0764 0.4192,-0.067 0.50712,0.0209 0.0879,0.0879 -0.0684,0.15045 -0.34727,0.13896 -0.30823,-0.0127 -0.37092,-0.0754 -0.15985,-0.15985 z m 11.1125,0 c 0.19099,-0.0764 0.4192,-0.067 0.50712,0.0209 0.0879,0.0879 -0.0684,0.15045 -0.34727,0.13896 -0.30823,-0.0127 -0.37092,-0.0754 -0.15985,-0.15985 z m -12.13518,-0.78199 c -0.14599,-0.38399 -0.21634,-0.74725 -0.15633,-0.80726 0.06,-0.06 0.23574,0.25416 0.39051,0.69815 0.34407,0.98698 0.13638,1.08375 -0.23418,0.10911 z m 14.10359,-1.28622 c 0.003,-0.58209 0.0571,-0.78906 0.12041,-0.45994 0.0633,0.32912 0.0609,0.80537 -0.005,1.05833 -0.0662,0.25297 -0.118,-0.0163 -0.11506,-0.59839 z M 52.245117,125.4651 c 0.0127,-0.30823 0.07539,-0.37092 0.159853,-0.15986 0.07643,0.191 0.06703,0.41921 -0.02089,0.50712 -0.08792,0.0879 -0.150453,-0.0683 -0.138964,-0.34726 z m 101.142393,-3.81441 c 0,-1.23693 0.0456,-1.74294 0.10128,-1.12448 0.0557,0.61846 0.0557,1.63049 0,2.24896 -0.0557,0.61846 -0.10128,0.11244 -0.10128,-1.12448 z m -60.895035,-1.45521 c 0.0054,-0.43656 0.06469,-0.58313 0.131773,-0.32569 0.06708,0.25743 0.06267,0.61461 -0.0098,0.79375 -0.07248,0.17913 -0.127362,-0.0315 -0.12197,-0.46806 z m 43.491275,-2.40015 c -0.0973,-0.38775 -0.12592,-0.75603 -0.0635,-0.81839 0.0624,-0.0624 0.19302,0.20386 0.29034,0.59161 0.0973,0.38774 0.12591,0.75602 0.0635,0.81839 -0.0624,0.0624 -0.19302,-0.20386 -0.29034,-0.59161 z M 93.763811,116.6236 c 0.15576,-0.29104 0.342734,-0.52916 0.415494,-0.52916 0.07276,0 0.0048,0.23812 -0.15091,0.52916 -0.155761,0.29105 -0.342734,0.52917 -0.415494,0.52917 -0.07276,0 -0.0048,-0.23812 0.15091,-0.52917 z m 41.825059,-0.6835 c 0.0127,-0.30823 0.0754,-0.37092 0.15985,-0.15985 0.0764,0.19099 0.067,0.4192 -0.0209,0.50711 -0.0879,0.0879 -0.15045,-0.0684 -0.13896,-0.34726 z m 17.75777,-0.50712 c 0.005,-0.43656 0.0647,-0.58313 0.13177,-0.32569 0.0671,0.25743 0.0627,0.61461 -0.01,0.79375 -0.0725,0.17913 -0.12737,-0.0315 -0.12197,-0.46806 z M 54.737771,115.0361 c 0.225755,-0.43656 0.469995,-0.79375 0.542755,-0.79375 0.07276,0 -0.05242,0.35719 -0.278172,0.79375 -0.225755,0.43657 -0.469995,0.79375 -0.542755,0.79375 -0.07276,0 0.05242,-0.35718 0.278172,-0.79375 z m 40.589786,-0.74936 c 0.142695,-0.26663 0.467299,-0.65358 0.721341,-0.85989 0.285822,-0.23213 0.22193,-0.0473 -0.167603,0.48478 -0.694917,0.94925 -0.955473,1.12576 -0.553738,0.37511 z m 39.732143,-0.46331 c 0.0127,-0.30822 0.0754,-0.37092 0.15985,-0.15985 0.0764,0.19099 0.067,0.4192 -0.0209,0.50712 -0.0879,0.0879 -0.15045,-0.0683 -0.13896,-0.34727 z m -79.660471,0.0545 c 0,-0.055 0.20836,-0.2633 0.463021,-0.46303 0.419644,-0.3291 0.429002,-0.31974 0.09989,0.0999 -0.345644,0.44073 -0.562916,0.58089 -0.562916,0.36313 z m 2.116667,-2.41365 c 0.790422,-0.80036 1.496663,-1.45521 1.569423,-1.45521 0.07276,0 -0.514417,0.65485 -1.30484,1.45521 -0.790422,0.80036 -1.496663,1.45521 -1.569424,1.45521 -0.07276,0 0.514418,-0.65485 1.304841,-1.45521 z m 77.014634,0.24254 c 0.0127,-0.30823 0.0754,-0.37092 0.15985,-0.15986 0.0764,0.191 0.067,0.4192 -0.0209,0.50712 -0.0879,0.0879 -0.15046,-0.0683 -0.13897,-0.34726 z m -37.062552,-0.47473 c 0,-0.0549 0.208359,-0.2633 0.463021,-0.46302 0.419645,-0.32911 0.429003,-0.31975 0.0999,0.0999 -0.345644,0.44073 -0.562917,0.58088 -0.562917,0.36312 z m 1.376256,-2.14326 c 0.316598,-0.65165 0.621012,-1.13943 0.676479,-1.08397 0.119692,0.1197 -0.949396,2.26879 -1.128633,2.26879 -0.06791,0 0.135559,-0.53317 0.452154,-1.18482 z m -38.164396,-0.46882 c 0.648762,-0.69122 1.214309,-1.25677 1.256771,-1.25677 0.198672,0 -0.01138,0.23755 -1.179568,1.33397 l -1.25677,1.17957 z m 73.321532,0.70556 c 0.0127,-0.30823 0.0754,-0.37092 0.15985,-0.15986 0.0764,0.191 0.067,0.4192 -0.0209,0.50712 -0.0879,0.0879 -0.15045,-0.0684 -0.13896,-0.34726 z M 63.204437,106.3049 c 0.56839,-0.58208 1.092966,-1.05833 1.165727,-1.05833 0.07276,0 -0.332754,0.47625 -0.901143,1.05833 -0.56839,0.58209 -1.092967,1.05834 -1.165727,1.05834 -0.07276,0 0.332754,-0.47625 0.901143,-1.05834 z m 1.984375,-1.71979 c 0.341774,-0.3638 0.680939,-0.66146 0.7537,-0.66146 0.07276,0 -0.147342,0.29766 -0.489116,0.66146 -0.341775,0.36381 -0.68094,0.66146 -0.7537,0.66146 -0.07276,0 0.147342,-0.29765 0.489116,-0.66146 z m 67.489638,-0.28663 c 0.0127,-0.30822 0.0754,-0.37092 0.15985,-0.15985 0.0764,0.19099 0.067,0.4192 -0.0209,0.50712 -0.0879,0.0879 -0.15045,-0.0684 -0.13896,-0.34727 z m -32.27917,-1.05833 c 0.0127,-0.30823 0.0754,-0.37092 0.15985,-0.15985 0.0764,0.19099 0.067,0.4192 -0.0209,0.50711 -0.0879,0.0879 -0.15045,-0.0684 -0.13897,-0.34726 z m 32.01459,0 c 0.0127,-0.30823 0.0754,-0.37092 0.15985,-0.15985 0.0764,0.19099 0.067,0.4192 -0.0209,0.50711 -0.0879,0.0879 -0.15045,-0.0684 -0.13896,-0.34726 z m -63.256308,-1.01767 c 0,-0.0728 0.238125,-0.25973 0.529167,-0.41549 0.291041,-0.15576 0.529166,-0.22367 0.529166,-0.15091 0,0.0728 -0.238125,0.25973 -0.529166,0.41549 -0.291042,0.15576 -0.529167,0.22367 -0.529167,0.15091 z m 62.635128,-0.92345 c -0.11508,-0.44009 -0.0806,-0.5434 0.11569,-0.34706 0.15375,0.15375 0.22749,0.43573 0.16386,0.62661 -0.066,0.19816 -0.18599,0.0782 -0.27955,-0.27955 z M 73.78777,98.631938 c 0.56839,-0.582083 1.092966,-1.058333 1.165727,-1.058333 0.07276,0 -0.332754,0.47625 -0.901143,1.058333 -0.56839,0.582084 -1.092967,1.058334 -1.165727,1.058334 -0.07276,0 0.332754,-0.47625 0.901143,-1.058334 z m 27.64896,0.280199 c 0,-0.136932 0.1177,-0.321712 0.26155,-0.410617 0.14998,-0.09269 0.19434,0.01352 0.10399,0.248968 -0.1759,0.458369 -0.36554,0.542234 -0.36554,0.161649 z m 1.05044,-1.852964 c 0.15143,-0.282937 0.40609,-0.595251 0.56592,-0.694034 0.15984,-0.09878 0.086,0.132713 -0.16414,0.514432 -0.52959,0.808265 -0.80383,0.930855 -0.40178,0.179602 z m 26.96164,0.05141 c -0.32911,-0.419645 -0.31975,-0.429003 0.0999,-0.0999 0.25466,0.199721 0.46302,0.40808 0.46302,0.463021 0,0.217763 -0.21728,0.07761 -0.56292,-0.363125 z M 75.507562,96.679959 c 0,-0.05494 0.208359,-0.2633 0.463021,-0.463021 0.419645,-0.329107 0.429003,-0.319749 0.0999,0.0999 -0.345645,0.44073 -0.562917,0.580888 -0.562917,0.363125 z m 77.564688,-0.42927 c 0,-0.363803 0.0601,-0.512631 0.13345,-0.33073 0.0734,0.181901 0.0734,0.479558 0,0.661459 -0.0734,0.181901 -0.13345,0.03307 -0.13345,-0.330729 z m -26.1156,-2.182813 c -1.13654,-1.346068 -1.81007,-2.223291 -1.49671,-1.949386 0.65232,0.570201 3.85414,4.396782 3.67892,4.396782 -0.0637,0 -1.04567,-1.101328 -2.18221,-2.447396 z m -22.87409,0.992188 c 0.49366,-0.509323 0.95709,-0.926042 1.02985,-0.926042 0.0728,0 -0.27161,0.416719 -0.76527,0.926042 -0.49365,0.509322 -0.95708,0.926041 -1.02984,0.926041 -0.0728,0 0.27161,-0.416719 0.76526,-0.926041 z m 1.43737,-1.161759 c 0.18877,-0.305433 1.20846,-0.921457 1.20846,-0.730062 0,0.06114 -0.31231,0.315806 -0.69403,0.565919 -0.38172,0.250111 -0.61321,0.323977 -0.51443,0.164143 z m 1.47305,-0.941319 c 0,-0.07276 0.35719,-0.317 0.79375,-0.542756 0.43656,-0.225755 0.79375,-0.350932 0.79375,-0.278172 0,0.07276 -0.35719,0.317 -0.79375,0.542756 -0.43656,0.225755 -0.79375,0.350932 -0.79375,0.278172 z m -28.4257,-1.281771 c 0.09936,-0.260938 0.247304,-0.407781 0.328766,-0.326319 0.08146,0.08146 1.69e-4,0.294955 -0.180652,0.474432 -0.261308,0.259361 -0.291698,0.228971 -0.148114,-0.148113 z m 31.53014,-0.484442 c 0.17948,-0.180821 0.39297,-0.262115 0.47443,-0.180652 0.0815,0.08146 -0.0654,0.229407 -0.32632,0.328766 -0.37708,0.143584 -0.40747,0.113194 -0.14811,-0.148114 z m 13.82386,-0.105516 c -0.2796,-0.336907 -0.26324,-0.375623 0.0999,-0.236275 0.23886,0.09166 0.4343,0.272978 0.4343,0.402931 0,0.340244 -0.15316,0.29246 -0.5342,-0.166656 z m -12.95955,-0.256013 c 0,-0.181044 1.62002,-0.984229 1.74105,-0.863193 0.0574,0.05741 -0.31084,0.302387 -0.81833,0.544396 -0.5075,0.242007 -0.92272,0.385467 -0.92272,0.318797 z m 11.37708,-0.663972 c -0.50932,-0.278842 -0.83083,-0.511977 -0.71446,-0.518075 0.28037,-0.01471 1.77279,0.761267 1.77279,0.921745 0,0.173172 -0.0155,0.167266 -1.05833,-0.40367 z m -5.4901,-1.247841 c 0.40018,-0.06062 1.05502,-0.06062 1.4552,0 0.40019,0.06062 0.0728,0.110223 -0.7276,0.110223 -0.80036,0 -1.12779,-0.0496 -0.7276,-0.110223 z M 80.028127,87.65173 c 0.02755,-0.501179 0.468513,-1.345101 0.48387,-0.926041 0.008,0.218281 -0.10087,0.575469 -0.241935,0.79375 -0.141066,0.218281 -0.249936,0.277812 -0.241935,0.132291 z m 69.433463,-1.090908 c -0.25011,-0.38172 -0.32398,-0.613215 -0.16415,-0.514432 0.30544,0.188769 0.92146,1.208465 0.73007,1.208465 -0.0611,0 -0.31581,-0.312316 -0.56592,-0.694033 z m -2.94335,-3.989991 c -0.56085,-0.684445 -0.88154,-1.159042 -0.71265,-1.054664 0.35987,0.222412 2.03545,2.299105 1.85503,2.299105 -0.0675,0 -0.58153,-0.559998 -1.14238,-1.244441 z m -3.16166,-3.960217 c -0.40747,-0.534228 -0.60574,-0.887815 -0.44059,-0.785749 0.33872,0.209344 1.48416,1.757074 1.30036,1.757074 -0.0654,0 -0.45229,-0.437097 -0.85977,-0.971325 z M 82.95767,77.729856 c 0,-0.363802 0.06006,-0.51263 0.133453,-0.330729 0.0734,0.181901 0.0734,0.479557 0,0.661458 -0.0734,0.181901 -0.133453,0.03307 -0.133453,-0.330729 z m 0.311764,-7.672917 c 0,-1.091406 0.0467,-1.53789 0.103785,-0.992187 0.05708,0.545703 0.05708,1.438672 0,1.984375 -0.05708,0.545703 -0.103785,0.09922 -0.103785,-0.992188 z m 58.753686,-5.027083 c 0,-2.110052 0.0411,-2.973255 0.0913,-1.918229 0.0502,1.055026 0.0502,2.781432 0,3.836458 -0.0502,1.055026 -0.0913,0.191823 -0.0913,-1.918229 z m -58.55717,1.168577 c 0.0127,-0.308226 0.07539,-0.370919 0.159851,-0.159853 0.07643,0.190995 0.06703,0.419198 -0.02087,0.507119 -0.08792,0.08792 -0.150453,-0.06835 -0.138965,-0.347266 z m 1.037445,-3.386576 c 0,-0.283948 0.787236,-1.750751 0.939631,-1.750751 0.07276,0 -0.0645,0.386953 -0.305028,0.859896 -0.491127,0.965703 -0.634603,1.167112 -0.634603,0.890855 z m 2.645833,-4.306366 c 0,-0.144407 0.327422,-0.551204 0.727604,-0.903994 l 0.727604,-0.641432 -0.661458,0.79375 c -0.363802,0.436562 -0.691224,0.843359 -0.727604,0.903994 -0.03638,0.06063 -0.06615,-0.0079 -0.06615,-0.152318 z m 2.248958,-2.206885 c 0.26339,-0.291041 0.538422,-0.529166 0.611183,-0.529166 0.07276,0 -0.08321,0.238125 -0.346599,0.529166 -0.26339,0.291042 -0.538422,0.529167 -0.611182,0.529167 -0.07276,0 0.08321,-0.238125 0.346598,-0.529167 z m 50.844094,0.08819 c -0.097,-0.09701 -0.17639,-0.299418 -0.17639,-0.449792 0,-0.165788 0.12324,-0.150167 0.31309,0.03969 0.1722,0.172201 0.25158,0.374607 0.17639,0.449791 -0.0752,0.07519 -0.21607,0.05733 -0.31309,-0.03969 z m -1.08118,-1.617861 -0.50792,-0.719291 0.70636,0.641432 c 0.74226,0.674039 0.83374,0.819113 0.50792,0.805463 -0.10914,-0.0046 -0.427,-0.331996 -0.70636,-0.727604 z m -1.46298,-1.496798 c -0.17374,-0.209346 -1.02103,-0.706168 -1.88286,-1.104048 -0.86183,-0.397878 -1.51927,-0.771116 -1.46096,-0.829416 0.19093,-0.190931 2.97156,1.242298 3.46234,1.784607 0.26355,0.291219 0.41578,0.529489 0.33828,0.529489 -0.0775,0 -0.28305,-0.171283 -0.4568,-0.380632 z M 97.732561,52.504849 c 0,-0.06889 0.535781,-0.307808 1.190625,-0.530936 1.196464,-0.407676 1.708474,-0.353852 0.595313,0.06258 -1.119945,0.418968 -1.785938,0.593622 -1.785938,0.468356 z m 34.687819,-2.433157 c -0.45163,-0.514387 -0.82115,-1.014449 -0.82115,-1.11125 0,-0.0968 0.0902,-0.06289 0.20048,0.07535 0.11027,0.138245 0.54927,0.638307 0.97555,1.11125 0.42628,0.472943 0.70558,0.859896 0.62067,0.859896 -0.0849,0 -0.52391,-0.420862 -0.97555,-0.935248 z m -29.39615,-0.22298 c 0,-0.05494 0.20836,-0.263302 0.46302,-0.463021 0.41964,-0.329108 0.429,-0.319749 0.0999,0.09989 -0.34564,0.440729 -0.56291,0.580887 -0.56291,0.363126 z m 2.38125,-3.439583 c 0,-0.05494 0.20836,-0.263302 0.46302,-0.463021 0.41964,-0.329108 0.429,-0.319749 0.0999,0.09989 -0.34564,0.440729 -0.56291,0.580887 -0.56291,0.363126 z m 24.19849,-1.505209 c -0.0959,-0.155202 -0.11765,-0.338931 -0.0483,-0.408286 0.0694,-0.06935 0.1966,0.05763 0.28278,0.282187 0.1789,0.466224 0.0264,0.548232 -0.23448,0.126099 z m -0.6627,-1.327974 c -0.16244,-0.303505 -0.2455,-0.601664 -0.18458,-0.662576 0.0609,-0.06091 0.2466,0.18741 0.41264,0.551827 0.36461,0.800242 0.18708,0.886453 -0.22806,0.110749 z m -19.56704,-2.723067 c 0,-0.05494 0.20836,-0.263302 0.46302,-0.463021 0.41964,-0.329108 0.429,-0.319749 0.0999,0.0999 -0.34564,0.440729 -0.56291,0.580887 -0.56291,0.363126 z m 0.79375,-1.058334 c 0,-0.05494 0.20836,-0.263301 0.46302,-0.46302 0.41964,-0.329108 0.429,-0.31975 0.0999,0.09989 -0.34564,0.44073 -0.56291,0.580888 -0.56291,0.363126 z m 15.27471,-3.318479 c -0.11508,-0.440094 -0.0807,-0.543395 0.11569,-0.347057 0.15375,0.15375 0.22749,0.435721 0.16386,0.626603 -0.0661,0.198158 -0.18599,0.07822 -0.27955,-0.279546 z m -0.80322,-1.744323 c -0.24201,-0.507496 -0.38547,-0.922719 -0.3188,-0.922719 0.18105,0 0.98423,1.62002 0.86319,1.741057 -0.0574,0.05741 -0.30238,-0.310843 -0.54439,-0.818338 z m -9.84128,-0.658136 c 0.26339,-0.291042 0.53842,-0.529167 0.61118,-0.529167 0.0728,0 -0.0832,0.238125 -0.3466,0.529167 -0.26339,0.291042 -0.53842,0.529167 -0.61118,0.529167 -0.0728,0 0.0832,-0.238125 0.3466,-0.529167 z m 2.11666,-2.38125 c 0.71667,-0.727604 1.36256,-1.322916 1.43532,-1.322916 0.0728,0 -0.45407,0.595312 -1.17073,1.322916 -0.71667,0.727604 -1.36256,1.322917 -1.43532,1.322917 -0.0728,0 0.45407,-0.595313 1.17073,-1.322917 z m 3.96875,-1.5875 c -0.34891,-0.149934 -0.39398,-0.232345 -0.13229,-0.241935 0.21828,-0.008 0.57547,0.100871 0.79375,0.241935 0.48365,0.312558 0.0659,0.312558 -0.66146,0 z"
         id="path34262" />
      <path
         style="fill:#000000;fill-opacity:1;stroke-width:0.264583"
         d="m 52.204394,131.21283 -0.607626,-0.49203 0.720855,-4.86578 c 1.224172,-8.26319 1.755752,-9.97441 3.9726,-12.78827 1.643781,-2.08646 9.741681,-9.09892 11.676714,-10.11157 5.929954,-3.103285 9.689076,-7.580889 11.848261,-14.112825 3.284331,-9.935723 3.290237,-9.963559 3.505861,-16.526488 0.10862,-3.305953 0.333542,-6.138113 0.556832,-7.011458 0.679706,-2.658486 2.298324,-5.646229 3.973517,-7.334565 1.748703,-1.762418 3.112887,-2.795061 3.362582,-2.545365 0.09271,0.09272 0.168571,0.04433 0.168571,-0.107527 0,-0.336574 1.616941,-1.042286 5.291667,-2.309545 1.527969,-0.526931 3.153307,-1.133068 3.611862,-1.34697 0.45855,-0.213903 0.95543,-0.388914 1.10418,-0.388914 0.61489,0 1.99866,-1.526532 3.91214,-4.315741 2.26268,-3.298217 6.95021,-9.6944 7.40489,-10.10405 0.16152,-0.145521 0.48101,-0.546573 0.70997,-0.891228 0.99783,-1.502029 4.86755,-5.428418 5.68787,-5.77117 0.72058,-0.301076 1.08917,-0.31389 1.8673,-0.06492 1.44584,0.462617 1.90976,1.016162 3.35571,4.003984 0.72488,1.497833 1.41742,2.796176 1.53899,2.885206 0.12157,0.08903 0.20208,0.208093 0.17891,0.264583 -0.12717,0.310102 6.11516,12.630712 6.64326,13.111935 0.34634,0.315595 1.53369,1.007314 2.63856,1.537154 2.87379,1.378125 4.0946,2.603323 5.56198,5.581983 l 0.89583,1.818452 0.1323,8.605758 c 0.1029,6.694085 0.21463,8.752697 0.50297,9.267219 0.20388,0.363802 1.69415,2.328333 3.31173,4.365625 3.67196,4.624737 5.01237,6.695636 6.02987,9.316024 1.45198,3.739314 1.5304,4.931301 1.5315,23.278873 0.001,16.45313 -0.007,16.72584 -0.53127,17.09271 -0.40737,0.28533 -1.76772,0.38586 -5.79682,0.42837 -2.8955,0.0306 -5.69634,-0.0255 -6.22409,-0.12446 -1.3747,-0.2579 -1.0346,0.81631 -5.06337,-15.99256 -0.78477,-3.27422 -1.53756,-6.31031 -1.67286,-6.74687 -0.13531,-0.43657 -0.61956,-2.30303 -1.07612,-4.1477 -0.99631,-4.02549 -1.56484,-5.262848 -3.75759,-8.17804 -3.68794,-4.902981 -6.2233,-6.807409 -9.87583,-7.418176 -2.87337,-0.480478 -4.99025,-0.01376 -8.7979,1.939737 -7.35655,3.774231 -8.65673,5.395219 -10.11555,12.611429 -0.876941,4.33791 -1.378914,5.59392 -3.312653,8.28869 -4.702852,6.55369 -4.665215,6.44545 -4.647917,13.3666 0.01291,5.16395 -0.0067,5.36871 -0.562964,5.88698 -0.568159,0.52932 -0.849247,0.53693 -19.811716,0.53693 -18.357155,0 -19.263123,-0.0225 -19.843006,-0.49202 z"
         id="path34260" />
    </g>
    <path
       style="fill:#000000;stroke-width:0.532082"
       d="m 1.3503781,86.673265 c 0.4165802,-1.241297 14.1167139,-28.75256 14.3182709,-28.75256 0.609055,0 4.335836,8.455969 4.335836,9.837885 0,0.846171 -0.335031,3.722811 -0.744529,6.392534 -0.671782,4.379719 -0.671782,5.19705 0,8.364176 0.409498,1.93058 0.744529,3.736579 0.744529,4.013343 0,0.276788 -4.224252,0.503223 -9.387228,0.503223 -5.1629751,0 -9.3330761,-0.161372 -9.2668789,-0.358601 z M 31.2921,86.690915 c -0.09402,-0.187529 0.964572,-1.711061 2.352523,-3.385613 l 2.523563,-3.044627 1.281894,3.193114 1.281904,3.193114 -3.634427,0.192496 c -1.998943,0.10586 -3.711395,0.03901 -3.805457,-0.148535 z m 43.232777,0.160708 C 72.880403,86.705917 72.433141,86.418628 72.235168,85.380965 72.099803,84.671707 71.336844,80.536119 70.539613,76.19074 69.742395,71.845379 69.039738,68.256518 68.978169,68.21549 68.318406,67.775955 57.627089,56.164347 57.902749,56.186717 c 0.205016,0.01671 3.730495,1.557689 7.834399,3.424542 l 7.461638,3.394261 0.141619,4.231302 c 0.134955,4.034187 0.276313,4.492516 3.033203,9.838484 3.050525,5.915387 3.18296,6.836736 1.269818,8.834817 -0.774636,0.809044 -1.645708,1.072027 -3.118549,0.941495 z m 17.087325,0.04598 c -1.584742,-0.202518 -1.805229,-0.421184 -1.805229,-1.790215 0,-1.04075 -0.673901,-2.398371 -2.025825,-4.081228 -2.233096,-2.779732 -2.203947,-2.81141 1.704136,-1.852592 2.570912,0.630768 2.753384,0.790919 3.182696,2.793503 0.85227,3.975539 1.094789,5.359084 0.921999,5.260076 -0.09484,-0.05436 -0.984889,-0.202665 -1.977777,-0.329544 z m 4.815879,-0.04799 c -1.514069,-0.153203 -1.848335,-0.436142 -2.083861,-1.76431 -1.102624,-6.217726 -1.091309,-6.20137 -5.018645,-7.259627 -5.349094,-1.441377 -5.459241,-1.418038 -7.285078,1.542792 -0.891416,1.445561 -1.729064,2.62693 -1.861459,2.625278 -0.132366,-0.0018 -1.486313,-2.480078 -3.008728,-5.507623 -2.72036,-5.409834 -2.768025,-5.580225 -2.768025,-9.896094 v -4.391476 l -9.519602,-4.244003 -9.519582,-4.243998 -1.623535,-7.06088 -1.62353,-7.060856 5.169684,-6.335273 5.169706,-6.335272 -3.293451,-7.875857 c -1.811393,-4.331701 -3.37637,-8.113558 -3.477708,-8.40411 -0.101389,-0.290541 2.655463,3.321609 6.126242,8.027004 6.135579,8.318131 6.390707,8.771808 9.203556,16.366492 1.591166,4.29617 2.813768,7.908049 2.716884,8.02641 -0.09689,0.118362 -1.604099,-0.743675 -3.34938,-1.915641 -1.745268,-1.171979 -3.374262,-1.979058 -3.619984,-1.793545 -1.005728,0.759346 -0.366388,4.399686 1.551033,8.831435 l 1.997802,4.617509 6.68555,3.034556 6.685556,3.034546 7.407394,14.018658 c 4.074073,7.710264 7.347803,14.047385 7.274945,14.082475 -0.07287,0.03518 -0.943967,-0.01835 -1.935784,-0.118527 z M 20.30714,82.95816 c -0.702685,-3.417488 -0.707894,-4.248992 -0.05447,-8.674537 0.397542,-2.692093 0.799304,-5.490798 0.89282,-6.219339 0.09962,-0.776056 -0.599887,-2.934205 -1.689033,-5.211145 -1.022472,-2.137542 -1.859046,-3.958863 -1.859046,-4.047352 0,-0.08852 1.728293,1.197919 3.840637,2.858705 l 3.840632,3.019612 0.01091,6.175101 0.01091,6.175099 2.388647,4.851847 2.38864,4.851865 h -4.497333 -4.497316 l -0.777187,-3.779827 z m 46.924386,0.934837 c -1.386452,-2.639487 -1.494378,-3.22464 -1.494378,-8.102181 v -5.257208 l -3.407336,-4.100955 c -1.87404,-2.255521 -3.945677,-5.382178 -4.603629,-6.948089 l -1.196277,-2.847132 5.75665,6.081708 5.756639,6.081699 1.063587,5.586995 c 0.584961,3.072835 1.346659,7.108702 1.692651,8.968584 l 0.629087,3.381596 h -1.35131 c -1.088658,0 -1.641779,-0.552986 -2.845684,-2.844984 z m 11.797394,2.109855 c 0.299436,-0.627297 3.384492,-5.42852 4.612638,-7.178539 0.601972,-0.857752 5.202615,4.950588 5.202615,6.568364 0,1.316783 -0.107938,1.345339 -5.08308,1.345339 -3.932659,0 -5.003658,-0.166378 -4.732173,-0.735129 z M 30.924917,81.322681 c 0.587608,-3.144154 1.0764,-4.186456 3.252198,-6.934882 2.223543,-2.808725 2.667483,-3.776556 3.372048,-7.351299 l 0.811384,-4.116742 5.128079,-2.469294 c 2.820443,-1.358111 5.174836,-2.412165 5.231969,-2.342362 0.05718,0.06985 -1.665095,1.463652 -3.827177,3.09743 l -3.931081,2.970514 -2.074676,6.852061 c -1.921466,6.346127 -2.28945,7.103089 -4.983644,10.251793 -1.599947,1.869851 -3.080365,3.476985 -3.289816,3.571412 -0.209452,0.09436 -0.0696,-1.493442 0.310716,-3.528631 z m -3.097739,-1.342789 c -1.51173,-3.016991 -1.564569,-3.337717 -1.565398,-9.50313 l -5.68e-4,-6.380753 -2.249209,-1.764327 c -1.237068,-0.97037 -2.47516,-1.94775 -2.751326,-2.171971 -0.312272,-0.253526 1.481451,-5.29837 4.744209,-13.343083 l 5.246309,-12.935404 9.339574,-5.163955 c 5.136746,-2.840185 9.509791,-5.569139 9.717862,-6.064358 0.20806,-0.495218 0.995805,-4.023413 1.750534,-7.840412 l 1.372218,-6.9400154 3.720698,8.9983774 c 2.046391,4.949101 3.731069,9.26302 3.743735,9.586478 0.01227,0.323464 -2.137563,3.234578 -4.778259,6.46914 -2.640696,3.234572 -4.805942,6.265954 -4.811633,6.7364 -0.0057,0.470446 0.658866,3.741679 1.476799,7.269395 0.81795,3.527729 1.305351,6.627984 1.083143,6.889485 -0.222208,0.261495 -4.012738,2.234603 -8.423388,4.384683 l -8.01936,3.909235 -0.823924,4.224738 c -0.728183,3.733897 -1.129018,4.607726 -3.450087,7.52116 -2.059217,2.584769 -2.748254,3.938076 -3.191637,6.268569 l -0.56544,2.972127 z M 89.264933,67.260467 84.270907,57.780689 77.634708,54.753816 70.998514,51.726938 69.304277,47.992544 c -1.08296,-2.387075 -1.641296,-4.335658 -1.547535,-5.400914 l 0.146691,-1.666519 8.424436,5.585241 c 4.633445,3.071908 8.662927,5.903534 8.954417,6.292527 0.291501,0.388974 2.436896,5.735545 4.767558,11.881224 2.330659,6.145695 4.325388,11.372463 4.432739,11.61507 0.107399,0.24259 0.100978,0.441076 -0.01422,0.441076 -0.115177,0 -2.456713,-4.26589 -5.20341,-9.479782 z"
       id="path34554" />
  </g>
</svg>
