<?xml version="1.0" encoding="UTF-8" standalone="no"?>
<!-- Created with Inkscape (http://www.inkscape.org/) -->

<svg
   width="60mm"
   height="70mm"
   viewBox="0 0 60 70"
   version="1.1"
   id="svg5"
   inkscape:version="1.1.2 (b8e25be833, 2022-02-05)"
   sodipodi:docname="dinamitafondo.svg"
   xmlns:inkscape="http://www.inkscape.org/namespaces/inkscape"
   xmlns:sodipodi="http://sodipodi.sourceforge.net/DTD/sodipodi-0.dtd"
   xmlns="http://www.w3.org/2000/svg"
   xmlns:svg="http://www.w3.org/2000/svg">
  <sodipodi:namedview
     id="namedview7"
     pagecolor="#ffffff"
     bordercolor="#666666"
     borderopacity="1.0"
     inkscape:pageshadow="2"
     inkscape:pageopacity="0.0"
     inkscape:pagecheckerboard="false"
     inkscape:document-units="mm"
     showgrid="false"
     inkscape:zoom="2.0938812"
     inkscape:cx="224.22476"
     inkscape:cy="138.97637"
     inkscape:window-width="1920"
     inkscape:window-height="1017"
     inkscape:window-x="-8"
     inkscape:window-y="-8"
     inkscape:window-maximized="1"
     inkscape:current-layer="g3254"
     borderlayer="false" />
  <defs
     id="defs2" />
  <g
     inkscape:label="Capa 1"
     inkscape:groupmode="layer"
     id="layer1">
    <g
       id="g3254"
       transform="matrix(0.73601287,0,0,0.8126142,-78.439063,-6.1324164)">
      <rect
         style="fill:#999999;stroke-width:0.342119"
         id="rect1084"
         width="79.488815"
         height="82.880669"
         x="107.77472"
         y="8.6350183" />
      <path
         id="path2601"
         style="fill:#000000;stroke-width:0.264583"
         d="m 170.27561,10.506167 c -0.11948,-0.0026 -0.23266,0.0081 -0.33702,0.03434 -1.32199,0.331798 -1.85015,1.203901 -2.35629,3.891244 -0.51696,2.74473 -0.4264,3.633608 0.45287,4.45277 0.38997,0.363311 0.93621,0.536723 1.69279,0.536723 1.6842,0 2.31452,-0.900765 2.89762,-4.139257 0.40354,-2.241181 0.41512,-2.659314 0.0899,-3.238782 -0.46623,-0.830669 -1.60347,-1.518484 -2.43984,-1.537039 z m -10.58787,2.389183 c -1.31642,-0.01435 -2.55358,1.014836 -2.55358,2.360565 0,1.309154 2.62823,5.281357 3.81107,5.759602 0.77151,0.311936 0.85182,0.306431 1.8957,-0.129729 1.14884,-0.480014 1.83625,-1.870428 1.44004,-2.912551 -0.56182,-1.477699 -2.88319,-4.560786 -3.68329,-4.892196 -0.29797,-0.123423 -0.60615,-0.18238 -0.90994,-0.185691 z m 20.14784,3.662946 c -0.20408,-0.0085 -0.41667,0.01269 -0.63471,0.06741 -1.15888,0.29086 -4.56505,2.7462 -5.01379,3.61398 -0.67328,1.30198 0.0108,2.933257 1.46812,3.502057 0.50289,0.196275 1.19157,0.08401 2.06491,-0.325595 0.0332,-0.01382 0.0667,-0.02747 0.10041,-0.04006 0.0444,-0.02005 0.093,-0.03658 0.13129,-0.06804 0.004,-0.0032 0.007,-0.0068 0.0112,-0.01018 0.37876,-0.194044 0.78696,-0.435598 1.23221,-0.735769 0.89055,-0.600382 1.88054,-1.32948 2.20042,-1.620345 1.62518,-1.477805 0.41265,-4.301515 -1.5601,-4.383454 z m -11.89871,8.813966 c -0.35382,4.88e-4 -0.73171,0.07668 -1.12198,0.239745 -1.05666,0.441501 -1.16531,0.640787 -2.13723,3.934488 -0.76426,2.589984 -2.28521,5.708814 -3.58359,7.348151 l -0.85727,1.08235 -3.49161,-3.456906 c -3.03,-3.000321 -3.60448,-3.457542 -4.34679,-3.457542 -0.47044,0 -1.11515,0.131258 -1.43301,0.291891 -0.84913,0.429124 -38.24436,37.806309 -38.71873,38.700049 -0.85411,1.609228 -0.68431,1.827931 8.5735,11.051162 4.7659,4.748097 8.90313,8.762091 9.19417,8.920164 0.71297,0.387231 1.08736,0.372465 1.93152,-0.07631 0.18797,-0.09994 2.41944,-2.254271 5.76294,-5.540843 0.0921,0.04041 0.0843,0.01315 0.0288,-0.02797 3.64343,-3.58171 8.61873,-8.519685 14.10475,-14.010771 l 19.18243,-19.20058 v -1.186007 c 0,-1.169613 -0.05,-1.236158 -3.55128,-4.744662 l -3.55129,-3.558652 1.08476,-1.406038 c 2.16519,-2.807126 4.6781,-8.361602 5.21179,-11.520477 0.33138,-1.961426 -0.74867,-3.383394 -2.28187,-3.38123 z m -52.21194,31.141406 a 0.00841553,0.00841553 0 0 1 -7.2e-4,6.51e-4 0.00841553,0.00841553 0 0 1 -7.2e-4,0 0.00841553,0.00841553 0 0 1 -7.2e-4,0 0.00841553,0.00841553 0 0 1 -7.2e-4,6.51e-4 0.00841553,0.00841553 0 0 1 -7.2e-4,6.52e-4 0.00841553,0.00841553 0 0 1 -7.2e-4,0 0.00841553,0.00841553 0 0 1 0,6.51e-4 0.00841553,0.00841553 0 0 1 -7.2e-4,6.51e-4 0.00841553,0.00841553 0 0 1 0,6.51e-4 0.00841553,0.00841553 0 0 1 -7.2e-4,6.51e-4 0.00841553,0.00841553 0 0 1 0,6.52e-4 0.00841553,0.00841553 0 0 1 -7.1e-4,6.51e-4 0.00841553,0.00841553 0 0 1 0,6.51e-4 0.00841553,0.00841553 0 0 1 0,6.51e-4 0.00841553,0.00841553 0 0 1 0,6.51e-4 0.00841553,0.00841553 0 0 1 0,6.51e-4 0.00841553,0.00841553 0 0 1 0,6.52e-4 0.00841553,0.00841553 0 0 1 0,6.51e-4 0.00841553,0.00841553 0 0 1 0,6.51e-4 0.00841553,0.00841553 0 0 1 0,6.51e-4 0.00841553,0.00841553 0 0 1 7.1e-4,6.51e-4 0.00841553,0.00841553 0 0 1 0,6.52e-4 0.00841553,0.00841553 0 0 1 7.2e-4,6.51e-4 0.00841553,0.00841553 0 0 1 0,6.51e-4 0.00841553,0.00841553 0 0 1 7.2e-4,6.51e-4 0.00841553,0.00841553 0 0 1 0,6.51e-4 0.00841553,0.00841553 0 0 1 7.2e-4,0 0.00841553,0.00841553 0 0 1 7.2e-4,6.52e-4 0.00841553,0.00841553 0 0 1 7.2e-4,6.51e-4 0.00841553,0.00841553 0 0 1 7.2e-4,0 0.00841553,0.00841553 0 0 1 7.2e-4,6.51e-4 0.00841553,0.00841553 0 0 1 7.2e-4,0 0.00841553,0.00841553 0 0 1 7.2e-4,0 0.00841553,0.00841553 0 0 1 7.1e-4,0 0.00841553,0.00841553 0 0 1 7.2e-4,0 0.00841553,0.00841553 0 0 1 7.2e-4,0 0.00841553,0.00841553 0 0 1 7.2e-4,0 0.00841553,0.00841553 0 0 1 7.2e-4,0 0.00841553,0.00841553 0 0 1 7.2e-4,0 0.00841553,0.00841553 0 0 1 0,-6.51e-4 0.00841553,0.00841553 0 0 1 7.2e-4,0 0.00841553,0.00841553 0 0 1 7.2e-4,-6.51e-4 0.00841553,0.00841553 0 0 1 7.2e-4,-6.52e-4 0.00841553,0.00841553 0 0 1 7.1e-4,0 0.00841553,0.00841553 0 0 1 0,-6.51e-4 0.00841553,0.00841553 0 0 1 7.2e-4,-6.51e-4 0.00841553,0.00841553 0 0 1 7.2e-4,-6.51e-4 0.00841553,0.00841553 0 0 1 0,-6.51e-4 0.00841553,0.00841553 0 0 1 7.2e-4,-6.52e-4 0.00841553,0.00841553 0 0 1 0,-6.51e-4 0.00841553,0.00841553 0 0 1 0,-6.51e-4 0.00841553,0.00841553 0 0 1 0,-6.51e-4 0.00841553,0.00841553 0 0 1 7.2e-4,-6.51e-4 0.00841553,0.00841553 0 0 1 0,-6.52e-4 0.00841553,0.00841553 0 0 1 0,-6.51e-4 0.00841553,0.00841553 0 0 1 -7.2e-4,-6.51e-4 0.00841553,0.00841553 0 0 1 0,-6.51e-4 0.00841553,0.00841553 0 0 1 0,-6.51e-4 0.00841553,0.00841553 0 0 1 0,-6.51e-4 0.00841553,0.00841553 0 0 1 -7.2e-4,-6.52e-4 0.00841553,0.00841553 0 0 1 0,-6.51e-4 0.00841553,0.00841553 0 0 1 -7.2e-4,-6.51e-4 0.00841553,0.00841553 0 0 1 0,-6.51e-4 0.00841553,0.00841553 0 0 1 -7.2e-4,0 0.00841553,0.00841553 0 0 1 0,-6.51e-4 0.00841553,0.00841553 0 0 1 -7.1e-4,0 0.00841553,0.00841553 0 0 1 0,-6.52e-4 0.00841553,0.00841553 0 0 1 -7.2e-4,0 0.00841553,0.00841553 0 0 1 -7.2e-4,-6.51e-4 0.00841553,0.00841553 0 0 1 -7.2e-4,0 0.00841553,0.00841553 0 0 1 -7.2e-4,-6.51e-4 0.00841553,0.00841553 0 0 1 -7.2e-4,0 0.00841553,0.00841553 0 0 1 -7.2e-4,0 0.00841553,0.00841553 0 0 1 -7.2e-4,0 0.00841553,0.00841553 0 0 1 -7.2e-4,0 0.00841553,0.00841553 0 0 1 -7.1e-4,0 0.00841553,0.00841553 0 0 1 -7.2e-4,0 z" />
    </g>
  </g>
</svg>
