<?xml version="1.0" encoding="UTF-8" standalone="no"?>
<!-- Created with Inkscape (http://www.inkscape.org/) -->

<svg
   width="105mm"
   height="165mm"
   viewBox="0 0 105 165"
   version="1.1"
   id="svg5"
   inkscape:version="1.1.2 (b8e25be833, 2022-02-05)"
   sodipodi:docname="fondo1.svg"
   xmlns:inkscape="http://www.inkscape.org/namespaces/inkscape"
   xmlns:sodipodi="http://sodipodi.sourceforge.net/DTD/sodipodi-0.dtd"
   xmlns="http://www.w3.org/2000/svg"
   xmlns:svg="http://www.w3.org/2000/svg">
  <sodipodi:namedview
     id="namedview7"
     pagecolor="#ffffff"
     bordercolor="#666666"
     borderopacity="1.0"
     inkscape:pageshadow="2"
     inkscape:pageopacity="0.0"
     inkscape:pagecheckerboard="false"
     inkscape:document-units="mm"
     showgrid="false"
     inkscape:zoom="0.70710678"
     inkscape:cx="413.65747"
     inkscape:cy="431.33514"
     inkscape:window-width="1920"
     inkscape:window-height="1017"
     inkscape:window-x="-8"
     inkscape:window-y="-8"
     inkscape:window-maximized="1"
     inkscape:current-layer="g3254"
     borderlayer="false" />
  <defs
     id="defs2">
    <inkscape:path-effect
       effect="powerclip"
       id="path-effect275802"
       is_visible="true"
       lpeversion="1"
       inverse="true"
       flatten="false"
       hide_clip="false"
       message="Utilice la regla de relleno parimpar en el diálogo &lt;b&gt;Relleno y borde&lt;/b&gt; si el resultado no está aplanada después de convertir el recorte en trayectos." />
    <clipPath
       clipPathUnits="userSpaceOnUse"
       id="clipPath275798">
      <path
         id="lpe_path-effect275802"
         style="fill:#030303;stroke:none;stroke-width:0.239186"
         class="powerclip"
         d="M -1.8190427,-46.685387 H 131.64501 V 141.78788 H -1.8190427 Z M 40.768714,30.795931 c -2.161163,-0.593893 -4.1209,0.408045 -5.90145,1.017266 -4.156032,1.422024 -8.2792,2.903029 -12.405412,4.37167 -4.4129,1.570675 -8.860227,3.088105 -13.2732778,4.658879 -1.8914322,0.673338 -4.5654818,1.142462 -5.591019,2.724481 -0.9620923,1.484222 -0.1064606,3.487499 0.3334266,5.160971 1.0267811,3.906319 2.0018004,7.814576 3.0286318,11.720921 4.0110494,15.259205 7.8162694,30.531462 11.8273294,45.790661 2.005528,7.62962 3.908069,15.26571 5.91359,22.89532 0.63964,2.43414 0.799912,6.44608 4.384191,7.50136 2.439301,0.71825 4.639758,-0.44777 6.66115,-1.11977 4.705888,-1.56386 9.385308,-3.1686 14.091307,-4.73264 18.714425,-6.21946 37.304465,-12.64116 56.016379,-18.86422 5.28325,-1.75693 10.54087,-3.5526 15.82415,-5.30855 2.21029,-0.73452 4.92566,-1.31621 5.19555,-3.63275 0.28898,-2.48092 -1.15232,-5.706065 -1.76443,-8.243995 -1.34519,-5.579273 -2.62261,-11.165726 -4.0436,-16.741011 -0.65856,-2.583322 -0.68693,-6.570307 -2.75235,-8.831368 -1.41502,-1.549075 -4.36644,-2.520683 -6.32084,-3.481453 L 97.566606,58.590306 58.858366,39.56173 46.837193,33.65224 c -1.904891,-0.936418 -4.006419,-2.289681 -6.068461,-2.856313 m 26.639276,20.583275 -23.561564,-11.582613 4.163239,18.227563 7.381455,-2.320235 12.01687,-4.324715 M 107.79924,71.235101 84.237716,59.652486 c 0.44935,4.41486 2.0643,9.020897 3.12898,13.435936 0.23045,0.956169 0.33646,3.923475 1.51407,4.50237 1.17757,0.578892 3.94176,-0.977476 4.94078,-1.329194 4.60931,-1.622574 9.708624,-2.935729 13.977634,-5.026487 m -32.495294,-14.30872 -0.48084,-0.236379 -14.707471,5.143643 -6.628901,2.690176 26.446622,13.000895 -1.20459,-6.541037 -3.42482,-14.057288 m -39.552692,-17.064154 -0.48085,-0.236382 -12.854441,4.626838 -5.473659,2.30625 22.599828,11.109863 -0.91724,-5.447974 -2.873638,-12.358595 m 76.935586,37.820799 c -4.41226,0.3306 -9.06137,2.924758 -12.986594,4.323909 -1.93717,0.690552 -4.30856,1.17241 -5.82236,2.372801 l 22.840324,11.228026 c 0.17561,-5.593417 -2.85085,-12.24233 -4.03132,-17.924752 M 39.544854,65.046792 13.338675,52.164081 c 0.235608,5.09932 2.623779,10.871336 3.967918,15.989968 2.574822,9.804539 4.999538,19.619055 7.57661,29.423737 1.444201,5.493564 3.622022,11.342304 4.243631,16.839344 l 0.240418,0.11825 c 2.0424,-4.54891 2.295572,-10.39142 3.236451,-15.303824 2.173428,-11.346864 3.827441,-23.099707 6.941151,-34.184712 m 39.669942,19.501287 -31.735942,-15.601072 -2.46445,11.638083 -5.250813,25.973398 -3.127967,15.11919 0.480858,0.23639 12.060191,-10.72822 21.460403,-18.956735 8.57772,-7.681034 M 113.35499,101.33109 87.148796,88.448343 c -8.38958,8.491446 -18.194088,16.237337 -27.34065,24.156527 -3.963371,3.4316 -9.144354,6.84023 -12.168672,10.91286 l 0.240407,0.11824 c 5.357054,-2.55967 11.888496,-4.12418 17.696016,-6.05405 10.362059,-3.44396 20.649039,-7.00955 31.009619,-10.45517 5.409154,-1.79878 11.989814,-3.16179 16.769474,-5.79566 z" />
    </clipPath>
  </defs>
  <g
     inkscape:label="Capa 1"
     inkscape:groupmode="layer"
     id="layer1">
    <g
       id="g3254"
       transform="matrix(0.73601287,0,0,0.8126142,-78.439063,-6.1324164)">
      <g
         id="g275912"
         transform="matrix(1.0599575,0,0,1.0421944,-6.4089352,-0.79989117)">
        <g
           id="g275858">
          <path
             id="rect1084"
             transform="matrix(1.0988241,0,0,1.10062,103.39603,53.924198)"
             clip-path="url(#clipPath275798)"
             d="M 3.1809573,-41.685387 H 126.64501 V 136.78788 H 3.1809573 Z"
             style="fill:#999999;stroke-width:0.625683" />
        </g>
      </g>
      <path
         style="fill:#fd7e84;fill-opacity:1;stroke-width:0.0422127"
         d=""
         id="path72165"
         transform="matrix(0.35948194,0,0,0.32559526,106.57295,7.5465287)" />
      <path
         style="fill:#fd7e84;fill-opacity:1;stroke-width:0.0422127"
         d=""
         id="path72543"
         transform="matrix(0.35948194,0,0,0.32559526,106.57295,7.5465287)" />
      <path
         style="fill:#fd7e84;fill-opacity:1;stroke-width:0.0422127"
         d=""
         id="path72582"
         transform="matrix(0.35948194,0,0,0.32559526,106.57295,7.5465287)" />
      <path
         style="fill:#fd7e84;fill-opacity:1;stroke-width:0.0422127"
         d=""
         id="path72621"
         transform="matrix(0.35948194,0,0,0.32559526,106.57295,7.5465287)" />
      <path
         style="fill:#000000;fill-opacity:0.993521;stroke-width:0.0596978"
         d=""
         id="path204894"
         transform="matrix(0.35948194,0,0,0.32559526,106.57295,7.5465287)" />
      <path
         style="fill:#000000;fill-opacity:0.993521;stroke-width:0.0596978"
         d=""
         id="path204933"
         transform="matrix(0.35948194,0,0,0.32559526,106.57295,7.5465287)" />
      <path
         style="fill:#000000;fill-opacity:0.993521;stroke-width:0.0596978"
         d=""
         id="path204935"
         transform="matrix(0.35948194,0,0,0.32559526,106.57295,7.5465287)" />
      <path
         style="fill:#000000;fill-opacity:0.993521;stroke-width:0.0596978"
         d=""
         id="path204937"
         transform="matrix(0.35948194,0,0,0.32559526,106.57295,7.5465287)" />
      <path
         style="fill:#000000;fill-opacity:0.993521;stroke-width:0.0596978"
         d=""
         id="path204939"
         transform="matrix(0.35948194,0,0,0.32559526,106.57295,7.5465287)" />
      <path
         style="fill:#000000;fill-opacity:0.993521;stroke-width:0.0596978"
         d=""
         id="path204941"
         transform="matrix(0.35948194,0,0,0.32559526,106.57295,7.5465287)" />
      <path
         style="fill:#000000;fill-opacity:0.993521;stroke-width:0.0596978"
         d=""
         id="path204943"
         transform="matrix(0.35948194,0,0,0.32559526,106.57295,7.5465287)" />
      <path
         style="fill:#000000;fill-opacity:0.993521;stroke-width:0.0596978"
         d=""
         id="path204945"
         transform="matrix(0.35948194,0,0,0.32559526,106.57295,7.5465287)" />
      <path
         style="fill:#000000;fill-opacity:0.993521;stroke-width:0.0596978"
         d=""
         id="path204947"
         transform="matrix(0.35948194,0,0,0.32559526,106.57295,7.5465287)" />
      <path
         style="fill:#000000;fill-opacity:0.993521;stroke-width:0.0596978"
         d=""
         id="path204990"
         transform="matrix(0.35948194,0,0,0.32559526,106.57295,7.5465287)" />
      <path
         style="fill:#000000;fill-opacity:0.993521;stroke-width:0.0596978"
         d=""
         id="path205029"
         transform="matrix(0.35948194,0,0,0.32559526,106.57295,7.5465287)" />
      <path
         style="fill:#000000;fill-opacity:0.993521;stroke-width:0.0596978"
         d=""
         id="path205068"
         transform="matrix(0.35948194,0,0,0.32559526,106.57295,7.5465287)" />
      <path
         style="fill:#000000;fill-opacity:0.993521;stroke-width:0.337701"
         d=""
         id="path207194"
         transform="matrix(0.35948194,0,0,0.32559526,106.57295,7.5465287)" />
      <path
         style="fill:#000000;fill-opacity:0.993521;stroke-width:0.337701"
         d=""
         id="path207233"
         transform="matrix(0.35948194,0,0,0.32559526,106.57295,7.5465287)" />
      <path
         style="fill:#000000;fill-opacity:1;stroke-width:0.477582"
         d=""
         id="path232869"
         transform="matrix(0.35948194,0,0,0.32559526,106.57295,7.5465287)" />
      <path
         style="fill:#000000;fill-opacity:1;stroke-width:0.0883883"
         d=""
         id="path237305"
         transform="matrix(0.35948194,0,0,0.32559526,106.57295,7.5465287)" />
      <path
         style="fill:#000000;fill-opacity:1;stroke-width:0.0883883"
         d=""
         id="path237344"
         transform="matrix(0.35948194,0,0,0.32559526,106.57295,7.5465287)" />
      <path
         style="fill:#000000;fill-opacity:1;stroke-width:0.0883883"
         d=""
         id="path237383"
         transform="matrix(0.35948194,0,0,0.32559526,106.57295,7.5465287)" />
      <path
         style="fill:#000000;fill-opacity:1;stroke-width:0.0883883"
         d=""
         id="path237422"
         transform="matrix(0.35948194,0,0,0.32559526,106.57295,7.5465287)" />
      <path
         style="fill:#000000;fill-opacity:1;stroke-width:0.0441942"
         d=""
         id="path237498"
         transform="matrix(0.35948194,0,0,0.32559526,106.57295,7.5465287)" />
      <path
         style="fill:#000000;fill-opacity:1;stroke-width:0.0441942"
         d=""
         id="path237537"
         transform="matrix(0.35948194,0,0,0.32559526,106.57295,7.5465287)" />
      <path
         style="fill:#000000;fill-opacity:1;stroke-width:0.03125"
         d=""
         id="path237576"
         transform="matrix(0.35948194,0,0,0.32559526,106.57295,7.5465287)" />
      <path
         style="fill:#000000;fill-opacity:1;stroke-width:0.03125"
         d=""
         id="path238782"
         transform="matrix(0.35948194,0,0,0.32559526,106.57295,7.5465287)" />
      <path
         style="fill:#000000;fill-opacity:1;stroke-width:0.03125"
         d=""
         id="path238821"
         transform="matrix(0.35948194,0,0,0.32559526,106.57295,7.5465287)" />
      <path
         style="fill:#000000;fill-opacity:1;stroke-width:0.03125"
         d=""
         id="path238860"
         transform="matrix(0.35948194,0,0,0.32559526,106.57295,7.5465287)" />
      <path
         style="fill:#000000;fill-opacity:1;stroke-width:0.03125"
         d=""
         id="path242003"
         transform="matrix(0.35948194,0,0,0.32559526,106.57295,7.5465287)" />
      <path
         style="fill:#000000;fill-opacity:1;stroke-width:0.03125"
         d=""
         id="path242042"
         transform="matrix(0.35948194,0,0,0.32559526,106.57295,7.5465287)" />
      <path
         style="fill:#000000;fill-opacity:1;stroke-width:0.03125"
         d=""
         id="path242044"
         transform="matrix(0.35948194,0,0,0.32559526,106.57295,7.5465287)" />
      <path
         style="fill:#000000;fill-opacity:1;stroke-width:0.03125"
         d=""
         id="path242046"
         transform="matrix(0.35948194,0,0,0.32559526,106.57295,7.5465287)" />
      <path
         style="fill:#000000;fill-opacity:1;stroke-width:0.03125"
         d=""
         id="path242048"
         transform="matrix(0.35948194,0,0,0.32559526,106.57295,7.5465287)" />
      <path
         style="fill:#000000;fill-opacity:1;stroke-width:0.03125"
         d=""
         id="path242050"
         transform="matrix(0.35948194,0,0,0.32559526,106.57295,7.5465287)" />
      <path
         style="fill:#000000;fill-opacity:1;stroke-width:0.03125"
         d=""
         id="path242089"
         transform="matrix(0.35948194,0,0,0.32559526,106.57295,7.5465287)" />
      <path
         style="fill:#000000;fill-opacity:1;stroke-width:0.03125"
         d=""
         id="path242128"
         transform="matrix(0.35948194,0,0,0.32559526,106.57295,7.5465287)" />
      <path
         style="fill:#000000;fill-opacity:1;stroke-width:0.03125"
         d=""
         id="path242167"
         transform="matrix(0.35948194,0,0,0.32559526,106.57295,7.5465287)" />
      <path
         style="fill:#000000;fill-opacity:1;stroke-width:0.03125"
         d=""
         id="path242206"
         transform="matrix(0.35948194,0,0,0.32559526,106.57295,7.5465287)" />
    </g>
  </g>
</svg>
