<?xml version="1.0" encoding="UTF-8" standalone="no"?>
<!-- Created with Inkscape (http://www.inkscape.org/) -->

<svg
   width="75mm"
   height="110mm"
   viewBox="0 0 75 110"
   version="1.1"
   id="svg5"
   inkscape:version="1.1.2 (b8e25be833, 2022-02-05)"
   sodipodi:docname="fondos.svg"
   xmlns:inkscape="http://www.inkscape.org/namespaces/inkscape"
   xmlns:sodipodi="http://sodipodi.sourceforge.net/DTD/sodipodi-0.dtd"
   xmlns="http://www.w3.org/2000/svg"
   xmlns:svg="http://www.w3.org/2000/svg">
  <sodipodi:namedview
     id="namedview7"
     pagecolor="#ffffff"
     bordercolor="#666666"
     borderopacity="1.0"
     inkscape:pageshadow="2"
     inkscape:pageopacity="0.0"
     inkscape:pagecheckerboard="false"
     inkscape:document-units="mm"
     showgrid="false"
     inkscape:zoom="1.4142136"
     inkscape:cx="88.034794"
     inkscape:cy="275.77164"
     inkscape:window-width="1920"
     inkscape:window-height="1017"
     inkscape:window-x="-8"
     inkscape:window-y="-8"
     inkscape:window-maximized="1"
     inkscape:current-layer="g3254"
     borderlayer="false" />
  <defs
     id="defs2">
    <inkscape:path-effect
       effect="powerclip"
       id="path-effect271624"
       is_visible="true"
       lpeversion="1"
       inverse="true"
       flatten="false"
       hide_clip="false"
       message="Utilice la regla de relleno parimpar en el diálogo &lt;b&gt;Relleno y borde&lt;/b&gt; si el resultado no está aplanada después de convertir el recorte en trayectos." />
    <clipPath
       clipPathUnits="userSpaceOnUse"
       id="clipPath271620">
      <path
         id="lpe_path-effect271624"
         style="fill:#030303;stroke:none;stroke-width:0.186194"
         class="powerclip"
         d="M 72.913445,-48.066772 H 206.37749 V 140.40649 H 72.913445 Z M 106.29567,53.778086 c -1.69062,-0.460056 -3.22367,0.316088 -4.61654,0.788016 -3.251149,1.10156 -6.476591,2.248808 -9.70441,3.38648 -3.452091,1.216711 -6.93111,2.392178 -10.383318,3.608967 -1.479608,0.521594 -3.571448,0.885 -4.373696,2.110498 -0.75262,1.149742 -0.08328,2.701562 0.26083,3.997906 0.803224,3.026001 1.565952,6.0535 2.369217,9.079521 3.137732,11.82043 6.114449,23.650966 9.252184,35.471386 1.568871,5.91023 3.057179,11.82546 4.626041,17.73568 0.50037,1.88559 0.625743,4.99341 3.429629,5.81087 1.908202,0.55639 3.629553,-0.34686 5.210833,-0.86742 3.68129,-1.21143 7.34187,-2.45453 11.02324,-3.6661 14.63977,-4.81786 29.18224,-9.79238 43.82004,-14.61302 4.13294,-1.36099 8.24583,-2.75199 12.37879,-4.11223 1.72905,-0.56899 3.85321,-1.01959 4.06434,-2.81408 0.22606,-1.92183 -0.90143,-4.42016 -1.38027,-6.38615 -1.0523,-4.321942 -2.05159,-8.649442 -3.16319,-12.968294 -0.51518,-2.001151 -0.53737,-5.08964 -2.15309,-6.841154 -1.10693,-1.199978 -3.41574,-1.95263 -4.94462,-2.696879 L 150.72707,75.308786 120.4467,60.568444 111.04287,55.990702 c -1.49014,-0.725388 -3.13411,-1.773684 -4.74719,-2.212619 m 20.83916,15.944674 -18.43155,-8.97238 3.25679,14.119842 5.7743,-1.797354 9.40046,-3.350108 m 31.59693,15.381224 -18.43152,-8.972386 c 0.35152,3.419938 1.61485,6.987968 2.44772,10.408046 0.18027,0.740687 0.2632,3.039289 1.18441,3.487725 0.92118,0.448435 3.08353,-0.757195 3.86504,-1.02965 3.60573,-1.256915 7.59478,-2.274139 10.93431,-3.893728 m -25.42016,-11.084142 -0.37615,-0.183108 -11.50524,3.984485 -5.18561,2.083923 20.68846,10.071043 -0.94232,-5.066963 -2.67914,-10.889374 m -30.94097,-13.218614 -0.37615,-0.183111 -10.055674,3.584143 -4.281893,1.786521 17.679217,8.606167 -0.71753,-4.220229 -2.24797,-9.573491 m 60.18456,29.297593 c -3.45159,0.256097 -7.08846,2.265641 -10.15905,3.349483 -1.51539,0.53493 -3.37046,0.908196 -4.55467,1.83807 l 17.86735,8.697706 c 0.13737,-4.332897 -2.23014,-9.483426 -3.15359,-13.885272 M 105.33828,80.310252 84.837908,70.33076 c 0.184313,3.950151 2.05251,8.421398 3.103998,12.386504 2.014207,7.595011 3.911,15.197751 5.926967,22.792876 1.129759,4.25555 2.833411,8.78623 3.319674,13.04447 l 0.18808,0.0916 c 1.597706,-3.52378 1.795759,-8.04963 2.531781,-11.85499 1.700212,-8.789763 2.994102,-17.894012 5.429872,-26.480926 m 31.03268,15.106523 -24.82614,-12.08525 -1.92787,9.015349 -4.10756,20.120094 -2.44692,11.71196 0.37616,0.18312 9.43435,-8.31053 16.78787,-14.68469 6.71011,-5.950053 m 26.70692,13.000793 -20.50037,-9.979523 c -6.56293,6.577833 -14.23273,12.578133 -21.38783,18.712673 -3.10043,2.65826 -7.15337,5.29872 -9.51921,8.45355 l 0.18807,0.0916 c 4.19067,-1.98283 9.30003,-3.19477 13.84309,-4.68973 8.10595,-2.66783 16.15317,-5.42988 24.25796,-8.09901 4.23143,-1.39341 9.3793,-2.44925 13.11829,-4.48956 z" />
    </clipPath>
  </defs>
  <g
     inkscape:label="Capa 1"
     inkscape:groupmode="layer"
     id="layer1">
    <g
       id="g3254"
       transform="matrix(0.73601287,0,0,0.8126142,-78.439063,-6.1324164)">
      <g
         id="g271894"
         transform="translate(-0.25419186,-0.46046123)">
        <path
           id="rect1084"
           transform="matrix(0.77970465,0,0,0.72522988,49.192177,41.580041)"
           clip-path="url(#clipPath271620)"
           d="M 77.913445,-43.066772 H 201.37749 V 135.40649 H 77.913445 Z"
           style="fill:#999999;stroke-width:0.625683" />
      </g>
      <path
         style="fill:#fd7e84;fill-opacity:1;stroke-width:0.0422127"
         d=""
         id="path72165"
         transform="matrix(0.35948194,0,0,0.32559526,106.57295,7.5465287)" />
      <path
         style="fill:#fd7e84;fill-opacity:1;stroke-width:0.0422127"
         d=""
         id="path72543"
         transform="matrix(0.35948194,0,0,0.32559526,106.57295,7.5465287)" />
      <path
         style="fill:#fd7e84;fill-opacity:1;stroke-width:0.0422127"
         d=""
         id="path72582"
         transform="matrix(0.35948194,0,0,0.32559526,106.57295,7.5465287)" />
      <path
         style="fill:#fd7e84;fill-opacity:1;stroke-width:0.0422127"
         d=""
         id="path72621"
         transform="matrix(0.35948194,0,0,0.32559526,106.57295,7.5465287)" />
      <path
         style="fill:#000000;fill-opacity:0.993521;stroke-width:0.0596978"
         d=""
         id="path204894"
         transform="matrix(0.35948194,0,0,0.32559526,106.57295,7.5465287)" />
      <path
         style="fill:#000000;fill-opacity:0.993521;stroke-width:0.0596978"
         d=""
         id="path204933"
         transform="matrix(0.35948194,0,0,0.32559526,106.57295,7.5465287)" />
      <path
         style="fill:#000000;fill-opacity:0.993521;stroke-width:0.0596978"
         d=""
         id="path204935"
         transform="matrix(0.35948194,0,0,0.32559526,106.57295,7.5465287)" />
      <path
         style="fill:#000000;fill-opacity:0.993521;stroke-width:0.0596978"
         d=""
         id="path204937"
         transform="matrix(0.35948194,0,0,0.32559526,106.57295,7.5465287)" />
      <path
         style="fill:#000000;fill-opacity:0.993521;stroke-width:0.0596978"
         d=""
         id="path204939"
         transform="matrix(0.35948194,0,0,0.32559526,106.57295,7.5465287)" />
      <path
         style="fill:#000000;fill-opacity:0.993521;stroke-width:0.0596978"
         d=""
         id="path204941"
         transform="matrix(0.35948194,0,0,0.32559526,106.57295,7.5465287)" />
      <path
         style="fill:#000000;fill-opacity:0.993521;stroke-width:0.0596978"
         d=""
         id="path204943"
         transform="matrix(0.35948194,0,0,0.32559526,106.57295,7.5465287)" />
      <path
         style="fill:#000000;fill-opacity:0.993521;stroke-width:0.0596978"
         d=""
         id="path204945"
         transform="matrix(0.35948194,0,0,0.32559526,106.57295,7.5465287)" />
      <path
         style="fill:#000000;fill-opacity:0.993521;stroke-width:0.0596978"
         d=""
         id="path204947"
         transform="matrix(0.35948194,0,0,0.32559526,106.57295,7.5465287)" />
      <path
         style="fill:#000000;fill-opacity:0.993521;stroke-width:0.0596978"
         d=""
         id="path204990"
         transform="matrix(0.35948194,0,0,0.32559526,106.57295,7.5465287)" />
      <path
         style="fill:#000000;fill-opacity:0.993521;stroke-width:0.0596978"
         d=""
         id="path205029"
         transform="matrix(0.35948194,0,0,0.32559526,106.57295,7.5465287)" />
      <path
         style="fill:#000000;fill-opacity:0.993521;stroke-width:0.0596978"
         d=""
         id="path205068"
         transform="matrix(0.35948194,0,0,0.32559526,106.57295,7.5465287)" />
      <path
         style="fill:#000000;fill-opacity:0.993521;stroke-width:0.337701"
         d=""
         id="path207194"
         transform="matrix(0.35948194,0,0,0.32559526,106.57295,7.5465287)" />
      <path
         style="fill:#000000;fill-opacity:0.993521;stroke-width:0.337701"
         d=""
         id="path207233"
         transform="matrix(0.35948194,0,0,0.32559526,106.57295,7.5465287)" />
      <path
         style="fill:#000000;fill-opacity:1;stroke-width:0.477582"
         d=""
         id="path232869"
         transform="matrix(0.35948194,0,0,0.32559526,106.57295,7.5465287)" />
      <path
         style="fill:#000000;fill-opacity:1;stroke-width:0.0883883"
         d=""
         id="path237305"
         transform="matrix(0.35948194,0,0,0.32559526,106.57295,7.5465287)" />
      <path
         style="fill:#000000;fill-opacity:1;stroke-width:0.0883883"
         d=""
         id="path237344"
         transform="matrix(0.35948194,0,0,0.32559526,106.57295,7.5465287)" />
      <path
         style="fill:#000000;fill-opacity:1;stroke-width:0.0883883"
         d=""
         id="path237383"
         transform="matrix(0.35948194,0,0,0.32559526,106.57295,7.5465287)" />
      <path
         style="fill:#000000;fill-opacity:1;stroke-width:0.0883883"
         d=""
         id="path237422"
         transform="matrix(0.35948194,0,0,0.32559526,106.57295,7.5465287)" />
      <path
         style="fill:#000000;fill-opacity:1;stroke-width:0.0441942"
         d=""
         id="path237498"
         transform="matrix(0.35948194,0,0,0.32559526,106.57295,7.5465287)" />
      <path
         style="fill:#000000;fill-opacity:1;stroke-width:0.0441942"
         d=""
         id="path237537"
         transform="matrix(0.35948194,0,0,0.32559526,106.57295,7.5465287)" />
      <path
         style="fill:#000000;fill-opacity:1;stroke-width:0.03125"
         d=""
         id="path237576"
         transform="matrix(0.35948194,0,0,0.32559526,106.57295,7.5465287)" />
      <path
         style="fill:#000000;fill-opacity:1;stroke-width:0.03125"
         d=""
         id="path238782"
         transform="matrix(0.35948194,0,0,0.32559526,106.57295,7.5465287)" />
      <path
         style="fill:#000000;fill-opacity:1;stroke-width:0.03125"
         d=""
         id="path238821"
         transform="matrix(0.35948194,0,0,0.32559526,106.57295,7.5465287)" />
      <path
         style="fill:#000000;fill-opacity:1;stroke-width:0.03125"
         d=""
         id="path238860"
         transform="matrix(0.35948194,0,0,0.32559526,106.57295,7.5465287)" />
      <path
         style="fill:#000000;fill-opacity:1;stroke-width:0.03125"
         d=""
         id="path242003"
         transform="matrix(0.35948194,0,0,0.32559526,106.57295,7.5465287)" />
      <path
         style="fill:#000000;fill-opacity:1;stroke-width:0.03125"
         d=""
         id="path242042"
         transform="matrix(0.35948194,0,0,0.32559526,106.57295,7.5465287)" />
      <path
         style="fill:#000000;fill-opacity:1;stroke-width:0.03125"
         d=""
         id="path242044"
         transform="matrix(0.35948194,0,0,0.32559526,106.57295,7.5465287)" />
      <path
         style="fill:#000000;fill-opacity:1;stroke-width:0.03125"
         d=""
         id="path242046"
         transform="matrix(0.35948194,0,0,0.32559526,106.57295,7.5465287)" />
      <path
         style="fill:#000000;fill-opacity:1;stroke-width:0.03125"
         d=""
         id="path242048"
         transform="matrix(0.35948194,0,0,0.32559526,106.57295,7.5465287)" />
      <path
         style="fill:#000000;fill-opacity:1;stroke-width:0.03125"
         d=""
         id="path242050"
         transform="matrix(0.35948194,0,0,0.32559526,106.57295,7.5465287)" />
      <path
         style="fill:#000000;fill-opacity:1;stroke-width:0.03125"
         d=""
         id="path242089"
         transform="matrix(0.35948194,0,0,0.32559526,106.57295,7.5465287)" />
      <path
         style="fill:#000000;fill-opacity:1;stroke-width:0.03125"
         d=""
         id="path242128"
         transform="matrix(0.35948194,0,0,0.32559526,106.57295,7.5465287)" />
      <path
         style="fill:#000000;fill-opacity:1;stroke-width:0.03125"
         d=""
         id="path242167"
         transform="matrix(0.35948194,0,0,0.32559526,106.57295,7.5465287)" />
      <path
         style="fill:#000000;fill-opacity:1;stroke-width:0.03125"
         d=""
         id="path242206"
         transform="matrix(0.35948194,0,0,0.32559526,106.57295,7.5465287)" />
    </g>
  </g>
</svg>
