<?xml version="1.0" encoding="UTF-8" standalone="no"?>
<!-- Created with Inkscape (http://www.inkscape.org/) -->

<svg
   version="1.1"
   id="svg307"
   width="23.959999"
   height="23.68"
   viewBox="0 0 23.959999 23.68"
   sodipodi:docname="joya1.svg"
   inkscape:version="1.1.2 (b8e25be833, 2022-02-05)"
   xmlns:inkscape="http://www.inkscape.org/namespaces/inkscape"
   xmlns:sodipodi="http://sodipodi.sourceforge.net/DTD/sodipodi-0.dtd"
   xmlns="http://www.w3.org/2000/svg"
   xmlns:svg="http://www.w3.org/2000/svg">
  <defs
     id="defs311" />
  <sodipodi:namedview
     id="namedview309"
     pagecolor="#ffffff"
     bordercolor="#666666"
     borderopacity="1.0"
     inkscape:pageshadow="2"
     inkscape:pageopacity="0.0"
     inkscape:pagecheckerboard="0"
     showgrid="false"
     width="30.96px"
     inkscape:zoom="13.049623"
     inkscape:cx="13.678556"
     inkscape:cy="19.540794"
     inkscape:window-width="1920"
     inkscape:window-height="1017"
     inkscape:window-x="-8"
     inkscape:window-y="-8"
     inkscape:window-maximized="1"
     inkscape:current-layer="g313" />
  <g
     inkscape:groupmode="layer"
     inkscape:label="Image"
     id="g313">
    <path
       style="fill:#000000;stroke-width:0.16162"
       d="m 0.68969852,23.390839 c -0.04502,-0.144635 0.68287898,-2.103367 1.61755898,-4.352733 l 1.699419,-4.089761 1.237608,-0.806351 c 0.680685,-0.443493 1.26394,-0.857245 1.296122,-0.919452 0.03218,-0.0622 -0.723423,-0.68949 -1.679124,-1.393966 -0.9557,-0.704476 -1.773164,-1.351728 -1.816585,-1.438338 -0.07806,-0.155704 0.589893,-4.4214075 0.738864,-4.7185515 0.04243,-0.08462 0.997849,-0.722453 2.123163,-1.417398 1.366216,-0.843716 2.150111,-1.231332 2.359295,-1.16661 0.172298,0.05331 1.019182,0.50431 1.8819645,1.002223 1.249056,0.720833 1.55429,0.968894 1.498,1.21742 -0.153503,0.677736 -0.259548,3.4524371 -0.131947,3.4524371 0.07329,0 0.292059,-0.210027 0.486152,-0.4667258 0.194092,-0.2567 0.733416,-0.874458 1.198498,-1.372797 l 0.845605,-0.9060693 0.628619,0.7605453 0.628621,0.760545 0.15607,-1.09226 c 0.08584,-0.6007433 0.266082,-2.0008123 0.400539,-3.1112633 0.134456,-1.110451 0.317881,-2.10916 0.407608,-2.219352 0.08973,-0.110192 0.7445,-0.37589904 1.455046,-0.59046054 l 1.291903,-0.3901108 1.147054,0.4709203 1.147055,0.47092004 0.608105,1.261845 0.608105,1.261846 -1.763194,4.3515073 -1.763194,4.3515062 0.538831,0.648623 c 0.751461,0.904579 4.399093,10.117216 4.096937,10.347426 -0.111376,0.08485 -0.258361,0.111725 -0.326634,0.05971 -0.06827,-0.05202 -0.841313,-1.917122 -1.717868,-4.144678 -0.876554,-2.227557 -1.630625,-4.004628 -1.675712,-3.949046 -0.150997,0.186142 -1.078475,4.168708 -1.076638,4.62305 0.001,0.246739 0.118875,1.013872 0.26195,1.704741 l 0.260139,1.256125 0.901055,0.05342 c 0.781872,0.04636 3.276602,0.02313 3.276602,0.327124 0,0.316087 -2.481416,0.42696 -3.458692,0.42696 -0.595729,0 -1.124079,-0.08165 -1.174109,-0.181443 -0.05003,-0.09979 -0.248409,-0.983017 -0.440841,-1.962719 l -0.349875,-1.781275 0.64891,-2.658027 c 0.356899,-1.461915 0.649669,-2.780749 0.650596,-2.930741 8.74e-4,-0.149992 -0.624546,-1.038252 -1.389944,-1.973911 l -1.39163,-1.701197 -1.005191,1.345848 c -0.552854,0.740217 -1.00549,1.50735 -1.005858,1.704741 -4.37e-4,0.197391 0.183787,1.368279 0.409233,2.601974 0.425294,2.327316 0.431813,2.747106 0.04122,2.654375 -0.171283,-0.04066 -0.332887,-0.652155 -0.62192,-2.35327 -0.214777,-1.264081 -0.418598,-2.332963 -0.452935,-2.375293 -0.03434,-0.04233 -0.329804,0.205169 -0.656594,0.549996 -0.672789,0.709927 -0.911795,0.782967 -0.911795,0.278647 0,-0.199121 0.358708,-0.737556 0.837463,-1.257062 0.460604,-0.499812 1.3087,-1.543825 1.884658,-2.320029 L 16.195181,9.8831439 15.171758,8.5139406 C 14.608875,7.7608828 14.095816,7.1447408 14.031625,7.1447408 c -0.06419,0 -1.057658,1.05985 -2.207707,2.3552218 -1.150049,1.2953724 -2.1467565,2.4179094 -2.2149065,2.4945264 -0.06815,0.07662 0.02514,1.144603 0.207306,2.373304 L 10.14753,16.601792 9.2973235,18.10903 c -1.110702,1.969041 -1.227583,2.129154 -1.47042,2.014278 -0.323463,-0.153016 -0.257368,-0.350412 0.639573,-1.910116 0.464334,-0.807435 0.885799,-1.552694 0.93659,-1.656129 0.0882,-0.179615 -0.39158,-3.632251 -0.528129,-3.800583 -0.03611,-0.04451 -0.936833,0.486856 -2.001609,1.180823 l -1.935957,1.261754 0.978519,0.541221 c 0.538185,0.297671 0.978519,0.627885 0.978519,0.733805 0,0.429966 -0.505892,0.376525 -1.485626,-0.156938 -0.568783,-0.309703 -1.049393,-0.541981 -1.068022,-0.516173 -0.01863,0.02581 -0.663832,1.601377 -1.433786,3.501266 -1.301039,3.210367 -1.37673,3.455155 -1.071665,3.465823 0.180537,0.0063 0.917785,0.005 1.63833,-0.0028 1.381918,-0.01509 5.298787,0.0531 5.151997,0.524669 -0.07633,0.245219 -3.924855,0.363919 -5.734255,0.363919 -1.727812,0 -2.13496198,-0.04863 -2.20168398,-0.262975 z M 7.5783975,12.56533 c 0.118175,-0.09261 -0.202168,-0.641054 -0.992326,-1.698917 l -1.166836,-1.5621614 -0.732533,0.457604 c -0.402894,0.2516824 -0.709644,0.4845044 -0.681668,0.5173804 0.114833,0.134951 3.258964,2.427609 3.326069,2.425326 0.04003,-0.0014 0.151313,-0.06402 0.247294,-0.139232 z m 1.501013,-1.069012 0.442819,-0.493478 -0.314297,-1.9187224 -0.314296,-1.9187218 -1.442351,0.89228 -1.44235,0.8922788 1.134169,1.5185074 c 0.623793,0.835179 1.215016,1.519143 1.313828,1.51992 0.09881,7.72e-4 0.378928,-0.220652 0.622478,-0.492064 z M 19.994532,8.0436818 c 0.800988,-1.9729713 1.45634,-3.6241373 1.45634,-3.6692583 0,-0.04512 -0.240224,0.02049 -0.53383,0.145796 -0.516531,0.220452 -0.570478,0.331951 -1.664645,3.4404503 -0.831285,2.3616612 -1.090012,3.2732222 -0.976774,3.4414242 0.08472,0.125845 0.178458,0.228808 0.208304,0.228808 0.02985,0 0.709618,-1.614249 1.510605,-3.5872202 z m -1.28976,-0.480084 c 0.549629,-1.5524323 0.999325,-2.8342323 0.999325,-2.8484443 0,-0.07793 -1.758171,-0.666493 -1.806984,-0.6049 -0.03209,0.04049 -0.27241,1.304998 -0.534045,2.8100153 l -0.475698,2.7363928 0.341463,0.4480734 c 0.187806,0.246441 0.371872,0.410587 0.409039,0.36477 0.03717,-0.04582 0.51727,-1.3534754 1.0669,-2.9059072 z m -7.968633,1.2756238 c 0.04868,-0.5371818 0.129472,-1.4273108 0.179531,-1.9780628 l 0.09101,-1.0013693 -0.746056,0.4660523 c -0.4103305,0.256329 -0.7460565,0.536805 -0.7460565,0.623282 0,0.210498 0.436366,2.9108781 0.5212655,3.2257712 0.05445,0.201935 0.118308,0.191564 0.339425,-0.05512 0.17243,-0.1923691 0.304838,-0.6622134 0.360876,-1.2805524 z m -6.1603215,0.183184 c 0.684017,-0.427297 0.724184,-0.490417 0.656605,-1.0318168 -0.03959,-0.317173 -0.111176,-0.956514 -0.159079,-1.420758 -0.08404,-0.8145043 -0.09936,-0.8371933 -0.437055,-0.6475143 -0.271609,0.152558 -0.386741,0.4218873 -0.514243,1.2029733 -0.09036,0.553524 -0.21712,1.3092228 -0.281698,1.6793308 -0.06458,0.370108 -0.08945,0.672924 -0.05527,0.672924 0.03418,0 0.390012,-0.204813 0.790735,-0.455139 z M 16.848662,6.2721778 c 0.456899,-2.6614873 0.460754,-2.8036793 0.0917,-3.3820633 -0.354976,-0.556319 -0.327121,-0.65624 -0.744539,2.670871 -0.278276,2.2180573 -0.299542,2.6790183 -0.134876,2.9236091 0.107518,0.159706 0.243051,0.226389 0.301183,0.148185 0.05813,-0.07821 0.277074,-1.1404748 0.486533,-2.3606018 z m -8.3937515,0.249238 c 0.01764,-0.0132 -0.357189,-0.4463913 -0.832952,-0.9626513 l -0.865024,-0.938656 -0.594176,0.373683 c -0.651,0.409419 -0.638438,0.313952 -0.347565,2.6412723 l 0.07249,0.580047 1.267575,-0.83485 c 0.697166,-0.459167 1.282007,-0.845647 1.299647,-0.858845 z m 1.49561,-0.8912813 0.6542935,-0.42171 -1.2875105,-0.733286 c -1.009086,-0.574712 -1.347319,-0.693828 -1.564073,-0.550823 -0.15211,0.100355 -0.276586,0.240185 -0.276615,0.310734 -7.7e-5,0.186865 1.502188,1.817536 1.674046,1.817135 0.08006,-1.79e-4 0.439997,-0.190109 0.799859,-0.42205 z M 20.999027,3.7196535 c 0.328575,-0.121358 0.59741,-0.316989 0.59741,-0.434736 0,-0.117748 -0.181458,-0.522577 -0.403239,-0.89962 -0.319261,-0.542764 -0.599678,-0.766478 -1.346473,-1.0742 -0.878319,-0.36191703 -0.998331,-0.37115603 -1.743839,-0.134247 -0.440333,0.139931 -0.85644,0.320804 -0.924682,0.401941 -0.06824,0.08114 0.04711,0.45822 0.256342,0.837963 0.31952,0.57991 0.560762,0.767183 1.50694,1.169814 0.619588,0.263655 1.201584,0.451104 1.293326,0.416554 0.09174,-0.03455 0.435639,-0.162112 0.764215,-0.283469 z M 8.1317085,23.294922 c -0.198228,-0.395396 0.145358,-0.53834 1.293979,-0.53834 h 1.2040135 l 1.080039,-1.162249 c 0.59402,-0.639239 1.13122,-1.16412 1.193778,-1.166402 0.06256,-0.0023 0.156073,0.131837 0.207811,0.298046 0.06774,0.217615 -0.126742,0.542192 -0.694841,1.159644 l -0.788911,0.857447 1.525562,0.05162 c 1.317579,0.04458 6.35994,0.171061 6.402062,0.442282 0.04528,0.291559 -5.01348,0.2374 -8.056242,0.2374 -2.0278385,0 -3.3115845,-0.06841 -3.3672505,-0.179446 z"
       id="path335"
       sodipodi:nodetypes="cscsssscssssssscccsssscccccccsssssssccsssscscscscssssssssccsssscsssssccsssssccsscccscscccscccccscssscsssssssscssscccsscscccscsccsccsssscsscscsccsccscssscsssssscsssssscscsscsssss" />
    <path
       style="fill:#552200;stroke-width:0.0766306"
       d="m 18.346635,22.996878 c -0.03193,-0.03061 -2.552334,-0.149646 -5.183621,-0.244822 l -1.396793,-0.05052 0.247334,-0.287439 c 1.138452,-1.323049 1.194046,-1.414284 1.09712,-1.800471 -0.09206,-0.36681 -0.313667,-0.219313 -1.426893,0.94973 l -1.086813,1.141305 -1.1221183,0.03006 c -0.6520527,0.01747 -1.1891493,0.06738 -1.2821306,0.119155 -0.1165153,0.06488 -0.3352372,0.06906 -0.8046209,0.0154 -0.3545352,-0.04054 -1.7739523,-0.09556 -3.1542604,-0.12227 -1.9953721,-0.03862 -2.5096511,-0.06918 -2.5096511,-0.149122 0,-0.183563 0.499633,-1.495085 1.5772743,-4.140301 l 1.0656704,-2.615833 0.8057784,0.404114 c 1.0171125,0.5101 1.3751194,0.623036 1.5975938,0.503971 0.3976678,-0.212825 0.08727,-0.55237 -1.0796095,-1.180986 -0.3260462,-0.175647 -0.5932953,-0.342409 -0.5938869,-0.370583 -0.00108,-0.05154 2.6281689,-1.764817 3.3208229,-2.163914 0.2043919,-0.117767 0.3996183,-0.184795 0.4338365,-0.14895 0.070942,0.07431 0.3332179,1.683231 0.4603301,2.823873 l 0.085397,0.766306 -0.8472673,1.494296 c -0.4659968,0.821863 -0.8687525,1.606746 -0.8950125,1.744185 -0.090044,0.47127 0.2875685,0.644281 0.5839169,0.267536 0.091097,-0.115811 0.5657801,-0.915302 1.054851,-1.776646 L 10.183103,16.638872 9.9383245,14.871354 C 9.803697,13.89921 9.6718296,12.873378 9.6452863,12.591719 l -0.04826,-0.512107 1.5551767,-1.748494 c 1.872577,-2.1053482 2.791191,-3.0900056 2.881019,-3.0881482 0.161528,0.00334 2.114216,2.5902732 2.044436,2.7084802 -0.173416,0.293761 -1.955776,2.58861 -2.507901,3.229007 -0.992696,1.151407 -1.279042,1.621726 -1.166275,1.915593 0.08959,0.233461 0.365147,0.105521 0.931559,-0.432515 0.317083,-0.301197 0.595379,-0.528767 0.618436,-0.505711 0.02306,0.02306 0.212813,0.962179 0.421682,2.086937 0.427594,2.302589 0.515477,2.591532 0.776939,2.554424 0.155914,-0.02213 0.176287,-0.07252 0.195854,-0.48448 0.0132,-0.277798 -0.08627,-1.081565 -0.251291,-2.03071 -0.476631,-2.741378 -0.476087,-2.734449 -0.24987,-3.180168 0.160644,-0.316522 0.86978,-1.345739 1.630849,-2.366962 l 0.155329,-0.208425 1.004611,1.249378 c 0.552536,0.687158 1.168633,1.485398 1.369105,1.773866 l 0.364493,0.524489 -0.09132,0.510024 c -0.05023,0.280514 -0.342886,1.555995 -0.650353,2.834403 l -0.55903,2.324379 0.293295,1.468834 c 0.161311,0.807859 0.311751,1.546423 0.33431,1.641253 0.03368,0.141565 0.0088,0.172419 -0.139248,0.172419 -0.09915,0 -0.194633,-0.01377 -0.212194,-0.03061 z"
       id="path1427" />
    <path
       style="fill:#a05a2c;stroke-width:0.0766306"
       d="m 22.261179,22.947036 c -0.400394,-0.03061 -1.059394,-0.05952 -1.464442,-0.06424 -0.405049,-0.0047 -0.889814,-0.0296 -1.077254,-0.05529 L 19.378682,22.7808 19.173156,21.735095 c -0.374754,-1.906727 -0.362437,-2.072849 0.370572,-4.997877 0.400964,-1.600019 0.309449,-1.59797 0.977021,-0.02188 0.320938,0.75771 0.840607,2.031007 1.154821,2.829547 0.314214,0.798541 0.761396,1.908802 0.993739,2.467247 0.232342,0.558445 0.39936,1.009777 0.37115,1.002959 -0.02821,-0.0068 -0.378885,-0.03744 -0.77928,-0.06805 z"
       id="path1466" />
    <path
       style="fill:#a05a2c;stroke-width:0.0766306"
       d="m 17.73359,22.920985 c -0.01756,-0.01643 -1.238861,-0.07198 -2.713999,-0.123456 -1.475138,-0.05147 -2.773088,-0.115619 -2.884332,-0.142548 -0.201146,-0.04869 -0.198903,-0.05313 0.406364,-0.80333 0.567529,-0.703428 0.607059,-0.77587 0.585415,-1.072828 -0.01947,-0.267079 -0.05207,-0.322549 -0.202075,-0.343794 -0.143861,-0.02037 -0.391566,0.194047 -1.265809,1.095731 l -1.086945,1.121062 -1.2246846,0.08046 c -1.856376,0.121959 -1.2178994,0.127895 -6.3014594,-0.05858 -0.9986263,-0.03663 -1.2452467,-0.06707 -1.2452467,-0.153684 0,-0.183293 2.3800315,-6.239382 2.5782631,-6.560497 0.019107,-0.03095 0.3694749,0.111704 0.7785965,0.31701 0.8827124,0.442966 1.3091822,0.581846 1.5788697,0.514159 0.141428,-0.0355 0.1985186,-0.100377 0.1985186,-0.225605 0,-0.226133 -0.2953975,-0.501902 -0.9195667,-0.858462 -0.9912774,-0.566272 -1.0495034,-0.393076 0.4675394,-1.390724 1.4312245,-0.941211 2.2772345,-1.443113 2.3350578,-1.385289 0.074436,0.07444 0.464411,2.605877 0.5052186,3.279522 0.012901,0.212968 -0.1078354,0.491809 -0.5640678,1.302719 -0.9070489,1.612193 -1.1462846,2.124694 -1.1197017,2.398676 0.018794,0.193701 0.061961,0.246813 0.2151565,0.264724 0.1054052,0.01232 0.2512802,-0.02216 0.3241667,-0.07663 0.072886,-0.05447 0.5625093,-0.848978 1.0880506,-1.765573 l 0.9555294,-1.666537 -0.2588171,-1.9351 C 9.8212822,13.668099 9.6937076,12.636797 9.6801333,12.44062 l -0.024682,-0.356684 1.7371227,-1.942233 c 0.955418,-1.0682276 1.946968,-2.1481972 2.203447,-2.3999319 l 0.466325,-0.4576995 0.24873,0.2958668 c 0.574595,0.683483 1.598184,2.0885368 1.639619,2.2506598 0.05015,0.1962098 -0.611843,1.1141108 -2.19155,3.0387628 -1.141275,1.390483 -1.383309,1.754642 -1.383309,2.0813 0,0.396249 0.268373,0.351378 0.848128,-0.141804 0.586781,-0.499161 0.669346,-0.55918 0.707838,-0.514546 0.01689,0.01958 0.208306,0.944943 0.425372,2.056357 0.217066,1.111413 0.438132,2.111442 0.491259,2.222286 0.06599,0.137695 0.156951,0.201535 0.287136,0.201535 0.18205,0 0.191558,-0.02322 0.213284,-0.52079 0.01504,-0.34453 -0.08221,-1.155935 -0.287365,-2.397446 -0.170557,-1.032162 -0.310104,-2.005271 -0.310104,-2.162466 0,-0.369759 0.186537,-0.708939 1.10819,-2.015017 0.722841,-1.024342 0.763286,-1.066878 0.889196,-0.935191 0.200602,0.209805 1.845682,2.318198 2.240654,2.871702 l 0.348383,0.488215 -0.111235,0.534678 c -0.06118,0.294073 -0.355651,1.565863 -0.654381,2.826201 l -0.543144,2.291522 0.287958,1.42506 c 0.158377,0.783783 0.304259,1.502648 0.324182,1.597479 0.03436,0.163544 0.01276,0.172419 -0.419723,0.172419 -0.250769,0 -0.470313,-0.01344 -0.487874,-0.02987 z"
       id="path1579" />
    <path
       style="fill:#a05a2c;stroke-width:0.0766306"
       d="m 18.120822,22.924153 c -0.01981,-0.01917 -0.96707,-0.07243 -2.105034,-0.11835 -3.139207,-0.12668 -3.946474,-0.174717 -3.946474,-0.234836 0,-0.03021 0.224289,-0.33961 0.498419,-0.68755 0.520207,-0.660274 0.602987,-0.83772 0.561235,-1.203062 -0.01864,-0.163137 -0.07154,-0.226563 -0.204657,-0.245411 -0.14319,-0.02028 -0.406806,0.198856 -1.30272,1.082881 l -1.123203,1.108298 -1.4176659,0.09039 c -1.053757,0.06719 -2.0176228,0.06963 -3.7548977,0.0095 -2.9859929,-0.10334 -3.4483755,-0.140518 -3.4483755,-0.277265 0,-0.193861 2.3889329,-6.279226 2.5158383,-6.408633 0.028207,-0.02876 0.4306069,0.125029 0.8942219,0.341758 0.6528434,0.305191 0.9293421,0.394749 1.226089,0.397134 0.3614735,0.0029 0.3845196,-0.0088 0.4073067,-0.206682 0.030821,-0.267655 -0.2085032,-0.496894 -1.0011936,-0.959 -0.3266377,-0.190417 -0.5938868,-0.375361 -0.5938868,-0.410987 0,-0.172368 3.350782,-2.265072 3.4568846,-2.15897 0.060689,0.06069 0.362744,1.872822 0.4848741,2.908928 0.051265,0.43491 0.1604732,0.181024 -1.1759503,2.733821 -0.375564,0.717391 -0.4703625,0.96655 -0.4519175,1.187774 0.020272,0.243132 0.051664,0.283196 0.2387094,0.304643 0.1184524,0.01358 0.2629306,-0.01478 0.3210627,-0.06302 0.091852,-0.07623 0.8070785,-1.258957 1.7601245,-2.91061 0.3302941,-0.572409 0.3340901,-0.251306 -0.036875,-3.11982 L 9.6730511,12.154372 9.8845369,11.901109 c 1.0218461,-1.223705 4.0674521,-4.5062594 4.1809791,-4.5062594 0.06792,0 1.193551,1.4444241 1.56308,2.005759 0.202438,0.3075133 0.271417,0.4815718 0.235587,0.5944618 -0.06783,0.2137226 -0.763502,1.1466916 -2.032349,2.7256036 -1.339732,1.667119 -1.455998,1.842936 -1.455998,2.20176 0,0.249373 0.02379,0.288733 0.174526,0.288733 0.193484,0 0.376638,-0.11137 0.920528,-0.559744 0.201884,-0.16643 0.387502,-0.282161 0.412483,-0.257179 0.02498,0.02498 0.21363,0.865579 0.419218,1.867995 0.205588,1.002416 0.416533,1.957346 0.468768,2.122066 0.10667,0.336385 0.276145,0.478294 0.478478,0.400651 0.122562,-0.04703 0.131856,-0.134182 0.09323,-0.874289 -0.02359,-0.452128 -0.150648,-1.494484 -0.282343,-2.316347 -0.304126,-1.897937 -0.307174,-2.119322 -0.03561,-2.586156 0.295571,-0.508103 1.380796,-2.043532 1.534518,-2.171109 0.111595,-0.09261 0.154539,-0.07299 0.352527,0.161088 0.431145,0.509742 2.09314,2.690574 2.238879,2.937808 l 0.146662,0.2488 -0.639192,2.716336 c -0.351555,1.493986 -0.63692,2.785305 -0.634142,2.869599 0.0028,0.08429 0.134696,0.800468 0.293153,1.591498 0.158457,0.791031 0.274301,1.45204 0.257432,1.46891 -0.0547,0.0547 -0.417059,0.128951 -0.454134,0.09306 z"
       id="path1692" />
    <path
       style="fill:#a05a2c;stroke-width:0.0766306"
       d=""
       id="path1805" />
    <path
       style="fill:#a05a2c;stroke-width:0.0766306"
       d="m 18.120822,22.924475 c -0.01981,-0.019 -1.001553,-0.07258 -2.181664,-0.119083 -3.299572,-0.130015 -3.882559,-0.170654 -3.845189,-0.268038 0.01807,-0.0471 0.261307,-0.388529 0.540518,-0.758727 0.497928,-0.660192 0.588623,-0.903156 0.461141,-1.235368 -0.106828,-0.27839 -0.377506,-0.09834 -1.475744,0.98162 l -1.121496,1.102834 -1.4329394,0.09133 c -1.0780598,0.06871 -2.0079914,0.07079 -3.7548978,0.0084 C 2.3215817,22.620685 1.8774489,22.5846 1.8774489,22.448508 c 0,-0.201002 2.3861786,-6.279222 2.5154013,-6.407384 0.028447,-0.02821 0.4138021,0.11592 0.8563436,0.3203 1.1450772,0.528831 1.6858724,0.591233 1.6858724,0.194534 0,-0.229342 -0.4256516,-0.613757 -1.0925619,-0.986714 -0.284174,-0.158919 -0.5166799,-0.321059 -0.5166799,-0.360311 0,-0.17732 3.3478613,-2.274585 3.4568846,-2.165562 0.037382,0.03738 0.1512607,0.618018 0.2530643,1.290302 0.3270051,2.159457 0.3411192,1.900811 -0.1553469,2.846777 -1.1847975,2.257511 -1.2632853,2.428637 -1.2400959,2.703762 0.020414,0.242193 0.047914,0.272062 0.2702538,0.293529 0.2303433,0.02224 0.2708829,-0.01234 0.583939,-0.498098 0.5766925,-0.894834 1.7356577,-2.954509 1.7356577,-3.084554 0,-0.06816 -0.101344,-0.898825 -0.225209,-1.845912 C 9.6420349,11.97411 9.6543073,12.181968 9.8394973,11.946537 10.469361,11.145794 13.949835,7.3948496 14.062974,7.3948496 c 0.134046,0 1.837868,2.3087234 1.837868,2.49036 0,0.1691554 -0.5612,0.9431994 -1.916882,2.6438884 -1.390465,1.744323 -1.608124,2.07581 -1.608124,2.449125 0,0.191318 0.03119,0.232944 0.174526,0.232944 0.193484,0 0.376638,-0.11137 0.920528,-0.559744 0.201884,-0.16643 0.387754,-0.281909 0.413044,-0.256619 0.02529,0.02529 0.233033,0.952097 0.461654,2.059572 0.22862,1.107475 0.467356,2.093292 0.530523,2.190704 0.07428,0.114552 0.174043,0.168689 0.282427,0.153262 0.161031,-0.02292 0.167136,-0.05528 0.15633,-0.828474 -0.0066,-0.472454 -0.111078,-1.43732 -0.253077,-2.337232 -0.318593,-2.019085 -0.317402,-2.150289 0.02474,-2.724652 0.359228,-0.603039 1.299417,-1.926783 1.467679,-2.066428 0.118721,-0.09853 0.155939,-0.08225 0.35795,0.156587 0.430741,0.509264 2.093074,2.690463 2.238624,2.93737 l 0.146409,0.248361 -0.649437,2.788555 -0.649435,2.788554 0.303712,1.519659 c 0.167042,0.835811 0.289882,1.533488 0.272979,1.550391 -0.05453,0.05452 -0.417016,0.129101 -0.454194,0.09344 z"
       id="path1844" />
    <path
       style="fill:#c87137;stroke-width:0.0766306"
       d="m 17.963482,22.920075 c -0.01756,-0.01693 -0.962991,-0.06886 -2.100955,-0.1154 -3.474778,-0.142116 -3.806862,-0.167504 -3.760808,-0.287518 0.02234,-0.05821 0.251129,-0.37742 0.508426,-0.709357 0.472704,-0.60983 0.632883,-1.054068 0.468078,-1.298166 -0.135291,-0.200387 -0.433026,0.0099 -1.507007,1.064299 l -1.072828,1.053282 -1.4176659,0.09278 C 8.001398,22.790635 7.086962,22.792735 5.2491938,22.728795 2.297655,22.626129 1.8774489,22.59125 1.8774489,22.448922 c 0,-0.200393 2.3882467,-6.287884 2.5137351,-6.407353 0.029364,-0.02795 0.3465008,0.0841 0.7047487,0.249011 1.179021,0.542734 1.8391335,0.653567 1.8391335,0.30879 0,-0.244005 -0.2962186,-0.532929 -0.9660237,-0.942235 -0.3559961,-0.217542 -0.6356258,-0.432748 -0.6213995,-0.478234 0.066824,-0.213657 3.3295016,-2.241119 3.4356633,-2.134957 0.084979,0.08498 0.4581417,2.445768 0.4758029,3.010138 0.012419,0.396861 -0.030587,0.503636 -0.7366282,1.828857 -0.8235344,1.545754 -0.9903843,1.990283 -0.8228175,2.192189 0.059297,0.07145 0.1881319,0.114911 0.301524,0.101721 0.2149774,-0.02501 0.5046778,-0.458548 1.6678428,-2.495946 l 0.5805747,-1.01691 -0.236371,-1.818399 C 9.8832311,13.845475 9.7544427,12.818123 9.7270389,12.562589 l -0.049825,-0.464607 1.4428391,-1.604418 c 1.616727,-1.7977795 2.856039,-3.0987144 2.951933,-3.0987144 0.138232,0 1.828856,2.3073345 1.828856,2.4959927 0,0.1646277 -0.635409,1.0423277 -1.927101,2.6619347 -1.37587,1.725154 -1.619786,2.095635 -1.584147,2.40613 0.0409,0.356341 0.28059,0.309486 0.901306,-0.176191 0.399627,-0.312686 0.57376,-0.408704 0.616319,-0.339841 0.03263,0.05279 0.169779,0.652435 0.304785,1.332545 0.444566,2.239568 0.613108,2.877177 0.784831,2.96908 0.120741,0.06462 0.182331,0.05652 0.275031,-0.03618 0.105135,-0.105135 0.108945,-0.23689 0.0318,-1.099467 -0.04821,-0.539009 -0.176929,-1.548999 -0.286052,-2.244421 -0.256224,-1.63288 -0.256791,-1.895623 -0.0051,-2.346012 0.268915,-0.481141 1.32071,-1.973413 1.514576,-2.14886 0.152928,-0.138397 0.160685,-0.135335 0.419014,0.16538 0.605384,0.704711 2.326447,3.037143 2.326447,3.152862 0,0.069 -0.27587,1.307518 -0.613044,2.752265 -0.337175,1.444748 -0.613066,2.724396 -0.613092,2.843664 -2.7e-5,0.119267 0.126274,0.849299 0.280667,1.622292 0.23651,1.18412 0.26367,1.416232 0.172467,1.473964 -0.109469,0.0693 -0.477274,0.0968 -0.536103,0.04009 z"
       id="path1883" />
    <path
       style="fill:#c87137;stroke-width:0.0766306"
       d="m 20.920679,22.860553 c -0.909626,-0.04444 -1.407953,-0.09921 -1.464444,-0.16095 -0.0994,-0.108635 -0.405239,-1.701896 -0.466616,-2.430818 -0.02307,-0.273954 -0.0021,-0.756727 0.04657,-1.072828 0.103481,-0.671902 0.739546,-3.325916 0.840198,-3.505771 0.05626,-0.10054 0.09679,-0.06797 0.22131,0.177894 0.260682,0.514693 2.724238,6.555766 2.833676,6.948671 0.0427,0.15332 0.172886,0.150484 -2.010698,0.0438 z"
       id="path2493" />
    <path
       style="fill:#ff8080;stroke-width:0.0766306"
       d="M 17.247008,10.049869 C 17.096672,9.8664048 16.97367,9.6417224 16.97367,9.5505754 c 0,-0.1660262 0.58331,-3.5538202 0.816478,-4.7420074 0.06823,-0.3477112 0.162363,-0.6322021 0.209175,-0.6322021 0.109016,0 1.435226,0.4433884 1.556301,0.5203144 0.09459,0.060097 -0.01446,0.3933021 -1.328236,4.0583619 -0.321043,0.8956197 -0.611463,1.6283998 -0.645378,1.6283998 -0.03392,0 -0.184667,-0.150108 -0.335002,-0.333573 z"
       id="path899" />
    <path
       style="fill:#ff8080;stroke-width:0.0766306"
       d="M 19.425849,3.7245974 C 18.602254,3.4173237 18.113639,3.15361 17.829574,2.8630623 17.5813,2.6091209 17.203562,1.9073587 17.203562,1.7000544 c 0,-0.1230134 0.494337,-0.3542256 1.182738,-0.5531928 0.430129,-0.1243193 0.477837,-0.1242583 0.881252,0.00113 0.234577,0.072909 0.663916,0.2563352 0.954086,0.407614 0.571221,0.2978032 0.824459,0.5810864 1.1673,1.3057918 L 21.590249,3.2869317 21.384557,3.450945 C 21.17227,3.6202167 20.318821,3.9514855 20.115524,3.943524 20.052303,3.9410481 19.74195,3.8425312 19.425849,3.7245974 Z"
       id="path938" />
    <path
       style="fill:#ff8080;stroke-width:0.0766306"
       d="m 16.140572,8.517847 c -0.163688,-0.1972326 -0.174369,-0.55778 -0.05033,-1.6990372 0.190948,-1.7568854 0.497327,-3.9535004 0.569383,-4.082258 0.05013,-0.089576 0.109428,-0.038648 0.265912,0.2283719 0.163677,0.2792947 0.201396,0.4406542 0.201396,0.8615785 0,0.5067351 -0.305102,2.4931886 -0.612081,3.9851321 -0.08482,0.4122496 -0.154225,0.7629906 -0.154225,0.7794245 0,0.069027 -0.140915,0.022145 -0.220054,-0.073212 z"
       id="path977" />
    <path
       style="fill:#ff8080;stroke-width:0.0766306"
       d="m 18.369456,11.442053 c -0.05119,-0.05119 -0.09307,-0.132968 -0.09307,-0.181737 0,-0.217964 0.518104,-1.8586613 1.139232,-3.6076402 C 20.212691,5.4082661 20.378,5.0107625 20.6017,4.8006074 c 0.207632,-0.1950605 0.739909,-0.4248805 0.739909,-0.3194689 0,0.1402557 -2.535481,6.3981745 -2.786129,6.8765545 -0.07292,0.139172 -0.113028,0.15736 -0.186028,0.08436 z"
       id="path1016" />
    <path
       style="fill:#5599ff;stroke-width:0.0766306"
       d="M 7.9884841,11.437112 C 7.5207796,10.898025 6.1837551,9.1339846 6.1514682,9.0133935 6.1399056,8.9702074 6.733911,8.5587376 7.4714802,8.099016 8.5755176,7.4108774 8.822198,7.2849523 8.8673053,7.386477 8.8974399,7.4543022 9.0481936,8.3004881 9.2023135,9.2668902 L 9.4825316,11.023985 9.021049,11.470019 c -0.2538154,0.245319 -0.4964834,0.446034 -0.5392623,0.446034 -0.042779,0 -0.264765,-0.215523 -0.4933026,-0.478941 z"
       id="path1092" />
    <path
       style="fill:#5599ff;stroke-width:0.0766306"
       d="M 5.902106,7.9887365 C 5.831149,7.7760211 5.6520365,5.7644207 5.69016,5.6083857 5.7502151,5.3625877 5.8550676,5.2529786 6.3076464,4.9628876 6.7898319,4.6538194 6.6817471,4.5957691 7.6797065,5.6997952 L 8.3987254,6.4952341 7.208194,7.2898794 C 6.5534017,7.7269343 5.9988518,8.0845247 5.9758607,8.0845247 c -0.022991,0 -0.056181,-0.043105 -0.073755,-0.095788 z"
       id="path1279" />
    <path
       style="fill:#5599ff;stroke-width:0.0766306"
       d="M 8.3920399,5.2722555 C 7.5540065,4.3870955 7.4488777,4.2096871 7.6660891,4.0471886 7.9267848,3.8521589 8.3324206,3.9804533 9.4568847,4.6135814 L 10.534244,5.2201872 9.9415866,5.5763543 C 9.615625,5.7722462 9.2936188,5.9529483 9.2260172,5.9779144 9.1397303,6.0097814 8.8912235,5.7995105 8.3920399,5.2722555 Z"
       id="path1318" />
    <path
       style="fill:#5599ff;stroke-width:0.0766306"
       d="m 10.076919,10.202325 c 0,-0.01532 -0.03576,-0.2136028 -0.079459,-0.4406261 C 9.953757,9.5346754 9.8340358,8.8160721 9.7314129,8.1648024 9.5545002,7.0420732 9.5516669,6.9729296 9.676769,6.8312833 9.8596002,6.6242736 10.844241,5.9909714 10.898657,6.0453879 c 0.07048,0.070481 -0.204617,2.9486547 -0.330089,3.4535066 -0.107147,0.431118 -0.282373,0.7312865 -0.426895,0.7312865 -0.03561,0 -0.06475,-0.01254 -0.06475,-0.02786 z"
       id="path1357" />
    <path
       style="fill:#5599ff;stroke-width:0.0766306"
       d="M 6.4336192,12.020843 C 4.2398876,10.434026 4.0820329,10.30553 4.1805569,10.186815 4.2314846,10.125451 4.5292466,9.9156279 4.8422502,9.7205414 5.3863364,9.3814273 5.4159715,9.3722027 5.5165627,9.510645 c 0.057869,0.079643 0.4511175,0.610337 0.8738867,1.179319 0.9797404,1.318579 1.2163869,1.736619 1.0674093,1.885597 -0.092941,0.09294 -0.2359276,0.0155 -1.0242395,-0.554718 z"
       id="path1396" />
    <path
       style="fill:#5599ff;stroke-width:0.0766306"
       d="M 3.8271894,9.138195 C 4.1100243,7.4168392 4.2711148,6.580258 4.3613067,6.3643985 4.4659262,6.1140089 4.8271057,5.7977595 4.9117636,5.8824174 c 0.088632,0.088632 0.3151849,2.3988434 0.2518301,2.56797 -0.057578,0.1537045 -1.1579472,0.9368198 -1.3163801,0.9368466 -0.03352,5.7e-6 -0.042531,-0.1120618 -0.020024,-0.249039 z"
       id="path1435" />
  </g>
</svg>
