<?xml version="1.0" encoding="UTF-8" standalone="no"?>
<!-- Created with Inkscape (http://www.inkscape.org/) -->

<svg
   version="1.1"
   id="svg179"
   width="26.120001"
   height="18.120001"
   viewBox="0 0 26.120001 18.120001"
   sodipodi:docname="logo.svg"
   inkscape:version="1.1.2 (b8e25be833, 2022-02-05)"
   xmlns:inkscape="http://www.inkscape.org/namespaces/inkscape"
   xmlns:sodipodi="http://sodipodi.sourceforge.net/DTD/sodipodi-0.dtd"
   xmlns="http://www.w3.org/2000/svg"
   xmlns:svg="http://www.w3.org/2000/svg">
  <defs
     id="defs183" />
  <sodipodi:namedview
     id="namedview181"
     pagecolor="#ffffff"
     bordercolor="#666666"
     borderopacity="1.0"
     inkscape:pageshadow="2"
     inkscape:pageopacity="0.0"
     inkscape:pagecheckerboard="0"
     showgrid="false"
     inkscape:zoom="12.022569"
     inkscape:cx="9.7732856"
     inkscape:cy="14.639134"
     inkscape:window-width="1920"
     inkscape:window-height="1017"
     inkscape:window-x="-8"
     inkscape:window-y="-8"
     inkscape:window-maximized="1"
     inkscape:current-layer="g185"
     width="26.12px"
     height="18.12px" />
  <g
     inkscape:groupmode="layer"
     inkscape:label="Image"
     id="g185">
    <path
       style="fill:#000000;stroke-width:0.0961648"
       d="m 0.90844712,12.352576 -0.6069133,-0.63965 3.62910438,-3.2770339 3.629107,-3.277035 -0.224205,-0.249335 -0.224206,-0.249334 0.271075,-0.255452 c 0.149091,-0.140499 0.271784,-0.295766 0.272651,-0.345038 0.0023,-0.126151 -1.791018,-1.516607 -2.704869,-2.097317 C 4.5302592,1.6955331 3.8419268,1.2910651 3.4205636,1.0635591 2.4407055,0.53451012 2.4165037,0.35721312 3.3327387,0.42014312 c 1.3646705,0.09373 3.9059845,1.10731198 5.1770895,2.06483698 0.531956,0.400724 0.532639,0.400903 0.773875,0.20399 0.169729,-0.138542 0.205736,-0.129393 0.539763,0.137142 0.4852218,0.387187 1.5635578,1.551149 1.7148408,1.851013 0.105708,0.209519 0.100187,0.265615 -0.03985,0.405323 -0.150909,0.150545 -0.132416,0.210668 0.258367,0.840105 0.599414,0.965486 1.166256,2.274272 1.418305,3.274735 0.369252,1.4656789 0.393866,2.6830229 0.04972,2.4590229 -0.04807,-0.0313 -0.285888,-0.476898 -0.528472,-0.990234 -0.507693,-1.0743429 -1.360447,-2.4746589 -2.106826,-3.4596479 -0.284514,-0.375466 -0.531488,-0.701411 -0.548838,-0.724319 -0.01735,-0.0229 -0.1583198,0.06797 -0.3132778,0.201947 -0.330686,0.28592 -0.392221,0.292786 -0.627792,0.07003 -0.1698,-0.16056 -0.309626,-0.04825 -3.416604,2.74408 C 3.9012786,11.099489 2.3081723,12.543421 2.1427996,12.706902 1.9774283,12.870383 1.7686038,13.001461 1.6787483,12.998185 1.5888843,12.994885 1.2422619,12.704389 0.90845912,12.352581 Z M 8.2247472,5.8410691 7.8483042,5.4478541 4.3684252,8.5902201 0.88854702,11.732584 1.2596743,12.129605 1.6308021,12.526623 5.1159952,9.3804521 8.6011892,6.2342841 Z m 4.6433628,3.842886 c -0.09874,-0.545097 -0.4008,-1.440981 -0.72025,-2.136232 -0.348314,-0.758077 -1.045956,-1.982151 -1.13147,-1.985267 -0.03078,-0.0012 -0.2018,0.133812 -0.380057,0.299855 l -0.324102,0.301894 0.311358,0.385162 c 0.508213,0.628675 1.531514,2.167511 1.880009,2.827145 0.178462,0.3378 0.346133,0.614971 0.372596,0.615936 0.02645,9.56e-4 0.02283,-0.137854 -0.0081,-0.308494 z M 10.394735,3.9758211 C 9.9569412,3.5161301 9.5529262,3.1383471 9.4969212,3.1363061 c -0.056,-0.002 -0.486132,0.345032 -0.955843,0.771275 l -0.854017,0.774988 0.843145,0.884819 0.843148,0.88482 0.9086828,-0.820293 0.908687,-0.820292 z M 8.3795992,3.5045751 c 0.155536,-0.134482 0.284085,-0.280015 0.285668,-0.323409 0.0045,-0.123047 -1.273705,-0.961442 -2.035169,-1.334915 -0.693016,-0.339898 -2.274352,-0.92275998 -2.340822,-0.86273098 -0.01975,0.01782 0.375686,0.30012898 0.878736,0.62733998 0.503048,0.327215 1.348355,0.939396 1.878457,1.360406 0.530104,0.421011 0.983288,0.768249 1.007079,0.771646 0.02378,0.0035 0.170514,-0.103858 0.326049,-0.238334 z"
       id="path207" />
    <path
       style="fill:#000000;stroke-width:0.103407"
       d="m 11.476791,17.402236 c -0.02676,-0.09963 0.405837,-1.448843 0.961319,-2.998253 l 1.009967,-2.817113 0.735513,-0.555431 c 0.404532,-0.305488 0.751162,-0.590489 0.770288,-0.633338 0.01912,-0.04284 -0.429932,-0.4749349 -0.997907,-0.9601929 -0.567974,-0.485258 -1.053794,-0.931099 -1.0796,-0.990757 -0.04639,-0.107253 0.350575,-3.045559 0.439109,-3.250238 0.02522,-0.05829 0.593023,-0.49764 1.261799,-0.976333 0.811945,-0.581169 1.277815,-0.848167 1.402133,-0.803585 0.102397,0.03672 0.605702,0.347379 1.118456,0.690352 0.742316,0.496525 0.923717,0.667394 0.890264,0.838584 -0.09123,0.466839 -0.15425,2.378111 -0.07842,2.378111 0.04356,0 0.173572,-0.144671 0.288921,-0.32149 0.11535,-0.17682 0.435871,-0.602345 0.71227,-0.945611 l 0.502544,-0.62412 0.37359,0.52388 0.37359,0.523879 0.09275,-0.752372 c 0.05102,-0.413805 0.158133,-1.378201 0.238041,-2.143103 0.07991,-0.764902 0.188917,-1.452834 0.242242,-1.528736 0.05333,-0.0759 0.442458,-0.258927 0.864737,-0.406722 l 0.76778,-0.268716 0.681696,0.32438 0.681697,0.324379 0.361398,0.869185 0.361398,0.869186 -1.04787,2.99741 -1.047869,2.997408 0.320228,0.4467849 c 0.446595,0.623093 2.614389,6.96895 2.434817,7.127523 -0.06619,0.05845 -0.153544,0.07696 -0.194119,0.04113 -0.04057,-0.03583 -0.499994,-1.320554 -1.020932,-2.854941 -0.520938,-1.534388 -0.969083,-2.758471 -0.995879,-2.720185 -0.08974,0.128218 -0.640939,2.871493 -0.639847,3.184453 5.94e-4,0.169959 0.07065,0.698376 0.155677,1.174261 l 0.154601,0.865246 0.535499,0.0368 c 0.464668,0.03193 0.535498,0.06872 0.535498,0.278115 0,0.217728 -0.06292,0.241314 -0.643715,0.241314 -0.354043,0 -0.668042,-0.05624 -0.697775,-0.124982 -0.02973,-0.06874 -0.14763,-0.677122 -0.261992,-1.351961 l -0.207932,-1.22698 0.385649,-1.830904 c 0.212105,-1.006998 0.386099,-1.915438 0.38665,-2.018756 5.19e-4,-0.103318 -0.371169,-0.71517 -0.826046,-1.3596709 l -0.827042,-1.171824 -0.597387,0.927048 c -0.328562,0.509877 -0.597565,1.0382939 -0.597783,1.1742609 -2.6e-4,0.135967 0.109224,0.942499 0.243207,1.792294 0.252753,1.603104 0.256628,1.892264 0.0245,1.828389 -0.101794,-0.02801 -0.197836,-0.449218 -0.369609,-1.620981 -0.127642,-0.870726 -0.248773,-1.606994 -0.26918,-1.636152 -0.02041,-0.02916 -0.196003,0.141325 -0.390215,0.378849 -0.399839,0.489012 -0.541881,0.539324 -0.541881,0.191938 0,-0.137159 0.213181,-0.508044 0.497706,-0.865891 0.273737,-0.344281 0.777762,-1.0634189 1.120055,-1.5980839 l 0.62235,-0.972119 -0.608223,-0.943137 c -0.334522,-0.518721 -0.639434,-0.943133 -0.677583,-0.943133 -0.03815,0 -0.628568,0.730047 -1.312044,1.622326 -0.683476,0.89228 -1.275821,1.665507 -1.316323,1.718282 -0.0405,0.05278 0.01494,0.7884269 0.123202,1.6347819 l 0.196841,1.538825 -0.50528,1.038217 c -0.660092,1.356316 -0.729555,1.466606 -0.873873,1.387477 -0.192235,-0.105401 -0.152954,-0.241372 0.380099,-1.315728 0.275955,-0.556178 0.526432,-1.069528 0.556617,-1.140776 0.05242,-0.123723 -0.232716,-2.501971 -0.313868,-2.617921 -0.02146,-0.03066 -0.556761,0.335356 -1.189559,0.813375 l -1.150543,0.869123 0.581536,0.372804 c 0.319844,0.205042 0.581535,0.4325 0.581535,0.50546 0,0.29617 -0.300652,0.259358 -0.88291,-0.108102 -0.338029,-0.21333 -0.623656,-0.373328 -0.634727,-0.355551 -0.01107,0.01778 -0.394517,1.103062 -0.852102,2.411745 -0.77321,2.211368 -0.818193,2.379983 -0.636892,2.387332 0.107293,0.0043 0.545441,0.0034 0.973662,-0.0019 0.821276,-0.01039 1.054161,0.08936 0.966924,0.414188 -0.04536,0.168912 -0.237631,0.19789 -1.312961,0.19789 -1.026842,0 -1.268812,-0.0335 -1.308465,-0.181143 z m 4.093966,-7.4568369 c 0.07023,-0.06379 -0.120148,-0.441571 -0.589741,-1.170249 l -0.693452,-1.07605 -0.435346,0.315207 c -0.239441,0.173365 -0.421743,0.333737 -0.405117,0.356383 0.06825,0.09296 1.936809,1.6721879 1.976689,1.6706149 0.02379,-9.64e-4 0.08993,-0.0441 0.146967,-0.09591 z m 0.892055,-0.736357 0.263168,-0.339918 -0.186787,-1.321657 -0.186787,-1.321655 -0.857191,0.614621 -0.857192,0.61462 0.674039,1.04598 c 0.370721,0.575289 0.722086,1.046417 0.78081,1.046953 0.05872,5.31e-4 0.225198,-0.15199 0.36994,-0.338944 z m 6.486877,-2.378248 c 0.476028,-1.359025 0.865505,-2.496382 0.865505,-2.527463 0,-0.03108 -0.142765,0.01411 -0.317256,0.100428 -0.306975,0.151852 -0.339036,0.228655 -0.989302,2.369854 -0.494034,1.626762 -0.647796,2.254664 -0.580498,2.370525 0.05035,0.08668 0.106058,0.157608 0.123795,0.157608 0.01774,0 0.421728,-1.111929 0.897756,-2.470952 z m -0.766507,-0.330692 c 0.326645,-1.069348 0.593901,-1.952279 0.593901,-1.962069 0,-0.05368 -1.044885,-0.459094 -1.073894,-0.416667 -0.01907,0.02789 -0.161894,0.89891 -0.317384,1.935597 l -0.282708,1.884884 0.202932,0.308643 c 0.111613,0.169754 0.221004,0.282821 0.243092,0.251261 0.02209,-0.03156 0.307415,-0.932302 0.634061,-2.001649 z m -4.735773,0.878676 c 0.02893,-0.370022 0.07695,-0.983161 0.106696,-1.362531 l 0.05409,-0.689764 -0.443382,0.321027 c -0.243861,0.176564 -0.443383,0.369762 -0.443383,0.429329 0,0.144996 0.259333,2.005074 0.309789,2.221979 0.03236,0.139097 0.07031,0.131953 0.201721,-0.03797 0.102475,-0.132508 0.181166,-0.456147 0.214469,-0.882072 z m -3.66109,0.126181 c 0.406512,-0.294331 0.430384,-0.33781 0.390221,-0.710737 -0.02353,-0.218475 -0.06607,-0.658867 -0.09454,-0.978648 -0.04994,-0.561048 -0.05905,-0.576676 -0.259742,-0.446021 -0.161418,0.105085 -0.229841,0.290605 -0.305616,0.828633 -0.0537,0.381279 -0.129035,0.90182 -0.167413,1.156758 -0.03838,0.254938 -0.05316,0.463524 -0.03285,0.463524 0.02031,0 0.231784,-0.14108 0.469935,-0.313509 z m 7.293773,-1.894414 c 0.271536,-1.833289 0.273827,-1.931234 0.0545,-2.329637 -0.210963,-0.383204 -0.194409,-0.452031 -0.442481,1.839752 -0.16538,1.527845 -0.178018,1.845364 -0.08016,2.013843 0.0639,0.110009 0.144446,0.155942 0.178994,0.102073 0.03455,-0.05387 0.164665,-0.785582 0.289147,-1.626031 z m -4.988421,0.17168 c 0.01048,-0.0091 -0.212278,-0.307484 -0.495025,-0.663095 l -0.514085,-0.646566 -0.35312,0.257401 c -0.386891,0.282016 -0.379425,0.216257 -0.206559,1.819364 l 0.04308,0.399549 0.753322,-0.575062 c 0.414327,-0.316284 0.761899,-0.5825 0.772383,-0.591591 z m 0.888843,-0.613934 0.388848,-0.290482 -0.76517,-0.505103 c -0.599701,-0.395874 -0.800714,-0.477923 -0.929531,-0.379418 -0.0904,0.06913 -0.164376,0.165444 -0.164393,0.21404 -4.6e-5,0.128716 0.892753,1.251957 0.994889,1.25168 0.04758,-1.23e-4 0.261491,-0.130951 0.475357,-0.290717 z m 6.566148,-1.315979 c 0.195273,-0.08359 0.355042,-0.218348 0.355042,-0.299455 0,-0.08111 -0.107841,-0.359962 -0.239646,-0.619677 -0.189737,-0.373867 -0.35639,-0.527966 -0.800211,-0.739931 -0.521987,-0.249296 -0.59331,-0.25566 -1.036367,-0.09247 -0.261691,0.09639 -0.508984,0.220977 -0.54954,0.276866 -0.04056,0.05589 0.028,0.315631 0.152344,0.577206 0.189892,0.399454 0.333262,0.528452 0.895578,0.805792 0.368222,0.181612 0.714103,0.31073 0.768625,0.286932 0.05452,-0.0238 0.258901,-0.111667 0.454175,-0.19526 z M 15.899591,17.336167 c -0.117807,-0.272357 0.08639,-0.37082 0.769014,-0.37082 h 0.715548 l 0.641869,-0.800582 c 0.353027,-0.440321 0.672286,-0.80187 0.709464,-0.803442 0.03718,-0.0016 0.09276,0.09081 0.123503,0.205301 0.04026,0.149897 -0.07532,0.373473 -0.412945,0.798787 l -0.468852,0.590627 0.906645,0.03556 c 0.783039,0.03071 0.910597,0.06505 0.93563,0.251868 0.02691,0.200832 -0.110394,0.216311 -1.918713,0.216311 -1.205148,0 -1.96808,-0.04712 -2.001163,-0.123606 z"
       id="path335" />
  </g>
</svg>
