<?xml version="1.0" encoding="UTF-8" standalone="no"?>
<!-- Created with Inkscape (http://www.inkscape.org/) -->

<svg
   width="120mm"
   height="120mm"
   viewBox="0 0 120 120"
   version="1.1"
   id="svg5"
   inkscape:version="1.1.2 (b8e25be833, 2022-02-05)"
   sodipodi:docname="mancha.svg"
   xmlns:inkscape="http://www.inkscape.org/namespaces/inkscape"
   xmlns:sodipodi="http://sodipodi.sourceforge.net/DTD/sodipodi-0.dtd"
   xmlns="http://www.w3.org/2000/svg"
   xmlns:svg="http://www.w3.org/2000/svg">
  <sodipodi:namedview
     id="namedview7"
     pagecolor="#ffffff"
     bordercolor="#666666"
     borderopacity="1.0"
     inkscape:pageshadow="2"
     inkscape:pageopacity="0.0"
     inkscape:pagecheckerboard="0"
     inkscape:document-units="mm"
     showgrid="false"
     inkscape:zoom="0.74029882"
     inkscape:cx="435.6349"
     inkscape:cy="81.048353"
     inkscape:window-width="1920"
     inkscape:window-height="1017"
     inkscape:window-x="-8"
     inkscape:window-y="-8"
     inkscape:window-maximized="1"
     inkscape:current-layer="layer1" />
  <defs
     id="defs2" />
  <g
     inkscape:label="Capa 1"
     inkscape:groupmode="layer"
     id="layer1">
    <path
       style="fill:#000000;stroke-width:0.22642"
       d="m 77.801936,116.17148 c -2.235076,-0.32593 -5.351653,-1.23543 -7.186787,-2.0973 -6.728277,-3.15996 -10.407845,-7.52823 -14.484855,-17.195986 -2.1791,-5.167266 -3.663459,-7.098069 -6.445907,-8.384602 -1.346819,-0.622741 -1.838819,-0.728184 -3.702897,-0.793578 -4.416083,-0.154935 -6.494712,0.872472 -11.652368,5.759424 -4.169954,3.951092 -5.413327,4.781548 -8.77735,5.862465 -2.011333,0.646282 -2.457196,0.709107 -5.012414,0.706327 -1.933544,-0.002 -3.272371,-0.12233 -4.310385,-0.387084 C 10.326454,98.135698 5.7355722,94.123782 3.9058877,88.872151 3.0364038,86.376517 2.8782007,82.542837 3.5428892,80.076052 4.7779307,75.49265 7.7504164,71.889744 11.903989,69.941691 c 1.602231,-0.751453 4.593209,-1.534298 8.478119,-2.219036 1.632847,-0.287798 3.159285,-0.709111 3.98302,-1.099344 4.725408,-2.238606 6.359375,-7.763657 3.613813,-12.219666 -0.91784,-1.489639 -2.590979,-2.747859 -5.586254,-4.200947 -1.622613,-0.787166 -3.381009,-1.836893 -4.138915,-2.470842 -4.92617,-4.120468 -3.648346,-12.176476 2.372716,-14.95875 1.439506,-0.665184 1.696889,-0.710961 3.997863,-0.710961 2.138364,0 2.792054,0.09706 5.009077,0.743712 3.847941,1.12235 5.528415,0.991803 6.577635,-0.510971 0.433127,-0.620355 0.454526,-1.079199 0.220571,-4.729282 -0.207528,-3.237783 0.05159,-5.146152 1.087216,-8.006043 1.533228,-4.23417 4.716894,-8.347805 8.613373,-11.1294144 1.847308,-1.3187476 5.57052,-3.0492382 7.946647,-3.6934756 2.182762,-0.5918105 8.624621,-0.8415433 11.145255,-0.4320698 8.614657,1.3994375 16.307672,7.8122348 19.352912,16.1323338 0.863529,2.359318 1.037782,5.346346 0.481144,8.24765 -0.456556,2.379625 -0.273872,3.589285 0.676788,4.481451 1.282337,1.203427 3.214104,1.09601 5.706622,-0.317332 3.585364,-2.033012 6.607506,-2.862342 10.434009,-2.86327 2.87018,-6.59e-4 4.80731,0.407963 7.24547,1.528512 5.50574,2.530375 9.07325,7.697143 9.38987,13.599152 0.24908,4.643338 -1.40591,8.768058 -4.83857,12.059034 -2.87209,2.753564 -6.38262,4.222087 -11.01003,4.605729 -3.809829,0.315855 -5.126842,0.767774 -6.838613,2.346582 -2.428079,2.239492 -3.275319,5.170616 -2.311698,7.997568 0.347172,1.018484 0.848639,1.608738 3.728777,4.388929 6.020954,5.812018 8.130024,9.870753 8.417994,16.199726 0.2918,6.413097 -2.19543,12.211824 -7.287831,16.990884 -4.36192,4.09354 -10.115538,6.41197 -16.361987,6.59309 -1.542578,0.0448 -3.435749,-0.0106 -4.207046,-0.12316 z"
       id="path117" />
  </g>
</svg>
