<?xml version="1.0" encoding="UTF-8" standalone="no"?>
<!-- Created with Inkscape (http://www.inkscape.org/) -->

<svg
   width="165mm"
   height="200mm"
   viewBox="0 0 165 200"
   version="1.1"
   id="svg5"
   sodipodi:docname="marco.svg"
   inkscape:version="1.1.2 (b8e25be833, 2022-02-05)"
   xmlns:inkscape="http://www.inkscape.org/namespaces/inkscape"
   xmlns:sodipodi="http://sodipodi.sourceforge.net/DTD/sodipodi-0.dtd"
   xmlns="http://www.w3.org/2000/svg"
   xmlns:svg="http://www.w3.org/2000/svg">
  <sodipodi:namedview
     id="namedview7"
     pagecolor="#ffffff"
     bordercolor="#666666"
     borderopacity="1.0"
     inkscape:pageshadow="2"
     inkscape:pageopacity="0.0"
     inkscape:pagecheckerboard="0"
     inkscape:document-units="mm"
     showgrid="false"
     inkscape:zoom="0.74029882"
     inkscape:cx="388.35669"
     inkscape:cy="405.24176"
     inkscape:window-width="1920"
     inkscape:window-height="1017"
     inkscape:window-x="-8"
     inkscape:window-y="-8"
     inkscape:window-maximized="1"
     inkscape:current-layer="g1786" />
  <defs
     id="defs2" />
  <g
     inkscape:label="Capa 1"
     inkscape:groupmode="layer"
     id="layer1">
    <g
       id="g165"
       transform="translate(118.29964,17.870036)">
      <g
         id="g1786"
         transform="translate(3.5740092,4.6462088)">
        <path
           style="fill:#fcfcfc;stroke-width:0.264583"
           d="m 40.796327,78.022522 -0.228754,97.895568 -79.771661,-0.18641 -79.771652,-0.1864 0.22876,-97.895564 0.22875,-97.895559 79.77165,0.186403 79.771661,0.186404 z M -90.065538,-9.1249268 c -0.07519,0.121045 -0.20987,1.1061224 -0.299277,2.1890665 -0.0894,1.082954 -0.290366,2.364568 -0.446581,2.8480543 -0.156217,0.4834663 -0.22061,1.1976978 -0.143098,1.5871699 0.18512,0.9301551 -0.319078,5.8123603 -0.667025,6.458869 -0.218048,0.4051416 -0.462349,0.4741809 -1.243254,0.3513158 -0.534533,-0.084149 -5.1983,-0.2859577 -10.363917,-0.4485586 -5.16562,-0.162611 -9.90236,-0.3128998 -10.52609,-0.3339873 -1.70912,-0.057794 -1.77744,0.134587 -1.15924,3.2639 1.73374,8.7760052 2.46832,12.6220922 2.54532,13.3266942 0.0477,0.436672 0.26769,1.56828 0.48883,2.514689 0.22113,0.946399 0.52688,2.613998 0.67945,3.705758 0.15256,1.091769 0.4496,2.504087 0.66009,3.138501 0.21048,0.634403 0.36314,1.527722 0.33924,1.985168 -0.0239,0.457435 0.0811,1.142092 0.23344,1.521459 0.1523,0.379357 0.70137,2.940487 1.22017,5.691407 0.51879,2.75091 1.07274,5.597272 1.23101,6.325254 0.15826,0.727972 0.38296,1.8596 0.49932,2.514714 0.11637,0.655113 0.51714,2.680125 0.89061,4.500013 0.37347,1.819888 0.83976,4.202234 1.03621,5.294096 0.19645,1.091867 0.78436,4.188869 1.30646,6.882236 1.07086,5.524259 1.9763,10.29932 2.12083,11.184824 0.0534,0.326894 0.22025,1.130421 0.37086,1.785618 0.53365,2.321467 0.81702,3.855447 0.96661,5.232678 0.0833,0.766867 0.25544,1.458908 0.382531,1.537868 0.12709,0.07896 0.22976,0.708035 0.22815,1.397945 -0.002,0.689909 0.12703,1.384947 0.28586,1.544529 0.311241,0.312695 0.208414,3.529414 -0.27744,8.679278 -0.15099,1.600381 -0.342291,3.743064 -0.425111,4.761528 -0.0828,1.01844 -0.27013,3.04207 -0.41622,4.49694 -0.1461,1.45487 -0.39529,4.19274 -0.55376,6.08414 -0.15847,1.89141 -0.40882,4.80786 -0.55634,6.48101 -0.66426,7.53413 -0.82291,9.32179 -1.0916,12.30061 -0.15747,1.74589 -0.39956,4.18611 -0.53797,5.42272 -0.13841,1.2366 -0.25346,2.88048 -0.25568,3.65305 -0.002,0.77257 -0.0932,1.34933 -0.20218,1.28171 -0.10898,-0.0676 -0.22224,1.14547 -0.25168,2.69578 -0.0294,1.55031 -0.17922,3.89002 -0.33283,5.19935 -0.46706,3.98101 -0.81601,7.78286 -1.00128,10.90903 -0.15739,2.65559 -0.12792,2.9921 0.27569,3.14806 0.24855,0.096 0.52947,0.0562 0.62426,-0.0885 0.0948,-0.14474 1.12504,-0.34586 2.28945,-0.44693 1.1644,-0.10108 2.593461,-0.23336 3.175686,-0.29398 0.582226,-0.0606 3.142619,-0.29254 5.689761,-0.51541 2.547143,-0.22286 5.359171,-0.47066 6.248953,-0.55065 2.001067,-0.1799 2.034348,-0.14335 2.459899,2.7013 0.406348,2.71629 0.824648,3.83395 1.498861,4.00484 0.347791,0.0882 0.779914,0.0389 0.960273,-0.10948 0.180356,-0.14837 0.744759,-0.31946 1.254226,-0.38021 0.509462,-0.0608 1.105048,-0.17379 1.323509,-0.25119 0.554641,-0.19653 3.900132,-0.95034 5.095927,-1.14822 0.545913,-0.0903 0.992814,-0.27007 0.993116,-0.39939 3.02e-4,-0.12933 0.529308,-0.23391 1.175557,-0.2324 0.646258,0.002 1.236247,-0.0958 1.311098,-0.2163 0.07488,-0.12048 0.82661,-0.37133 1.670567,-0.55745 0.843968,-0.18612 2.844932,-0.66486 4.446599,-1.06387 1.601667,-0.399 4.222434,-0.98964 5.823923,-1.31251 1.601488,-0.32288 3.30727,-0.75824 3.790631,-0.96746 0.48336,-0.20923 1.555488,-0.44683 2.38249,-0.528 0.827012,-0.0812 1.563374,-0.23108 1.636373,-0.33313 0.07304,-0.10205 1.323976,-0.4505 2.779947,-0.77434 1.455971,-0.32384 2.885559,-0.68114 3.176864,-0.794 1.191662,-0.4617 5.95262,-1.47824 6.145223,-1.31211 0.11409,0.0984 0.980766,0.43065 1.92593,0.73832 0.945173,0.30767 2.729635,0.93808 3.965487,1.40092 1.235852,0.46284 2.455215,0.90369 2.709698,0.97967 0.254483,0.076 0.462406,0.26316 0.462049,0.41596 -3.57e-4,0.15281 0.07252,0.20498 0.16199,0.11595 0.08941,-0.089 0.595261,-0.004 1.124042,0.1887 0.528771,0.19281 1.642017,0.55121 2.473866,0.79644 0.831859,0.24523 1.693258,0.62751 1.91422,0.84951 0.220972,0.222 0.520589,0.33058 0.665828,0.24129 0.265542,-0.16326 1.246542,0.20185 3.434412,1.27824 0.650165,0.31986 1.363915,0.58589 1.586123,0.59117 0.77313,0.0184 2.122806,0.43668 2.122289,0.65777 -2.86e-4,0.12239 0.38624,0.3042 0.858948,0.40402 1.423672,0.30063 3.479444,0.99103 3.874071,1.30104 0.203886,0.16017 0.580073,0.25624 0.835963,0.21351 0.255901,-0.0427 0.542081,0.0472 0.635965,0.19994 0.09384,0.1527 0.4034115,0.27818 0.6878405,0.27885 0.284429,6.6e-4 0.7537123,0.14972 1.042859,0.33124 1.0086831,0.63321 1.7939034,-0.50005 2.6650551,-3.84629 0.239117,-0.91849 0.40123,-1.17652 0.580972,-0.92469 0.184387,0.25833 0.211015,0.22917 0.102262,-0.11194 -0.08091,-0.25368 0.04494,-1.08682 0.279667,-1.85144 0.988367,-3.21996 2.5576409,-7.75195 2.7578379,-7.96448 0.230052,-0.24424 4.6302661,-0.74171 11.4409439,-1.29347 2.2927196,-0.18575 4.2578176,-0.42667 4.3668826,-0.53539 0.236922,-0.23615 0.215833,-1.58888 -0.1653,-10.60491 -0.159959,-3.78393 -0.391655,-9.55902 -0.514863,-12.83353 -0.123219,-3.27452 -0.340381,-8.75192 -0.482579,-12.172 -0.142219,-3.42008 -0.186597,-6.63488 -0.09865,-7.144 0.178353,-1.03236 1.545842,-5.24988 2.100231,-6.4774 0.19697,-0.4361 0.443097,-1.26896 0.546967,-1.850804 0.163429,-0.91546 0.523626,-1.957633 1.461928,-4.22993 0.12007,-0.290763 0.411724,-1.242584 0.648134,-2.115159 0.23641,-0.872575 0.61701,-2.121845 0.845789,-2.776156 0.22877,-0.654311 0.564114,-1.665561 0.745194,-2.247223 0.181089,-0.581661 0.395309,-1.236006 0.476039,-1.4541 0.08071,-0.218093 0.305908,-0.931944 0.500398,-1.586335 0.194489,-0.654391 0.463809,-1.265819 0.598486,-1.358731 0.134678,-0.09291 0.346467,-0.806793 0.470639,-1.586404 0.124172,-0.779611 0.335489,-1.655346 0.469578,-1.946074 0.13409,-0.29073 0.808979,-2.253689 1.499747,-4.362133 0.690779,-2.108443 1.413156,-4.190355 1.605286,-4.62647 0.192129,-0.436114 0.404008,-1.149996 0.470848,-1.586404 0.06682,-0.436407 0.328225,-1.388299 0.580854,-2.115316 1.049077,-3.018909 1.296344,-3.770173 1.696822,-5.155421 0.231229,-0.799832 0.492318,-1.513594 0.580188,-1.586149 0.08787,-0.07259 0.373571,-1.022939 0.634876,-2.111962 0.261316,-1.089019 0.764279,-2.587618 1.117705,-3.330214 0.353436,-0.742596 0.642995,-1.516322 0.64347,-1.719391 7.73e-4,-0.331179 1.849524,-6.196645 2.367629,-7.511718 0.297515,-0.755147 1.635142,-4.852253 3.236835,-9.914334 0.759179,-2.399332 1.474064,-4.600318 1.588634,-4.891091 0.512782,-1.301355 0.855568,-2.741578 0.709184,-2.979671 -0.08787,-0.142976 -1.203064,-0.590233 -2.478124,-0.993903 -1.27506,-0.403661 -2.61561,-0.880525 -2.978992,-1.059684 -0.363382,-0.17916 -1.40797,-0.481022 -2.321289,-0.670816 -0.913329,-0.189785 -1.724615,-0.449211 -1.802878,-0.576505 -0.0783,-0.127283 -0.250535,-0.164885 -0.382835,-0.08359 -0.408018,0.250857 -2.40226,-0.405315 -2.203612,-0.725072 0.122571,-0.197284 -0.03965,-0.235723 -0.505741,-0.119892 -0.980072,0.243551 -2.038284,-0.308963 -2.036521,-1.063301 7.89e-4,-0.337739 0.124898,-1.419672 0.275789,-2.404282 0.371952,-2.427158 0.992068,-7.363042 1.487704,-11.8415763 0.2254,-2.0367689 0.485242,-3.8816367 0.577421,-4.0997019 0.09221,-0.2180651 0.141075,-0.5580019 0.108666,-0.7554081 -0.03244,-0.1974164 0.12701,-1.5662575 0.354269,-3.0418905 0.227259,-1.47563303 0.485024,-3.5659164 0.572816,-4.6450941 0.08782,-1.0791677 0.183046,-2.0909781 0.211684,-2.2484616 0.06554,-0.3607478 -2.753588,-0.2950151 -3.866831,0.090165 -0.435503,0.1506728 -1.309831,0.2727401 -1.942959,0.2712606 -0.633129,-0.00148 -1.151379,0.1006999 -1.151674,0.2270595 -4.98e-4,0.2132294 -1.136854,0.4753248 -3.044359,0.7021583 -0.436682,0.05188 -1.732349,0.3355329 -2.879251,0.6302337 -1.146911,0.2947008 -2.546456,0.5347411 -3.110114,0.533424 -0.563649,-0.00132 -1.0251186,0.122145 -1.0254736,0.2743745 -3.78e-4,0.1614296 -0.504855,0.249491 -1.210478,0.2113121 -0.6654038,-0.035989 -1.2907018,0.05665 -1.3895408,0.2058692 -0.175289,0.2646711 -3.595154,1.041652 -7.85619301,1.78491717 -1.16464809,0.2031491 -2.65361999,0.4976506 -3.30882799,0.65444 -0.655208,0.1567894 -1.846398,0.3951766 -2.647075,0.529736 -0.8006867,0.1345694 -2.5874434,0.4820153 -3.9705656,0.77211413 -1.383132,0.2900888 -3.467723,0.7120989 -4.632414,0.937798 -1.164701,0.225699 -2.653683,0.5245605 -3.308851,0.66415 -1.186704,0.2528177 -1.444739,0.3059649 -3.705964,0.7632323 -0.655151,0.1324795 -2.322865,0.4873235 -3.706022,0.7885223 -1.383158,0.3012088 -3.1104,0.6551137 -3.838308,0.7864531 -0.727909,0.1313395 -1.919092,0.3664767 -2.647059,0.5225161 -3.151467,0.6755278 -4.682803,0.6166293 -6.87857,-0.2645339 -0.290768,-0.1166898 -1.004648,-0.3316585 -1.586388,-0.4777183 -3.092774,-0.776489 -5.298171,-1.4694642 -5.375928,-1.6892065 -0.04818,-0.136173 -0.438641,-0.2484157 -0.867659,-0.2494182 -0.429029,-10e-4 -1.460394,-0.2227031 -2.291915,-0.4926569 -0.831522,-0.2699537 -2.047297,-0.6415856 -2.701708,-0.8258553 -0.654421,-0.1842597 -1.396339,-0.442964 -1.648721,-0.5748842 -0.252373,-0.13193003 -0.63908,-0.24029393 -0.85933,-0.24080863 -0.220259,-5.147e-4 -0.400217,-0.1088555 -0.399908,-0.2407451 3.08e-4,-0.1318997 -0.216122,-0.1836955 -0.480963,-0.1150942 -0.264831,0.068581 -1.589566,-0.243305 -2.943838,-0.6931108 -1.354283,-0.4498058 -2.654914,-0.81901597 -2.890301,-0.82045597 -0.235387,-0.00135 -0.768598,-0.1812865 -1.184899,-0.3996499 -0.416311,-0.2183534 -0.943224,-0.397445 -1.170914,-0.3979771 -0.423358,-9.893e-4 -1.581191,-0.3394457 -3.227494,-0.9434443 -0.508885,-0.1866996 -1.639174,-0.5349517 -2.511739,-0.7738813 -0.872574,-0.2389296 -2.121858,-0.6108197 -2.776206,-0.8264093 -0.654338,-0.2155997 -1.427836,-0.3926877 -1.718875,-0.3935477 -0.291039,-8.501e-4 -0.869781,-0.1802129 -1.286082,-0.3985763 -0.416311,-0.2183534 -1.033944,-0.3976571 -1.372523,-0.3984483 -0.338579,-7.911e-4 -0.678429,-0.1036456 -0.755228,-0.2285553 -0.07681,-0.1249099 -0.86075,-0.3819024 -1.74212,-0.5710924 -0.907606,-0.1948314 -1.706151,-0.5285882 -1.841555,-0.7697053 -0.180899,-0.3221436 -0.314319,-0.3516154 -0.548334,-0.1211416 -0.233801,0.2302543 -0.608989,0.2029475 -1.537576,-0.1119332 -0.675569,-0.2290792 -1.30357,-0.5312675 -1.395553,-0.6715428 -0.09198,-0.1402653 -0.327821,-0.2019266 -0.524088,-0.137015 -0.196264,0.064942 -1.013235,-0.138138 -1.815487,-0.4512335 -1.566706,-0.611433 -3.053567,-0.823388 -3.275066,-0.466864 z m 4.368076,2.7835343 c 0.920589,0.2711819 2.863591,0.8498837 4.317784,1.2860129 1.454196,0.4361193 3.357919,0.9848393 4.230493,1.2193788 0.872585,0.2345397 1.705359,0.5203664 1.850611,0.6351761 0.145252,0.1148197 1.242521,0.4545847 2.438383,0.7550498 1.195861,0.3004652 2.454518,0.7308475 2.797012,0.9564084 0.342504,0.2255609 0.699292,0.3339049 0.79286,0.2407733 0.228061,-0.2269977 2.565117,0.44504517 2.564434,0.73742437 -2.96e-4,0.1266096 0.414911,0.2311701 0.922669,0.2323566 0.507759,0.00119 1.549,0.2416802 2.313858,0.5344383 0.764868,0.292758 1.600639,0.5328317 1.857268,0.5335113 0.256639,6.697e-4 0.673115,0.1059532 0.925506,0.23395333 0.252382,0.1280001 1.113287,0.4222026 1.913108,0.6537922 0.799831,0.2315896 2.79333,0.8463795 4.429999,1.3661953 1.63667,0.5198258 3.11724,0.9454666 3.290139,0.9458707 0.625248,0.00146 4.734004,1.3948257 4.576206,1.5518874 -0.298455,0.2970634 -17.132171,-0.1263331 -28.311043,-0.7121565 -1.891543,-0.09912 -5.939303,-0.2594391 -8.995023,-0.3562697 l -5.555854,-0.1760528 0.03405,-1.8520055 c 0.04258,-2.31646693 0.556915,-8.0064706 0.793389,-8.7771601 0.208014,-0.6779458 0.538488,-0.6789536 2.814157,-0.00862 z M 24.6137,-3.3981397 c 0.01649,0.3038694 0.0034,0.6714899 -0.02931,0.8169338 -0.03264,0.1454541 -0.176372,1.3357414 -0.319352,2.64510087 -0.14299,1.30935943 -0.319205,2.91629213 -0.391595,3.57096473 -0.07243,0.6546825 -0.232398,1.4282109 -0.355568,1.7189638 -0.123159,0.290763 -0.352764,1.9571003 -0.510234,3.7029872 -0.15747,1.7458873 -0.352353,3.5313763 -0.433082,3.9677493 -0.08072,0.436373 -0.385178,2.861458 -0.676555,5.389074 -0.291377,2.527616 -0.59393,4.659525 -0.672352,4.737582 -0.07838,0.07802 -0.58934,0.0076 -1.135389,-0.155804 -0.546049,-0.163746 -2.063639,-0.610734 -3.372438,-0.993323 -1.3088,-0.382579 -2.677036,-0.805098 -3.040525,-0.938927 -0.363488,-0.13384 -1.226865,-0.367168 -1.918623,-0.518525 -0.691748,-0.151347 -1.732778,-0.48231 -2.3133876,-0.735468 l -1.055657,-0.460278 -0.002,-1.723529 c -7.85e-4,-0.947944 -0.108108,-3.133641 -0.2375108,-4.857108 -0.145502,-1.938076 -0.140047,-3.3822473 0.01385,-3.7854083 0.1372678,-0.35851 0.1442618,-0.587085 0.01549,-0.507945 -0.128725,0.0791 -0.29237,-0.08128 -0.363667,-0.356581 -0.08305,-0.3208249 -0.354666,-0.4945399 -0.756552,-0.4839489 -1.688468,0.04445 -20.6356036,-0.626141 -22.1886556,-0.78537 -0.218228,-0.02241 -2.688682,-0.06638 -5.489886,-0.09783 -3.678224,-0.04129 -5.09291,-0.142911 -5.092389,-0.3658409 3.96e-4,-0.1697695 0.07575,-0.2333136 0.16741,-0.1412092 0.09168,0.092115 0.419236,0.03238 0.727912,-0.1326094 0.308677,-0.1650492 1.752384,-0.5259167 3.208243,-0.8019455 1.455859,-0.2760188 3.778654,-0.7334324 5.161759,-1.0164713 3.261068,-0.6673312 4.885374,-0.9673265 6.352779,-1.1732781 0.6550675,-0.09197 1.2507319,-0.2430781 1.3237089,-0.3358578 0.1707477,-0.2170716 3.1277707,-0.8055636 4.0370987,-0.8034387 0.382829,8.945e-4 0.761384,-0.1035212 0.841234,-0.2320349 0.0798,-0.1285139 0.950634,-0.3683797 1.9350909,-0.5330298 C 0.74688149,0.76331087 2.6026816,0.38898627 4.0689536,9.1466065e-5 4.7970176,-0.19301773 6.2263256,-0.43043853 7.2451956,-0.52752803 c 1.0188798,-0.097119 1.9717748,-0.2652032 2.1175488,-0.3736029 0.145773,-0.10839967 0.6819036,-0.25794727 1.1914096,-0.33232687 0.509495,-0.07441 1.760191,-0.3236879 2.779322,-0.5540271 1.019131,-0.2303392 2.156623,-0.4180817 2.527752,-0.4172145 0.371139,8.673e-4 0.788663,-0.1117674 0.927847,-0.2503026 0.139174,-0.1385251 0.78842,-0.2858384 1.442749,-0.3273596 0.654329,-0.041471 1.254611,-0.1616488 1.333957,-0.2669636 0.07935,-0.1053249 1.240784,-0.3511916 2.580964,-0.5463906 2.406696,-0.3505371 2.43708,-0.3480961 2.466745,0.1975846 z m -127.97906,9.1325955 c 2.32807,0.1114904 5.872172,0.2342022 7.875772,0.2726941 2.003597,0.038482 3.712586,0.1833258 3.797751,0.3218451 0.08517,0.1385298 0.02532,1.1651518 -0.133003,2.2813847 -0.158319,1.116233 -0.407303,3.4818483 -0.553298,5.2569223 -0.324417,3.944412 -0.532201,4.428958 -1.809071,4.218684 -0.566762,-0.09333 -1.149072,-0.01518 -1.496214,0.200934 -0.529899,0.329803 -2.200738,0.76169 -3.064141,0.792032 -0.796625,0.02804 -1.014715,3.001018 -0.689785,9.403254 0.13964,2.751214 0.559471,40.129428 0.512659,45.641944 -0.03519,4.141873 -0.2468,4.249371 -0.777719,0.395059 -0.13033,-0.946192 -0.407921,-2.256533 -0.616861,-2.911867 -0.38902,-1.220151 -1.05235,-4.450945 -1.49459,-7.279556 -0.43565,-2.786326 -0.70213,-4.177202 -1.26791,-6.617556 -0.3038,-1.310403 -0.65761,-3.037635 -0.78625,-3.838308 -0.12864,-0.800662 -0.36101,-2.051369 -0.51638,-2.779334 -0.15537,-0.727975 -0.38727,-1.97867 -0.51534,-2.779342 -0.12806,-0.800661 -0.36484,-1.798587 -0.52619,-2.217605 -0.16134,-0.419018 -0.36583,-1.643869 -0.45442,-2.721889 -0.0886,-1.07803 -0.26218,-2.022859 -0.38576,-2.099628 -0.12357,-0.07679 -0.22553,-0.519528 -0.22656,-0.983882 -10e-4,-0.464363 -0.17482,-1.344432 -0.3862,-1.955717 -0.21137,-0.611286 -0.49412,-1.92164 -0.62833,-2.911897 -0.23816,-1.757281 -1.3107,-7.291452 -1.85027,-9.547089 -0.14852,-0.620909 -0.26926,-1.460583 -0.26832,-1.865952 9.5e-4,-0.405369 -0.10553,-0.850389 -0.23662,-0.988946 -0.23126,-0.244421 -0.43264,-1.522115 -0.66125,-4.195416 -0.061,-0.713305 -0.22526,-1.368531 -0.36503,-1.456057 -0.25848,-0.161865 -1.02802,-4.106724 -1.27024,-6.511526 -0.0733,-0.727784 -0.22356,-1.4425073 -0.33392,-1.5882853 -0.11035,-0.145778 -0.28087,-0.801028 -0.37892,-1.4560989 -0.0981,-0.655071 -0.2444,-1.4590951 -0.32521,-1.7867048 -0.14608,-0.5921729 -0.13016,-0.5953658 2.72591,-0.5452318 1.58006,0.027692 4.77763,0.1416443 7.10571,0.2531346 z m 24.472045,0.843986 c 3.128434,0.117421 8.366792,0.291342 11.640799,0.386493 3.274006,0.09515 7.381312,0.247288 9.127355,0.338098 3.768212,0.195986 5.637824,0.261675 10.5825,0.371789 3.685488,0.08211 3.697373,0.08434 2.380203,0.4508529 -2.010343,0.559424 -4.096875,0.94748 -5.492512,1.021499 -0.691318,0.03668 -1.406031,0.182645 -1.588262,0.324399 -0.319702,0.248704 -4.329191,1.1164573 -12.375563,2.6783993 -2.111013,0.409789 -4.672098,0.939326 -5.691305,1.176765 -1.019208,0.237429 -2.56772,0.535961 -3.44114,0.663411 -0.87343,0.127439 -2.064598,0.360616 -2.647058,0.518156 -0.582449,0.157549 -1.654563,0.392985 -2.382479,0.523204 -0.727906,0.130209 -3.408048,0.654998 -5.955863,1.166196 -2.547817,0.511198 -4.918271,0.92911 -5.267674,0.928694 l -0.635281,-6.95e-4 0.183601,-2.579258 c 0.375165,-5.2703983 0.632258,-7.7438632 0.824864,-7.9360242 0.273728,-0.2730808 4.016248,-0.2842057 10.737815,-0.03191 z m 55.056172,1.8225749 c 0.06315,0.06345 4.636719,0.253965 10.163448,0.42331 16.2393726,0.497598 18.7611736,0.623971 18.9727416,0.950736 0.135092,0.208657 0.195148,0.193387 0.198558,-0.05044 0.0037,-0.283652 0.07316,-0.28106 0.366529,0.01376 0.424095,0.4260823 0.787292,8.8370543 0.392083,9.0800313 -0.129826,0.0798 -0.506049,-0.0052 -0.836049,-0.189314 -0.330012,-0.183932 -0.696975,-0.30682 -0.815505,-0.273077 -0.514703,0.146518 -2.302387,-0.525721 -2.131123,-0.801392 0.113758,-0.183134 0.06011,-0.21786 -0.143333,-0.09273 -0.377924,0.232348 -4.0188801,-0.659443 -3.8436811,-0.941444 0.06464,-0.104069 -0.328121,-0.252647 -0.872831,-0.330161 -1.4967259,-0.213008 -2.4929439,-0.463336 -3.3699999,-0.846807 -0.4361161,-0.190683 -1.20945,-0.433851 -1.7185225,-0.540361 -0.5090824,-0.10652 -1.1634157,-0.328419 -1.4540617,-0.493109 -0.2906559,-0.164689 -0.6475149,-0.306794 -0.7930239,-0.315794 -0.6179535,-0.03824 -2.3465945,-0.441974 -2.7430615,-0.640681 -0.426262,-0.213647 -3.257336,-0.998354 -4.528559,-1.255215 -0.363639,-0.07345 -0.899065,-0.229832 -1.189821,-0.347452 -0.290766,-0.117619 -1.480541,-0.485161 -2.643939,-0.81676 -3.885173,-1.1073723 -5.815639,-1.7191643 -5.948731,-1.8852263 -0.07259,-0.09057 -0.607875,-0.289641 -1.18959,-0.442471 -0.953617,-0.250529 -0.808197,-0.279979 1.477954,-0.299297 1.394611,-0.01174 2.587336,0.03055 2.650518,0.09399 z m -10.345391,0.501917 c 0.655245,0.182652 1.428518,0.455799 1.718376,0.606987 0.289867,0.151188 1.003075,0.358465 1.584928,0.460605 1.347891,0.2366203 3.92554,1.0188663 4.098145,1.2436693 0.07258,0.09447 0.548466,0.233483 1.057621,0.308883 0.509146,0.07539 1.758542,0.39947 2.776445,0.720149 1.017904,0.32068 2.788978,0.81729 3.935722,1.10358 1.146744,0.2863 2.455504,0.68613 2.908352,0.888518 0.859415,0.38409 0.943436,0.409206 4.079282,1.219176 1.063621,0.274726 2.1045565,0.641849 2.3132105,0.815837 0.208654,0.173988 0.379506,0.254778 0.379682,0.179528 1.76e-4,-0.0753 0.3870492,-0.0379 0.8597078,0.08311 1.1990062,0.306853 7.2210032,2.048449 8.65927119,2.504311 0.654368,0.2074 2.39102911,0.756729 3.85925911,1.220731 l 2.669516,0.843631 0.166756,4.542302 c 0.09176,2.498271 0.220478,6.685563 0.286147,9.305104 0.06568,2.61953 0.237639,6.608543 0.382168,8.864457 0.144529,2.255914 0.298871,5.768634 0.34299,7.806033 0.04414,2.037398 0.205774,6.324038 0.3592518,9.52586 0.379874,7.92466 0.763783,17.182156 1.047964,25.270226 0.331963,9.448228 0.6999386,17.560049 0.8869346,19.552159 0.159022,1.69395 -0.2575906,3.99729 -0.7228196,3.9962 -0.1266,-3e-4 -0.230968,0.33284 -0.231921,0.74029 -9.52e-4,0.40746 -0.103505,0.85371 -0.227907,0.99166 -0.124383,0.13796 -0.375538,0.84579 -0.558138,1.57297 -0.3463938,1.37962 -0.7137258,2.53966 -1.0883438,3.43705 -0.12138,0.29076 -0.362288,1.00458 -0.535368,1.58626 -0.17307,0.58168 -0.495777,1.20056 -0.717126,1.37529 -0.241546,0.19067 -0.34403,0.54327 -0.256311,0.88189 0.123903,0.47835 -0.337734,2.21399 -1.157623,4.35244 -0.11149,0.29078 -0.323461,0.8856 -0.47105,1.32182 -0.14759,0.43622 -0.358411,1.03104 -0.46849,1.32182 -0.194461,0.51362 -0.641467,2.02633 -1.562651,5.28803 -0.24644,0.87255 -0.5612431,1.6993 -0.6995751,1.83723 -0.138353,0.13792 -0.252028,0.46508 -0.25264,0.72701 -6.12e-4,0.26194 -0.120172,0.47597 -0.26570201,0.47563 -0.14553,-3.4e-4 -0.265418,0.35819 -0.266442,0.79672 -0.001,0.43854 -0.114206,1.00382 -0.251486,1.25619 -0.13729,0.25237 -0.701,1.92497 -1.25265895,3.7169 -0.63001404,2.04639 -1.17215704,3.34805 -1.45777304,3.50006 -0.8369029,0.44538 -5.1118318,1.53989 -6.7854076,1.73727 -0.6186324,0.0729 -1.1250339,0.23972 -1.1253399,0.37059 -3.05e-4,0.13087 -0.229695,0.23741 -0.509744,0.23675 -0.756748,-0.002 -5.374835,1.03158 -5.906475,1.32165 -0.253013,0.13804 -0.767117,0.25026 -1.142456,0.24938 -0.375349,-8.7e-4 -0.88519,0.10631 -1.132999,0.23818 -0.247799,0.13188 -1.282434,0.41523 -2.299178,0.62966 -1.016754,0.21444 -3.576065,0.82385 -5.68736,1.35425 -2.111305,0.53039 -4.255698,1.06828 -4.765316,1.19529 -0.509618,0.12702 -1.70095,0.42598 -2.64739,0.66436 -2.495095,0.62843 -4.987793,0.87278 -6.351472,0.62262 -1.19748,-0.21968 -3.336509,-0.94126 -3.83137,-1.29247 -0.146418,-0.10392 -0.980097,-0.40461 -1.852604,-0.66818 -0.872516,-0.26358 -2.181175,-0.7063 -2.908129,-0.98383 -0.726953,-0.27752 -1.708515,-0.58194 -2.181235,-0.67647 -0.472731,-0.0945 -0.859257,-0.27605 -0.85896,-0.40338 2.98e-4,-0.12733 -0.219818,-0.23202 -0.489138,-0.23265 -0.794307,-0.002 -2.166614,-0.56571 -2.006009,-0.82422 0.13556,-0.2182 -0.02278,-0.26378 -1.205753,-0.34695 -0.712535,-0.0501 -3.4371,-1.06522 -3.436597,-1.28042 2.7e-4,-0.11538 -0.332879,-0.21057 -0.740338,-0.21152 -0.407459,-9.5e-4 -0.853708,-0.10036 -0.991676,-0.22089 -0.137959,-0.12055 -0.758185,-0.37974 -1.378278,-0.57599 -0.620093,-0.19626 -1.258998,-0.51611 -1.419803,-0.71079 -0.160806,-0.19467 -0.636593,-0.35476 -1.057302,-0.35574 -0.420719,-9.9e-4 -0.971424,-0.11505 -1.223791,-0.25347 -0.661254,-0.3627 -3.367117,-1.31049 -4.154311,-1.45513 -0.368743,-0.0677 -0.856338,-0.30997 -1.083555,-0.53825 -0.227218,-0.22828 -0.693021,-0.41571 -1.03511,-0.41651 -0.615358,-0.001 -4.74144,-1.40933 -8.611919,-2.93853 -1.100362,-0.43475 -2.111563,-0.79144 -2.247112,-0.79265 -0.135547,-10e-4 -0.554806,-0.16404 -0.931684,-0.36182 -0.376879,-0.19779 -1.092287,-0.43696 -1.589791,-0.5315 -0.528225,-0.10037 -1.122567,-0.4619 -1.428568,-0.86897 -0.546806,-0.72743 -1.403782,-3.6825 -1.425782,-4.91648 -0.007,-0.39311 -0.197503,-1.40558 -0.423322,-2.24996 -0.225817,-0.84437 -0.453066,-2.23612 -0.504999,-3.09278 -0.05193,-0.85666 -0.220813,-1.68454 -0.375286,-1.83974 -0.154478,-0.1552 -0.280313,-0.51909 -0.279637,-0.80864 0.0017,-0.7221 -0.503786,-3.54294 -0.826057,-4.60989 -0.145401,-0.48139 -0.441692,-1.91083 -0.658427,-3.17655 -0.216731,-1.26572 -0.496635,-2.83733 -0.622004,-3.49247 -0.125368,-0.65513 -0.299659,-1.72711 -0.387312,-2.38216 -0.08765,-0.65505 -0.252502,-1.42934 -0.366336,-1.72065 -0.366435,-0.93772 -0.80102,-3.02917 -0.799112,-3.84572 10e-4,-0.43645 -0.107276,-1.00054 -0.240657,-1.25354 -0.133383,-0.253 -0.377969,-1.53188 -0.543525,-2.84195 -0.165555,-1.310084 -0.41014,-2.588964 -0.543525,-2.841967 -0.13338,-0.253 -0.241901,-0.72105 -0.241156,-1.04011 7.46e-4,-0.319067 -0.106741,-0.946012 -0.23886,-1.393217 -0.468279,-1.58506 -1.039265,-5.603342 -1.055728,-7.429605 -0.02143,-2.377823 0.412826,-8.09166 1.3571,-17.856254 0.147728,-1.527628 0.39042,-4.265505 0.539318,-6.08417 0.148897,-1.818667 0.395246,-4.556539 0.547443,-6.084153 0.152197,-1.527618 0.390406,-4.205969 0.52935,-5.951899 0.242987,-3.05326 0.681597,-7.573788 0.949639,-9.787398 0.07046,-0.581916 0.201721,-2.248494 0.291682,-3.703488 0.08996,-1.455004 0.283599,-3.835808 0.430305,-5.290679 0.25695,-2.548167 0.533477,-5.743319 0.94373,-10.904395 0.106652,-1.341694 0.295997,-2.376024 0.420768,-2.298513 0.124771,0.07749 0.227229,-0.01757 0.227682,-0.211378 9.38e-4,-0.401449 2.266453,-0.996527 3.78039,-0.992989 0.541442,0.0013 0.984716,-0.11677 0.985056,-0.262289 3.4e-4,-0.14552 0.237034,-0.264027 0.525987,-0.263352 0.288953,6.75e-4 1.033374,-0.118375 1.654268,-0.264555 2.601092,-0.612394 6.333355,-1.304284 7.026934,-1.302664 0.409998,9.58e-4 0.858807,-0.104863 0.997352,-0.23515 0.138555,-0.130296 0.728312,-0.299809 1.310574,-0.376708 0.582261,-0.07684 1.594707,-0.253935 2.249885,-0.393434 0.655168,-0.13949 2.382447,-0.509724 3.838393,-0.822743 3.617377,-0.77769 5.044072,-1.035007 6.749733,-1.217321 0.800572,-0.08563 1.576611,-0.251127 1.724534,-0.367892 0.147924,-0.116774 1.637028,-0.467816 3.309122,-0.780099 3.258271,-0.608528 5.753288,-1.12627 10.584622,-2.196433 1.674361,-0.3708693 3.758919,-0.7826593 4.63236,-0.9150683 0.873432,-0.13242 2.064609,-0.365067 2.647046,-0.517006 1.361564,-0.35519 2.868391,-0.322239 4.366919,0.0955 z M -93.090901,22.345459 c -0.100615,1.273069 -0.227964,2.731295 -0.28301,3.240488 -0.05505,0.509203 -0.225863,2.354279 -0.379594,4.100174 -0.153731,1.745896 -0.397285,4.483764 -0.541234,6.084162 -0.143948,1.600398 -0.394627,4.39779 -0.557063,6.216425 -0.162434,1.818636 -0.416109,4.43743 -0.563717,5.819529 -0.14761,1.382109 -0.374063,3.822366 -0.503231,5.422799 -0.410552,5.086884 -0.861265,9.507258 -0.981597,9.627027 -0.06405,0.06375 -0.128094,-1.273182 -0.142318,-2.97096 -0.01423,-1.697773 -0.05201,-3.414346 -0.08398,-3.814612 -0.03196,-0.400256 -0.13621,-8.489741 -0.231655,-17.97663 l -0.173531,-17.248903 0.770155,-0.171791 c 0.423587,-0.09451 1.187126,-0.277657 1.696753,-0.407046 0.509627,-0.1294 1.203423,-0.235289 1.54177,-0.235308 0.610577,-5.73e-4 0.61381,0.01733 0.432254,2.314646 z m 105.746202,0.385669 c 1.504821,0.429178 3.985303,1.163296 5.512183,1.631375 2.736317,0.838836 2.775473,0.862278 2.72966,1.633723 -0.135898,2.288489 -1.478994,12.222427 -1.705633,12.615349 -0.14555,0.25235 -0.268745,1.204565 -0.273755,2.116036 -0.0083,1.420344 -0.276807,3.854103 -0.655235,5.928285 -0.05703,0.312487 -0.180255,1.264702 -0.273875,2.116036 -0.09359,0.851323 -0.280706,2.26199 -0.415746,3.134797 -0.13504,0.872817 -0.379011,2.777252 -0.542161,4.232084 -0.16314,1.454823 -0.40472,3.418799 -0.53685,4.364373 -0.13212,0.945584 -0.494155,3.861776 -0.804515,6.48043 -0.31037,2.618658 -0.67469,5.177656 -0.80961,5.686665 -0.13492,0.50901 -0.316247,1.996871 -0.402937,3.30636 -0.08666,1.309488 -0.328246,3.511586 -0.536776,4.893551 -0.20853,1.381964 -0.513456,3.583914 -0.677606,4.893221 -0.16416,1.309308 -0.413121,3.213731 -0.553261,4.232053 -0.14014,1.018321 -0.281221,2.238385 -0.313516,2.711253 -0.03231,0.472869 -0.139209,0.859574 -0.237579,0.859344 -0.0984,-2.3e-4 -0.279872,0.445831 -0.403347,0.991247 -0.227933,1.006864 -0.278827,0.0028 -0.700924,-13.826155 -0.0888,-2.910632 -0.274505,-6.661544 -0.412594,-8.335362 -0.138089,-1.673817 -0.302272,-5.246085 -0.364851,-7.938375 -0.06261,-2.692293 -0.175065,-5.728655 -0.249964,-6.747467 C 9.951489,56.691123 9.8377834,54.25007 9.7736744,52.285385 9.6468454,48.398798 9.5343194,45.688078 9.1310834,36.805712 8.9857354,33.603903 8.8473194,28.971307 8.8234984,26.511065 8.7722584,21.22093 8.4555684,21.533351 12.655301,22.731128 Z m 11.120344,3.272494 c 0.07901,0.07938 0.456509,0.201757 0.838966,0.272031 0.382457,0.07029 2.449406,0.710876 4.593216,1.423557 2.143801,0.712681 4.376327,1.37612 4.961159,1.474307 1.71866,0.288557 1.729324,0.321012 0.919354,2.798046 -0.404159,1.235989 -1.009539,3.139579 -1.345278,4.230198 -0.33575,1.090628 -0.71091,2.095834 -0.833692,2.233788 -0.122783,0.137963 -0.227687,0.494909 -0.233134,0.793207 -0.01142,0.606555 -0.776334,2.876714 -1.268547,3.763196 -0.176253,0.317449 -0.321045,0.823122 -0.321747,1.123732 -7.02e-4,0.300609 -0.120337,0.54628 -0.265856,0.54594 -0.14552,-3.4e-4 -0.268314,0.386324 -0.272869,0.859264 -0.0051,0.47293 -0.304238,1.573564 -0.665957,2.445841 -0.361709,0.872287 -0.658583,1.746566 -0.659712,1.942854 -0.0011,0.196288 -0.16774,0.73168 -0.370241,1.189768 -0.202491,0.458078 -0.578606,1.546762 -0.835795,2.419283 -0.25719,0.872532 -0.559247,1.705258 -0.671236,1.850527 -0.11199,0.145259 -0.272682,0.680665 -0.357091,1.189789 -0.08439,0.509124 -0.395847,1.551479 -0.692075,2.316324 -0.296218,0.76486 -0.538998,1.569265 -0.539508,1.787564 -5.1e-4,0.21831 -0.226317,0.901114 -0.501777,1.517352 -0.275471,0.616238 -0.704709,1.834328 -0.953858,2.706878 -0.24916,0.872542 -0.668819,2.181252 -0.932568,2.908241 -0.26376,0.726991 -0.868041,2.571052 -1.34285,4.097916 -1.278389,4.111004 -1.565065,4.968779 -1.832316,5.482689 -0.133179,0.256083 -0.928474,2.666664 -1.767332,5.356846 -1.993656,6.39359 -3.271705,10.316226 -3.574778,10.971886 -0.13438,0.290727 -0.33932,0.885563 -0.45541,1.321855 l -0.211074,0.793259 -0.09064,-1.010867 c -0.0499,-0.555976 0.01949,-1.151128 0.15415,-1.32256 0.134651,-0.17143 0.272818,-1.141485 0.307038,-2.155671 0.03417,-1.01419 0.115269,-1.929364 0.180113,-2.033726 0.125262,-0.201633 0.469012,-2.90159 0.918877,-7.217381 0.150802,-1.446755 0.526717,-4.362917 0.835365,-6.480357 0.308639,-2.117439 0.664883,-4.80215 0.791643,-5.966024 0.12677,-1.163874 0.471817,-4.020574 0.766776,-6.348221 0.29496,-2.327658 0.850702,-6.791206 1.234972,-9.919017 0.384279,-3.12781 0.805195,-5.984335 0.935375,-6.347831 0.13017,-0.363497 0.307971,-1.771906 0.395095,-3.129796 0.08707,-1.35789 0.337907,-3.67903 0.557304,-5.158092 0.219397,-1.479051 0.602604,-4.057942 0.851594,-5.730855 0.404654,-2.718902 0.523128,-3.956979 0.613791,-6.414724 0.01921,-0.519986 0.16523,-0.727225 0.511909,-0.726415 0.266789,6.23e-4 0.549687,0.06608 0.628652,0.145399 z M -96.227687,103.49928 c 0.10506,0.43681 0.305093,1.16011 0.444522,1.60733 0.13943,0.44722 0.252619,1.19324 0.251534,1.65783 -0.0011,0.46458 0.106733,1.05169 0.239599,1.30469 0.132865,0.253 0.377777,1.35329 0.544251,2.44508 0.166475,1.0918 0.465704,2.58079 0.664955,3.30886 0.199252,0.72807 0.436468,1.80019 0.527146,2.38249 0.155686,0.99975 1.187377,6.26703 1.736879,8.86762 0.138436,0.65517 0.349151,1.84629 0.468254,2.64694 0.119104,0.80064 0.40398,2.28955 0.633059,3.30868 0.229081,1.01913 0.415622,2.23293 0.414536,2.69734 -0.0011,0.46441 0.116917,0.91824 0.262227,1.00851 0.145311,0.0903 0.263631,0.40827 0.262934,0.70664 -0.0011,0.46326 -0.126827,0.52256 -0.860847,0.40597 -0.735385,-0.1168 -5.165363,-1.64221 -5.370112,-1.84913 -0.129488,-0.13086 -0.635111,-29.69355 -0.521648,-30.49956 l 0.111699,-0.79349 z m -2.265108,2.90513 c -0.0064,0.43655 -0.06605,0.58297 -0.132534,0.32539 -0.06648,-0.25759 -0.06123,-0.61477 0.01165,-0.79373 0.0729,-0.17896 0.127289,0.0318 0.120876,0.46834 z m 0.123284,3.83676 c 0.09547,1.38267 0.168359,7.31157 0.16197,13.17533 -0.0065,5.97894 0.09697,10.949 0.235626,11.31626 0.13598,0.36019 0.517015,0.76113 0.846746,0.89098 0.329728,0.12985 0.956343,0.3864 1.392478,0.57011 0.436134,0.18371 0.950693,0.30804 1.143466,0.2763 0.19277,-0.0318 0.490224,0.0556 0.661007,0.19411 0.17078,0.1385 1.289734,0.57707 2.486558,0.97459 2.071713,0.68811 2.188798,0.76909 2.44198,1.68895 0.146264,0.53139 0.265944,1.24664 0.265953,1.58944 -8e-6,0.3428 0.186289,1.34909 0.413952,2.2362 0.227663,0.88711 0.361704,1.88273 0.297869,2.21248 -0.06383,0.32975 -0.02783,0.63367 0.07998,0.67538 0.10783,0.0417 0.259996,0.61176 0.33815,1.26679 0.07815,0.65503 0.2675,1.66751 0.420773,2.24995 0.510187,1.93872 1.102141,4.96612 1.122331,5.73986 0.01098,0.4202 0.120613,0.82654 0.243662,0.90298 0.345532,0.21467 0.260908,1.63884 -0.111044,1.86884 -0.371619,0.22979 -9.436748,1.03717 -14.464746,1.28829 l -3.28343,0.164 0.18515,-1.69352 c 0.10183,-0.93144 0.3139,-3.18151 0.47125,-5.00016 0.15736,-1.81864 0.39693,-4.43747 0.53237,-5.8196 0.13545,-1.38214 0.37073,-4.12003 0.52284,-6.08421 0.15212,-1.96418 0.451,-5.17818 0.6642,-7.14222 0.2132,-1.96404 0.5292,-5.41612 0.70223,-7.6713 0.17303,-2.25517 0.49687,-5.70724 0.719641,-7.67125 0.22278,-1.96402 0.5126,-4.76132 0.644045,-6.21622 0.131451,-1.45491 0.340791,-3.06177 0.465201,-3.5708 0.192679,-0.78836 0.251928,-0.55295 0.39979,1.58844 z M 8.5886874,122.02594 c -0.252491,2.99575 -1.1221138,9.80057 -2.1094048,16.50614 -0.16063,1.09103 -0.36764,2.57581 -0.460002,3.2995 -0.186118,1.45822 -0.789254,1.97806 -2.299397,1.98183 -0.443844,0.001 -0.94128,0.13569 -1.105412,0.29906 -0.238575,0.23745 -2.20242611,0.13286 -2.18554411,-0.1164 0.01699,-0.25135 1.58398511,-4.49381 1.70387411,-4.61314 0.0857,-0.0853 0.156546,-0.46861 0.157441,-0.85182 8.96e-4,-0.3832 0.09649,-0.80962 0.212455,-0.9476 0.115953,-0.13797 0.431686,-0.96472 0.701625,-1.83722 0.26994,-0.87249 0.780815,-2.41912 1.135264,-3.43694 0.35447,-1.01782 0.880389,-2.73737 1.168723,-3.82123 0.288333,-1.08386 0.623908,-2.03557 0.745724,-2.11493 0.121815,-0.0794 0.374947,-0.79877 0.562517,-1.59869 0.18758,-0.79993 0.435991,-1.57484 0.552035,-1.72203 0.116034,-0.14718 0.354818,-0.83326 0.530614,-1.52462 0.5342308,-2.10086 0.8870558,-1.84598 0.6894878,0.49809 z m 2.0064496,0.9053 c 0.08569,0.21848 0.280155,3.25504 0.432224,6.7479 0.152058,3.49287 0.327966,7.36282 0.390905,8.5999 0.415334,8.16406 0.443482,10.31355 0.13984,10.67769 -0.220799,0.26477 -1.202692,0.42728 -3.2830886,0.54337 -1.6324368,0.0911 -3.5041028,0.27108 -4.1592458,0.39997 -1.717734,0.33794 -4.92730106,0.48257 -5.3183041,0.23965 -0.263818,-0.1639 -0.268406,-0.42563 -0.0218,-1.24186 0.45568509,-1.50812 1.32213499,-2.36291 2.570202,-2.53558 2.2860751,-0.3163 3.1869911,-0.49742 3.4412061,-0.69182 0.145791,-0.11149 0.765145,-0.28396 1.376359,-0.38327 0.946132,-0.15373 1.152817,-0.30535 1.390567,-1.02013 0.329546,-0.99075 0.7957628,-3.95882 1.0870748,-6.92056 0.11448,-1.1639 0.470643,-4.19917 0.791483,-6.74504 0.32084,-2.54587 0.6786156,-5.40254 0.7950756,-6.34816 0.11646,-0.94562 0.281821,-1.54055 0.36747,-1.32206 z m -95.847695,16.9593 c 0.675022,0.2391 1.416823,0.59275 1.648445,0.78589 0.231621,0.19315 0.610034,0.27919 0.840917,0.19121 0.230882,-0.088 0.678719,-0.0167 0.995189,0.15844 0.316473,0.17512 0.694396,0.3482 0.839832,0.38461 0.864468,0.21645 2.326362,0.8541 2.471899,1.07819 0.09396,0.14466 0.353749,0.26161 0.577354,0.25989 0.48053,-0.004 3.454382,0.97901 5.625841,1.85906 0.845542,0.34268 1.743808,0.62353 1.996157,0.62412 0.252339,5.9e-4 0.571662,0.11127 0.709587,0.24596 0.137936,0.13468 1.916356,0.80458 3.952053,1.48867 2.035697,0.68409 4.058117,1.39273 4.494252,1.57476 0.436136,0.18203 1.209345,0.48315 1.718231,0.66915 0.508887,0.18601 1.876925,0.69334 3.040084,1.12742 1.163159,0.43407 2.471793,0.88327 2.908096,0.9982 0.436292,0.11494 1.575775,0.52602 2.532172,0.91352 0.956397,0.38751 1.875138,0.70487 2.041648,0.70526 0.344659,8e-4 3.282041,1.36424 3.166943,1.46999 -0.04139,0.038 -2.337841,0.25867 -5.103289,0.49035 -2.765449,0.23168 -5.980836,0.53039 -7.145321,0.66378 -1.164485,0.1334 -3.605819,0.36752 -5.425191,0.52028 -1.819371,0.15275 -4.176281,0.38932 -5.237573,0.52572 -1.061291,0.1364 -2.728427,0.24826 -3.70475,0.24859 -0.976324,3.4e-4 -2.886529,0.16712 -4.244898,0.37065 -1.358369,0.20353 -3.396258,0.44869 -4.528657,0.5448 -1.957792,0.16618 -2.080119,0.14431 -2.491019,-0.44526 -0.237665,-0.341 -0.431187,-1.01806 -0.43005,-1.50457 0.0011,-0.48651 -0.103221,-1.08534 -0.231905,-1.33074 -0.128686,-0.24539 -0.293747,-0.92256 -0.366806,-1.50482 -0.07306,-0.58226 -0.330653,-1.95208 -0.572431,-3.04405 -0.24178,-1.09198 -0.481629,-2.40223 -0.533001,-2.91167 -0.05137,-0.50945 -0.224539,-1.46235 -0.384814,-2.11758 -0.160278,-0.65522 -0.35824,-1.81874 -0.43992,-2.5856 -0.08168,-0.76687 -0.252496,-1.4589 -0.37959,-1.53786 -0.348216,-0.21634 -0.275158,-1.09746 0.10219,-1.23257 0.182054,-0.0652 0.883299,0.0771 1.558321,0.31621 z m 82.2246536,7.78276 c -0.0033,0.12611 -0.161246,0.82423 -0.351436,1.5514 l -0.34579,1.32211 -2.8940837,0.3148 c -1.591739,0.17314 -4.3231299,0.43959 -6.0697409,0.59211 -1.746611,0.15252 -4.223483,0.40707 -5.504167,0.56566 -1.466828,0.18165 -2.421083,0.19534 -2.578693,0.037 -0.157601,-0.15834 0.113653,-0.27501 0.732999,-0.31526 0.540743,-0.0352 1.046537,-0.14757 1.123976,-0.24982 0.18114,-0.23917 6.853805,-1.89002 7.632053,-1.8882 0.324349,7.6e-4 0.796712,-0.10669 1.049711,-0.23877 0.2529995,-0.13208 1.1747031,-0.38052 2.0482264,-0.55208 0.8735332,-0.17157 1.8265907,-0.40901 2.1179092,-0.52765 0.291318,-0.11865 0.827462,-0.27391 1.191429,-0.34503 0.363977,-0.0711 0.929847,-0.21172 1.257503,-0.31244 0.327667,-0.10071 0.593209,-0.0799 0.590104,0.0462 z m -1.671208,5.67631 c -0.344159,1.41994 -0.723259,2.63495 -1.7652249,5.65749 -0.6014988,1.74485 -1.3187756,3.82677 -1.5939451,4.62649 -0.4784305,1.39049 -0.5376817,1.45084 -1.3553401,1.38071 -0.470267,-0.0403 -1.7035375,-0.41834 -2.7406055,-0.84002 -2.060468,-0.83779 -4.98396,-1.90139 -6.644229,-2.41724 -0.58167,-0.18072 -1.414411,-0.47654 -1.850559,-0.65736 -2.351998,-0.97514 -3.760219,-1.47305 -4.168867,-1.47401 -0.25185,-5.9e-4 -0.457621,-0.12013 -0.457281,-0.26565 3.4e-4,-0.14552 -0.282501,-0.26525 -0.62853,-0.26605 -0.575958,-0.001 -1.243753,-0.23106 -3.469121,-1.1933 -0.436121,-0.18858 -1.506835,-0.55611 -2.379348,-0.81672 -0.872523,-0.26062 -1.764786,-0.56026 -1.98283,-0.66588 -0.218033,-0.10561 -0.723304,-0.34576 -1.122826,-0.53366 -0.399532,-0.18791 -0.687422,-0.38046 -0.639761,-0.4279 0.04771,-0.0474 1.08951,-0.1445 2.31522,-0.21568 1.225709,-0.0712 3.300393,-0.24589 4.61042,-0.38823 1.310026,-0.14234 3.691825,-0.37463 5.29289,-0.5162 1.601065,-0.14157 4.101923,-0.37306 5.557468,-0.51443 4.079406,-0.39619 8.2316215,-0.75687 10.8223363,-0.94007 l 2.3538353,-0.16646 z m -46.2909726,3.69995 c -0.103628,0.11026 -0.639823,0.28706 -1.191542,0.39289 -0.551728,0.10582 -3.087967,0.72296 -5.63611,1.37142 -2.548132,0.64845 -5.407304,1.36071 -6.353715,1.5828 -2.657205,0.62355 -6.043957,1.49755 -7.949776,2.05157 -0.950638,0.27635 -1.936588,0.50196 -2.191008,0.50137 -0.510808,-0.001 -4.028413,0.83561 -6.221519,1.48003 -0.772664,0.22705 -1.467971,0.34938 -1.545128,0.27186 -0.254399,-0.25559 -0.681728,-2.14463 -0.804598,-3.55679 -0.08799,-1.01119 -0.02425,-1.42188 0.23465,-1.51199 0.195497,-0.068 1.546204,-0.1791 3.001578,-0.2468 2.989913,-0.13909 10.469355,-0.81581 13.170751,-1.19166 0.985293,-0.13709 2.541265,-0.2475 3.457712,-0.24536 0.916458,0.002 2.336693,-0.11842 3.156085,-0.26791 0.819392,-0.14949 2.359707,-0.32111 3.422931,-0.38138 1.063223,-0.0603 2.766752,-0.18629 3.785624,-0.28005 1.018862,-0.0938 1.767693,-0.0803 1.664065,0.03 z"
           id="path1802" />
      </g>
    </g>
  </g>
</svg>
