<?xml version="1.0" encoding="UTF-8" standalone="no"?>
<!-- Created with Inkscape (http://www.inkscape.org/) -->

<svg
   width="60mm"
   height="50mm"
   viewBox="0 0 60 50"
   version="1.1"
   id="svg5"
   inkscape:version="1.1.2 (b8e25be833, 2022-02-05)"
   sodipodi:docname="pico.svg"
   xmlns:inkscape="http://www.inkscape.org/namespaces/inkscape"
   xmlns:sodipodi="http://sodipodi.sourceforge.net/DTD/sodipodi-0.dtd"
   xmlns="http://www.w3.org/2000/svg"
   xmlns:svg="http://www.w3.org/2000/svg">
  <sodipodi:namedview
     id="namedview7"
     pagecolor="#ffffff"
     bordercolor="#666666"
     borderopacity="1.0"
     inkscape:pageshadow="2"
     inkscape:pageopacity="0.0"
     inkscape:pagecheckerboard="false"
     inkscape:document-units="mm"
     showgrid="false"
     inkscape:zoom="1.4142136"
     inkscape:cx="-102.88404"
     inkscape:cy="159.80613"
     inkscape:window-width="1920"
     inkscape:window-height="1017"
     inkscape:window-x="-8"
     inkscape:window-y="-8"
     inkscape:window-maximized="1"
     inkscape:current-layer="g3254"
     borderlayer="false" />
  <defs
     id="defs2" />
  <g
     inkscape:label="Capa 1"
     inkscape:groupmode="layer"
     id="layer1">
    <g
       id="g3254"
       transform="matrix(0.73601287,0,0,0.8126142,-78.439063,-6.1324164)">
      <path
         style="fill:#999999;stroke-width:0.625683"
         id="rect1084"
         width="123.46405"
         height="178.47327"
         x="-148.82593"
         y="-59.182915"
         sodipodi:type="rect"
         d="M -148.82593,-59.182915 H -25.361877 V 119.29035 H -148.82593 Z" />
      <path
         style="fill:#fd7e84;fill-opacity:1;stroke-width:0.0422127"
         d=""
         id="path72165"
         transform="matrix(0.35948194,0,0,0.32559526,106.57295,7.5465287)" />
      <path
         style="fill:#fd7e84;fill-opacity:1;stroke-width:0.0422127"
         d=""
         id="path72543"
         transform="matrix(0.35948194,0,0,0.32559526,106.57295,7.5465287)" />
      <path
         style="fill:#fd7e84;fill-opacity:1;stroke-width:0.0422127"
         d=""
         id="path72582"
         transform="matrix(0.35948194,0,0,0.32559526,106.57295,7.5465287)" />
      <path
         style="fill:#fd7e84;fill-opacity:1;stroke-width:0.0422127"
         d=""
         id="path72621"
         transform="matrix(0.35948194,0,0,0.32559526,106.57295,7.5465287)" />
      <path
         style="fill:#000000;fill-opacity:0.993521;stroke-width:0.0596978"
         d=""
         id="path204894"
         transform="matrix(0.35948194,0,0,0.32559526,106.57295,7.5465287)" />
      <path
         style="fill:#000000;fill-opacity:0.993521;stroke-width:0.0596978"
         d=""
         id="path204933"
         transform="matrix(0.35948194,0,0,0.32559526,106.57295,7.5465287)" />
      <path
         style="fill:#000000;fill-opacity:0.993521;stroke-width:0.0596978"
         d=""
         id="path204935"
         transform="matrix(0.35948194,0,0,0.32559526,106.57295,7.5465287)" />
      <path
         style="fill:#000000;fill-opacity:0.993521;stroke-width:0.0596978"
         d=""
         id="path204937"
         transform="matrix(0.35948194,0,0,0.32559526,106.57295,7.5465287)" />
      <path
         style="fill:#000000;fill-opacity:0.993521;stroke-width:0.0596978"
         d=""
         id="path204939"
         transform="matrix(0.35948194,0,0,0.32559526,106.57295,7.5465287)" />
      <path
         style="fill:#000000;fill-opacity:0.993521;stroke-width:0.0596978"
         d=""
         id="path204941"
         transform="matrix(0.35948194,0,0,0.32559526,106.57295,7.5465287)" />
      <path
         style="fill:#000000;fill-opacity:0.993521;stroke-width:0.0596978"
         d=""
         id="path204943"
         transform="matrix(0.35948194,0,0,0.32559526,106.57295,7.5465287)" />
      <path
         style="fill:#000000;fill-opacity:0.993521;stroke-width:0.0596978"
         d=""
         id="path204945"
         transform="matrix(0.35948194,0,0,0.32559526,106.57295,7.5465287)" />
      <path
         style="fill:#000000;fill-opacity:0.993521;stroke-width:0.0596978"
         d=""
         id="path204947"
         transform="matrix(0.35948194,0,0,0.32559526,106.57295,7.5465287)" />
      <path
         style="fill:#000000;fill-opacity:0.993521;stroke-width:0.0596978"
         d=""
         id="path204990"
         transform="matrix(0.35948194,0,0,0.32559526,106.57295,7.5465287)" />
      <path
         style="fill:#000000;fill-opacity:0.993521;stroke-width:0.0596978"
         d=""
         id="path205029"
         transform="matrix(0.35948194,0,0,0.32559526,106.57295,7.5465287)" />
      <path
         style="fill:#000000;fill-opacity:0.993521;stroke-width:0.0596978"
         d=""
         id="path205068"
         transform="matrix(0.35948194,0,0,0.32559526,106.57295,7.5465287)" />
      <path
         style="fill:#000000;fill-opacity:0.993521;stroke-width:0.337701"
         d=""
         id="path207194"
         transform="matrix(0.35948194,0,0,0.32559526,106.57295,7.5465287)" />
      <path
         style="fill:#000000;fill-opacity:0.993521;stroke-width:0.337701"
         d=""
         id="path207233"
         transform="matrix(0.35948194,0,0,0.32559526,106.57295,7.5465287)" />
      <path
         style="fill:#000000;fill-opacity:1;stroke-width:0.477582"
         d=""
         id="path232869"
         transform="matrix(0.35948194,0,0,0.32559526,106.57295,7.5465287)" />
      <path
         style="fill:#000000;fill-opacity:1;stroke-width:0.0883883"
         d=""
         id="path237305"
         transform="matrix(0.35948194,0,0,0.32559526,106.57295,7.5465287)" />
      <path
         style="fill:#000000;fill-opacity:1;stroke-width:0.0883883"
         d=""
         id="path237344"
         transform="matrix(0.35948194,0,0,0.32559526,106.57295,7.5465287)" />
      <path
         style="fill:#000000;fill-opacity:1;stroke-width:0.0883883"
         d=""
         id="path237383"
         transform="matrix(0.35948194,0,0,0.32559526,106.57295,7.5465287)" />
      <path
         style="fill:#000000;fill-opacity:1;stroke-width:0.0883883"
         d=""
         id="path237422"
         transform="matrix(0.35948194,0,0,0.32559526,106.57295,7.5465287)" />
      <path
         style="fill:#000000;fill-opacity:1;stroke-width:0.0441942"
         d=""
         id="path237498"
         transform="matrix(0.35948194,0,0,0.32559526,106.57295,7.5465287)" />
      <path
         style="fill:#000000;fill-opacity:1;stroke-width:0.0441942"
         d=""
         id="path237537"
         transform="matrix(0.35948194,0,0,0.32559526,106.57295,7.5465287)" />
      <path
         style="fill:#000000;fill-opacity:1;stroke-width:0.03125"
         d=""
         id="path237576"
         transform="matrix(0.35948194,0,0,0.32559526,106.57295,7.5465287)" />
      <path
         style="fill:#000000;fill-opacity:1;stroke-width:0.03125"
         d=""
         id="path238782"
         transform="matrix(0.35948194,0,0,0.32559526,106.57295,7.5465287)" />
      <path
         style="fill:#000000;fill-opacity:1;stroke-width:0.03125"
         d=""
         id="path238821"
         transform="matrix(0.35948194,0,0,0.32559526,106.57295,7.5465287)" />
      <path
         style="fill:#000000;fill-opacity:1;stroke-width:0.03125"
         d=""
         id="path238860"
         transform="matrix(0.35948194,0,0,0.32559526,106.57295,7.5465287)" />
      <path
         style="fill:#000000;fill-opacity:1;stroke-width:0.03125"
         d=""
         id="path242003"
         transform="matrix(0.35948194,0,0,0.32559526,106.57295,7.5465287)" />
      <path
         style="fill:#000000;fill-opacity:1;stroke-width:0.03125"
         d=""
         id="path242042"
         transform="matrix(0.35948194,0,0,0.32559526,106.57295,7.5465287)" />
      <path
         style="fill:#000000;fill-opacity:1;stroke-width:0.03125"
         d=""
         id="path242044"
         transform="matrix(0.35948194,0,0,0.32559526,106.57295,7.5465287)" />
      <path
         style="fill:#000000;fill-opacity:1;stroke-width:0.03125"
         d=""
         id="path242046"
         transform="matrix(0.35948194,0,0,0.32559526,106.57295,7.5465287)" />
      <path
         style="fill:#000000;fill-opacity:1;stroke-width:0.03125"
         d=""
         id="path242048"
         transform="matrix(0.35948194,0,0,0.32559526,106.57295,7.5465287)" />
      <path
         style="fill:#000000;fill-opacity:1;stroke-width:0.03125"
         d=""
         id="path242050"
         transform="matrix(0.35948194,0,0,0.32559526,106.57295,7.5465287)" />
      <path
         style="fill:#000000;fill-opacity:1;stroke-width:0.03125"
         d=""
         id="path242089"
         transform="matrix(0.35948194,0,0,0.32559526,106.57295,7.5465287)" />
      <path
         style="fill:#000000;fill-opacity:1;stroke-width:0.03125"
         d=""
         id="path242128"
         transform="matrix(0.35948194,0,0,0.32559526,106.57295,7.5465287)" />
      <path
         style="fill:#000000;fill-opacity:1;stroke-width:0.03125"
         d=""
         id="path242167"
         transform="matrix(0.35948194,0,0,0.32559526,106.57295,7.5465287)" />
      <path
         style="fill:#000000;fill-opacity:1;stroke-width:0.03125"
         d=""
         id="path242206"
         transform="matrix(0.35948194,0,0,0.32559526,106.57295,7.5465287)" />
      <path
         style="fill:#030303;stroke:none;stroke-width:0.239186"
         d="m -112.25494,13.758865 c -2.16116,-0.593893 -4.1209,0.408045 -5.90145,1.017266 -4.15603,1.422024 -8.2792,2.903029 -12.40541,4.37167 -4.4129,1.570675 -8.86023,3.088105 -13.27328,4.658879 -1.89143,0.673337 -4.56548,1.142463 -5.59102,2.724481 -0.96209,1.484223 -0.10646,3.487498 0.33343,5.16097 1.02678,3.906321 2.0018,7.814576 3.02863,11.720921 4.01105,15.259206 7.81627,30.531464 11.82733,45.790665 2.00553,7.62962 3.90807,15.265703 5.91359,22.895313 0.63964,2.43414 0.79991,6.44608 4.38419,7.50136 2.4393,0.71825 4.63976,-0.44777 6.66115,-1.11977 4.70589,-1.56386 9.38531,-3.1686 14.09131,-4.73264 18.714423,-6.21946 37.304463,-12.64116 56.016373,-18.864213 5.28325,-1.75693 10.54087,-3.5526 15.82415,-5.30855 2.21029,-0.73452 4.92566,-1.31621 5.19555,-3.63275 0.28898,-2.480927 -1.15232,-5.706067 -1.76443,-8.243999 -1.34519,-5.579273 -2.62261,-11.165724 -4.0436,-16.741009 -0.65856,-2.583322 -0.68693,-6.570308 -2.75235,-8.83137 -1.41502,-1.549075 -4.36644,-2.520684 -6.32084,-3.481452 l -14.42543,-7.091396 -38.70824,-19.028577 -12.021173,-5.90949 c -1.90489,-0.936418 -4.00642,-2.289681 -6.06846,-2.856313 m 26.639273,20.583273 -12.01687,4.324716 -7.381453,2.320236 -4.16324,-18.227563 23.561563,11.582611 m 40.39117,19.855912 c -4.26901,2.090758 -9.36832,3.403911 -13.97763,5.026486 -0.99902,0.351718 -3.76321,1.908086 -4.94078,1.329194 -1.17761,-0.578894 -1.28362,-3.546201 -1.51407,-4.502369 -1.06468,-4.415041 -2.67963,-9.021076 -3.12898,-13.435938 l 23.56152,11.582617 m -32.49535,-14.308703 3.42482,14.05729 1.20459,6.541036 -26.44662,-13.000893 6.6289,-2.690177 14.70747,-5.143643 0.48084,0.23638 m -39.552693,-17.064145 2.87364,12.358597 0.91724,5.447971 -22.59983,-11.109861 5.47366,-2.30625 12.85444,-4.626839 0.48085,0.236382 m 76.935633,37.820784 c 1.18047,5.682422 4.20693,12.331333 4.03132,17.92475 l -22.84032,-11.228026 c 1.5138,-1.200391 3.88519,-1.68225 5.82236,-2.372801 3.92522,-1.399149 8.57433,-3.993308 12.98659,-4.323909 M -113.4788,48.009778 c -3.11371,11.085006 -4.76772,22.837847 -6.94115,34.184713 -0.94088,4.912406 -1.19405,10.754916 -3.23645,15.303826 l -0.24042,-0.11825 c -0.62161,-5.49704 -2.79943,-11.34578 -4.24363,-16.839346 -2.57707,-9.804685 -5.00179,-19.6192 -7.57661,-29.42374 -1.34414,-5.118629 -3.73231,-10.890644 -3.96792,-15.989965 l 26.20618,12.88271 m 39.669943,19.50134 -8.57772,7.681032 -21.460403,18.956739 -12.06019,10.728213 -0.48086,-0.23639 3.12797,-15.119183 5.25081,-25.973402 2.46445,-11.638081 31.735943,15.601072 m 34.14019,16.782961 c -4.77966,2.63387 -11.36032,3.99688 -16.76947,5.79566 -10.36058,3.44562 -20.64756,7.01121 -31.00962,10.455163 -5.80752,1.92987 -12.33896,3.49438 -17.696013,6.05405 l -0.24041,-0.11824 c 3.02432,-4.07263 8.205303,-7.481253 12.168673,-10.912853 9.14656,-7.91919 18.95107,-15.665083 27.34065,-24.15653 z"
         id="path271406" />
      <path
         style="fill:#020202;stroke:none;stroke-width:0.268139"
         d="m 148.89825,27.599612 c -3.89734,1.635926 -7.03724,4.844812 -10.27044,7.308551 -5.45389,4.156045 -11.06585,8.152061 -16.54682,12.280384 -3.20307,2.41283 -8.35454,4.944615 -10.55307,8.136936 -1.27685,1.853853 0.48005,3.261636 1.99438,4.425708 2.56336,1.970282 5.79187,5.890692 9.69986,5.315335 3.3505,-0.493457 6.6096,-4.087242 9.12927,-5.94437 6.85865,-5.055254 13.67737,-10.15284 20.54088,-15.203553 2.16478,-1.592767 4.52298,-3.016417 6.56166,-4.735946 0.6479,-0.546632 1.57167,-1.736162 2.56761,-1.740443 1.80789,-0.0078 4.141,2.919138 4.58206,4.270462 1.2972,3.974849 -1.25986,10.854458 6.54426,10.285402 8.81802,-0.643153 10.271,-8.701459 10.27044,-14.821742 -2.9e-4,-4.314821 -1.50434,-9.360996 -6.56167,-11.088843 1.5534,-1.190841 3.33532,-2.287955 4.14155,-4.032305 1.93939,-4.195866 -2.43638,-7.849966 -6.70916,-8.83972 -2.22555,-0.515555 -4.82226,-0.324677 -6.84697,0.653561 -0.98167,0.474376 -2.28659,1.864009 -3.42348,1.876358 -1.97449,0.02142 -4.994,-3.064074 -7.13225,-3.680336 -4.78288,-1.37852 -12.20926,-1.091545 -17.11739,-0.276918 -4.31958,0.716918 -13.26256,4.482713 -10.15147,9.510796 2.22355,3.593213 8.06116,2.377623 11.86321,2.530322 2.88085,0.115676 5.70095,1.788907 7.41754,3.770361 z"
         id="path275571" />
    </g>
  </g>
</svg>
