<?xml version="1.0" encoding="UTF-8" standalone="no"?>
<!-- Created with Inkscape (http://www.inkscape.org/) -->

<svg
   width="60mm"
   height="60mm"
   viewBox="0 0 60 60"
   version="1.1"
   id="svg5"
   inkscape:version="1.1.2 (b8e25be833, 2022-02-05)"
   sodipodi:docname="picofondo1.svg"
   xmlns:inkscape="http://www.inkscape.org/namespaces/inkscape"
   xmlns:sodipodi="http://sodipodi.sourceforge.net/DTD/sodipodi-0.dtd"
   xmlns="http://www.w3.org/2000/svg"
   xmlns:svg="http://www.w3.org/2000/svg">
  <sodipodi:namedview
     id="namedview7"
     pagecolor="#ffffff"
     bordercolor="#666666"
     borderopacity="1.0"
     inkscape:pageshadow="2"
     inkscape:pageopacity="0.0"
     inkscape:pagecheckerboard="false"
     inkscape:document-units="mm"
     showgrid="false"
     inkscape:zoom="1.4805976"
     inkscape:cx="64.500983"
     inkscape:cy="104.68746"
     inkscape:window-width="1920"
     inkscape:window-height="1017"
     inkscape:window-x="-8"
     inkscape:window-y="-8"
     inkscape:window-maximized="1"
     inkscape:current-layer="g3254"
     borderlayer="false" />
  <defs
     id="defs2" />
  <g
     inkscape:label="Capa 1"
     inkscape:groupmode="layer"
     id="layer1">
    <g
       id="g3254"
       transform="matrix(0.73601287,0,0,0.8126142,-78.439063,-6.1324164)">
      <g
         id="g2180"
         transform="matrix(0.59722224,0,0,0.61904761,10.201817,-45.913297)">
        <rect
           style="fill:#666666;stroke-width:0.342119"
           id="rect2093"
           width="139.85002"
           height="120.06977"
           x="160.95906"
           y="86.713402" />
        <path
           style="fill:#020202;stroke:none;stroke-width:0.342119"
           d="m 233.73891,126.96718 c -7.35392,3.31781 -13.30694,11.07577 -19.05254,16.27976 -8.98525,8.13825 -18.33419,15.95482 -27.32063,24.09405 -3.68897,3.34126 -8.85702,6.63823 -11.50148,10.74464 -1.03481,1.60681 -0.92444,3.68281 0.23273,5.20952 1.10925,1.46356 2.71743,2.61453 4.04694,3.90715 3.17473,3.08697 7.88879,9.51943 13.333,8.93466 3.07487,-0.33016 5.18984,-2.84571 7.20381,-4.69737 3.49725,-3.21557 7.23874,-6.24817 10.77029,-9.44682 10.71831,-9.70794 21.61421,-19.33351 32.71286,-28.68168 3.38632,-2.85189 6.44299,-6.578 10.06549,-9.08736 1.78698,3.11985 5.71828,4.84811 6.63999,8.46547 1.37682,5.40326 -2.15617,12.80111 3.13253,17.08757 7.21336,5.84638 16.20185,-1.20991 19.89732,-6.99411 1.80855,-2.8304 2.39163,-5.92226 2.74429,-9.11667 1.04789,-9.49176 1.30851,-24.30667 -9.76677,-29.30358 3.63688,-4.47531 8.08906,-7.40687 6.71728,-13.675 -2.5818,-11.795804 -19.40376,-13.668264 -26.48878,-4.55833 -2.96753,-2.68763 -6.17159,-5.74705 -10.0655,-7.321144 -4.05675,-1.6399 -8.60743,-1.46994 -12.94135,-1.46994 -6.13456,0 -12.52435,-0.51121 -18.33358,1.63277 -6.03462,2.227134 -14.49611,7.759784 -12.75118,14.647004 2.26042,8.92066 13.16387,5.67773 20.3003,6.60958 4.10996,0.53658 8.09086,3.76323 10.42498,6.73983 z"
           id="path2029" />
      </g>
    </g>
  </g>
</svg>
