<?xml version="1.0" encoding="UTF-8" standalone="no"?>
<!-- Created with Inkscape (http://www.inkscape.org/) -->

<svg
   width="60mm"
   height="60mm"
   viewBox="0 0 60 60"
   version="1.1"
   id="svg5"
   inkscape:version="1.1.2 (b8e25be833, 2022-02-05)"
   sodipodi:docname="picofondo.svg"
   xmlns:inkscape="http://www.inkscape.org/namespaces/inkscape"
   xmlns:sodipodi="http://sodipodi.sourceforge.net/DTD/sodipodi-0.dtd"
   xmlns="http://www.w3.org/2000/svg"
   xmlns:svg="http://www.w3.org/2000/svg">
  <sodipodi:namedview
     id="namedview7"
     pagecolor="#ffffff"
     bordercolor="#666666"
     borderopacity="1.0"
     inkscape:pageshadow="2"
     inkscape:pageopacity="0.0"
     inkscape:pagecheckerboard="false"
     inkscape:document-units="mm"
     showgrid="false"
     inkscape:zoom="2.0938812"
     inkscape:cx="221.35926"
     inkscape:cy="138.97637"
     inkscape:window-width="1920"
     inkscape:window-height="1017"
     inkscape:window-x="-8"
     inkscape:window-y="-8"
     inkscape:window-maximized="1"
     inkscape:current-layer="g3254"
     borderlayer="false" />
  <defs
     id="defs2" />
  <g
     inkscape:label="Capa 1"
     inkscape:groupmode="layer"
     id="layer1">
    <g
       id="g3254"
       transform="matrix(0.73601287,0,0,0.8126142,-78.439063,-6.1324164)">
      <g
         id="g888"
         transform="matrix(1.0323974,0,0,0.99583333,-4.3333462,-1.0525098)">
        <rect
           style="fill:#999999;stroke-width:0.324664"
           id="rect1084"
           width="79.488815"
           height="74.639252"
           x="107.25968"
           y="8.6350183" />
        <g
           inkscape:label="Capa 1"
           id="layer1-7"
           transform="matrix(0.92162291,0,0,0.84459447,107.92264,10.794769)">
          <path
             style="fill:#000000;stroke-width:0.00390625"
             d=""
             id="path1323"
             transform="scale(0.26458333)" />
          <path
             style="fill:#000000;stroke-width:0.00390625"
             d=""
             id="path1401"
             transform="scale(0.26458333)" />
          <g
             id="g1945"
             transform="translate(-44.714583,-46.83125)">
            <path
               style="fill:#000000;stroke:none;stroke-width:0.264583"
               d="m 88.753801,72.77425 v 0.26458 c -4.101571,2.88925 -7.564173,7.29959 -11.1125,10.84792 L 56.21005,105.318 c -2.379954,2.37992 -4.792081,4.73207 -7.139861,7.14375 -1.18282,1.21497 -2.412084,2.67229 -2.015212,4.49792 0.333547,1.53432 1.748962,2.64768 2.805073,3.70416 2.394823,2.39581 7.174018,9.52262 11.1125,7.87718 1.785461,-0.74613 3.161004,-2.57149 4.497917,-3.90843 l 8.202084,-8.20208 19.314583,-19.31459 c 3.21231,-3.2123 7.173386,-6.34021 9.789586,-10.05416 h 0.26459 c 1.59014,2.25742 4.26984,3.75629 4.88976,6.61458 1.06283,4.89876 -1.99813,12.1629 3.84149,14.97463 5.72214,2.7551 11.43952,-3.83435 13.33076,-8.62463 1.36314,-3.45255 1.22132,-6.94346 1.22132,-10.58333 0,-7.5946 -0.31274,-13.70886 -7.14375,-18.52084 v -0.26458 c 3.26893,-2.30259 5.6269,-5.94648 4.94083,-10.05417 -0.99933,-5.98561 -8.77491,-11.2465 -14.46583,-8.06222 -1.74784,0.97798 -3.35068,2.46496 -4.49792,4.09347 -2.19445,-2.19437 -4.27646,-4.6674 -7.143756,-5.99966 -2.91729,-1.35556 -6.133302,-1.14409 -9.260413,-1.14409 -4.034896,0 -8.32485,-0.45221 -12.170834,1.00913 -5.011208,1.90407 -12.071588,7.44836 -9.17366,13.54296 2.830751,5.95331 10.084885,2.60561 14.994494,3.90628 2.706158,0.71686 4.167452,3.2875 6.35,4.82497 m 25.929169,29.63333 c 0,-3.97431 0.58394,-8.391 -0.85513,-12.17083 -1.18692,-3.11706 -3.72216,-5.37104 -6.02403,-7.67292 L 98.014214,72.77425 C 94.353704,69.11366 90.54503,63.87851 85.578801,61.98779 81.798963,60.5487 77.382274,61.13258 73.407967,61.13258 c 3.806825,-5.40403 9.176015,-5.02708 15.081251,-5.02708 2.478352,0 5.166256,-0.34653 7.408336,0.93461 2.03279,1.16166 3.651252,3.24591 5.291666,4.88622 l 8.99584,8.99583 c 3.01175,3.01176 8.22219,6.56961 9.32365,10.84792 0.47069,1.82827 0.20135,3.9452 0.20135,5.82083 0,5.14694 0.65722,12.16554 -5.02709,14.81667 m -1.5875,-44.02066 c 3.53563,-1.15059 6.3463,5.9658 1.5875,7.15211 -1.02896,0.25651 -2.02194,-1.1367 -2.64583,-1.76062 -1.9468,-1.94683 -2.19922,-4.33136 1.05833,-5.39149 M 93.516304,78.12068 c 1.27767,0 4.64476,3.42503 4.03436,4.70773 -1.50548,3.16468 -6.052605,6.25158 -8.53228,8.73125 L 68.91005,111.668 l -6.614583,6.61458 c -0.641562,0.64135 -1.637321,2.0619 -2.645834,2.0619 -1.27754,0 -4.64476,-3.42503 -4.034499,-4.70773 1.505585,-3.16468 6.052873,-6.25157 8.532416,-8.73125 l 20.108334,-20.10834 6.614584,-6.61458 c 0.641614,-0.64135 1.637246,-2.0619 2.645836,-2.0619 z"
               id="path93" />
            <path
               style="fill:#000000;stroke-width:1.35081"
               d="m 218.80855,450.29325 c -2.6641,-2.33913 -5.76883,-6.04171 -6.8994,-8.22799 -1.9548,-3.78018 -1.86893,-4.24437 1.75165,-9.46887 2.09397,-3.02161 11.40814,-12.3276 20.69816,-20.67998 9.29001,-8.35239 39.34745,-37.73754 66.7943,-65.30034 35.17269,-35.32128 50.7723,-50.11418 52.84709,-50.11418 3.54372,0 14.09425,10.9549 14.09425,14.63444 0,4.06493 -8.12399,13.56694 -21.76714,25.45936 -6.97312,6.07832 -36.6861,35.10376 -66.02883,64.50099 -29.34273,29.39722 -54.09198,53.4495 -54.99833,53.4495 -0.90636,0 -3.82764,-1.91382 -6.49175,-4.25293 z"
               id="path267"
               transform="scale(0.26458333)" />
            <path
               style="fill:#000000;stroke-width:1.35081"
               d="m 434.26299,370.50603 c -0.0245,-17.67902 -2.0726,-27.86985 -7.44745,-37.05615 -3.51381,-6.00555 -71.38113,-76.32617 -85.73706,-88.83632 -3.34324,-2.9134 -10.02973,-7.15176 -14.85886,-9.41857 -8.17204,-3.836 -10.13171,-4.17124 -28.29081,-4.83974 l -19.51056,-0.71825 6.41514,-5.63948 c 10.30047,-9.05503 15.27798,-10.26622 44.76324,-10.89238 24.83464,-0.52739 25.84908,-0.44356 31.3431,2.59019 3.12278,1.72437 23.50413,20.76324 45.29191,42.30859 30.48374,30.14457 40.33279,40.70701 42.73218,45.8274 2.98537,6.37089 3.09777,7.77915 2.64134,33.09475 -0.43432,24.08992 -0.75098,27.0397 -3.56164,33.17791 -3.19602,6.97978 -7.31171,12.17042 -11.39552,14.37186 -2.18645,1.17863 -2.36549,0.12995 -2.38501,-13.96981 z"
               id="path306"
               transform="scale(0.26458333)" />
            <path
               style="fill:#000000;stroke-width:1.35081"
               d="m 426.57869,243.39695 c -6.04676,-5.30912 -9.13389,-12.08569 -7.17403,-15.74773 3.64086,-6.80302 12.25489,-8.76299 17.40908,-3.96113 5.96655,5.55869 7.19759,13.65306 2.90616,19.10873 -4.18053,5.31469 -7.59408,5.47058 -13.14121,0.60013 z"
               id="path345"
               transform="scale(0.26458333)" />
            <path
               style="fill:#000000;stroke-width:0.0596978"
               d="m 224.49339,454.68067 c -3.13675,-0.83643 -8.44816,-5.31663 -11.73982,-9.90258 -1.66777,-2.32356 -2.58201,-4.26252 -2.77287,-5.8808 -0.11636,-0.98664 0.0298,-1.51326 0.82852,-2.98432 2.56759,-4.72921 6.76397,-9.59494 13.77372,-15.97072 1.44394,-1.31335 4.6484,-4.11786 7.67116,-6.71371 4.51372,-3.87624 6.36556,-5.50856 8.25149,-7.27333 0.50347,-0.47113 0.92135,-0.81695 0.97382,-0.80592 0.12867,0.0271 -3.26909,3.22773 -7.94148,7.48081 -8.19212,7.45693 -15.24274,14.40661 -18.65075,18.38374 -0.92434,1.0787 -2.18342,2.85445 -3.14266,4.43228 -1.13927,1.87395 -1.35141,2.91905 -0.8861,4.36538 0.21898,0.68065 1.17576,2.58816 1.69702,3.38329 2.03939,3.11092 5.32918,6.57634 8.50096,8.95482 1.665,1.24857 3.46002,2.30587 4.06549,2.39467 0.21823,0.032 0.27438,0.01 0.60716,-0.24038 2.93523,-2.20646 22.5252,-21.19967 45.14961,-43.77425 l 5.40277,-5.39087 h 0.53713 0.53713 l -21.43705,21.44642 c -14.23524,14.24147 -21.77598,21.82747 -22.44595,22.58067 -2.33582,2.62601 -3.84563,3.99965 -5.322,4.84201 -1.28001,0.73031 -2.55915,0.96562 -3.6573,0.67279 z"
               id="path384"
               transform="scale(0.26458333)" />
            <path
               style="fill:#000000;stroke-width:0.00390625"
               d="m 225.28906,454.83946 c -0.009,-8.1e-4 -0.0411,-0.003 -0.0723,-0.006 -0.30062,-0.0219 -0.66552,-0.0989 -1.04297,-0.22006 -0.36312,-0.11654 -0.74168,-0.27229 -1.17676,-0.48414 l -0.10059,-0.049 v -0.0179 -0.0179 l 0.0928,0.0464 c 0.61201,0.30607 1.25305,0.54624 1.70019,0.63699 0.27992,0.0568 0.50462,0.077 0.81833,0.0733 0.17415,-0.002 0.25521,-0.006 0.3887,-0.0204 0.7303,-0.0773 1.49421,-0.33875 2.25169,-0.77049 0.58567,-0.3338 1.16048,-0.7415 1.78835,-1.26844 l 0.0264,-0.0221 v 0.0192 0.0192 l -0.0752,0.0624 c -0.72089,0.59828 -1.4127,1.06421 -2.0752,1.39763 -0.71498,0.35984 -1.38005,0.5583 -2.05664,0.61371 -0.0709,0.006 -0.42389,0.0112 -0.4668,0.007 z"
               id="path1015"
               transform="scale(0.26458333)" />
            <path
               style="fill:#000000;stroke-width:0.00390625"
               d="m 225.5498,454.84301 c 0.004,-9.8e-4 0.01,-9.8e-4 0.0137,0 0.004,9.8e-4 6.8e-4,0.002 -0.007,0.002 -0.008,0 -0.0106,-8.1e-4 -0.007,-0.002 z"
               id="path1054"
               transform="scale(0.26458333)" />
            <path
               style="fill:#000000;stroke-width:0.00390625"
               d="m 225.22336,454.54087 c -0.33663,-0.0379 -0.8653,-0.26241 -1.57492,-0.66888 -0.17771,-0.10179 -0.4075,-0.24055 -0.60938,-0.36798 -0.0537,-0.0339 -0.10776,-0.068 -0.12011,-0.0758 l -0.0225,-0.0141 v -0.7588 -0.7588 h 2.77826 2.77825 l -0.0136,0.0131 c -0.007,0.007 -0.0655,0.0604 -0.12884,0.11831 -1.70113,1.55301 -2.68681,2.38644 -2.96094,2.5036 -0.0288,0.0123 -0.0718,0.0155 -0.12625,0.009 z"
               id="path1167"
               transform="scale(0.26458333)" />
            <path
               style="fill:#000000;stroke-width:0.00390625"
               d="m 225.38656,454.51608 c 0.29,-0.14889 1.15866,-0.8806 2.61344,-2.20141 0.23242,-0.21101 0.41558,-0.37819 0.4399,-0.40152 0.0141,-0.0135 0.0204,-0.017 0.029,-0.016 0.01,10e-4 -9.8e-4,0.0123 -0.1235,0.12443 -1.19415,1.09325 -2.09044,1.87643 -2.56224,2.23885 -0.21156,0.16251 -0.32334,0.23693 -0.40342,0.26858 -0.0484,0.0191 -0.0457,0.014 0.007,-0.0129 z"
               id="path1206"
               transform="scale(0.26458333)" />
            <path
               style="fill:#000000;stroke-width:0.00390625"
               d="m 225.14844,454.54653 c -0.16402,-0.0222 -0.36605,-0.0931 -0.67543,-0.23703 -0.0514,-0.0239 -0.0915,-0.0441 -0.0892,-0.0449 0.002,-7.7e-4 0.0134,0.003 0.0246,0.009 0.0387,0.0196 0.18846,0.0843 0.27074,0.11687 0.23408,0.0928 0.4132,0.14177 0.56545,0.15466 0.0287,0.002 0.053,0.005 0.0538,0.006 0.004,0.004 -0.11456,2e-4 -0.15006,-0.005 z"
               id="path1245"
               transform="scale(0.26458333)" />
            <path
               style="fill:#000000;stroke-width:0.00390625"
               d="m 225.20626,454.53899 c -0.33407,-0.0421 -0.86892,-0.27118 -1.56173,-0.66898 -0.19486,-0.11189 -0.50123,-0.29817 -0.7119,-0.43286 l -0.0361,-0.0231 -1e-5,-0.75879 -2e-5,-0.75879 h 2.77735 c 1.52754,0 2.77734,6.3e-4 2.77734,10e-4 0,0.002 -0.0796,0.0749 -0.28125,0.25852 -1.40007,1.27497 -2.26628,2.01765 -2.66211,2.28246 -0.043,0.0288 -0.079,0.0532 -0.0801,0.0543 -0.005,0.005 0.0205,-0.01 0.0566,-0.0333 0.37138,-0.24025 1.27947,-1.0172 2.6855,-2.29767 0.0956,-0.087 0.19905,-0.18154 0.22994,-0.21001 0.0508,-0.0468 0.067,-0.0585 0.067,-0.0483 0,0.01 -0.81112,0.74564 -1.30078,1.18047 -0.96253,0.85473 -1.56974,1.34751 -1.76902,1.43564 -0.0231,0.0102 -0.0361,0.0124 -0.0191,0.003 0.0203,-0.011 0.0107,-0.009 -0.0215,0.005 -0.0285,0.0124 -0.0365,0.0141 -0.0693,0.015 -0.0204,5.2e-4 -0.0568,-0.002 -0.0809,-0.005 z m 0.21757,-0.0431 c 0,-10e-4 -0.007,0.002 -0.0156,0.006 -0.009,0.004 -0.0156,0.009 -0.0156,0.01 0,0.001 0.007,-0.002 0.0156,-0.006 0.009,-0.004 0.0156,-0.009 0.0156,-0.01 z"
               id="path1284"
               transform="scale(0.26458333)" />
            <path
               style="fill:#000000;stroke-width:0.00390625"
               d="m 225.16211,454.54633 c -0.005,-7.9e-4 -0.023,-0.003 -0.0391,-0.006 -0.0837,-0.0118 -0.23564,-0.0574 -0.36761,-0.11029 -0.0951,-0.0381 -0.20345,-0.0853 -0.20114,-0.0876 0.001,-0.001 0.0314,0.0105 0.0675,0.0255 0.13428,0.0558 0.25988,0.10012 0.36842,0.13005 0.0642,0.0177 0.15842,0.0375 0.19336,0.0406 0.0129,10e-4 -2.9e-4,-0.002 -0.0293,-0.007 -0.22169,-0.0399 -0.49397,-0.13905 -0.84502,-0.3076 -0.38054,-0.18271 -0.81639,-0.43169 -1.37666,-0.7864 l -0.0361,-0.0229 v -0.75911 -0.75911 h 2.77735 c 1.52754,0 2.77734,7.5e-4 2.77734,0.002 0,0.003 -0.46928,0.43052 -0.78515,0.71537 -1.04052,0.93832 -1.77691,1.56357 -2.12012,1.80015 -0.0242,0.0167 -0.0439,0.0311 -0.0439,0.0322 0,0.004 0.0874,-0.0577 0.17601,-0.12402 0.45937,-0.34369 1.34803,-1.11588 2.61242,-2.27002 0.0912,-0.0833 0.16821,-0.15137 0.17112,-0.15137 0.003,0 0.005,0.002 0.005,0.003 0,0.004 -0.0828,0.0811 -0.29883,0.27813 -1.45693,1.32868 -2.39879,2.12933 -2.71875,2.31117 -0.0494,0.0281 -0.0965,0.0474 -0.074,0.0304 0.004,-0.003 -0.006,-2.6e-4 -0.0217,0.006 -0.0242,0.01 -0.0372,0.0127 -0.0742,0.0153 -0.046,0.003 -0.0998,0.004 -0.11719,10e-4 z m 0.0771,-0.004 c -0.006,-8.9e-4 -0.0156,-8.9e-4 -0.0215,0 -0.006,9e-4 -0.001,0.002 0.0108,0.002 0.0118,0 0.0166,-7.3e-4 0.0107,-0.002 z m 0.18457,-0.0462 c 0,-10e-4 -0.005,7.8e-4 -0.0117,0.004 -0.006,0.003 -0.0117,0.007 -0.0117,0.008 0,0.001 0.005,-7.7e-4 0.0117,-0.004 0.006,-0.003 0.0117,-0.007 0.0117,-0.008 z m 0.0549,-0.0337 0.01,-0.008 -0.012,0.007 c -0.007,0.004 -0.0163,0.0101 -0.0215,0.0143 l -0.01,0.008 0.012,-0.007 c 0.007,-0.004 0.0163,-0.0101 0.0215,-0.0143 z"
               id="path1362"
               transform="scale(0.26458333)" />
            <path
               style="fill:#000000;stroke-width:0.5"
               d="m 425.495,243.24478 c -0.78765,-0.82213 -1.20422,-1.49478 -0.9257,-1.49478 0.64339,0 2.93457,2.4128 2.60455,2.74281 -0.13571,0.13572 -0.8912,-0.42589 -1.67885,-1.24803 z"
               id="path1440"
               transform="scale(0.26458333)" />
            <path
               style="fill:#000000;stroke-width:0.5"
               d="m 425.487,243.55034 c -1.07929,-1.64721 -0.83339,-1.99511 0.59283,-0.83873 0.68424,0.55478 0.93326,1.1127 0.67974,1.52291 -0.2957,0.47845 -0.62776,0.29992 -1.27257,-0.68418 z"
               id="path1479"
               transform="scale(0.26458333)" />
            <path
               style="fill:#000000;stroke-width:0.0625"
               d="m 431.42451,247.6563 c -1.31477,-0.34458 -2.66507,-1.19896 -4.19014,-2.65123 -0.59807,-0.56953 -0.71151,-0.73351 -0.39372,-0.56918 0.10141,0.0524 0.22798,0.0954 0.28125,0.0954 0.1362,0 0.12225,-0.23883 -0.0284,-0.48589 -0.0686,-0.11255 -0.12477,-0.21982 -0.12477,-0.23839 0,-0.0186 0.20391,0.13277 0.45312,0.33629 1.81829,1.48489 3.50227,2.39401 5.01563,2.70775 0.58251,0.12076 1.66048,0.0897 2.25,-0.0648 1.106,-0.28988 2.32856,-1.06155 3.46556,-2.18744 2.46141,-2.43737 3.73681,-4.94594 4.07293,-8.011 0.099,-0.90298 0.0359,-2.58068 -0.13372,-3.55653 -0.4469,-2.57035 -1.64624,-5.16232 -3.41252,-7.375 -0.58768,-0.7362 -2.14556,-2.28817 -2.71441,-2.70412 -2.71252,-1.98338 -6.14205,-2.45677 -9.59284,-1.32413 -0.67291,0.22087 -2.04564,0.88715 -2.67258,1.29719 -1.48556,0.97161 -2.678,2.15861 -3.68539,3.66856 -0.53993,0.80928 -0.87823,1.50188 -1.05322,2.15625 -0.19543,0.73078 -0.19549,2.10605 -1.5e-4,3.09375 0.57712,2.91808 2.62351,6.51426 5.30318,9.31944 0.24992,0.26164 0.45441,0.49367 0.45441,0.51563 0,0.022 -0.0595,0.0399 -0.13229,0.0399 -0.13714,0 -0.14267,0.10983 -0.0203,0.40362 0.0459,0.11017 -0.34542,-0.28571 -1.69632,-1.71612 -1.84539,-1.95401 -3.24376,-4.06291 -4.04584,-6.10157 -0.26301,-0.66852 -0.5655,-1.78463 -0.67542,-2.49218 -0.11078,-0.71303 -0.0949,-2.13451 0.0312,-2.79264 0.67299,-3.51277 3.44564,-6.17063 8.33828,-7.99306 2.56407,-0.95508 4.56408,-1.04686 6.76944,-0.31065 4.14668,1.38426 7.71309,5.66298 9.08948,10.90489 1.38561,5.277 0.19263,10.20566 -3.18943,13.17679 -1.42289,1.25 -3.4172,2.27501 -5.4423,2.79716 -0.87377,0.22529 -1.61981,0.245 -2.32069,0.0613 z"
               id="path1518"
               transform="scale(0.26458333)" />
            <path
               style="fill:#000000;stroke-width:0.264583"
               id="path1775"
               d="m 101.67961,64.732198 c -0.0374,0.03991 -0.0813,0.07463 -0.11221,0.119729 -0.0592,0.08626 -0.10261,0.182386 -0.1566,0.272 -0.37986,0.630499 -0.73206,1.273683 -1.06967,1.928093 -0.175,0.354579 -0.657051,0.912283 -0.18959,1.260136 0.0624,0.0464 0.15433,0.103159 0.22327,0.06726 1.20351,-0.626684 2.35497,-1.348616 3.53245,-2.022922 0.2897,-0.27777 0.50636,-0.602959 0.70692,-0.949069 0,0 -3.56123,1.567024 -3.56123,1.567024 v 0 c -0.21934,0.312325 -0.46713,0.610156 -0.80086,0.805916 1.07631,-0.609021 2.13247,-1.255096 3.22892,-1.827057 0.0485,-0.02532 -0.0315,0.105926 -0.0343,0.160595 -0.003,0.05546 0.009,0.11082 0.0175,0.165674 0.004,0.0236 -0.009,-0.04859 -0.003,-0.0716 0.0697,-0.2514 0.18706,-0.460071 0.30042,-0.697 0.42979,-0.818719 0.87616,-1.661266 1.56892,-2.291181 0,0 -3.65128,1.512406 -3.65128,1.512406 z" />
            <path
               style="fill:#000000;stroke-width:0.264583"
               id="path1777"
               d="m 102.54307,64.82077 c 0.0647,0.103939 0.12264,0.212416 0.19412,0.311814 0.2771,0.385294 0.93786,1.18772 1.17397,1.503654 0.6844,0.915768 1.31097,1.876099 1.94082,2.82957 0.14413,0.218279 0.28287,0.440209 0.43238,0.654831 0.0402,0.05765 0.36242,0.502409 0.48969,0.617246 0.0563,0.05081 0.12415,0.171974 0.18707,0.129593 3.41329,-2.299451 3.79938,-1.243407 3.01012,-2.785025 -0.0702,-0.128889 -0.14037,-0.257776 -0.21055,-0.386665 0,0 -3.31524,1.893496 -3.31524,1.893496 v 0 c 0.0601,0.123246 0.12021,0.246491 0.18031,0.369737 0.5039,1.564547 -0.0602,0.186161 3.41429,-1.575943 0.068,-0.0345 0.0639,0.17645 0.008,0.228668 -0.0535,0.05029 -0.1548,0.0056 -0.21806,-0.03168 -0.14772,-0.08714 -0.27518,-0.207024 -0.39485,-0.329883 -0.18305,-0.187928 -0.34012,-0.399518 -0.51018,-0.599278 -0.70136,-0.90369 -1.37914,-1.820294 -1.97964,-2.795728 -0.31907,-0.518274 -0.62604,-1.047308 -0.85062,-1.614755 -0.0394,-0.09962 -0.0554,-0.206989 -0.0831,-0.310483 0,0 -3.46882,1.890834 -3.46882,1.890834 z" />
            <path
               style="fill:#000000;stroke-width:0.264583"
               id="path1779"
               d="m 94.643905,60.045253 c 0.188057,0.06955 0.380756,0.127648 0.564171,0.208653 0.715843,0.316153 1.299498,0.65016 1.97296,1.066411 0.926405,0.572587 1.700168,1.09888 2.562045,1.770573 0.405949,0.316373 0.791929,0.657574 1.187899,0.986364 1.19342,1.039331 2.2689,2.209517 3.21164,3.480181 0.17116,0.230687 0.3303,0.47004 0.49545,0.705061 0.18606,0.246425 0.37212,0.49285 0.55817,0.739275 1.44637,1.677472 2.93638,3.317142 4.41009,4.970717 0.96865,1.12118 1.9845,2.201338 3.02476,3.256081 0.66085,0.674471 1.32737,1.349576 1.9133,2.091846 0.099,0.125434 0.19101,0.256249 0.28652,0.384371 0.10284,0.129448 0.20568,0.258892 0.30852,0.388337 0.64202,0.794184 1.30275,1.5728 1.94001,2.371328 0.23813,0.287642 0.5054,0.557176 0.69194,0.884031 0.1211,0.212188 0.17144,0.357352 0.26624,0.587288 0.22282,0.663556 0.46743,1.38003 0.37779,2.089071 -0.0156,0.04661 -0.0898,0.163512 -0.0467,0.13984 1.14396,-0.628748 2.28545,-1.265997 3.38258,-1.973292 0.0489,-0.03152 -0.0624,-0.09855 -0.0871,-0.151193 -0.0704,-0.149821 -0.13711,-0.301501 -0.19792,-0.455465 -0.0822,-0.208195 -0.15403,-0.420367 -0.23103,-0.630552 -0.10191,-0.253013 -0.20383,-0.506023 -0.30574,-0.759037 -0.47928,-1.277667 -0.99394,-2.539777 -1.70423,-3.707944 -0.10858,-0.128395 -0.21319,-0.260242 -0.32572,-0.385183 -0.47232,-0.524415 -0.96923,-1.018585 -1.41252,-1.569853 -0.53644,-0.667091 -0.52917,-0.690255 -0.99309,-1.390245 -0.18804,-0.319556 -0.47583,-0.775086 -0.61975,-1.132771 -0.56316,-1.39958 1.873,-2.214959 -3.25607,1.798285 -0.0841,0.06578 0.21079,0.05967 0.29437,0.126061 0.22989,0.182618 0.42267,0.407612 0.634,0.611418 1.83825,2.03585 3.266,4.38722 4.55812,6.79414 0.0966,0.201694 0.19994,0.400312 0.28985,0.605084 0.60234,1.371898 -0.62105,2.137777 3.22143,-1.995551 0.16423,-0.17666 -0.29002,-0.385665 -0.42703,-0.584182 -0.31155,-0.451421 -0.79013,-1.213908 -1.07582,-1.662779 -0.5081,-0.793703 -0.94695,-1.627653 -1.36939,-2.468975 -0.17604,-0.350608 -0.32167,-0.720643 -0.56148,-1.032709 -1.13377,0.71328 -2.33708,1.326436 -3.40131,2.139839 -0.10307,0.07878 0.0746,0.248544 0.11529,0.371713 0.0575,0.173855 0.11718,0.347006 0.17933,0.51925 0.30222,0.837552 0.5911,1.678792 0.89191,2.517024 0.64065,1.789382 1.12791,3.600508 1.39923,5.48109 0.0822,0.792204 0.19498,1.598813 0.0446,2.39083 -0.0268,0.141362 -0.0712,0.278829 -0.10679,0.418243 -0.22074,0.750215 -0.47401,1.487985 -0.62875,2.255462 -0.0976,0.537093 -0.14532,1.085098 -0.14967,1.630986 0.0664,1.036286 0.0854,2.072955 0.0722,3.111172 -0.007,0.165831 -0.004,0.332291 -0.0201,0.497494 -0.13358,1.388541 -3.28061,3.002549 3.48346,-1.687695 0.14296,-0.09913 -0.005,-0.348054 0.002,-0.521909 0.0216,-0.597517 0.0818,-1.253416 0.12899,-1.844305 0.17644,-2.235806 0.57146,-4.44596 0.85727,-6.668257 0.14503,-1.21054 0.28593,-2.421892 0.38915,-3.636825 -0.0656,-0.13114 0.0745,-0.267364 0.0472,-0.398232 -0.0138,-0.0661 -0.0299,-0.211127 -0.0905,-0.181224 -1.21498,0.600242 -2.41753,1.236843 -3.55069,1.980081 -0.0988,0.06478 -0.002,0.23631 -0.008,0.354259 -0.009,0.170037 -0.0254,0.339622 -0.038,0.509431 -0.0106,0.237948 -0.0259,0.475734 -0.0317,0.713846 -0.008,0.325194 -0.002,0.650626 -0.01,0.975828 -0.0309,1.318774 -0.10375,2.637452 -0.15373,3.955653 -0.0571,1.113581 -0.0459,2.227493 -0.0361,3.341844 0,0 3.36932,-1.735436 3.36932,-1.735436 v 0 c -0.0871,-1.079188 -0.12046,-2.160739 -0.10318,-3.243575 0.008,-1.894171 0.0106,-3.802094 0.35472,-5.671505 0.0397,-0.175821 0.0681,-0.35456 0.11907,-0.52746 0.0309,-0.105008 0.22618,-0.346832 0.12568,-0.303411 -1.17621,0.508193 -2.27,1.191225 -3.43168,1.731806 -0.0377,0.01752 0.005,-0.143478 -0.0299,-0.120986 -0.1,0.06439 0.21815,0.328226 0.0245,0.355941 0.008,1.166808 -0.0433,2.333599 -0.17072,3.493924 -0.25624,2.218079 -0.46734,4.442399 -0.81391,6.649013 -0.10214,0.672799 -0.18081,1.270723 -0.32305,1.931726 -0.0419,0.194828 -0.3408,0.635492 -0.14974,0.578808 7.9583,-2.361102 3.57889,-0.300961 3.41828,-1.753212 -0.0175,-0.157948 -0.0143,-0.3175 -0.0215,-0.476247 -0.0165,-1.059188 -0.003,-2.117892 0.0721,-3.174846 0.018,-0.517131 0.0282,-1.035744 0.13504,-1.544638 0.1606,-0.755277 0.42163,-1.481468 0.59324,-2.233943 0.0772,-0.422759 0.10341,-0.489686 0.12555,-0.924359 0.034,-0.666372 -0.0797,-1.324176 -0.21963,-1.973286 -0.42233,-1.847369 -0.99859,-3.634052 -1.56406,-5.441276 -0.23351,-0.867896 -0.50142,-1.729417 -0.68989,-2.608664 -0.0377,-0.175845 -0.0748,-0.352171 -0.0986,-0.530426 -0.0152,-0.114036 0.0881,-0.388501 -0.0182,-0.344662 -1.18027,0.486439 -2.26927,1.170048 -3.40391,1.755071 0.0433,0.0038 0.0941,-0.01336 0.1298,0.0114 0.21114,0.146564 0.46551,0.567812 0.57588,0.736058 0.51794,0.789533 0.98487,1.6105 1.4707,2.419723 0.48552,0.860205 0.51662,0.89476 0.95059,1.738426 0.10793,0.20981 0.086,0.68852 0.31549,0.633627 6.65379,-1.591712 4.22286,-0.67908 3.29672,-1.77293 -0.14604,-0.172482 -0.27208,-0.360945 -0.40811,-0.541417 -1.06748,-1.479992 -2.07993,-2.999994 -3.05536,-4.542227 -0.27636,-0.436954 -0.53848,-0.882861 -0.81782,-1.317921 -0.21741,-0.338622 -0.44813,-0.668515 -0.67219,-1.002774 -0.16781,-0.241614 -0.33584,-0.483078 -0.50343,-0.724849 -0.12746,-0.183894 -0.17652,-0.641303 -0.38174,-0.552138 -3.45719,1.502111 -4.012,1.097084 -3.14384,2.484559 0.28718,0.458959 0.41261,0.633479 0.73055,1.102328 0.33083,0.475031 0.65166,0.957175 0.99235,1.425178 0.5026,0.690401 1.06981,1.329394 1.58765,2.007841 0.80426,1.070576 1.3974,2.267969 1.80141,3.546203 0.27748,0.863928 0.21575,0.618119 0.419,1.442005 0.0426,0.172887 0.0764,0.347986 0.12245,0.519986 0.0345,0.128886 -0.004,0.433186 0.11928,0.382116 3.56247,-1.475848 3.53561,-0.575878 3.49721,-2.051002 -0.0666,-0.747982 -0.29394,-1.473922 -0.49662,-2.19361 -0.073,-0.19894 -0.1694,-0.480534 -0.26635,-0.672359 -0.18337,-0.3628 -0.49512,-0.619239 -0.78322,-0.895316 -0.68847,-0.749535 -1.32522,-1.54474 -1.95559,-2.343303 -0.79147,-1.018405 -1.74512,-1.896407 -2.63101,-2.830677 -0.48962,-0.538977 -0.97686,-1.082606 -1.48178,-1.607404 -0.69788,-0.72534 -0.277,-0.25481 -1.01045,-1.005544 -0.19615,-0.200779 -0.38577,-0.40785 -0.57865,-0.611775 -1.53601,-1.576207 -3.12923,-3.119945 -4.39206,-4.93277 -0.43332,-0.604385 -0.61437,-0.879112 -1.08406,-1.448353 -1.03181,-1.2505 -2.21608,-2.36846 -3.45542,-3.410127 -1.90119,-1.546063 -3.832904,-3.059369 -5.871029,-4.422643 0,0 -3.24277,2.161032 -3.24277,2.161032 z" />
            <path
               style="fill:#000000;stroke-width:0.264583"
               id="path1781"
               d="m 117.84585,84.158594 c 0.26421,2.251522 0.48882,4.506103 0.65155,6.767359 0.0602,1.410907 0.13771,2.820681 0.11363,4.233439 -0.0131,0.770044 -0.0272,1.265695 -0.14419,2.012762 -0.0403,0.257305 -0.10515,0.510151 -0.15772,0.765226 -0.19834,0.966618 -0.61173,1.866132 -0.97374,2.77817 -0.2919,0.80393 -0.58282,1.61621 -1.00505,2.36204 -0.15457,0.21105 -0.30954,0.46838 -0.55675,0.5878 -0.0455,0.022 -0.19153,0.0595 -0.14773,0.0342 3.4281,-1.97513 4.14913,-0.87281 3.12416,-2.1653 -0.80691,-1.36949 -1.30252,-2.913289 -1.66508,-4.454825 -0.0926,-0.393671 -0.1615,-0.792536 -0.24225,-1.188805 -0.0696,-0.387728 -0.14341,-0.774719 -0.20872,-1.163188 -0.14977,-0.890873 -0.18336,-1.175006 -0.29356,-2.046504 -0.0788,-0.622932 -0.14734,-1.240848 -0.27141,-1.856359 -0.77524,-1.396717 -0.26184,-0.646732 -3.69436,1.810861 -0.14656,0.104934 -0.0174,0.360098 -0.0242,0.540229 -0.0375,0.999456 0.004,1.988698 0.0476,2.987596 0.0221,0.376883 0.0436,0.753797 0.0662,1.130649 0.0203,0.337812 0.0388,0.675743 0.0623,1.013343 0.0549,0.787797 0.1554,1.569398 0.0796,2.358273 0.014,0.14633 -0.0743,0.27562 -0.0854,0.4171 -0.006,0.0814 0.0301,0.56492 0.0319,0.60029 0.0209,0.54364 0.009,0.27279 0.037,0.81258 0.037,0.55019 0.16278,1.03174 0.52407,1.45273 0.20217,0.17311 0.47187,0.3315 0.74896,0.17849 1.28226,-0.70806 3.02945,-1.22457 3.92741,-2.52116 0.1093,-0.15782 0.19877,-0.32849 0.29815,-0.49274 0.30731,-0.56549 0.54797,-1.162381 0.80699,-1.750275 0.0655,-0.148735 0.2862,-0.653433 0.40216,-0.817226 0.0427,-0.06035 0.1087,-0.100277 0.16305,-0.150416 -1.12804,0.632987 -2.28061,1.224137 -3.38414,1.898957 -0.0507,0.031 -0.01,0.11857 -0.0122,0.17797 -0.007,0.16085 -0.007,0.32207 -0.0177,0.4827 -0.0379,0.55776 -0.1216,1.10732 -0.21713,1.65743 -0.0291,0.11398 -0.0394,0.2345 -0.0873,0.34193 -0.0154,0.0345 -0.0624,0.0426 -0.0936,0.0639 1.17611,-0.64209 2.40957,-1.1888 3.52835,-1.92627 0.1129,-0.0744 -5.3e-4,-0.27069 0.009,-0.40557 0.0568,-0.795624 0.0876,-0.828009 0.2376,-1.668717 0.18145,-0.87158 0.37788,-1.740762 0.64232,-2.591466 0.008,-0.02424 0.26893,-0.843347 0.35319,-0.942743 0.0419,-0.04938 0.12686,-0.02585 0.19029,-0.03878 -1.12739,0.633145 -2.29991,1.191914 -3.38217,1.899436 -0.0731,0.04781 0.088,0.151701 0.12067,0.232743 0.14495,0.359259 0.28945,0.858973 0.25052,1.24682 1.11541,-0.677227 2.26512,-1.300961 3.34625,-2.031682 0.0533,-0.03604 -0.0947,-0.08838 -0.13233,-0.14056 -0.1146,-0.158779 -0.22028,-0.323959 -0.32316,-0.490567 -0.51634,-0.836128 -0.96602,-1.71156 -1.42667,-2.578793 -0.90653,-1.695127 -1.68461,-3.453627 -2.51185,-5.187688 -0.18482,-0.294526 -0.38652,-0.947097 -0.7541,-1.107599 -0.10794,-0.04713 -0.24785,-0.103142 -0.35042,-0.04527 -3.49519,1.972104 -2.99954,0.976188 -3.67072,2.603998 -0.63254,1.622083 -1.66231,1.97976 3.10152,-1.231781 0.0861,-0.05807 -0.0972,-0.183634 -0.14428,-0.276236 -0.0862,-0.16946 -0.17025,-0.33995 -0.25538,-0.509926 -0.65145,-1.398582 -1.33877,-2.778847 -2.04837,-4.148778 -0.33092,-0.580842 -0.58396,-1.220766 -1.02947,-1.728102 -0.32802,-0.373541 -0.43424,-0.432694 -0.83665,-0.768141 -1.04354,-0.860211 -2.00182,-1.812745 -2.97244,-2.752172 -0.36843,-0.316018 -0.66612,-0.721058 -1.05989,-1.008991 -0.18177,-0.132914 -0.44158,-0.273603 -0.63404,-0.383654 -1.14338,-0.529754 -2.24799,-1.13235 -3.33097,-1.775275 -1.1028,-0.662127 -2.1131,-1.457192 -3.111343,-2.263714 -1.013967,-0.859385 -1.875001,-1.870739 -2.682475,-2.921034 -0.556292,-0.712462 -1.006105,-1.492808 -1.392555,-2.306952 -0.394224,-0.760252 -0.765823,-1.530234 -1.192699,-2.273544 -0.480282,-0.920618 -1.10589,-1.746861 -1.712233,-2.585281 -0.734732,-1.274934 -0.479544,-0.953878 -3.372297,2.105758 -0.190542,0.201536 0.364699,0.417968 0.549048,0.625184 1.05614,1.187149 2.109171,2.373117 3.141046,3.581654 1.651259,1.965701 3.284098,3.948472 5.017775,5.84281 1.360625,1.269396 2.826203,2.416923 4.192913,3.679423 0.73325,0.631216 1.21223,1.44486 1.68364,2.274284 0.45698,0.759071 0.75738,1.602007 1.20728,2.363996 0.0155,0.01974 0.1895,0.250854 0.21409,0.235149 1.1236,-0.717746 2.27834,-1.410782 3.27478,-2.296642 0.11597,-0.1031 -0.15777,-0.267811 -0.2491,-0.393258 -0.14632,-0.200972 -1.06204,-1.335114 -1.15078,-1.44557 -1.89115,-2.172633 -4.13505,-3.98364 -6.27274,-5.89879 -0.47486,-0.425431 -0.938798,-0.862901 -1.408198,-1.294352 -1.504572,-1.420304 -2.917614,-2.950898 -4.131011,-4.630171 -0.541695,-0.749678 -0.722244,-1.079296 -1.190205,-1.849803 -0.37429,-0.662331 -0.725262,-1.33954 -0.994936,-2.052007 -0.06018,-0.158983 -0.09436,-0.327793 -0.163814,-0.482944 -0.2319,-0.518023 -0.412184,-0.70384 -0.759595,-1.176661 -2.086756,-1.908381 -4.411385,-3.535291 -6.709728,-5.175345 -0.838462,-0.516189 -1.68534,-1.28833 -2.716492,-1.357397 -1.804157,0.128495 -3.623763,1.089337 -3.817949,2.777178 -0.0034,0.052 -0.03152,0.108431 -0.01024,0.155993 0.326557,0.729562 1.211173,1.376069 1.817817,1.823733 0.959115,0.707771 1.450785,0.973915 2.478305,1.598266 0.150257,0.08786 1.961488,1.144516 2.209707,1.298226 0.237514,0.147079 0.481912,0.2864 0.699556,0.461544 0.111506,0.08973 0.210515,0.200626 0.279278,0.326155 0.02545,0.04648 0.03758,0.145594 -0.01384,0.158406 -0.08929,0.02225 -0.174003,-0.05996 -0.261003,-0.08994 4.911063,-2.87382 3.544601,-1.435738 1.69804,-1.996575 -0.168995,-0.04509 0.219202,0.158898 0.04617,-0.09543 -0.08923,-0.131149 -0.210701,-0.237181 -0.31605,-0.355772 -0.809022,-0.599604 -1.669167,-1.13959 -2.580328,-1.570644 -1.003218,0.827725 -2.182969,1.479098 -3.009651,2.483176 -0.157875,0.191751 0.37937,0.320765 0.572373,0.47711 0.802555,0.650118 1.650166,1.235249 2.511327,1.804172 0.675828,0.446662 1.210315,0.633778 2.001591,0.439894 1.149898,-0.678765 2.338721,-1.29553 3.449693,-2.036294 0.07556,-0.05038 -0.08539,-0.337376 -0.322762,-0.490795 -0.201708,-0.130365 -0.85534,-0.287469 -1.012891,-0.330271 -0.250037,-0.06793 -0.500687,-0.133572 -0.751031,-0.200358 -1.87869,-0.412375 -3.689813,-1.063702 -5.53153,-1.605645 -0.99551,-0.24251 -2.012931,-0.406324 -3.035313,-0.477939 -0.38005,-0.03711 -0.766916,0.0047 -1.146545,-0.03579 -0.247383,-0.02635 -0.333121,-0.06099 -0.57173,-0.127588 -0.572437,-0.203414 -1.09823,-0.523383 -1.603926,-0.856369 -0.285369,-0.225438 -0.617254,-0.378653 -0.905489,-0.600043 0.0827,0.0011 0.182571,0.03778 0.262401,0.0069 0.05915,-0.02286 0.102992,-0.07443 0.157999,-0.105981 0.06669,-0.03826 0.13758,-0.06869 0.206369,-0.103037 -1.040556,0.603052 -2.083519,1.20197 -3.12167,1.809157 -0.119264,0.06976 0.249158,-0.120031 0.369093,-0.188624 1.17089,-0.669644 2.322772,-1.373253 3.509042,-2.01526 1.076635,-0.58267 -2.121934,1.2215 -3.18003,1.837201 -0.07443,0.04331 0.152565,-0.07995 0.228847,-0.119922 0.623752,-0.303904 1.254365,-0.597379 1.901025,-0.849601 0.30684,-0.10998 0.619226,-0.211037 0.940652,-0.269373 0.05149,-0.0093 0.143725,0.0295 0.155504,-0.02148 0.01341,-0.05808 -0.07992,-0.08848 -0.119877,-0.13272 -0.07514,-0.01378 -0.153104,-0.06594 -0.225428,-0.04134 -0.118182,0.0402 -0.200499,0.148804 -0.302406,0.220903 -0.13726,0.09712 -0.277137,0.190482 -0.41503,0.286698 -0.397981,0.27769 -0.784157,0.566216 -1.16626,0.865182 -0.243588,0.191608 -0.509717,0.357179 -0.744156,0.560726 -0.163306,0.141785 -0.299442,0.308917 -0.461844,0.452189 -1.15615,0.686485 -2.597388,1.53313 2.922609,-1.695569 0.04441,-0.02598 -0.09223,0.04611 -0.140494,0.06393 -0.09905,0.03657 -0.202605,0.05951 -0.303718,0.08989 -1.439796,0.334333 -0.312666,0.05854 -3.640235,2.019689 -0.186383,0.109849 0.08007,0.464857 0.152879,0.529198 0.07909,0.06989 0.181306,0.108093 0.27196,0.162142 0.671809,0.300842 1.40622,0.381778 2.121175,0.521938 2.01513,0.443691 -0.257736,0.849927 3.98703,-1.987153 -0.60012,-0.216598 -1.018305,-0.81027 -1.241952,-1.385445 -0.07285,-0.187355 -0.107368,-0.387438 -0.161051,-0.581155 -0.07144,-0.623737 -0.09199,-1.423313 0.411091,-1.895629 0.05658,-0.05312 0.1256,-0.09121 0.188399,-0.136813 1.334854,-0.586687 -0.113377,0.04129 -2.996565,1.774349 -0.0581,0.03493 0.12769,-0.04791 0.19449,-0.05947 0.297132,-0.05143 0.560723,0.06081 0.835252,0.156245 0.712206,0.361704 1.300422,0.908365 1.890866,1.435825 0.125198,0.111842 0.242613,0.233074 0.375664,0.335446 0.114307,0.08795 0.242742,0.155821 0.364111,0.233733 0.144471,0.0241 0.286996,0.07609 0.433414,0.07228 0.143568,-0.0038 0.293659,-0.02689 0.420349,-0.09453 2.25503,-1.203954 3.265178,-1.344192 4.404381,-2.980579 0.942337,-1.338992 2.254509,-1.524082 -2.766272,1.378551 -0.02503,0.01447 -5.29e-4,-0.08535 0.02826,-0.08201 0.09922,0.01156 0.183795,0.07828 0.275696,0.117422 0.490535,0.391157 0.344241,0.261205 0.819346,0.695656 0.217791,0.199157 0.431969,0.449781 0.722106,0.555672 0.329223,0.120153 0.434498,0.04865 0.744609,-0.02787 -2.307551,1.255527 3.858535,-1.032118 3.578333,-2.45033 -0.112056,-0.567153 -0.761873,-0.909211 -1.204285,-1.181761 -0.628587,-0.276749 -1.232538,-0.595143 -1.833679,-0.926378 0.326144,0.285118 -0.336754,-0.208378 -0.244089,-0.172027 0.05139,0.02016 0.08638,0.07163 0.137644,0.09211 0.06011,0.02402 0.244832,0.0041 0.190246,0.03888 -2.698583,1.719411 -4.293565,2.180431 -2.794471,1.722707 1.029259,-0.208214 2.027664,0.164299 2.969967,0.54306 0.88324,0.415859 1.8039,0.745588 2.754865,0.965168 2.120141,0.40684 1.001215,0.161473 4.289404,-2.051026 -0.26924,-0.295074 -0.638384,-0.487944 -0.977638,-0.695677 -0.103442,-0.06594 -0.106577,-0.06307 -0.185788,-0.126523 -0.05186,-0.04155 0.176094,0.120742 0.121243,0.15826 -1.052163,0.719701 -2.211763,1.273818 -3.260902,1.997919 -0.119526,0.08249 0.288816,-0.03086 0.433223,-0.04629 1.130096,0.01595 2.257137,0.101566 3.371035,0.293026 0.344141,0.04867 0.681638,0.156099 1.030258,0.173887 0.149434,0.0076 0.355839,-0.0046 0.504389,-0.01074 0.829185,-0.106598 1.630399,0.0671 2.429772,0.272113 0.379947,0.121904 0.766969,0.232093 1.131141,0.397994 0.05509,0.02508 0.108593,0.05398 0.159867,0.08615 0.0038,0.0024 0.0021,0.01701 -7.94e-4,0.0136 -0.06436,-0.07287 -0.123812,-0.149934 -0.185719,-0.224901 6.791297,-4.151384 4.146137,-1.871697 2.829213,-1.857777 -0.486312,0.0051 -0.952169,-0.120553 -1.421434,-0.231048 -1.520904,-0.344247 -3.012249,-0.802005 -4.521039,-1.195787 -0.679148,-0.18407 -1.360003,-0.351094 -2.062673,-0.401714 -0.613222,-0.03143 -1.227238,-0.008 -1.84073,-0.0046 -0.466397,-0.0081 -0.933743,7.93e-4 -1.399815,-0.02135 -1.373751,-0.13766 -0.321167,-0.04841 -3.267678,2.294138 -0.06758,0.05372 0.170746,0.02625 0.256678,0.03454 0.149746,0.01445 0.300487,0.01762 0.450072,0.03365 0.781415,0.08381 1.003083,0.139211 1.85661,0.286639 2.639108,0.525389 5.200769,1.364732 7.704759,2.338639 1.614657,0.691878 3.213812,1.418789 4.843807,2.074466 0.945007,0.374899 1.905927,0.719293 2.889427,0.980509 0.57918,0.153828 1.31589,0.299754 1.89922,0.421994 0.81889,0.146624 1.6314,0.325266 2.44636,0.491466 0.10096,0.02058 0.80146,0.163904 0.94936,0.169934 0.1578,0.0064 0.31523,-0.02003 0.47285,-0.03003 0.18795,-0.06458 0.38118,-0.115464 0.56385,-0.193733 0.188,-0.08055 0.36786,-0.179573 0.54521,-0.281448 1.23451,-0.709176 2.46804,-1.420336 3.68975,-2.151354 0.15045,-0.09002 0.28313,-0.206867 0.42456,-0.310472 0.47019,-0.344422 0.26133,-0.163349 0.64632,-0.550902 0.44869,-0.45465 0.66227,-0.892498 0.77457,-1.510679 0.0705,-0.500038 0.001,-0.753443 -0.49019,-0.9536 -1.48969,-0.334243 -3.57172,1.686838 -4.14344,2.042834 -0.0629,0.03919 -0.0785,0.128083 -0.0982,0.199544 -0.0284,0.102835 -0.0297,0.211309 -0.0445,0.316963 -0.0315,0.818705 -0.12264,1.634654 -0.11712,2.454386 0.009,0.399563 0.0211,0.799766 7e-5,1.199221 -0.002,0.03869 -0.0402,0.325043 -0.0145,0.401455 0.0236,0.07008 0.0727,0.128765 0.10905,0.193149 1.15435,-0.690939 2.3461,-1.322922 3.46305,-2.07281 0.0673,-0.04519 -0.01,-0.161851 -0.014,-0.242795 -0.0435,-0.797665 -0.0548,-1.589823 -0.0507,-2.388716 0.0617,-0.915615 -0.002,-1.844162 0.10779,-2.756114 0.0272,-0.06392 0.0389,-0.137018 0.0817,-0.191762 0.0294,-0.03755 0.1646,-0.09609 0.1239,-0.07131 -1.08166,0.658747 -2.15812,1.326174 -3.24683,1.973205 -0.0258,0.01534 0.0229,-0.06434 0.0513,-0.07409 0.11026,-0.0378 0.26922,0.113943 0.3228,0.150095 0.63826,0.609376 1.05015,1.407367 1.52492,2.14203 0.20107,0.281514 0.35781,0.593103 0.70379,0.723797 0.41369,0.156263 0.81729,0.01998 1.21459,-0.0998 0.12513,-0.05708 0.25608,-0.102802 0.37536,-0.171247 1.197,-0.686847 2.38229,-1.393899 3.57179,-2.093653 0.0714,-0.04199 0.28249,-0.172857 0.21074,-0.131524 -1.09253,0.629354 -2.13787,1.347282 -3.27321,1.895657 -0.0871,0.04205 -0.11818,-0.15308 -0.17906,-0.228195 -0.0487,-0.06004 -0.0997,-0.118139 -0.14949,-0.17721 -1.16417,0.60501 -2.41385,1.397622 2.9485,-1.723091 0.0487,-0.02836 -0.10116,0.05004 -0.1498,0.07854 -0.0273,0.01601 -0.048,0.04352 -0.0776,0.0547 -0.0157,0.006 -0.0334,-0.0043 -0.0501,-0.0065 -0.14646,-0.431324 -0.16355,-0.888463 -0.45167,-1.259948 -0.0454,0.05802 -0.18061,-0.207548 -0.27062,-0.155409 -0.0234,0.01352 0.0297,0.04508 0.0449,0.0674 0.0496,0.07292 0.0963,0.147894 0.14938,0.218329 0.0165,0.02186 0.0825,0.04457 0.0585,0.05759 -1.16468,0.630782 -2.35382,1.215308 -3.53072,1.822961 0.12886,0.643344 0.27673,1.284485 0.4041,1.928809 0.11615,0.595046 0.17442,1.198214 0.20748,1.802821 -0.0142,0.530362 -0.019,1.121307 -0.32231,1.581843 -0.044,0.06685 -0.10178,0.123555 -0.15268,0.18533 -0.0598,0.03842 -0.11535,0.08455 -0.17948,0.11525 -0.0552,0.02643 -0.22808,0.08584 -0.17539,0.05465 1.07174,-0.634524 2.16069,-1.239565 3.23658,-1.867024 0.037,-0.02154 -0.0775,0.03724 -0.11873,0.0487 -0.10541,0.0293 -0.21588,0.03563 -0.32379,0.05369 -1.169,0.678791 -2.34244,1.349997 -3.50701,2.036373 -0.13049,0.07691 -0.13713,0.130165 -0.24046,0.233829 -0.0342,0.03429 -0.15233,0.118559 -0.11039,0.09438 3.32542,-1.917163 2.93944,-3.152291 3.31695,-1.848877 -0.36802,-0.886306 -0.48839,-1.854276 -0.69097,-2.787993 -0.10136,-0.365647 -0.0986,-0.782969 -0.29257,-1.121143 -0.70467,-1.228236 -2.91227,1.089337 -3.96666,1.686039 -0.28719,0.808736 -0.48393,1.658159 -0.52979,2.516256 0.54778,1.494263 0.12681,0.593939 3.74979,-1.527344 0.12481,-0.07308 0.0504,-0.285115 0.0863,-0.425226 0.15653,-0.611192 0.3908,-1.204769 0.60405,-1.797362 0.20567,-0.542769 0.40475,-1.087091 0.64357,-1.616363 0.0559,-0.12392 0.1037,-0.252307 0.17238,-0.369639 0.0638,-0.109032 0.29518,-0.381807 0.38239,-0.487288 0.12542,-0.181846 0.31934,-0.28307 0.48396,-0.420571 0.0442,-0.0369 0.0783,-0.08542 0.12489,-0.11924 0.40273,-0.292492 -0.148,0.191431 0.27865,-0.20065 0.16802,-0.08945 0.274,-0.252364 0.43755,-0.34772 0.0402,-0.02342 0.16922,-0.07653 0.12886,-0.05343 -3.35324,1.919443 -2.85616,3.071614 -3.36766,1.802315 0.0249,0.100512 -0.0411,0.306753 -0.0641,0.385572 -0.15594,0.533842 -0.35242,0.872326 -0.64186,1.347449 -0.74067,1.070126 -1.66415,1.989592 -2.64569,2.836531 -0.99213,0.855592 -2.04125,1.638938 -3.06863,2.4506 -1.49536,1.196362 -3.08647,2.270443 -4.55587,3.499697 -0.38048,0.318294 -0.74959,0.649925 -1.12439,0.974886 -2.145126,1.871695 -4.194314,3.859345 -6.11059,5.965648 -0.366628,0.402984 -0.720953,0.816994 -1.081429,1.225489 -1.317228,1.520643 -2.483718,3.161932 -3.563533,4.857075 -0.160284,0.278623 -0.357116,0.514395 -0.594137,0.726615 -0.043,0.0385 -0.07901,0.08588 -0.12758,0.117054 -0.0802,0.05149 -0.177096,0.07064 -0.264004,0.10975 -1.046234,0.836583 -0.297741,0.229528 3.032414,-1.741464 0.113072,-0.06692 -0.232934,0.121856 -0.3521,0.17721 -0.273484,0.127029 -0.554522,0.240935 -0.845756,0.319606 0.08432,0.0085 0.191309,0.08362 0.252965,0.02548 0.132448,-0.12491 0.151329,-0.331626 0.240165,-0.49054 0.15611,-0.279252 0.322522,-0.552791 0.494054,-0.822843 0.650549,-1.024205 1.361898,-2.011395 2.051603,-3.009244 0.496631,-0.750935 1.064688,-1.454902 1.476674,-2.25919 0.107497,-0.20986 0.280982,-0.592603 0.313221,-0.849807 0.01193,-0.09518 -0.01138,-0.191503 -0.01704,-0.287253 -0.06291,-0.08254 -0.10178,-0.190953 -0.18873,-0.247608 -0.09612,-0.06263 -0.229515,-0.143549 -0.331766,-0.09153 -2.480821,1.26202 -3.083642,1.080307 -3.994393,2.628003 -0.394761,0.670846 -0.38802,0.735785 -0.695307,1.486347 -0.477679,1.404094 -0.765379,2.860889 -1.121852,4.297781 -0.01725,0.08056 -0.125743,0.277992 -0.05178,0.241691 1.195266,-0.586674 2.413625,-1.156808 3.496017,-1.932225 0.139181,-0.09971 -0.07202,-0.335164 -0.09398,-0.50496 -0.08305,-0.642062 -0.101489,-1.297612 -0.134681,-1.943674 -0.01849,-0.152138 -0.02344,-0.306533 -0.05545,-0.456412 -0.359103,-1.682059 -2.814082,0.981353 -3.773265,1.595615 -0.156065,0.09994 -0.07787,0.36241 -0.121296,0.542576 -0.084,0.348498 -0.277691,1.075642 -0.366223,1.411618 -0.151511,0.590666 -0.292907,1.184833 -0.486727,1.763583 -0.008,0.02402 -0.147447,0.430667 -0.189905,0.458419 -0.03018,0.01971 -0.06521,-0.03077 -0.09782,-0.04616 1.161177,-0.629166 2.372944,-1.172803 3.483525,-1.887495 0.08517,-0.05481 -0.07791,-0.187116 -0.110987,-0.28284 -0.04714,-0.136384 -0.08867,-0.274674 -0.129519,-0.413072 -0.119886,-0.406189 -0.20428,-0.796775 -0.248899,-1.217086 0.0071,-0.06809 -0.0226,-0.151818 0.02141,-0.204267 0.02674,-0.03187 0.154572,0.01434 0.119353,0.03648 -1.091012,0.685966 -2.284388,1.21344 -3.322312,1.977358 -0.1021,0.07515 0.17965,0.179073 0.264785,0.273005 0.944292,1.041847 -0.396021,-0.369459 0.870788,0.945687 0.848061,0.759325 1.887951,1.855121 3.08392,2.012241 0.160192,0.02103 0.323099,-0.0049 0.484648,-0.0074 1.701964,-0.6922 1.14459,-0.432647 4.09198,-2.463017 0.145655,-0.100338 0.209703,-0.284988 0.30902,-0.431339 0.133884,-0.197287 0.363217,-0.560136 0.468497,-0.783873 0.0598,-0.127075 0.102611,-0.26147 0.153917,-0.392203 0.09947,-0.27387 0.169373,-0.454244 0.25324,-0.730451 0.05433,-0.178922 0.105013,-0.316685 0.08814,-0.502555 -0.0046,-0.05024 0.0034,-0.16628 -0.04246,-0.145269 -1.224343,0.560879 -2.405422,1.211752 -3.608131,1.817629 0.08485,0.289293 -0.02466,0.581948 -2.64e-4,0.871395 0.02127,0.253386 0.0819,0.50197 0.129278,0.751795 0.159729,0.842261 0.355457,1.678029 0.534506,2.516311 0.02365,0.0942 0.163547,0.70684 0.244678,0.883359 0.563555,1.226135 2.495439,-1.085252 3.583575,-1.883349 0.110464,-0.08102 -0.0924,-0.25805 -0.145023,-0.384532 -0.07457,-0.179263 -0.157597,-0.354891 -0.236392,-0.532334 -0.641996,-1.456391 -1.16808,-2.958943 -1.670971,-4.467688 -0.622191,-1.884322 -0.564232,-1.194188 -3.736284,1.338954 -0.14423,0.115178 0.123978,0.347731 0.182663,0.522729 0.136165,0.40604 0.264305,0.814729 0.397745,1.221674 0.01683,0.06797 0.513194,1.659599 0.634045,1.594178 3.628377,-1.964209 4.043913,-1.00207 3.145274,-2.481062 -0.597252,-0.916265 -1.281401,-1.771322 -2.063276,-2.537319 -0.45067,-0.441518 -0.746702,-0.673571 -1.219698,-1.067454 -0.361606,-0.232868 -0.767635,-0.655717 -1.214911,-0.738801 -0.122631,-0.02278 -0.265199,-0.05675 -0.374171,0.0039 -3.644074,2.029582 -2.946992,1.055246 -3.984744,2.822845 -0.793178,1.428358 -1.394031,2.952483 -1.816864,4.528677 -0.01736,0.136538 -0.07565,0.274013 -0.05206,0.409615 0.247121,1.420783 3.139731,-1.704838 3.589456,-2.104769 0.159261,-0.141626 0.01691,-0.425992 0.03239,-0.638553 0.05617,-0.770403 -0.0092,-0.497044 0.237871,-1.089319 1.519833,-0.544689 -1.300707,0.444757 -2.865532,1.957867 -0.165532,0.160059 0.314184,0.337381 0.457094,0.51793 0.465727,0.588383 0.84184,1.239967 1.229124,1.880348 0.357646,0.766048 0.948915,1.36602 1.46453,2.020406 0.222165,0.268878 0.4568,0.625457 0.836387,0.672108 0.07231,0.0089 0.145707,1.19e-4 0.21856,1.77e-4 0.02997,-1.957821 2.858534,-1.153371 3.850597,-2.266653 0.114882,-0.128921 0.20932,-0.28365 0.313129,-0.421733 0.130477,-0.09794 0.201353,-0.244139 0.335595,-0.338518 0.03634,-0.02556 0.158758,-0.07967 0.118166,-0.06163 -3.795125,1.687351 -2.887319,0.578292 -3.907761,1.926979 -0.661906,0.852569 -1.39378,1.645002 -2.137728,2.425512 -0.791284,0.798391 -1.679649,1.489636 -2.553523,2.193438 -0.755567,0.63214 -1.493496,1.28401 -2.231681,1.936414 -1.000511,0.823624 -1.970534,1.683004 -2.938959,2.543813 -0.936562,0.868627 -1.698207,1.901528 -2.540731,2.857841 -0.385294,0.349403 -0.729371,0.743394 -1.106807,1.100402 -0.348954,0.33006 -0.716585,0.63305 -1.058672,0.97164 -0.883642,0.88027 -1.686102,1.83681 -2.483689,2.79436 -0.627388,0.73594 -1.160036,1.55211 -1.813864,2.26596 -0.179277,0.19573 -0.370435,0.38024 -0.555654,0.57037 -0.613595,0.56357 -1.217486,1.14564 -1.891292,1.639 -0.192556,0.14099 -0.803643,0.51435 -0.595863,0.39694 3.395403,-1.9186 3.308784,-1.85119 1.886119,-1.19743 -0.219379,0.0793 -0.437425,0.16244 -0.658132,0.23799 -0.453925,0.15538 -1.03309,0.26726 -1.453433,0.50379 -3.57909,2.01399 -2.645029,1.3318 -4.233357,2.54826 -0.391425,0.32562 -0.833202,0.63138 -1.102717,1.07696 -0.217813,0.36009 -0.268598,0.79815 -0.354209,1.20111 -0.567856,1.36983 -1.272511,2.68169 -2.186127,3.85172 -1.610379,0.97716 1.728411,-0.97516 2.556065,-1.52105 0.12755,-0.0841 -0.293232,0.0907 -0.444582,0.11164 -0.514382,0.0713 -1.051967,0.002 -1.564891,-0.0435 -0.351581,-0.0199 -0.707983,-0.0884 -1.061659,-0.0552 -0.162727,0.0153 -0.362175,0.0567 -0.506537,0.14129 -1.172734,0.6869 -2.33262,1.39549 -3.49893,2.09324 -0.258341,0.41684 -0.282919,0.93099 -0.314796,1.40962 -0.0123,0.35542 -0.03147,0.71347 0.01987,1.06615 0.0019,0.1815 0.08732,0.37098 0.0707,0.55323 -0.0033,0.0359 -0.07584,0.11715 -0.04502,0.0984 3.410027,-2.07496 4.435663,-1.68126 2.866335,-2.136 -0.564147,-0.27768 -1.067012,-0.65609 -1.573157,-1.02434 -0.405704,-0.29517 -0.729567,-0.53981 -1.077714,-0.89937 -0.147368,-0.20676 -0.228391,-0.26965 -0.28125,-0.51093 -0.07929,-0.3619 0.103902,-0.89091 0.180565,-1.23944 0.0529,-0.66757 0.38077,-1.38661 0.185222,-2.06 -0.02445,-0.0842 -0.07292,-0.15954 -0.109376,-0.23932 -0.08829,-0.11825 -0.147945,-0.23079 -0.292807,-0.29276 -0.06928,-0.0296 -0.157133,-0.0786 -0.222324,-0.0408 -1.180451,0.68402 -2.346764,1.39683 -3.465486,2.17774 -0.08494,0.0593 -0.0659,0.19727 -0.08326,0.2994 -0.02548,0.14996 -0.02988,0.30274 -0.04482,0.45411 0.04754,1.44126 0.428699,2.8319 0.968658,4.15974 0.290354,0.56202 0.534414,1.20531 1.036056,1.62257 0.24503,0.20382 0.496321,0.32525 0.772464,0.47675 0.169439,0.0778 0.480367,0.22948 0.667911,0.28395 1.576978,0.45801 3.550373,-1.56439 4.353777,-2.03728 0.234609,-0.55078 0.429072,-1.11073 0.56473,-1.69368 0.200916,-1.08651 0.1568,-2.19556 0.182723,-3.29456 -0.03728,-0.96396 0.01937,-1.96786 -0.305503,-2.89115 -0.878179,-1.25024 -0.242261,-0.45685 -3.730403,1.64955 -0.110022,0.0664 -0.01161,0.2568 -0.01588,0.38526 -0.02527,0.76266 -0.09748,1.49233 -0.189788,2.25018 -0.01622,0.0974 -0.188571,1.21884 -0.263001,1.36784 -0.06344,0.127 -0.209304,0.19186 -0.313955,0.28779 0.973659,-0.61295 1.997461,-1.15267 2.920974,-1.83884 0.104364,-0.0776 -0.267219,0.006 -0.387626,-0.0435 -0.17577,-0.0716 -0.318725,-0.20618 -0.478086,-0.30927 -0.627279,-0.57655 -1.139793,-1.28891 -1.469345,-2.07775 -0.151283,-0.36212 -0.166502,-0.51581 -0.246004,-0.89042 -0.05818,-0.43816 -0.02275,-0.86993 0.193656,-1.26236 0.02712,-0.0492 0.232032,-0.33434 0.270537,-0.38841 0.425966,-0.47514 0.828455,-0.97229 1.29427,-1.40964 0.06504,-0.0368 0.260207,-0.14712 0.195133,-0.11038 -1.106313,0.62456 -2.250059,1.18704 -3.318846,1.87385 -0.06109,0.0392 0.08137,0.12088 0.112919,0.18628 0.08226,0.17053 0.155805,0.3452 0.227901,0.52027 0.215768,0.52396 0.263647,0.68237 0.447718,1.20777 0.07866,0.14652 0.135604,0.30697 0.235992,0.43955 0.918525,1.21307 2.961598,-0.85675 4.249436,-1.66712 0.06512,-0.041 0.324824,-0.74028 0.337738,-0.77334 0.340423,-0.88331 0.445124,-1.83044 0.61672,-2.75565 0.05588,-0.28283 0.06498,-0.57205 0.147222,-0.84957 0.01524,-0.0515 0.102822,-0.17765 0.05636,-0.1508 -3.433236,1.98401 -2.310143,2.85761 -3.398978,1.96948 0.161798,0.29679 0.141449,0.83031 0.270447,1.11613 0.09535,0.21127 0.363423,0.51481 0.661098,0.36753 1.262806,-0.62478 2.44403,-1.40244 3.666046,-2.10366 0.703257,-0.85307 1.156366,-1.86445 1.651923,-2.84215 0.316219,-0.55142 0.455946,-1.18835 0.762685,-1.7421 0.01077,-0.0274 0.05917,-0.0943 0.03232,-0.0822 -1.23204,0.55513 -2.472624,1.09572 -3.670345,1.72146 -0.07919,0.0414 -0.06467,0.16664 -0.100396,0.24854 -0.06063,0.139 -0.124172,0.27674 -0.188627,0.41401 -0.224388,0.4779 -0.329515,0.68141 -0.570561,1.16531 -0.368469,0.64749 -0.70154,1.35395 -1.230188,1.89368 -0.07033,0.0718 -0.155368,0.12755 -0.233053,0.19132 1.164635,-0.5927 2.32927,-1.18539 3.493905,-1.77809 0.126844,-0.0609 0.274225,-0.0904 0.380535,-0.18258 0.206996,-0.17943 0.357592,-0.41519 0.542382,-0.61742 0.245452,-0.26861 0.496996,-0.53161 0.748155,-0.7949 0.778996,-0.81661 1.565626,-1.62549 2.340485,-2.4461 0.504738,-0.53896 0.999019,-1.08616 1.416151,-1.69688 0.224954,-0.32936 0.401203,-0.67602 0.664445,-0.97608 -1.134549,0.63697 -2.378144,1.11012 -3.40365,1.91092 -0.169228,0.13215 0.117631,0.41369 0.156279,0.62489 0.06351,0.34708 0.104701,0.69793 0.149823,1.04787 0.173143,1.34284 0.113543,1.16383 0.314351,2.52833 0.06152,0.41806 0.136419,0.83404 0.204629,1.25105 0.133204,0.65611 0.201263,1.32379 0.327485,1.98111 0.03431,0.17866 -0.0466,0.58709 0.126439,0.53094 1.309389,-0.42494 2.582114,-1.01528 3.725998,-1.78118 0.246179,-0.16483 0.137202,-0.57668 0.220257,-0.86107 0.104966,-0.35941 0.22904,-0.71297 0.343557,-1.06946 0.351033,-1.11771 0.644022,-2.25228 0.98095,-3.37413 0.05899,-0.19641 0.380479,-0.65208 0.186219,-0.58637 -3.671443,1.24203 -3.421398,0.49739 -3.656443,2.27077 -0.322744,1.80786 -0.834764,3.57319 -1.438604,5.30536 -0.159525,0.38782 -0.238963,0.61728 -0.432249,0.97088 -0.04781,0.0875 -0.07685,0.19755 -0.159856,0.25274 -0.04792,0.0319 -0.218821,-0.005 -0.169291,-0.0339 3.628334,-2.147 3.692517,-0.59838 3.399306,-2.48057 -0.05355,-0.61268 -0.06284,-1.22898 -0.02395,-1.84277 0.0055,-0.0862 0.104899,-0.29509 0.0271,-0.25762 -3.67777,1.77125 -3.645297,0.63467 -3.469857,2.40673 0.0039,0.47205 0.01418,0.69427 -0.01498,1.1635 -0.09948,1.60116 -0.769114,1.23916 3.168894,-1.61269 0.06338,-0.0459 -0.100386,-0.1225 -0.132199,-0.194 -0.113059,-0.25408 -0.200306,-0.51888 -0.300459,-0.77832 -0.546018,-1.86381 -0.771443,-3.80489 -0.831373,-5.74099 0.01175,-0.92926 -0.04344,-1.95679 0.434877,-2.7925 1.479621,0.0553 -0.676482,-0.0464 -3.390188,1.8836 -0.153186,0.10895 0.06979,0.36975 0.09125,0.5565 0.139948,1.21806 0.153088,2.45074 0.190026,3.67452 -2.54e-4,0.49769 0.0051,0.99542 -7.94e-4,1.49308 -0.0052,0.44751 -0.01849,0.89491 -0.03246,1.34224 -0.03245,1.03992 -0.06469,2.07547 -0.297871,3.09206 -0.02775,0.0965 -0.103288,0.19114 -0.08324,0.28954 0.282898,1.38866 3.128161,-1.43028 3.730056,-1.86919 0.156869,-0.11439 0.150124,-0.3582 0.232145,-0.53417 1.045337,-2.24267 -0.378695,0.92297 0.803884,-1.73091 0.157729,-0.40498 0.320611,-0.80799 0.473189,-1.21495 0.355687,-0.94869 0.691205,-1.90482 1.039032,-2.85641 0.42808,-1.17116 0.864277,-2.3385 1.274955,-3.51586 0.466,-1.146609 0.73265,-2.360594 1.149789,-3.523065 1.543331,-0.463187 -1.684086,0.491474 -3.359501,2.027976 -0.264798,0.242845 0.07025,0.715549 0.08463,1.074559 0.06275,1.56573 -0.01296,3.1326 -0.07773,4.69664 -0.05688,0.95433 -0.101965,1.91047 -0.213892,2.86048 -0.01524,0.12925 -0.02999,0.25879 -0.05457,0.38659 -0.0097,0.0506 -0.09469,0.16891 -0.04805,0.14697 1.206141,-0.56738 2.37939,-1.20219 3.569087,-1.80329 0.0024,-0.0858 -0.0031,-0.17213 0.0069,-0.25737 0.05702,-0.48483 0.190209,-0.9653 0.295203,-1.44079 0.136142,-0.61655 0.126006,-0.59006 0.246552,-1.22665 0.207365,-0.87031 0.29354,-1.76179 0.426847,-2.64435 0.01341,-0.0887 0.401897,-2.426789 0.416955,-2.506561 0.07335,-0.388567 0.164084,-0.773647 0.246126,-1.160468 0.253285,-1.249436 0.562903,-2.489872 1.017153,-3.68269 0.206354,-0.541867 0.408236,-0.992844 0.638008,-1.524206 0.413523,-0.861211 0.208643,-0.446977 0.612818,-1.243603 0,0 -3.394739,1.543492 -3.394739,1.543492 v 0 c -0.349994,0.784664 -0.171321,0.376158 -0.534615,1.226127 -0.32072,0.776226 -0.639508,1.548529 -0.874448,2.356387 -0.231952,0.797586 -0.245581,0.957998 -0.404333,1.780741 -0.06886,0.356867 -0.136816,0.713907 -0.205224,1.070861 -0.217681,1.22562 -0.409927,2.45543 -0.666226,3.67389 -0.280824,1.33506 -0.204044,0.87746 -0.478595,2.05229 -0.05285,0.22617 -0.09968,0.45371 -0.149521,0.68056 -0.222861,1.01278 -0.451522,2.03143 -0.78722,3.01325 1.179721,-0.5641 2.375948,-1.0949 3.539164,-1.6923 0.03316,-0.017 -0.03581,-0.0666 -0.04308,-0.10319 -0.02204,-0.11084 -0.03297,-0.22369 -0.04432,-0.33613 -0.09019,-0.89318 -0.09938,-1.792 -0.118626,-2.68863 0.0063,-1.59345 0.03064,-3.17235 0.21327,-4.757844 0.04707,-0.408641 0.592109,-1.217523 0.180777,-1.220716 -3.555979,-0.02762 -3.509605,0.0084 -3.508722,1.341736 -0.263829,1.139534 -0.588166,2.265354 -0.896379,3.393354 -0.764249,2.56907 -1.602631,5.12819 -2.792658,7.53663 -0.445426,0.8611 -0.494808,1.0025 -0.986708,1.78981 -0.121256,0.19408 -0.593977,0.65743 -0.382445,0.57013 1.126696,-0.46499 2.144189,-1.15978 3.216286,-1.73967 0.03141,0.11662 -0.0037,0.2792 0.09422,0.34987 0.07345,0.053 0.0098,-0.18088 0.01468,-0.27131 0.0849,-1.91992 -0.185481,-3.84813 -0.09381,-5.7703 0.03185,-1.28685 0.06923,-2.5719 0.136374,-3.85742 0.01209,-0.23144 0.265446,-0.74378 0.03907,-0.69416 -3.641407,0.79811 -3.607636,0.19995 -3.597629,1.59731 -0.235911,0.92859 -0.212363,1.88138 -0.137229,2.83191 0.1573,1.95241 0.470554,3.88854 0.888804,5.80205 0.05966,0.30061 0.09861,0.60608 0.17898,0.90183 0.06479,0.23842 0.02371,0.7822 0.255217,0.69589 4.192498,-1.56291 3.383346,-0.79033 3.364852,-2.44491 -0.0056,-0.50106 0.01619,-0.66605 0.0509,-1.17377 0.308094,-1.72005 0.286359,-0.81436 -3.382163,1.10403 -0.05629,0.0294 0.05561,0.11622 0.06537,0.17899 0.09411,0.60556 0.03959,1.23036 0.0753,1.83903 -5.29e-4,0.21916 -0.217173,0.69707 -0.0016,0.65747 1.26115,-0.23168 2.423862,-0.84085 3.61287,-1.32089 0.04453,-0.018 0.0016,-0.097 0.01397,-0.14338 0.10686,-0.40192 0.308792,-0.78146 0.38354,-1.19368 0.229936,-0.84191 0.465413,-1.6822 0.696897,-2.52365 0.08437,-0.30668 0.445404,-1.67322 0.54089,-1.9849 0.08561,-0.27945 0.189108,-0.55311 0.28366,-0.82966 0.796734,-1.48716 0.822444,-1.2856 -3.141658,0.98094 -0.137046,0.0784 0.01363,0.31765 -0.01183,0.47344 -0.07364,0.45043 -0.423908,1.73648 -0.541296,2.11884 -0.123846,0.40339 -0.269435,0.79979 -0.404156,1.19968 -0.152376,0.36329 -0.27074,0.7428 -0.457131,1.08987 -0.14541,0.27077 -0.829559,0.83135 -0.532429,0.75277 1.12867,-0.29846 2.198291,-0.83222 3.186091,-1.45449 0.131919,-0.0831 -0.183499,-0.25646 -0.238527,-0.40234 -0.140626,-0.37278 -0.39194,-1.56892 -0.463902,-1.88983 -0.07154,-0.4093 -0.155694,-0.81659 -0.214614,-1.22789 -0.124079,-0.86619 -0.18724,-1.68512 -0.226885,-2.55831 -0.01699,-0.37422 -0.02064,-0.74893 -0.02809,-1.12347 -0.0058,-0.29203 0.274497,-0.93422 -0.01177,-0.87621 -1.279998,0.25938 -2.383396,1.0687 -3.575092,1.60305 -0.470765,0.91959 -1.10208,1.73044 -1.795375,2.49442 -0.745707,0.82316 -1.508239,1.62655 -2.290223,2.41554 -0.004,0.004 -1.419812,1.40768 -1.508067,1.52292 -0.158062,0.20641 -0.253431,0.45401 -0.380145,0.68101 1.181896,-0.5557 2.381123,-1.07595 3.545692,-1.6671 0.04481,-0.0228 0.371393,-0.52459 0.384783,-0.54603 0.317535,-0.50832 0.587042,-1.04448 0.870887,-1.57168 0.295023,-0.55242 0.582715,-1.11314 0.926518,-1.6377 0.05681,-0.0867 0.280167,-0.28817 0.183425,-0.25102 -3.510592,1.34824 -3.217566,0.29974 -3.562231,1.5906 -0.159383,0.57153 -0.390181,1.12087 -0.639342,1.65843 -0.462616,0.96142 -0.903147,1.98169 -1.754531,2.66757 0.98493,-0.54446 1.950619,-1.12528 2.954792,-1.63338 0.09063,-0.0459 -0.100957,0.19269 -0.192884,0.23589 -0.05223,0.0245 -0.130082,-0.0205 -0.157853,-0.0711 -0.06164,-0.11229 -0.06185,-0.24872 -0.08671,-0.37439 -0.06207,-0.31383 -0.07652,-0.47416 -0.115078,-0.78597 -0.05857,-0.15233 -0.02652,-0.52314 -0.175715,-0.45699 -3.728905,1.65357 -3.272943,0.9795 -3.520675,3.03611 -0.117486,0.9021 -0.232768,1.817 -0.641173,2.64335 -0.07216,0.1229 -0.129442,0.25584 -0.216482,0.3687 -0.07161,0.0928 -0.359484,0.29538 -0.254868,0.24243 1.05542,-0.53416 2.077633,-1.13156 3.119265,-1.69212 0.0743,-0.04 -0.132828,0.12499 -0.21704,0.13026 -0.264644,0.0166 -0.396806,-0.28135 -0.515369,-0.43809 -0.228121,-0.5841 -0.243305,-0.59271 -0.433919,-1.21056 -0.05956,-0.19304 -0.103653,-0.39074 -0.166261,-0.58282 -0.05808,-0.17818 -0.01789,-0.58685 -0.195528,-0.52712 -2.784318,0.93628 -2.694789,0.87542 -3.711926,1.94058 -0.441696,0.48906 -0.910135,0.96285 -1.289005,1.50248 -0.314376,0.59471 -0.410441,1.22135 -0.239036,1.88196 0.105403,0.37207 0.152734,0.59989 0.32802,0.95434 0.08364,0.16913 0.187759,0.32744 0.287928,0.48733 0.37829,0.60382 0.792982,1.18738 1.283374,1.70627 0.04143,0.0385 0.759752,0.79261 0.975837,0.69924 0.557032,-0.2407 3.433228,-0.93445 3.801806,-2.42005 0.02574,-0.10382 0.166195,-1.31335 0.169769,-1.34331 0.07995,-0.60461 0.127551,-1.06998 0.262242,-1.66612 0.04641,-0.20539 0.08451,-0.41653 0.173212,-0.60751 0.03667,-0.0789 0.270301,-0.21448 0.191455,-0.1776 -3.601484,1.68471 -4.691364,1.56114 -3.362203,1.69771 0.433038,0.75061 0.391885,1.79575 0.433861,2.62886 -0.04392,1.10737 -0.125341,2.21951 -0.382844,3.3008 -0.114199,0.40453 -0.307006,1.03648 -0.571365,1.36792 -0.0391,0.049 -0.09314,0.084 -0.139716,0.12599 1.063432,-0.59929 2.1262,-1.19976 3.190296,-1.79787 0.06558,-0.0369 -0.125413,0.0849 -0.194734,0.11411 -0.146865,0.0619 -0.373295,0.10835 -0.531706,0.0899 -0.153551,-0.0178 -0.534779,-0.16617 -0.66698,-0.21401 -0.27309,-0.12863 -0.458674,-0.19758 -0.699366,-0.38366 -0.476803,-0.36863 -0.777999,-0.923 -1.057288,-1.44097 -0.08718,-0.19331 -0.182835,-0.38301 -0.261551,-0.57992 -0.43207,-1.0808 -0.665514,-2.25416 -0.521724,-3.41677 0.04581,-0.1377 0.07915,-0.28019 0.137438,-0.41308 0.03636,-0.0829 0.224919,-0.27165 0.144584,-0.22991 -1.088864,0.56572 -2.114433,1.24772 -3.200987,1.81786 -0.01646,0.009 0.05431,-0.22843 0.112498,-0.23335 0.0338,-0.003 0.05688,0.037 0.08532,0.0554 0.319398,0.55283 -0.0118,1.44057 -0.112993,2.01799 -0.218352,0.90673 -0.377925,1.3327 0.27925,2.09455 0.106325,0.10191 0.205851,0.21142 0.318976,0.30572 0.240125,0.20016 0.610693,0.43013 0.864224,0.60182 0.516793,0.34998 1.020001,0.7185 1.519249,1.09297 0.122274,0.11006 0.216045,0.39595 0.366823,0.33016 3.612251,-1.57618 3.65474,-0.8612 3.426108,-2.73674 -0.01495,-0.33325 -0.01188,-0.66752 -1.3e-5,-1.00082 0.03301,-0.41498 0.077,-0.85075 0.439052,-1.11561 -1.050507,0.60383 -2.095188,1.21791 -3.151518,1.81149 -0.07214,0.0405 0.1279,-0.10551 0.196895,-0.1512 0.07164,-0.0474 0.143058,-0.0987 0.224015,-0.12754 0.344802,-0.12262 0.742524,-0.0548 1.095737,-0.0579 0.531329,0.0432 1.064088,0.0979 1.597136,0.11478 0.162478,0.005 0.342313,0.0749 0.487675,0.002 3.289345,-1.64669 2.716424,-1.10243 3.91795,-2.36826 0.503391,-0.79431 0.934768,-1.62623 1.376397,-2.456 0.149201,-0.28033 0.304453,-0.55752 0.447495,-0.84105 0.114406,-0.22676 0.216416,-0.45957 0.324623,-0.68935 0.06122,-0.20278 0.158271,-0.5652 0.260365,-0.76884 0.267113,-0.53278 0.783826,-0.88339 1.235859,-1.24266 1.321088,-0.913 0.95749,-0.63918 -2.213965,1.19052 -0.135596,0.0782 0.27486,-0.15083 0.418412,-0.21327 0.574638,-0.24994 1.192289,-0.39016 1.7779,-0.60933 0.227824,-0.0888 0.469159,-0.14857 0.683476,-0.26625 0.993154,-0.54536 3.073062,-1.59664 4.324358,-2.58897 0.651365,-0.51656 1.242836,-1.10453 1.853174,-1.66714 0.416211,-0.42743 0.717325,-0.71903 1.095872,-1.17274 0.10455,-0.12531 0.194588,-0.26207 0.293913,-0.39156 0.343405,-0.4477 0.695086,-0.88925 1.046636,-1.33055 0.807347,-0.96242 1.620538,-1.92483 2.547747,-2.775919 0.727241,-0.673719 1.459066,-1.342136 2.113944,-2.08887 0.819475,-0.96447 1.589291,-1.980562 2.553337,-2.809991 0.962954,-0.855261 1.927836,-1.708367 2.919849,-2.530033 0.768983,-0.647711 1.53578,-1.297406 2.298221,-1.952731 0.867492,-0.720445 1.75431,-1.423376 2.537124,-2.238097 0.754341,-0.796581 1.442419,-1.651305 2.163951,-2.477291 0.09601,-0.120857 0.434993,-0.409729 0.288025,-0.362569 -2.122326,0.680984 -2.997165,0.61347 -3.964749,1.890265 -0.146794,0.176361 -0.292534,0.314253 -0.487961,0.436676 -0.05638,0.03532 -0.229449,0.134803 -0.171466,0.102174 1.068554,-0.60131 2.135489,-1.205497 3.203234,-1.808247 -0.03916,0.03928 -0.0701,0.08899 -0.117478,0.117824 -0.03726,0.02267 -0.08428,0.02289 -0.127132,0.03104 -0.03854,0.0073 -0.07904,0.02641 -0.116697,0.01537 -0.194143,-0.0568 -0.328689,-0.297815 -0.473744,-0.414862 -0.543685,-0.618749 -1.137595,-1.19815 -1.573991,-1.9035 -0.432541,-0.619892 -0.854826,-1.246872 -1.256689,-1.88728 -0.133358,-0.212524 -0.144317,-0.691825 -0.390511,-0.64347 -3.562324,0.699686 -3.34272,0.230611 -3.819872,1.686446 -0.0501,0.365186 -0.07653,0.733603 -0.134914,1.097553 -0.03505,0.21848 -0.346863,0.71496 -0.135379,0.649867 1.147008,-0.353036 2.149922,-1.067189 3.224885,-1.600785 0.02148,0.109691 -0.04641,0.314926 0.06447,0.329073 0.105918,0.01352 0.0028,-0.213537 0.0042,-0.320307 0.315838,-1.560396 0.916326,-3.0567 1.818663,-4.373444 0.154567,-0.187049 0.688597,-0.652258 0.463704,-0.561144 -1.026279,0.415796 -1.950781,1.048438 -2.932189,1.561246 -0.0921,0.04812 0.162009,-0.144 0.263408,-0.166749 0.404977,-0.09085 0.953894,0.361768 1.271072,0.519639 0.200763,0.140272 0.409217,0.270135 0.602292,0.420812 1.050375,0.81974 1.927341,1.875901 2.458331,3.101576 0.450157,1.565989 0.03025,0.520247 3.53019,-1.452261 0.04486,-0.02529 -0.105095,-0.02829 -0.139293,-0.06679 -0.142727,-0.160687 -0.301821,-0.560565 -0.369072,-0.731428 -0.07039,-0.178824 -0.131017,-0.361333 -0.196525,-0.542001 -0.130757,-0.412486 -0.266208,-0.780032 -0.327618,-1.211131 -0.02209,-0.155162 0.131284,-0.521247 -0.0168,-0.469884 -1.190082,0.412801 -2.265079,1.102821 -3.397617,1.654231 0.05585,0.03078 0.130376,0.04052 0.167544,0.09233 0.0969,0.135075 0.146558,0.298434 0.219835,0.447651 0.609465,1.467942 1.151466,2.962256 1.623052,4.480356 0.04102,0.178244 0.100004,0.35329 0.123063,0.534733 0.0109,0.08585 -0.100616,0.295328 -0.02223,0.258662 1.167717,-0.546208 2.258039,-1.245081 3.401943,-1.839547 0.03224,-0.01675 -0.01537,0.110265 -0.04927,0.09723 -0.07805,-0.03001 -0.131887,-0.109148 -0.172238,-0.18239 -0.08849,-0.160621 -0.139124,-0.339357 -0.208685,-0.509035 -0.28648,-1.042172 -0.733925,-2.624116 -0.400384,-3.68741 0.03138,-0.10005 0.09889,-0.184931 0.148334,-0.277397 -5.830708,2.790243 -3.073808,0.351123 -3.557455,2.035151 -0.07947,0.276704 -0.142135,0.417102 -0.248621,0.689554 -0.179277,0.375288 -0.363908,0.737757 -0.621226,1.067965 -0.101616,0.130399 -0.475253,0.444264 -0.325536,0.37416 0.973365,-0.455758 1.871684,-1.058442 2.829269,-1.546484 0.145458,-0.07413 -0.257421,0.200877 -0.38613,0.301313 -0.145627,0.04129 -0.285927,0.112643 -0.436875,0.123859 -0.174683,0.01299 -0.351911,-0.01434 -0.522856,-0.05255 -1.018947,-0.227742 -1.807781,-0.960278 -2.496209,-1.699789 -0.363151,-0.477816 -0.430683,-0.54974 -0.736922,-1.006464 -0.07755,-0.115652 -0.09345,-0.396505 -0.225306,-0.351758 -3.797824,1.288793 -3.935744,0.433093 -3.548902,2.034466 0.09104,0.411482 0.207955,0.815932 0.300792,1.226875 0.03394,0.150238 0.05918,0.302321 0.09099,0.453025 0.02371,0.112284 -0.03364,0.37121 0.07554,0.335883 1.246843,-0.403397 2.41383,-1.021178 3.620746,-1.531765 -0.04738,-0.184068 0.0095,-0.358302 0.04249,-0.54527 0.10057,-0.569724 0.213817,-1.137494 0.369133,-1.695301 0.116067,-0.389663 0.29096,-1.037776 0.471763,-1.410894 0.07852,-0.162038 0.464013,-0.513445 0.294449,-0.452874 -1.144857,0.408956 -2.20704,1.020173 -3.310559,1.530258 0.03965,0.05076 0.09558,0.09227 0.118951,0.152297 0.04932,0.126666 0.06319,0.264411 0.09478,0.396618 0.07495,0.645755 0.136043,1.286796 0.111199,1.938393 -0.0072,0.189569 -0.231203,0.620781 -0.04928,0.566986 3.56004,-1.052769 3.502594,-0.334309 3.501017,-1.779513 0.139446,-1.409235 0.43769,-2.804883 0.967311,-4.121862 0.308198,-0.62158 0.406996,-0.911929 0.837819,-1.445265 0.13294,-0.164571 0.6388,-0.539554 0.446768,-0.450787 -1.584786,0.732565 -3.84674,2.564961 -2.837913,1.418577 0.01466,0.307644 -0.08714,0.584999 -0.214567,0.865143 -0.346329,0.761386 -0.849246,1.434316 -1.294085,2.137973 -0.686061,1.023543 -1.395772,2.028399 -2.100003,3.039401 -0.07496,0.107622 -0.904438,1.225397 -0.95913,1.5581 -0.03649,0.222014 0.06938,0.444608 0.104063,0.666914 0.336241,-0.05551 0.637683,-0.17788 0.955765,-0.299001 1.433732,-0.545946 2.674292,-1.478849 4.006077,-2.238793 0.353907,-0.268658 0.547759,-0.689559 0.762657,-1.066818 0.912987,-1.630064 1.93353,-3.199125 3.160932,-4.613646 0.347964,-0.399409 0.688739,-0.805198 1.043892,-1.198231 1.922799,-2.127885 4.014219,-4.099767 6.196559,-5.958343 0.40988,-0.335005 0.81546,-0.675344 1.22965,-1.005017 1.51617,-1.206802 3.10568,-2.319922 4.62445,-3.52362 1.11844,-0.842079 2.28228,-1.634953 3.3161,-2.582193 0.9286,-0.888887 1.80712,-1.839788 2.52887,-2.906848 0.30227,-0.510722 0.91414,-1.477814 0.75834,-2.116677 -0.0159,-0.065 -0.055,-0.121983 -0.0825,-0.182975 -0.0561,-0.07163 -0.0858,-0.253037 -0.16844,-0.214889 -2.23731,1.032864 -2.73808,1.279625 -4.03884,2.349029 -0.31628,0.223504 -0.59567,0.49843 -0.81166,0.821549 -0.48021,0.766657 -0.66459,1.661409 -0.99497,2.495857 -0.1654,0.442394 -0.31428,0.856152 -0.49969,1.290601 -0.0752,0.176146 -0.13723,0.360322 -0.23945,0.522282 -0.0682,0.107984 -0.38243,0.326557 -0.26485,0.276767 3.59607,-1.522693 4.47174,-0.919453 3.3653,-1.651926 -0.018,-0.615349 0.15713,-1.503947 0.51233,-2.015744 0.0553,-0.07962 0.13742,-0.136689 0.20614,-0.205033 -1.08057,0.588877 -2.14704,1.204404 -3.24171,1.766633 -0.0476,0.02445 0.0278,-0.119427 0.0767,-0.141065 0.10852,-0.04796 0.19481,0.153172 0.23995,0.262893 0.078,0.189597 0.17484,0.607898 0.22068,0.789439 0.23133,1.001054 0.39584,2.015332 0.64705,3.011554 0.0764,0.113697 0.10406,0.396909 0.22913,0.341085 1.21931,-0.544216 2.32155,-1.319964 3.47419,-1.993993 0.041,-0.02394 0.0667,-0.06772 0.10325,-0.09799 0.96839,-0.801904 3.88145,-1.528067 -2.97126,1.661835 0.12656,-0.112313 0.0879,-0.114869 0.25505,-0.126693 0.0543,-0.0038 0.1152,0.02748 0.16321,0.0019 1.285,-0.684723 2.94696,-1.049243 3.78424,-2.293332 0.28387,-0.616683 0.34941,-1.301006 0.36059,-1.97421 -0.031,-0.618267 -0.14477,-1.221025 -0.29241,-1.822161 -0.0871,-0.421378 -0.17997,-0.842844 -0.22943,-1.270852 -0.0238,-0.205523 -0.0256,-0.413261 -0.0512,-0.618559 -0.009,-0.07542 -0.0254,-0.14987 -0.0381,-0.224806 -1.19318,0.578517 -2.4022,1.125424 -3.57953,1.735553 -0.033,0.01709 0.005,0.07533 0.0185,0.10989 0.0244,0.06189 0.13681,0.353234 0.22646,0.366069 0.0604,0.0087 0.0476,-0.178789 0.0745,-0.167066 0.29949,0.114509 0.30202,0.976337 0.46404,1.252112 0.14757,0.174495 0.30962,0.406119 0.571,0.260384 0.56575,-0.315439 2.74785,-1.271828 3.77903,-2.232594 -0.004,-0.02659 -0.0615,-0.626168 -0.24189,-0.541933 -1.20542,0.562968 -2.31389,1.313723 -3.46618,1.97869 -0.0569,0.03283 -0.21784,0.146425 -0.16058,0.114239 1.00207,-0.563206 1.99473,-1.143029 2.99591,-1.707817 0.11771,-0.0664 -0.23018,0.141692 -0.34527,0.212537 -0.27183,0.122492 -0.91596,0.454562 -1.21949,0.263086 -0.0516,-0.03256 -0.39451,-0.444431 -0.41505,-0.46863 -0.19834,-0.270386 -0.32196,-0.430945 -0.50675,-0.717979 -0.33253,-0.516522 -0.60501,-1.07466 -1.01566,-1.537766 -0.0454,-0.04842 -0.49433,-0.531254 -0.57909,-0.485275 -2.58925,1.404499 -3.35717,0.847048 -3.51474,2.491076 0.008,0.897607 0.0548,1.794513 0.0569,2.692247 -0.009,0.680466 -0.0164,1.355817 -0.0866,2.033407 -0.0145,0.139909 -0.0308,0.279786 -0.0545,0.418436 -0.0128,0.07523 -0.12353,0.255662 -0.0549,0.222274 1.16575,-0.567113 2.27784,-1.238494 3.41676,-1.85774 0.021,0.05775 0.041,0.115887 0.0631,0.173257 0.0101,0.02617 -0.0224,-0.05196 -0.0271,-0.07959 -0.0126,-0.07424 -0.0195,-0.149442 -0.0243,-0.224587 -0.0257,-0.397139 -0.0118,-0.795604 -5.3e-4,-1.192908 0.0227,-0.789435 -0.0313,-1.598194 0.20389,-2.362682 0.0441,-0.07028 0.078,-0.147986 0.13217,-0.210841 0.0379,-0.04398 0.18997,-0.132765 0.13932,-0.104433 -1.07346,0.60044 -2.13934,1.214313 -3.20901,1.821471 0.0999,-0.06584 0.20051,-0.143471 0.31807,-0.177766 0.0494,-0.01439 0.10217,-0.01161 0.15326,-0.01744 0.045,0.0045 0.0897,0.01487 0.13485,0.01344 0.0227,-7.94e-4 0.0429,-0.0244 0.0651,-0.01979 0.11549,0.024 0.009,0.396409 0.009,0.438044 -0.13281,0.505145 -0.41742,0.917369 -0.80584,1.267349 -0.29975,0.254709 -0.27195,0.241874 -0.61228,0.482346 -0.13557,0.09578 -0.55695,0.360431 -0.4116,0.280278 0.91653,-0.50542 1.81491,-1.043127 2.72675,-1.556969 0.17111,-0.09642 -0.33254,0.209476 -0.50437,0.304609 -0.15358,0.08503 -0.31406,0.15697 -0.47109,0.235453 -0.13727,0.03645 -0.27042,0.09596 -0.41182,0.109342 -0.11414,0.01079 -0.97817,-0.07551 -1.02958,-0.08186 -0.84939,-0.104945 -1.69081,-0.269616 -2.53391,-0.413737 -0.31626,-0.07029 -0.63401,-0.1342 -0.94878,-0.210876 -1.27088,-0.309576 -2.5088,-0.751319 -3.7392,-1.189884 -1.6696,-0.63654 -3.302024,-1.367232 -4.976244,-1.992993 -1.210402,-0.429813 -2.426935,-0.835085 -3.655121,-1.211804 -2.135682,-0.655072 -0.615164,-0.173056 -2.757633,-0.793028 -0.431599,-0.124894 -0.860229,-0.259832 -1.290343,-0.389747 -1.374513,-0.408448 -0.547934,-0.173911 -1.639843,-0.465696 -0.01913,-0.0051 -0.484164,-0.155758 -0.546335,-0.115099 -1.116857,0.730366 -2.207676,1.500047 -3.297939,2.269553 -0.02548,0.01799 0.06216,-0.0051 0.09323,-0.0077 0.490484,-0.02241 0.982027,-0.01942 1.472821,-0.03075 0.599774,-0.0016 1.199595,0.0058 1.799397,0.0085 0.725795,0.02035 1.446255,0.106032 2.158143,0.251738 1.518846,0.310004 3.013983,0.711565 4.483227,1.207407 0.455459,0.135277 0.907465,0.295466 1.376929,0.375825 0.01468,0.0026 0.464034,0.06024 0.475022,0.05436 1.186021,-0.634587 2.33716,-1.332317 3.505737,-1.998474 -0.03366,-0.104299 -0.04993,-0.215914 -0.100978,-0.312894 -0.06078,-0.115475 -0.23958,-0.160832 -0.341202,-0.195379 -0.404034,-0.137356 -0.819205,-0.240993 -1.22474,-0.373568 -0.580374,-0.156734 -0.467802,-0.129529 -1.050663,-0.274166 -0.120668,-0.02995 -0.685945,-0.173969 -0.847317,-0.190588 -0.05307,-0.0055 -0.442172,0.02209 -0.500076,0.02588 -0.224179,0.01286 -0.458534,0.04486 -0.683112,0.03906 -0.290544,-0.0075 -0.578432,-0.0812 -0.867955,-0.09892 -1.126591,-0.13399 -2.258692,-0.205507 -3.386608,-0.326377 -0.127408,-0.02863 -0.265436,-0.144317 -0.382225,-0.0859 -0.196295,0.09819 -4.380003,1.424472 -3.354496,2.335609 0.05318,0.04725 0.181067,0.108519 0.237357,0.138049 0.167098,0.08637 0.329057,0.185592 0.487654,0.286798 0.09244,0.05899 0.172831,0.136626 0.268877,0.189537 0.0059,0.0032 0.01262,-0.0045 0.01895,-0.0067 1.110617,-0.706954 2.216652,-1.421165 3.331855,-2.120863 0.02077,-0.01304 -0.02331,0.04646 -0.04472,0.05845 -0.03875,0.02172 -0.08397,0.03021 -0.127677,0.03814 -0.271682,0.04924 -0.542883,-0.0074 -0.813827,-0.03233 -0.960853,-0.149302 -1.898224,-0.414716 -2.764988,-0.86505 -0.962594,-0.410527 -1.97571,-0.774927 -3.034218,-0.788485 -1.644396,0.264692 -0.616585,0.06287 -3.933592,2.043237 -0.186489,0.11134 -0.0972,0.387771 -0.0271,0.512734 0.06701,0.119472 0.255529,0.180528 0.362717,0.229846 0.623102,0.290962 1.195369,0.680341 1.855531,0.888439 0.295151,0.15694 0.655341,0.319275 0.853901,0.605417 0.02937,0.04232 0.05114,0.0995 0.03898,0.149558 -0.01265,0.05199 -0.151895,0.147 -0.10486,0.12151 1.033333,-0.559977 2.048336,-1.153139 3.072501,-1.729708 -0.134758,0.09661 -0.380511,0.306506 -0.567981,0.309166 -0.451382,0.0064 -1.173332,-0.878309 -1.482672,-1.179016 -0.09749,-0.113416 -0.184629,-0.236619 -0.292463,-0.340248 -0.05356,-0.05147 -0.121624,-0.155517 -0.187269,-0.120762 -2.778242,1.470912 -2.843253,1.129255 -3.847627,2.614026 -0.183512,0.227216 -0.254098,0.335452 -0.484153,0.529171 -0.100073,0.08427 -0.432699,0.292886 -0.317809,0.230304 0.989787,-0.539157 1.963475,-1.107363 2.945018,-1.661392 0.112139,-0.0633 -0.218352,0.138702 -0.336811,0.18919 -0.105429,0.04494 -0.220256,0.06345 -0.330383,0.09518 -0.118946,-0.04797 -0.2467,-0.07819 -0.356838,-0.14391 -0.145645,-0.08691 -0.271108,-0.203951 -0.40359,-0.309848 -0.636159,-0.508492 -1.220981,-1.078357 -1.875423,-1.564272 -0.120247,-0.0734 -0.234248,-0.158189 -0.360748,-0.220194 -0.08669,-0.04249 -0.18229,-0.06388 -0.274844,-0.09135 -1.558235,-0.462455 -3.100541,0.936498 -4.191339,2.049841 -0.488156,0.717957 -0.440748,1.491779 -0.274748,2.316612 0.06156,0.213458 0.10877,0.431594 0.184689,0.640376 0.266795,0.733711 0.617241,1.22618 1.174909,1.747097 2.851891,-1.838547 4.664948,-1.943756 2.509366,-2.446949 -0.68341,-0.09728 -1.392861,-0.133339 -2.033018,-0.410868 -0.05213,-0.02968 -0.09825,-0.07429 -0.156401,-0.08903 -0.04381,-0.01111 0.02903,0.100828 0.07197,0.114922 0.02458,0.0081 0.09791,-0.0308 0.07548,-0.01791 -2.696294,1.547103 -4.420166,2.464628 -3.162191,1.794094 0.04017,-0.0097 0.474353,-0.10805 0.480832,-0.111598 1.300004,-0.711854 2.722534,-1.206373 3.781444,-2.228001 0.34898,-0.349406 0.745649,-0.640662 1.133417,-0.945248 0.369369,-0.287432 0.747715,-0.558027 1.126812,-0.832355 0.11012,-0.07969 0.701686,-0.492943 0.791634,-0.648459 0.07169,-0.123958 0.05611,-0.280845 0.08416,-0.421265 -0.059,-0.07682 -0.0931,-0.182054 -0.177006,-0.230465 -0.052,-0.03001 -0.1188,0.01752 -0.178316,0.02545 -0.350284,0.04667 -0.694137,0.12101 -1.027279,0.242758 -0.647912,0.230833 -1.264203,0.52887 -1.899936,0.788088 -1.523071,0.785286 1.64029,-0.849551 -3.749825,2.129848 -1.079813,0.596871 2.143635,-1.222253 3.211541,-1.840175 0.05947,-0.03441 -0.124836,0.05756 -0.18574,0.08936 -0.06694,0.03495 -0.131998,0.07339 -0.197617,0.110762 -1.185778,0.675262 -2.371048,1.351415 -3.556569,2.027124 -0.405199,0.282956 -0.648952,0.425407 -0.320456,0.917882 0.314529,0.20951 0.651963,0.378264 0.963922,0.589994 0.550482,0.32693 1.109197,0.640085 1.679221,0.931945 0.201316,0.06347 0.398841,0.140369 0.603758,0.191039 0.389149,0.09622 0.788215,0.01558 1.183717,0.04054 1.050364,0.015 2.101969,0.08067 3.130232,0.311806 1.868112,0.43637 3.706514,0.990957 5.526934,1.594776 0.417891,0.137904 0.810469,0.255977 1.213879,0.426858 0.09629,0.04078 0.178763,0.115612 0.280173,0.141131 0.04592,0.01156 0.03966,-0.192767 -0.03467,-0.137758 1.094058,-0.631139 2.188112,-1.262279 3.28217,-1.893419 -0.651709,0.480851 -1.262925,0.331867 -1.947622,-0.01111 -0.660881,-0.369618 -1.29849,-0.752729 -1.892363,-1.226527 -0.201232,-0.160541 -0.399146,-0.326189 -0.583851,-0.505497 -0.148987,-0.144632 -0.219723,-0.534379 -0.415211,-0.464373 -1.218345,0.436304 -2.279885,1.225159 -3.419827,1.837741 0.04614,-0.06083 0.06221,-0.177999 0.138428,-0.182473 0.145796,-0.0086 0.277373,0.09262 0.411604,0.150178 0.674828,0.289351 1.301962,0.694454 1.831028,1.203838 0.02839,0.04227 0.07108,0.07789 0.08516,0.126825 0.0072,0.02506 -0.02498,0.04727 -0.0276,0.07323 -0.0042,0.04136 -0.0021,0.0841 0.0077,0.124463 0.03999,0.162454 0.12836,0.292026 0.27699,0.369364 0.368421,0.08341 0.744831,0.124423 1.119272,0.171664 0.125896,0.01587 0.262615,0.09983 0.377814,0.04663 1.255702,-0.579974 2.452346,-1.280091 3.678518,-1.920139 0.01302,-0.113511 0.0643,-0.229103 0.03907,-0.340537 -0.09808,-0.433062 -1.180365,-0.830038 -1.448316,-0.961377 -1.394349,-0.683461 -0.845775,-0.405744 -2.312353,-1.207323 -1.02427,-0.648287 -1.418402,-0.839816 -2.31885,-1.628 -0.391943,-0.343077 -1.369232,-1.1948 -1.250569,-1.85216 0.03497,-0.128092 0.06985,-0.252155 0.161242,-0.353988 0.03034,-0.03381 0.142185,-0.112025 0.102688,-0.08959 -3.237873,1.839365 -4.009287,2.843999 -3.120994,1.727518 0.175991,-0.05985 0.268912,-0.108347 0.469676,-0.09219 0.826105,0.06647 1.730793,0.63681 2.440088,0.999318 2.373643,1.415563 4.723349,2.981634 6.479674,5.149919 0.127998,0.205676 0.267947,0.404378 0.38399,0.617026 0.178374,0.326861 0.302935,0.680538 0.467567,1.014527 0.343204,0.696261 0.739891,1.364308 1.168955,2.010936 0.519446,0.755346 0.72653,1.082207 1.311132,1.818907 0.771195,0.971834 0.983888,1.175359 1.866165,2.08959 1.391806,1.442214 1.001982,1.040458 2.512621,2.454566 1.603327,1.391158 1.373616,1.165727 2.958332,2.649931 1.557179,1.458407 3.093399,2.951874 4.357739,4.679371 0.38293,0.59124 0.62006,0.898247 0.89694,1.516404 0.0544,0.121472 7.9e-4,0.434379 0.12233,0.380103 1.18328,-0.528453 2.22548,-1.330587 3.36942,-1.939521 0.0397,-0.02114 0.0391,0.0901 0.0248,0.132771 -0.007,0.02117 -0.0443,-0.0058 -0.0664,-0.0088 -0.59229,-0.564703 -0.91935,-1.517835 -1.33174,-2.210684 -0.19611,-0.419304 -0.42206,-1.004705 -0.70317,-1.377222 -0.29755,-0.394303 -0.75934,-0.652219 -1.11178,-0.986372 -1.45698,-1.145305 -2.89299,-2.318668 -4.18517,-3.651946 -0.74254,-0.666448 -1.482477,-1.337606 -2.182226,-2.049542 -1.113052,-1.132432 -2.146724,-2.339049 -3.16629,-3.555156 -0.890029,-1.078029 -1.297996,-1.521658 -2.082133,-2.666471 -0.242697,-0.354324 -0.471252,-0.718957 -0.681218,-1.093607 -0.116498,-0.207873 -0.06939,-0.723374 -0.296291,-0.650584 -2.647069,0.849164 -4.252809,2.887588 -3.336914,1.74044 0.673782,0.760396 1.248402,1.601123 1.749729,2.484337 0.387432,0.765828 0.691232,1.568849 1.077664,2.33568 0.466577,0.797126 0.994256,1.557134 1.558978,2.28789 0.837446,1.050631 1.713394,2.084175 2.700991,2.996747 0.147563,0.13344 0.287885,0.275349 0.442687,0.400315 0.131834,0.106426 0.856258,0.596175 0.962973,0.669813 0.591851,0.408409 1.172527,0.833271 1.779505,1.219391 1.056065,0.647292 2.143205,1.243938 3.217415,1.860193 0.62294,0.353248 1.17891,0.806108 1.71584,1.278718 1.02665,0.884642 2.00884,1.81448 2.99248,2.746216 0.1409,0.133453 0.2867,0.261919 0.42271,0.400357 0.56616,0.576289 0.99675,1.276699 1.42072,1.958051 0.75249,1.334387 1.44589,2.70283 1.96924,4.145632 0.0567,0.181586 0.11696,0.36212 0.17021,0.544756 0.0376,0.128945 -0.0242,0.434838 0.10229,0.38975 4.15203,-1.479664 3.03584,-0.595233 3.80048,-2.322912 0.86881,-1.32239 0.12194,-0.07954 -2.87162,1.382035 -0.0877,0.04281 0.0503,-0.213228 0.13654,-0.258966 0.15785,-0.08375 0.48519,0.332004 0.49656,0.346461 0.11912,0.151546 0.21478,0.320143 0.32217,0.480214 0.94831,1.667441 1.73464,3.419509 2.64179,5.10931 0.43263,0.888029 0.86095,1.775584 1.23979,2.688294 0.0772,0.186065 0.1462,0.375465 0.22171,0.562234 0.0528,0.130627 0.0342,0.446521 0.16324,0.389903 1.21425,-0.532857 2.30153,-1.317691 3.4523,-1.976535 -0.15812,-0.422672 -0.22517,-0.872297 -0.35729,-1.303356 -0.0385,-0.125606 -0.004,-0.414224 -0.12879,-0.372483 -1.25353,0.420034 -2.41118,1.08503 -3.61678,1.627545 -0.0466,0.358902 -0.14505,0.714525 -0.22115,1.067683 -0.18449,0.856239 -0.3536,1.715773 -0.55567,2.568169 -0.13696,0.5988 -0.28902,1.19429 -0.4134,1.79584 -0.035,0.16928 -0.25046,0.561 -0.0848,0.5116 1.23643,-0.36873 2.36607,-1.02981 3.54911,-1.54472 -0.0128,-0.028 -0.0373,-0.0533 -0.0384,-0.0841 -0.004,-0.10797 0.0158,-0.21551 0.0237,-0.32327 0.0518,-0.52465 0.0464,-0.49895 0.11483,-1.059082 0.0124,-0.1017 0.13907,-1.053401 0.13904,-1.179028 -4e-5,-0.17263 0.10185,-0.570987 -0.0612,-0.514265 -1.24892,0.43448 -2.36666,1.180362 -3.54999,1.770541 -0.34962,0.911274 -0.681,1.839344 -1.22605,2.657104 -0.11768,0.1506 -0.22329,0.31145 -0.35303,0.45179 -0.11309,0.12233 -0.5207,0.40936 -0.37258,0.33312 1.01396,-0.52188 1.97654,-1.13885 2.98231,-1.67634 0.14564,-0.0778 -0.50084,0.47699 -0.43656,0.18325 -0.32934,-0.29496 -0.42303,-0.74287 -0.47222,-1.16612 -0.0215,-0.40585 -0.03,-0.38338 -0.0108,-0.801375 0.0157,-0.341826 0.0882,-0.679341 0.0566,-1.022604 -0.051,-0.485809 -0.14224,-0.960644 -0.22035,-1.442799 -0.11622,-0.717391 -0.16509,-1.045634 -0.22935,-1.795005 -0.0317,-0.369739 -0.0497,-0.740526 -0.0746,-1.11079 -0.003,-1.014825 -0.0232,-2.043514 0.23441,-3.035977 0.0431,-0.166156 0.34741,-0.538781 0.18605,-0.480197 -4.97948,1.807858 -4.51599,1.746824 -3.22535,1.611775 0.2447,0.580903 0.33683,1.075156 0.45878,1.698424 0.20698,1.057791 0.39303,2.119773 0.60623,3.176394 0.45216,1.99934 0.86225,4.024924 1.66763,5.920054 0.068,0.13752 0.0571,0.45715 0.2039,0.41257 2.33514,-0.70916 3.32159,-0.75963 4.17841,-2.36806 0.36241,-0.78232 0.67022,-1.586454 0.98167,-2.39002 0.36545,-0.896933 0.66851,-1.821628 0.7963,-2.78579 0.0301,-0.255654 0.0719,-0.510199 0.0904,-0.766956 0.0512,-0.711084 0.0288,-1.257774 -0.003,-1.978176 -0.007,-0.166272 -0.14666,-2.615882 -0.15033,-2.673741 -0.0318,-0.500325 -0.0698,-1.000236 -0.10464,-1.500354 -0.12242,-2.335964 -0.34381,-4.6916 -0.0986,-7.02608 0,0 -3.49162,1.779075 -3.49162,1.779075 z" />
            <path
               style="fill:#000000;stroke-width:0.264583"
               id="path1783"
               d="m 71.960874,96.660683 c -0.340066,0.818137 -0.290801,1.760175 -0.314153,2.629789 -0.04122,1.387208 0.221837,2.752318 0.496689,4.104588 0.228134,1.00012 0.383955,2.00916 0.459327,3.03175 0.01805,0.43011 0.03065,0.85963 0.05762,1.28928 0,0 3.395599,-1.75815 3.395599,-1.75815 v 0 c -0.02905,-0.42731 -0.04871,-0.85518 -0.0881,-1.28174 -0.09851,-1.03019 -0.259737,-2.05204 -0.524357,-3.05397 -0.312886,-1.30979 -0.570804,-2.641585 -0.490209,-3.996228 0.06248,-0.879057 0.09576,-1.826977 0.628382,-2.570112 0,0 -3.620804,1.604793 -3.620804,1.604793 z" />
            <path
               style="fill:#000000;stroke-width:0.264583"
               id="path1785"
               d="m 68.677694,99.871325 c 0.105066,0.194075 0.155533,0.411595 0.250354,0.609825 0.236408,0.49421 0.509656,0.97001 0.755277,1.45971 0.536665,1.06997 0.41276,0.82405 0.915662,1.89752 0,0 3.093355,-1.75294 3.093355,-1.75294 v 0 c -0.634482,-1.31905 -1.298782,-2.668375 -1.548408,-4.123126 0,0 -3.46624,1.909011 -3.46624,1.909011 z" />
            <path
               style="fill:#000000;stroke-width:0.264583"
               id="path1787"
               d="m 78.407857,90.569446 c 0.07628,0.57427 0.05999,1.154869 0.125809,1.730385 0.04517,0.394941 0.134231,0.889175 0.200462,1.280602 0.165261,0.916223 0.292843,1.838071 0.348427,2.767502 0.05603,0.681776 -0.05774,1.36725 -0.268367,2.015056 0,0 3.498829,-1.672688 3.498829,-1.672688 v 0 c 0.135726,-0.696687 0.265785,-1.406919 0.183364,-2.118511 -0.10183,-0.921718 -0.283948,-1.828501 -0.471056,-2.736273 -0.161105,-1.015021 -0.238313,-2.036797 -0.09568,-3.060512 0,0 -3.521784,1.794439 -3.521784,1.794439 z" />
            <path
               style="fill:#000000;stroke-width:0.264583"
               id="path1789"
               d="m 83.859909,85.316025 c -0.452985,1.036521 -0.91272,2.072105 -1.366616,3.109105 -0.458372,1.043167 -0.893691,2.098051 -1.509992,3.059893 -0.425911,0.557234 -0.758405,1.177338 -1.063771,1.806586 0,0 3.524914,-1.598203 3.524914,-1.598203 v 0 c 0.301911,-0.609936 0.659831,-1.185386 1.028943,-1.756534 0.537708,-0.973275 0.917202,-2.018144 1.355567,-3.037917 0.497924,-1.08563 0.98576,-2.182775 1.63454,-3.189274 0,0 -3.603585,1.606344 -3.603585,1.606344 z" />
            <path
               style="fill:#000000;stroke-width:0.264583"
               id="path1791"
               d="m 85.610114,83.772453 c -0.01508,0.139184 -0.02109,0.279646 -0.04522,0.41755 -0.275045,1.57235 -0.795415,3.100559 -1.246254,4.627941 -0.382958,1.19703 -0.724929,2.411436 -1.223746,3.567049 -0.173609,0.430284 -0.08568,0.225639 -0.261696,0.61483 0,0 3.514582,-1.621991 3.514582,-1.621991 v 0 c 0.141832,-0.386871 0.06947,-0.185989 0.216585,-0.602829 0.389006,-1.148636 0.681098,-2.326412 0.995815,-3.49686 0.478345,-1.740157 0.938742,-3.495948 1.624343,-5.168241 0,0 -3.574407,1.662551 -3.574407,1.662551 z" />
            <path
               style="fill:#000000;stroke-width:0.264583"
               id="path1793"
               d="m 80.304168,89.016244 c -0.07719,0.761759 -0.198959,1.517941 -0.303154,2.276287 -0.104482,0.73044 -0.169897,1.462513 -0.191831,2.199661 0,0 3.408542,-1.718884 3.408542,-1.718884 v 0 c 0.03866,-0.71918 0.0812,-1.439622 0.187907,-2.152537 0.135843,-0.845232 0.01402,-0.113614 0.163418,-0.940173 0.06533,-0.361449 0.102441,-0.742706 0.232513,-1.089152 0.02705,-0.07204 0.07038,-0.136866 0.105571,-0.2053 0,0 -3.602966,1.630098 -3.602966,1.630098 z" />
            <path
               style="fill:#000000;stroke-width:0.264583"
               id="path1795"
               d="m 93.742115,85.50199 c -0.03114,0.04428 -0.05566,0.09404 -0.09341,0.132836 -0.04256,0.04374 -0.101584,0.06895 -0.144846,0.112004 -0.08208,0.08168 -0.260199,0.334393 -0.323437,0.410511 -0.06911,0.08319 -0.144537,0.160938 -0.216805,0.241409 -0.09947,0.124632 -0.198937,0.249264 -0.298405,0.373896 -0.661172,0.902644 -1.369367,1.770083 -2.094844,2.621626 -0.57604,0.684311 -1.142219,1.376701 -1.737211,2.044769 -0.254371,0.271873 -0.455449,0.615707 -0.776762,0.814128 0,0 3.648276,-1.482455 3.648276,-1.482455 v 0 c 0.226394,-0.273272 0.442162,-0.555268 0.668415,-0.82872 0.562702,-0.675455 1.119028,-1.35622 1.686089,-2.028055 0.713348,-0.858221 1.361625,-1.766758 2.089121,-2.613329 0.410702,-0.441582 0.806881,-0.896707 1.245094,-1.311026 0,0 -3.651273,1.512406 -3.651273,1.512406 z" />
            <path
               style="fill:#000000;stroke-width:0.264583"
               id="path1797"
               d="m 93.362845,84.512607 c 0.08126,0.729572 0.05484,1.466916 0.03395,2.199367 -0.0037,0.39238 0.0088,0.205227 -0.03235,0.561795 0,0 3.474879,-1.744136 3.474879,-1.744136 v 0 c 0.003,-0.368773 0.003,-0.178321 -7.94e-4,-0.571357 -0.02186,-0.744148 -0.04448,-1.492361 0.03395,-2.233962 0,0 -3.509722,1.788293 -3.509722,1.788293 z" />
            <path
               style="fill:#000000;stroke-width:0.264583"
               id="path1799"
               d="m 92.61477,65.44607 c 0.407278,0.490456 0.842939,0.959401 1.219158,1.475071 0.353377,0.48436 0.444148,0.660064 0.752319,1.171173 0.577212,0.979636 0.936529,2.058067 1.304991,3.127158 0.387463,1.135046 0.698825,2.267011 1.162965,3.375678 0.153371,0.311031 0.264128,0.652381 0.441161,0.952185 0.147235,0.249344 0.349919,0.470416 0.522285,0.702456 0.222742,0.311483 0.52501,0.523819 0.846026,0.723519 0.313135,0.194797 0.502436,0.327636 0.893906,0.35278 0.230706,0.01482 0.461069,-0.03458 0.691599,-0.05186 0.814,-0.150649 1.54641,-0.539443 2.31324,-0.825212 0.19973,-0.07443 0.39818,-0.16461 0.60928,-0.194045 0.63726,-0.08885 0.8685,0.09876 1.48157,0.326927 0.32558,0.184311 0.65991,0.353957 0.97674,0.552934 0.73593,0.46219 1.49054,1.038514 2.17099,1.573943 1.18359,0.931338 2.32006,1.91263 3.44271,2.915713 1.01036,0.956599 1.98347,1.968979 2.70142,3.169473 0.31048,0.519166 0.37814,0.712984 0.61769,1.252122 0.37604,0.875499 0.54152,1.808816 0.58932,2.754562 -0.005,0.329332 0.0481,0.665755 -0.0232,0.991166 -0.0188,0.08566 -0.0919,0.300461 -0.11743,0.378253 -0.21064,0.505561 -0.34384,1.031836 -0.43217,1.570956 -0.0456,0.375433 -0.015,0.196178 -0.0881,0.53839 0,0 3.49734,-1.707089 3.49734,-1.707089 v 0 c 0.0461,-0.344437 0.0209,-0.168489 0.0759,-0.527778 0.10965,-0.53151 0.29277,-1.037468 0.47375,-1.548214 0.12467,-0.488358 0.0981,-0.98674 0.04,-1.485141 -0.14603,-0.960435 -0.37262,-1.910839 -0.78709,-2.794569 -0.28142,-0.557413 -0.35088,-0.73788 -0.71221,-1.267986 -0.81325,-1.193126 -1.88331,-2.170126 -2.96933,-3.108775 -2.1221,-1.780794 -4.13776,-3.705863 -6.44547,-5.251905 -0.52895,-0.293695 -0.91742,-0.618167 -1.55095,-0.601647 -0.23148,0.006 -0.45263,0.103587 -0.67015,0.183005 -0.24325,0.08881 -0.47012,0.217421 -0.70783,0.320114 -0.81779,0.353285 -0.67538,0.286604 -1.49631,0.557995 -0.30844,0.05328 -0.67197,0.163103 -0.99356,0.06878 -0.13287,-0.03897 -0.24606,-0.127619 -0.36384,-0.200424 -0.28102,-0.173715 -0.53094,-0.379204 -0.72451,-0.648698 -0.11125,-0.145669 -0.23136,-0.284424 -0.34252,-0.430149 -0.26033,-0.341254 -0.45099,-0.73225 -0.66078,-1.104453 -0.52216,-1.056309 -0.813003,-2.200928 -1.185933,-3.315046 -0.343887,-1.110443 -0.719347,-2.213123 -1.379808,-3.183414 -0.09663,-0.157435 -0.650055,-1.061088 -0.746524,-1.210363 -0.341271,-0.528082 -0.728261,-1.025803 -1.05129,-1.56574 0,0 -3.37533,1.988155 -3.37533,1.988155 z" />
          </g>
        </g>
      </g>
    </g>
  </g>
</svg>
