<?xml version="1.0" encoding="UTF-8" standalone="no"?>
<!-- Created with Inkscape (http://www.inkscape.org/) -->

<svg
   version="1.1"
   id="svg179"
   width="15.12"
   height="15.12"
   viewBox="0 0 15.12 15.12"
   sodipodi:docname="pico1.svg"
   inkscape:version="1.1.2 (b8e25be833, 2022-02-05)"
   xmlns:inkscape="http://www.inkscape.org/namespaces/inkscape"
   xmlns:sodipodi="http://sodipodi.sourceforge.net/DTD/sodipodi-0.dtd"
   xmlns="http://www.w3.org/2000/svg"
   xmlns:svg="http://www.w3.org/2000/svg">
  <defs
     id="defs183" />
  <sodipodi:namedview
     id="namedview181"
     pagecolor="#ffffff"
     bordercolor="#666666"
     borderopacity="1.0"
     inkscape:pageshadow="2"
     inkscape:pageopacity="0.0"
     inkscape:pagecheckerboard="0"
     showgrid="false"
     inkscape:zoom="12.022569"
     inkscape:cx="9.7732856"
     inkscape:cy="14.639134"
     inkscape:window-width="1920"
     inkscape:window-height="1017"
     inkscape:window-x="-8"
     inkscape:window-y="-8"
     inkscape:window-maximized="1"
     inkscape:current-layer="g185" />
  <g
     inkscape:groupmode="layer"
     inkscape:label="Image"
     id="g185">
    <path
       style="fill:#000000;stroke-width:0.104561"
       d="M 1.0535742,13.903694 0.37591717,13.22563 4.1496842,9.4820868 l 3.773768,-3.7435436 -0.25085,-0.264802 -0.250851,-0.264803 0.281462,-0.291345 c 0.154803,-0.16024 0.280644,-0.335639 0.279646,-0.389775 -0.0025,-0.13861 -1.985243,-1.593597 -2.990625,-2.194658 -0.461991,-0.276199 -1.217976,-0.692768 -1.679967,-0.925711 -1.074332,-0.54169399 -1.107304,-0.73540399 -0.119655,-0.70297599 1.47104,0.0483 4.243325,1.05952599 5.647617,2.06003999 0.587694,0.418714 0.588435,0.418884 0.840108,0.193012 0.177072,-0.158918 0.216147,-0.150313 0.5857558,0.128983 0.536915,0.405722 1.742022,1.64063 1.916442,1.963833 0.121871,0.225829 0.118138,0.287644 -0.02697,0.446655 -0.156362,0.171345 -0.134124,0.23662 0.310736,0.912122 0.682364,1.036141 1.343161,2.450542 1.653392,3.5389936 0.454487,1.5945842 0.528664,2.9302802 0.149837,2.6980942 -0.05292,-0.03244 -0.326095,-0.512206 -0.607053,-1.066154 -0.588008,-1.159343 -1.559821,-2.6628048 -2.400975,-3.7144768 -0.32064,-0.400888 -0.598978,-0.7489 -0.618528,-0.77336 -0.01955,-0.02446 -0.167572,0.08097 -0.328939,0.234285 -0.3443649,0.327185 -0.4102618,0.337186 -0.6722928,0.102018 -0.188869,-0.169506 -0.334819,-0.04059 -3.566164,3.1498358 -1.853079,1.829617 -3.509479,3.478863 -3.680889,3.66499 -0.171409,0.186126 -0.39081,0.338412 -0.487556,0.338412 -0.09675,0 -0.480849,-0.305128 -0.853561,-0.678062 z m 7.611663,-7.4426768 -0.420183,-0.416696 -3.618589,3.5897006 -3.618589,3.5896992 0.414617,0.421085 0.414618,0.421084 3.624154,-3.594089 3.624155,-3.5940868 z m 5.1434148,4.0337598 c -0.12754,-0.5945802 -0.487439,-1.5661998 -0.858178,-2.3168218 -0.404239,-0.81845 -1.202359,-2.1346 -1.294431,-2.1346 -0.03313,0 -0.211742,0.155008 -0.396905,0.344463 l -0.33666,0.344463 0.349885,0.410457 c 0.571099,0.669965 1.731723,2.3186966 2.132297,3.0290468 0.205134,0.363772 0.396285,0.661404 0.424777,0.661404 0.02849,0 0.01914,-0.152285 -0.02079,-0.338412 z M 10.925418,4.3260622 c -0.488757,-0.487233 -0.9379829,-0.885878 -0.9982829,-0.885878 -0.0603,0 -0.5091929,0.398314 -0.9975439,0.885142 l -0.88791,0.885143 0.941275,0.937812 0.9412769,0.937814 0.9449159,-0.937078 0.944918,-0.937077 z M 8.7401632,3.8892742 c 0.16197,-0.15389 0.29449,-0.318835 0.29449,-0.366545 0,-0.13529 -1.407239,-1.004715 -2.240644,-1.384322 -0.75849,-0.345483 -2.481687,-0.922149 -2.550791,-0.853618 -0.02053,0.02036 0.415722,0.314512 0.969453,0.653668 0.55373,0.339157 1.486643,0.977519 2.073139,1.418583 0.586497,0.441064 1.087396,0.804206 1.11311,0.806983 0.02572,0.0028 0.179275,-0.12086 0.341243,-0.274749 z"
       id="path207" />
    <path
       style="fill:#c87137;stroke-width:0.0831769"
       d="M 1.4639811,13.630796 1.1147195,13.234014 4.6730159,9.674996 8.2313123,6.1159777 8.6260862,6.5048155 c 0.2171256,0.2138607 0.3856595,0.3910944 0.3745197,0.3938524 -0.01114,0.00276 -1.6328536,1.6078912 -3.6038086,3.5669631 l -3.5835546,3.561947 z"
       id="path120" />
    <path
       style="fill:#999999;stroke-width:0.0831769"
       d="M 8.9898325,6.0927078 8.094392,5.2401446 8.9633691,4.3875814 C 9.4413065,3.9186716 9.8778328,3.5350182 9.9334276,3.5350182 c 0.055595,0 0.4821044,0.3725786 0.9477984,0.8279524 l 0.846717,0.8279524 -0.871872,0.877174 c -0.479529,0.4824457 -0.8941295,0.877174 -0.9213344,0.877174 -0.027205,0 -0.4524118,-0.3836534 -0.9449041,-0.8525632 z"
       id="path492" />
    <path
       style="fill:#999999;stroke-width:0.0831769"
       d="M 13.439459,10.128249 C 13.043713,9.4591833 12.181569,8.224951 11.550013,7.4233483 l -0.532335,-0.6756665 0.306267,-0.313645 c 0.168446,-0.1725047 0.333931,-0.2965467 0.367745,-0.2756489 0.114945,0.07104 0.998183,1.6071363 1.322774,2.3005235 0.35147,0.7508038 0.775854,1.9477556 0.734534,2.0717136 -0.01418,0.04254 -0.153474,-0.138525 -0.309539,-0.402376 z"
       id="path568" />
    <path
       style="fill:#999999;stroke-width:0.0831769"
       d="M 7.6510374,3.5554137 C 7.2399922,3.249303 6.3813108,2.6516167 5.7428566,2.2272222 5.1044023,1.8028276 4.6414247,1.4555957 4.7140174,1.4555957 c 0.2258861,0 1.7334851,0.5750667 2.435192,0.9288927 0.7778153,0.3922027 1.7923072,1.0332468 1.7923072,1.1325354 0,0.037696 -0.122203,0.186982 -0.2715622,0.3317465 L 8.3983923,4.1119788 Z"
       id="path646" />
  </g>
</svg>
