<?xml version="1.0" encoding="UTF-8" standalone="no"?>
<!-- Created with Inkscape (http://www.inkscape.org/) -->

<svg
   width="60mm"
   height="60mm"
   viewBox="0 0 60 60"
   version="1.1"
   id="svg5"
   inkscape:version="1.1.2 (b8e25be833, 2022-02-05)"
   sodipodi:docname="recargar.svg"
   xmlns:inkscape="http://www.inkscape.org/namespaces/inkscape"
   xmlns:sodipodi="http://sodipodi.sourceforge.net/DTD/sodipodi-0.dtd"
   xmlns="http://www.w3.org/2000/svg"
   xmlns:svg="http://www.w3.org/2000/svg">
  <sodipodi:namedview
     id="namedview7"
     pagecolor="#ffffff"
     bordercolor="#666666"
     borderopacity="1.0"
     inkscape:pageshadow="2"
     inkscape:pageopacity="0.0"
     inkscape:pagecheckerboard="false"
     inkscape:document-units="mm"
     showgrid="false"
     inkscape:zoom="0.7402988"
     inkscape:cx="212.75193"
     inkscape:cy="413.34661"
     inkscape:window-width="1920"
     inkscape:window-height="1017"
     inkscape:window-x="-8"
     inkscape:window-y="-8"
     inkscape:window-maximized="1"
     inkscape:current-layer="g3254"
     borderlayer="false" />
  <defs
     id="defs2" />
  <g
     inkscape:label="Capa 1"
     inkscape:groupmode="layer"
     id="layer1">
    <g
       id="g3254"
       transform="matrix(0.73601287,0,0,0.8126142,-78.439063,-6.1324164)">
      <rect
         style="fill:#999999;stroke-width:0.324664"
         id="rect1084"
         width="79.488815"
         height="74.639252"
         x="-69.009605"
         y="1.5979623" />
      <path
         style="fill:#020202;stroke:none;stroke-width:0.260163"
         d="m 119.49104,29.776169 c 1.15325,0.370698 3.2028,1.682426 4.39861,1.346427 1.28967,-0.362353 2.56245,-3.210869 3.48414,-4.188406 2.64783,-2.808289 5.58915,-5.277374 9.14575,-6.895828 12.05488,-5.485614 26.57547,-1.155446 33.83774,9.737807 1.87602,2.814127 3.7282,6.389285 3.88696,9.817744 -1.78669,0 -7.45876,-0.912274 -8.70865,0.414155 -1.01201,1.074009 0.68141,2.509983 1.37434,3.20291 2.23544,2.235862 5.3865,6.987392 8.38222,8.074836 1.38663,0.503289 2.47961,-0.476418 3.40569,-1.361307 2.08193,-1.989644 4.02999,-4.119578 6.08049,-6.14255 0.80217,-0.791621 2.57183,-2.060951 2.06281,-3.374721 -0.88548,-2.285209 -5.93379,0.387026 -7.39482,-1.412205 -1.41285,-1.740066 -1.68584,-5.537053 -2.58545,-7.668692 -1.76076,-4.172541 -4.74152,-7.799759 -8.11816,-10.807322 -14.33564,-12.768822 -41.23939,-9.080304 -49.25167,9.257152 m 55.27715,31.003405 c -1.0411,-0.546952 -2.95615,-1.700279 -4.16806,-1.516067 -1.3366,0.203073 -3.01247,2.914578 -3.95322,3.841321 -2.60406,2.565015 -5.52196,4.457519 -8.90723,5.868943 -14.01394,5.843114 -32.3812,-2.541243 -35.89085,-17.495219 1.70552,0 6.91899,0.854402 8.11867,-0.414154 1.11503,-1.179162 -0.26969,-2.53401 -1.10028,-3.351725 -2.23848,-2.203568 -5.57447,-7.150679 -8.59047,-8.099899 -1.42526,-0.448775 -2.47645,0.631953 -3.40549,1.532602 -2.10014,2.035632 -4.23224,4.066613 -6.24197,6.189313 -0.71208,0.752092 -2.45269,2.143369 -1.8569,3.33054 1.18318,2.357551 6.21219,-0.414928 7.90825,1.227478 1.35131,1.30886 1.78287,4.822062 2.64263,6.561611 1.89127,3.826854 4.75684,7.238262 8.02708,9.998596 13.35768,11.274907 39.28554,9.280358 47.41784,-7.67334 z"
         id="path2604" />
    </g>
  </g>
</svg>
