<?xml version="1.0" encoding="UTF-8" standalone="no"?>
<!-- Created with Inkscape (http://www.inkscape.org/) -->

<svg
   width="90mm"
   height="30mm"
   viewBox="0 0 90 30"
   version="1.1"
   id="svg5"
   inkscape:version="1.1.2 (b8e25be833, 2022-02-05)"
   sodipodi:docname="vidas0.svg"
   xmlns:inkscape="http://www.inkscape.org/namespaces/inkscape"
   xmlns:sodipodi="http://sodipodi.sourceforge.net/DTD/sodipodi-0.dtd"
   xmlns="http://www.w3.org/2000/svg"
   xmlns:svg="http://www.w3.org/2000/svg">
  <sodipodi:namedview
     id="namedview7"
     pagecolor="#ffffff"
     bordercolor="#666666"
     borderopacity="1.0"
     inkscape:pageshadow="2"
     inkscape:pageopacity="0.0"
     inkscape:pagecheckerboard="0"
     inkscape:document-units="mm"
     showgrid="false"
     inkscape:zoom="1.0469406"
     inkscape:cx="268.87867"
     inkscape:cy="339.56081"
     inkscape:window-width="1362"
     inkscape:window-height="1040"
     inkscape:window-x="542"
     inkscape:window-y="0"
     inkscape:window-maximized="0"
     inkscape:current-layer="layer1" />
  <defs
     id="defs2" />
  <g
     inkscape:label="Capa 1"
     inkscape:groupmode="layer"
     id="layer1">
    <path
       id="path1506"
       style="fill:#000000;stroke-width:0.264583"
       d="m 20.876785,2.7682594 c -1.208519,0.0091 -2.437826,0.287928 -3.608049,0.864032 l -1.702739,0.838189 -1.659329,-0.822171 c -1.380321,-0.68416 -1.983058,-0.825125 -3.586861,-0.839224 -1.662002,-0.0146 -2.169457,0.102131 -3.683498,0.847492 -3.2461704,1.59808 -4.8332974,4.3461223 -4.6286574,8.0155316 0.07763,1.392211 0.296002,2.372161 0.706932,3.175 0.363582,0.710343 2.8202944,3.395673 6.3272644,6.915863 5.27122,5.29105 5.807041,5.75468 6.651789,5.75468 0.84011,0 1.355659,-0.43606 6.021337,-5.09323 2.806401,-2.80127 5.463403,-5.59341 5.904034,-6.20479 1.877939,-2.605643 2.17822,-5.891639 0.795301,-8.7007573 C 26.919437,4.4823574 23.965216,2.7449234 20.876785,2.7682594 Z m 58.199032,0.278535 c -1.20852,0.0091 -2.43782,0.28793 -3.60805,0.864031 l -1.70274,0.838193 -1.65933,-0.822172 c -1.38032,-0.684162 -1.98305,-0.825127 -3.58686,-0.839227 -1.66199,-0.01461 -2.16997,0.102135 -3.68401,0.847495 -3.24617,1.598078 -4.83277,4.3461203 -4.62815,8.0155316 0.0777,1.392208 0.29602,2.372159 0.70694,3.175 0.36359,0.710346 2.82028,3.395676 6.32726,6.915856 5.27121,5.29106 5.80704,5.75469 6.65179,5.75469 0.84011,0 1.35565,-0.43606 6.02134,-5.09323 2.8064,-2.80127 5.4634,-5.59341 5.90403,-6.20479 1.87793,-2.605648 2.17822,-5.891641 0.7953,-8.7007623 -1.49488,-3.0365173 -4.44909,-4.7739483 -7.53752,-4.7506153 z m -29.48554,0.267684 c -1.20852,0.0091 -2.43782,0.287931 -3.60805,0.864032 l -1.702737,0.838708 -1.659332,-0.822688 c -1.380318,-0.684162 -1.983049,-0.825127 -3.586861,-0.839226 -1.661988,-0.01461 -2.169972,0.102139 -3.684013,0.847492 -3.246168,1.59808 -4.832771,4.3461223 -4.628139,8.0155336 0.07764,1.392209 0.296013,2.372159 0.706932,3.175 0.36359,0.710352 2.820284,3.395672 6.327262,6.915852 5.271211,5.29107 5.80704,5.75469 6.651791,5.75469 0.84011,0 1.355648,-0.43606 6.021337,-5.09323 2.8064,-2.80127 5.46341,-5.59341 5.90403,-6.20479 1.87793,-2.605644 2.17822,-5.891121 0.7953,-8.7002423 -1.49488,-3.0365173 -4.44909,-4.7744643 -7.53752,-4.7511313 z m -38.771794,1.616956 c 0.168788,0.0011 0.33728,0.0084 0.504878,0.0217 1.08014,0.164471 3.662061,1.594522 3.462321,1.9177143 0.26306,0.111 1.142439,0.433514 1.598869,-0.133327 1.643902,-1.6438983 5.472719,-2.3455073 7.434689,-1.1740883 2.89094,1.7260813 4.045908,4.7162006 3.009119,7.7907416 -1.721421,3.713617 -1.087686,2.486717 -9.356537,10.149247 l -1.912027,1.89911 -4.953701,-4.97541 C 7.133443,16.940022 2.8250416,14.252239 4.609043,8.4821187 5.675308,6.2434524 8.286677,4.9140584 10.818483,4.9314314 Z m 58.199034,0.278019 c 0.16878,0.0011 0.33728,0.0084 0.50488,0.0217 1.08014,0.16447 3.66207,1.5945253 3.46232,1.9177133 0.26306,0.111001 1.14244,0.433515 1.59886,-0.133326 1.64391,-1.6438983 5.47273,-2.3455073 7.43469,-1.1740883 2.89095,1.7260803 4.0459,4.7162006 3.00912,7.7907406 -1.72143,3.713629 -1.0882,2.486719 -9.35705,10.149249 l -1.91151,1.89911 -4.9537,-4.97541 c -3.47266,-3.4871 -7.78104,-6.174365 -5.99705,-11.9444863 1.06626,-2.2386663 3.67763,-3.5685783 6.20944,-3.5512063 z m -29.485541,0.268201 c 0.168786,0.0011 0.33728,0.0084 0.504878,0.02169 1.08014,0.164468 3.662071,1.5945223 3.462321,1.9177113 0.26307,0.111001 1.14245,0.433514 1.59887,-0.133324 1.643902,-1.6439013 5.472722,-2.3455103 7.434692,-1.1740883 2.89094,1.7260783 4.04589,4.7161986 3.00911,7.7907386 -1.72143,3.71363 -1.0882,2.48673 -9.35705,10.14925 l -1.911509,1.89912 -4.953704,-4.97541 c -3.472659,-3.4871 -7.781038,-6.174895 -5.997048,-11.9450133 1.066273,-2.238666 3.677634,-3.5680603 6.20944,-3.5506903 z" />
  </g>
</svg>
