<?xml version="1.0" encoding="UTF-8" standalone="no"?>
<!-- Created with Inkscape (http://www.inkscape.org/) -->

<svg
   width="90mm"
   height="30mm"
   viewBox="0 0 90 30"
   version="1.1"
   id="svg5"
   inkscape:version="1.1.2 (b8e25be833, 2022-02-05)"
   sodipodi:docname="vidas2.svg"
   xmlns:inkscape="http://www.inkscape.org/namespaces/inkscape"
   xmlns:sodipodi="http://sodipodi.sourceforge.net/DTD/sodipodi-0.dtd"
   xmlns="http://www.w3.org/2000/svg"
   xmlns:svg="http://www.w3.org/2000/svg">
  <sodipodi:namedview
     id="namedview7"
     pagecolor="#ffffff"
     bordercolor="#666666"
     borderopacity="1.0"
     inkscape:pageshadow="2"
     inkscape:pageopacity="0.0"
     inkscape:pagecheckerboard="0"
     inkscape:document-units="mm"
     showgrid="false"
     inkscape:zoom="1.0469406"
     inkscape:cx="268.87867"
     inkscape:cy="339.56081"
     inkscape:window-width="1362"
     inkscape:window-height="1040"
     inkscape:window-x="542"
     inkscape:window-y="0"
     inkscape:window-maximized="0"
     inkscape:current-layer="layer1" />
  <defs
     id="defs2" />
  <g
     inkscape:label="Capa 1"
     inkscape:groupmode="layer"
     id="layer1">
    <g
       inkscape:label="Capa 1"
       id="layer1-6"
       transform="translate(-5.9585934,-9.6557987)">
      <path
         id="path1506"
         style="fill:#000000;stroke-width:0.999999"
         transform="matrix(0.26458333,0,0,0.26458333,-55.208967,-80.676765)"
         d="m 310.08984,349.9668 c -4.56762,0.0345 -9.21381,1.08628 -13.63672,3.26367 l -6.43554,3.16992 -6.27149,-3.10742 c -5.21696,-2.5858 -7.495,-3.12054 -13.55664,-3.17383 -6.28156,-0.0552 -8.20147,0.38797 -13.92383,3.20508 -12.26899,6.03999 -18.26559,16.42433 -17.49218,30.29297 0.29343,5.26189 1.1168,8.96564 2.66992,12 1.37419,2.68478 10.66131,12.83601 23.91602,26.14062 19.9227,19.99771 21.94785,21.75 25.14062,21.75 3.17522,0 5.12372,-1.6481 22.75781,-19.25 10.60687,-10.58747 20.64712,-21.14044 22.3125,-23.45117 7.0977,-9.84813 8.23462,-22.26762 3.00781,-32.88476 -5.64991,-11.47661 -16.81546,-18.04328 -28.48828,-17.95508 z m 219.96289,1.05078 c -4.56762,0.0345 -9.21185,1.08823 -13.63476,3.26562 l -6.4375,3.16797 -6.26953,-3.10742 c -5.21696,-2.5858 -7.495,-3.11858 -13.55664,-3.17187 -6.28154,-0.0552 -8.20148,0.38601 -13.92383,3.20312 -12.26899,6.03999 -18.26559,16.42629 -17.49219,30.29492 0.29344,5.2619 1.11684,8.96565 2.66992,12 1.3742,2.68479 10.66129,12.83406 23.91602,26.13867 19.92268,19.99771 21.94787,21.75 25.14062,21.75 3.17522,0 5.12371,-1.64809 22.75782,-19.25 10.60686,-10.58747 20.64712,-21.14044 22.3125,-23.45117 7.09768,-9.84812 8.23264,-22.26566 3.00586,-32.88281 -5.64994,-11.4766 -16.81547,-18.04523 -28.48829,-17.95703 z m -111.4414,1.01367 c -4.56763,0.0345 -9.21186,1.08823 -13.63477,3.26563 l -6.4375,3.16796 -6.26953,-3.10742 c -5.21696,-2.5858 -7.495,-3.11858 -13.55664,-3.17187 -6.28156,-0.0552 -8.20147,0.38601 -13.92383,3.20312 -12.269,6.03999 -18.26559,16.42629 -17.49218,30.29492 0.29344,5.2619 1.11681,8.96565 2.66992,12 1.37419,2.68479 10.66131,12.83406 23.91601,26.13868 19.92271,19.9977 21.94786,21.75 25.14063,21.75 3.17522,0 5.12372,-1.6481 22.75781,-19.25 10.60687,-10.58748 20.64713,-21.14045 22.3125,-23.45118 7.09769,-9.84812 8.23264,-22.26762 3.00586,-32.88476 -5.64993,-11.4766 -16.81547,-18.04328 -28.48828,-17.95508 z m -146.53711,6.10937 c 0.63793,0.004 1.27476,0.0319 1.9082,0.082 4.08242,0.62162 13.83892,6.02654 13.08399,7.24804 0.99425,0.41953 4.31983,1.63848 6.04492,-0.5039 6.21316,-6.21317 20.6843,-8.86492 28.09961,-4.4375 10.9264,6.52376 15.29159,17.825 11.37304,29.44531 -6.50617,14.03577 -4.11288,9.39863 -35.36523,38.35937 l -7.22656,7.17774 -18.72071,-18.80469 c -13.12499,-13.17959 -29.40865,-23.3362 -22.66601,-45.14453 4.02999,-8.4611 13.89972,-13.48753 23.46875,-13.42188 z m 219.96484,1.05274 c 0.63794,0.004 1.27476,0.0319 1.90821,0.082 4.08241,0.62162 13.83894,6.02654 13.08398,7.24805 0.99424,0.41953 4.31792,1.63848 6.04297,-0.50391 6.21316,-6.21316 20.68628,-8.86491 28.10156,-4.4375 10.92643,6.52377 15.29159,17.82501 11.37305,29.44531 -6.50619,14.03577 -4.11289,9.39864 -35.36524,38.35938 l -7.22656,7.17773 -18.72265,-18.80468 c -13.12502,-13.17959 -29.40671,-23.33816 -22.66407,-45.14649 4.02998,-8.4611 13.89972,-13.48558 23.46875,-13.41992 z m -111.4414,1.01367 c 0.63793,0.004 1.27476,0.03 1.9082,0.0801 4.08242,0.62162 13.83893,6.02654 13.08398,7.24805 0.99425,0.41952 4.31789,1.63848 6.04297,-0.50391 6.21315,-6.21317 20.68628,-8.86491 28.10157,-4.4375 10.92642,6.52377 15.29158,17.825 11.37304,29.44531 -6.50619,14.03577 -4.11289,9.39863 -35.36523,38.35938 l -7.22657,7.17773 -18.72265,-18.80273 c -13.12499,-13.17959 -29.4067,-23.33816 -22.66406,-45.14649 4.02999,-8.4611 13.89972,-13.48558 23.46875,-13.41992 z" />
      <path
         style="fill:#ff0000"
         d="M 62.591483,110.42838 C 52.460112,100.21291 43.084032,89.72728 41.75575,87.126979 38.312686,80.38669 38.651022,69.63943 42.475355,64.268649 45.76199,59.652996 52.835173,55.583973 59.924138,54.230803 c 4.658188,-0.889173 15.05595,2.618349 16.977196,5.726992 1.473583,2.384306 5.527998,1.770935 12.381565,-1.873142 13.315651,-7.08 26.844171,-3.188364 32.980291,9.487158 3.58573,7.407139 2.96726,14.526924 -1.99206,22.932183 -2.54158,4.307578 -36.994653,38.497966 -38.793745,38.497966 -0.255874,0 -8.75453,-8.35811 -18.885902,-18.57358 z"
         id="path6287"
         transform="scale(0.26458333)" />
      <path
         style="fill:#ff0000"
         d="m 90.02676,121.75176 c 14.2131,-13.7055 25.83484,-25.567009 29.38948,-29.995804 0.81964,-1.021201 1.22138,-1.684279 2.17056,-3.582574 2.23968,-4.47919 3.1255,-8.060279 2.9681,-11.999053 -0.22549,-5.642807 -2.96152,-11.492083 -7.35831,-15.731112 -5.48901,-5.292064 -13.06131,-7.130819 -21.023515,-5.105067 -2.519324,0.64097 -4.034396,1.240761 -7.432587,2.942437 -2.309388,1.156448 -4.155229,1.987789 -4.235437,1.907581 -0.0967,-0.0967 1.534057,-1.458064 2.593966,-2.165446 1.371894,-0.915601 3.904972,-2.154083 5.611589,-2.74364 6.049608,-2.089861 12.503204,-2.371835 17.252654,-0.753814 1.34876,0.459492 2.09081,0.833411 3.52216,1.774829 1.98484,1.305448 3.0006,2.139995 4.77749,3.925179 2.39995,2.411153 3.96518,4.685294 5.14255,7.471667 2.13861,5.061228 2.42691,10.335792 0.87123,15.939605 -0.34282,1.234892 -2.31348,5.597059 -3.5869,7.9398 -2.49357,4.587506 -3.88115,6.050139 -16.9351,17.851122 -6.077511,5.49416 -8.505921,7.71011 -12.198343,11.13111 -1.258684,1.16616 -2.333243,2.11949 -2.38791,2.11849 -0.05467,-9.5e-4 0.331579,-0.41738 0.858323,-0.92531 z"
         id="path6326"
         transform="scale(0.26458333)" />
      <path
         style="fill:#ff0000;stroke-width:0.119396"
         d="M 78.718742,126.33411 C 74.638601,122.42318 58.015304,105.68999 54.804965,102.26225 47.083219,94.017579 42.73597,88.872111 41.633232,86.671988 39.571769,82.55907 38.889348,76.120462 39.95114,70.801531 c 0.50313,-2.520369 1.547848,-5.075735 2.738993,-6.699536 3.020834,-4.118079 9.374042,-7.902216 16.052453,-9.561261 2.775976,-0.689605 6.079625,-0.358948 10.374692,1.038388 3.563755,1.159415 6.618783,2.856754 7.543459,4.191062 0.902499,1.302307 1.900401,1.73987 3.689341,1.617715 2.132187,-0.145594 4.067356,-0.829613 8.480174,-2.997465 4.003475,-1.966757 5.802704,-2.634355 8.715871,-3.233994 7.006637,-1.44223 13.674327,0.226828 18.857297,4.720361 3.72992,3.233765 6.62103,8.240403 7.72194,13.372338 0.22453,1.046682 0.27024,1.638028 0.27684,3.581865 0.013,3.815645 -0.69402,6.696313 -2.62256,10.685897 -1.44623,2.991824 -2.01923,3.790424 -5.23385,7.294546 -2.36807,2.581325 -3.06037,3.377607 -3.06037,3.520022 0,0.06056 0.44124,0.110121 0.98053,0.110121 h 0.98052 l -0.59249,0.609403 c -1.06784,1.098327 -5.50852,5.207727 -11.39974,10.549327 -3.1838,2.88675 -6.76582,6.15073 -7.960054,7.25327 -1.194232,1.10255 -2.197992,2.00463 -2.230579,2.00463 -0.03258,0 4.181625,-4.23392 9.364913,-9.40871 5.18329,-5.17478 9.42416,-9.493095 9.42416,-9.596243 0,-0.103148 -0.86993,0.705613 -1.93318,1.797243 -3.63865,3.73579 -14.242372,14.28542 -17.408894,17.32009 -6.396361,6.13 -10.663021,9.91684 -11.173389,9.91684 -0.08507,0 -1.353379,-1.149 -2.818475,-2.55333 z M 113.32799,98.483149 c -0.11611,-0.116109 -1.15592,0.914764 -1.15592,1.145984 0,0.107763 0.2547,-0.07203 0.62114,-0.438479 0.34163,-0.341627 0.58228,-0.660005 0.53478,-0.707505 z"
         id="path6365"
         transform="scale(0.26458333)" />
      <path
         style="fill:#ff0000;stroke-width:0.119396"
         d="M 78.718742,126.3338 C 74.811071,122.58774 58.212782,105.89044 55.086646,102.56073 47.040903,93.991066 42.778648,88.95726 41.633232,86.671988 c -0.988663,-1.972526 -1.766327,-4.909726 -2.064739,-7.798424 -0.176228,-1.705925 -0.07661,-5.508917 0.184862,-7.057171 0.390231,-2.310676 1.023881,-4.32105 1.900433,-6.029473 2.451279,-4.777608 9.325014,-9.302312 17.088798,-11.24887 2.71659,-0.681111 6.035102,-0.360283 10.217614,0.987822 3.826094,1.233225 6.403616,2.667811 7.758717,4.318314 0.36519,0.444801 0.838624,0.926495 1.052075,1.070432 1.239886,0.836099 3.875584,0.581764 7.079662,-0.68316 0.678426,-0.267833 2.522973,-1.122551 4.098993,-1.899373 3.846034,-1.895715 5.692963,-2.577993 8.596476,-3.175645 7.073117,-1.455914 13.848357,0.274117 19.028477,4.858848 3.30741,2.927257 6.09473,7.541073 7.23755,11.980198 0.90344,3.50929 0.86894,6.831276 -0.10912,10.505981 -0.83909,3.152549 -2.7791,7.175291 -4.47323,9.275523 -0.61122,0.75774 -1.50462,1.755796 -5.07274,5.666977 -0.38578,0.422869 -0.67444,0.795826 -0.64147,0.828795 0.13511,0.135113 4.97599,-5.188198 6.25241,-6.875507 0.83456,-1.103212 2.44486,-4.213788 3.27591,-6.327961 0.61091,-1.554166 1.23789,-3.978866 1.43186,-5.537431 0.2214,-1.778951 0.082,-5.034001 -0.28723,-6.70884 -1.51548,-6.87355 -5.94131,-12.846164 -11.80657,-15.93288 -4.80201,-2.527153 -10.44719,-3.061833 -16.387988,-1.552178 -2.292123,0.582466 -3.373428,1.009835 -7.104032,2.807757 -3.286484,1.583884 -3.949478,1.880889 -4.026567,1.8038 -0.02742,-0.02742 0.289768,-0.333083 0.704856,-0.679256 3.135455,-2.614883 8.115717,-4.633321 13.43389,-5.444585 1.638871,-0.250002 6.110361,-0.285454 7.498661,-0.05945 1.35031,0.219819 3.06233,0.676687 4.17884,1.115161 3.28702,1.290874 7.70144,5.014916 10.40157,8.774853 1.52575,2.124611 3.05949,5.688992 3.62146,8.41619 0.71998,3.494025 0.61731,7.122306 -0.30522,10.786379 -0.64191,2.549517 -3.79161,9.157383 -5.52116,11.583028 -2.08768,2.927903 -3.96273,4.756574 -17.34753,16.918398 -4.310643,3.91678 -7.873293,7.17928 -7.917,7.25 -0.04371,0.0707 -0.124973,0.12858 -0.180589,0.12858 -0.05562,0 4.111472,-4.20956 9.260199,-9.35459 5.14872,-5.14502 9.36132,-9.417935 9.36132,-9.49536 0,-0.07742 -3.82812,3.6926 -8.50693,8.37783 -12.548286,12.56551 -21.14251,20.62074 -22.000509,20.62074 -0.08948,0 -1.361403,-1.14914 -2.826499,-2.55364 z m 33.809138,-26.874813 0.27803,-0.295952 -0.31599,0.146708 c -0.17379,0.08069 -0.3164,0.213868 -0.31692,0.295953 -0.001,0.207109 0.0376,0.191042 0.35488,-0.146709 z m 0.67895,-0.833052 c 0,-0.09561 -0.0456,-0.145628 -0.10144,-0.111145 -0.0558,0.03448 -0.0705,0.11271 -0.0327,0.173841 0.0965,0.156215 0.13419,0.138625 0.13419,-0.0627 z"
         id="path6404"
         transform="scale(0.26458333)" />
      <path
         style="fill:#ff0000"
         d="M 70.980366,120.10218 C 65.300267,114.4166 59.363443,108.55009 57.787422,107.06548 49.517163,99.274897 47.174724,96.836082 44.487856,93.218717 39.312694,86.251333 37.510916,79.232162 38.875964,71.356528 c 0.345669,-1.994333 1.001723,-4.442787 1.402502,-5.234266 0.545705,-1.077685 1.675393,-2.735864 2.677667,-3.930331 3.005272,-3.581554 7.687307,-6.463562 12.757196,-7.85264 2.504177,-0.686109 4.165532,-0.925683 6.911078,-0.996607 2.743216,-0.07086 3.259471,0.01053 5.604314,0.883563 4.251986,1.583104 10.154425,5.175924 10.154425,6.181007 0,0.234909 0.308865,0.389234 1.347438,0.673253 l 0.861378,0.235561 -0.985484,-0.05168 C 78.361284,61.199088 77.677559,60.839515 76.860063,59.820037 76.14075,58.923 75.188847,58.152477 73.99768,57.503064 69.479801,55.039961 63.16961,53.569453 59.817145,54.198474 c -5.776624,1.083865 -11.785854,4.146713 -15.585178,7.943618 -1.894637,1.89343 -2.904232,3.540847 -3.747432,6.11491 -1.844348,5.630296 -1.433924,13.271261 0.988997,18.41241 0.70606,1.498175 2.634466,3.970103 6.529158,8.369405 4.815414,5.439313 9.231294,10.070243 18.259551,19.148763 9.42622,9.47869 14.926018,14.81926 15.261114,14.81926 0.446926,0 2.53503,-1.71785 5.832017,-4.79791 0.830504,-0.77586 1.555517,-1.41066 1.61114,-1.41066 0.05562,0 -1.617534,1.7193 -3.718125,3.82066 -2.100591,2.10136 -3.846552,3.82065 -3.879913,3.82065 -0.03336,0 -4.70801,-4.65183 -10.388108,-10.3374 z"
         id="path6443"
         transform="scale(0.26458333)" />
      <path
         style="fill:#ff0000;stroke-width:0.119396"
         d="M 70.561926,119.60081 C 64.651401,113.70915 58.284636,107.43867 56.413559,105.66641 48.542974,98.211512 45.861803,95.272481 43.152229,91.129684 40.887503,87.667036 39.505894,84.214472 38.792026,80.233776 c -0.304658,-1.698848 -0.309451,-6.024014 -0.0088,-7.939801 0.278024,-1.771594 0.927963,-4.486331 1.329186,-5.551891 0.394092,-1.046622 2.012125,-3.477961 3.265305,-4.906614 3.034341,-3.459217 7.838019,-6.265131 12.954597,-7.567012 2.709611,-0.689443 3.482939,-0.779274 6.708508,-0.779274 h 2.865492 l 1.193955,0.401797 c 2.601815,0.875579 6.047887,2.580491 8.634077,4.271626 1.351152,0.883533 2.527788,1.868362 2.53123,2.11861 0.0039,0.281837 0.231363,0.466738 0.849293,0.690305 l 0.641323,0.232032 -0.567511,-0.06415 c -0.836944,-0.0946 -1.404336,-0.438819 -2.254178,-1.367536 -1.330085,-1.453531 -2.696253,-2.356868 -5.127875,-3.390651 -4.647584,-1.97588 -9.39311,-2.771625 -12.603168,-2.113339 -2.530026,0.518831 -5.429082,1.557805 -7.99648,2.865808 -4.801756,2.446331 -8.575251,5.907032 -10.067506,9.232987 -0.471117,1.05003 -1.005943,2.751408 -1.300262,4.136366 -0.733725,3.452635 -0.692321,8.098647 0.104806,11.760456 0.950738,4.367466 2.152465,6.243812 8.718182,13.612348 4.994106,5.604767 9.26012,10.036697 20.169304,20.953767 9.128166,9.13477 12.303794,12.17723 12.710231,12.17723 0.422267,0 2.105225,-1.28123 3.951124,-3.00798 0.407615,-0.38131 0.787521,-0.69328 0.844234,-0.69328 0.05671,0 -1.024213,1.12828 -2.402059,2.5073 -1.377845,1.37902 -2.532517,2.50567 -2.565937,2.50367 -0.03342,-0.002 -4.896648,-4.82408 -10.807173,-10.71574 z"
         id="path6482"
         transform="scale(0.26458333)" />
      <path
         style="fill:#ff0000;stroke-width:0.119396"
         d="m 70.737459,119.77904 c -5.813982,-5.79269 -12.180747,-12.0628 -14.148367,-13.93359 -6.963848,-6.621148 -9.485964,-9.271773 -11.873186,-12.478169 -3.30729,-4.442183 -5.16924,-8.5709 -5.929477,-13.148116 -0.302348,-1.820373 -0.305064,-6.004226 -0.0051,-7.92519 0.273087,-1.749101 0.92603,-4.476052 1.326209,-5.538774 0.374994,-0.995842 1.730394,-3.085391 2.955358,-4.55612 2.826014,-3.392997 7.451342,-6.283288 12.283008,-7.675447 3.048809,-0.87846 5.113973,-1.140344 8.415099,-1.067123 l 2.264752,0.05023 1.378321,0.490618 c 2.752464,0.979747 6.194598,2.715872 8.626036,4.350754 1.181052,0.79413 2.233682,1.710456 2.233682,1.944444 0,0.232165 0.418566,0.54575 0.975323,0.7307 l 0.517121,0.171783 -0.567511,-0.05989 c -0.84244,-0.08891 -1.352931,-0.411012 -2.470854,-1.559046 -1.241625,-1.275067 -1.988845,-1.789669 -3.994214,-2.750766 -1.834126,-0.879028 -3.472875,-1.468283 -5.629313,-2.024168 -3.472873,-0.895235 -6.153377,-0.991016 -8.829298,-0.315492 -6.86741,1.733646 -13.251524,5.753753 -16.168345,10.181283 -1.258669,1.910571 -2.180509,4.717067 -2.579731,7.853859 -0.280149,2.201204 -0.198325,6.377084 0.164546,8.397569 0.367329,2.045308 0.940738,3.99809 1.604507,5.464252 0.890052,1.965984 3.453165,5.176681 9.102485,11.40227 4.929833,5.432719 15.904005,16.665759 24.34765,24.921999 5.374833,5.25555 6.512169,6.29993 6.86064,6.29993 0.368761,0 3.271843,-2.28979 4.299269,-3.39102 0.1592,-0.17063 0.346768,-0.31024 0.416818,-0.31024 0.07005,0 -0.999961,1.12828 -2.377807,2.5073 -1.377845,1.37902 -2.532517,2.50528 -2.565937,2.50281 -0.03342,-0.002 -4.817658,-4.74397 -10.63164,-10.53665 z"
         id="path6521"
         transform="scale(0.26458333)" />
      <path
         style="fill:#ff0000;stroke-width:0.119396"
         d="M 71.041884,120.08681 C 65.395337,114.46427 58.356972,107.54438 55.401074,104.70929 48.977586,98.548312 46.92058,96.358999 44.576237,93.188188 41.393621,88.88358 39.533459,84.716866 38.786429,80.219165 c -0.302348,-1.820373 -0.305064,-6.004226 -0.0051,-7.92519 0.243061,-1.556786 0.900828,-4.366985 1.269535,-5.423874 0.747081,-2.141489 3.810604,-5.935619 6.336988,-7.848271 2.886874,-2.185567 6.396651,-3.865211 10.026566,-4.798325 2.407276,-0.61882 3.329278,-0.722024 6.507054,-0.728365 l 2.984888,-0.006 1.193955,0.403742 c 2.699948,0.913 6.118148,2.605782 8.706369,4.311619 1.423046,0.937898 2.137028,1.548269 2.519137,2.153569 0.192399,0.30478 0.429452,0.479771 0.848692,0.626498 l 0.581725,0.203594 -0.569186,-0.0567 c -0.836258,-0.08331 -1.212585,-0.321775 -2.535097,-1.606418 -1.466222,-1.424239 -1.930081,-1.742847 -3.921302,-2.693406 -1.880755,-0.897824 -3.816274,-1.586186 -5.822866,-2.070884 -2.396427,-0.578865 -3.139711,-0.673249 -5.239967,-0.665382 -1.871262,0.007 -2.050833,0.02891 -3.581865,0.436849 -6.650362,1.77197 -12.72102,5.520904 -15.699953,9.695504 -1.21705,1.705543 -2.289276,4.579057 -2.764799,7.409533 -0.312087,1.857649 -0.316187,7.069686 -0.007,8.905474 0.460691,2.735384 1.3123,5.331977 2.280055,6.951989 1.175211,1.967292 3.964441,5.317287 9.259513,11.121109 2.767542,3.03345 3.827713,4.13854 10.97999,11.44519 9.636797,9.84479 18.7392,18.75338 19.310894,18.89971 0.416993,0.10673 1.515352,-0.68732 3.762764,-2.72027 0.568449,-0.51421 1.078385,-0.93492 1.133191,-0.93492 0.05481,0 -1.027679,1.12828 -2.405525,2.5073 -1.377845,1.37902 -2.532517,2.50493 -2.565937,2.50202 -0.03342,-0.003 -4.680666,-4.60555 -10.327215,-10.22809 z"
         id="path6560"
         transform="scale(0.26458333)" />
      <path
         style="fill:#ff0000;stroke-width:0.119396"
         d="M 71.279113,120.32752 C 65.763041,114.83826 58.724677,107.91861 55.638303,104.95051 48.952005,98.520452 46.925534,96.365699 44.576237,93.188188 41.395806,88.886536 39.545324,84.74364 38.783443,80.219165 c -0.330042,-1.95997 -0.299707,-6.234887 0.0591,-8.328144 0.286875,-1.673623 0.824299,-3.902397 1.210693,-5.02092 0.427276,-1.236864 2.141688,-3.770327 3.700376,-5.468209 2.891167,-3.149356 7.690847,-5.887708 12.515377,-7.140376 2.274889,-0.590664 3.358399,-0.730139 6.20534,-0.798782 3.086841,-0.07443 3.505549,-0.01672 5.571883,0.767936 4.334404,1.645916 9.580966,4.777313 10.284859,6.13849 0.110892,0.214442 0.382913,0.411698 0.796752,0.577765 l 0.628374,0.252156 -0.569186,-0.06214 c -0.843006,-0.09203 -1.207881,-0.328674 -2.658387,-1.724104 -1.427073,-1.372887 -2.23735,-1.898078 -4.442351,-2.879362 -1.641005,-0.730291 -3.062181,-1.228721 -4.761552,-1.669955 -2.414641,-0.62695 -3.405247,-0.761537 -5.597245,-0.760456 -1.947778,9.61e-4 -2.094876,0.01829 -3.64352,0.429174 -6.453406,1.71222 -12.587784,5.47329 -15.600171,9.564677 -0.687188,0.93333 -1.588119,2.79622 -2.058773,4.257008 -1.794443,5.569477 -1.365009,13.371329 1.002206,18.207813 1.913429,3.909351 9.979525,12.806136 27.657256,30.505554 6.462267,6.47019 11.094161,10.96962 12.017815,11.67413 l 0.409072,0.31201 0.516582,-0.27405 c 0.593987,-0.3151 1.69734,-1.19583 3.17943,-2.5379 0.568449,-0.51475 1.078385,-0.9359 1.133191,-0.9359 0.05481,0 -1.027679,1.12828 -2.405525,2.5073 -1.377845,1.37902 -2.532517,2.50456 -2.565937,2.50121 -0.03342,-0.003 -4.573914,-4.49731 -10.089986,-9.98657 z"
         id="path6599"
         transform="scale(0.26458333)" />
      <path
         style="fill:#ff0000;stroke-width:0.119396"
         d=""
         id="path6638"
         transform="scale(0.26458333)" />
      <path
         style="fill:#ff0000;stroke-width:0.119396"
         d=""
         id="path6677"
         transform="scale(0.26458333)" />
      <path
         style="fill:#ff0000;stroke-width:0.119396"
         d="M 71.6373,120.68857 C 66.31823,115.39825 59.253002,108.45098 55.936792,105.2502 48.537009,98.107988 46.513269,95.938332 44.129154,92.59121 c -2.345905,-3.293477 -4.015798,-6.746069 -4.84502,-10.01733 -0.60069,-2.369708 -0.710275,-3.3504 -0.708429,-6.339853 0.0014,-2.347982 0.04486,-3.056616 0.26603,-4.343006 0.287039,-1.669481 0.825725,-3.904225 1.207479,-5.009238 0.441523,-1.27802 2.109065,-3.741312 3.726191,-5.504327 3.329171,-3.629511 9.074119,-6.609685 14.668692,-7.609339 1.742229,-0.311307 6.285263,-0.448049 7.433,-0.223728 1.763416,0.344653 5.851291,2.16171 8.625695,3.834115 2.257805,1.361 3.466951,2.307377 3.828949,2.996849 0.108369,0.206403 0.390032,0.408632 0.796079,0.571572 l 0.628374,0.252156 -0.569186,-0.06214 c -0.834625,-0.09112 -1.211085,-0.329658 -2.535097,-1.606335 -0.656675,-0.633199 -1.507471,-1.357523 -1.890657,-1.609609 -0.869875,-0.572266 -2.991788,-1.57838 -4.537674,-2.151557 -2.166371,-0.803239 -5.805976,-1.646571 -6.929756,-1.605693 -0.382871,0.01393 -0.412462,0.02764 -0.133605,0.06189 3.320741,0.407939 6.859057,1.458763 9.790431,2.907604 2.00981,0.993355 2.868238,1.613276 3.828009,2.764425 0.865596,1.038195 1.469586,1.38601 2.588253,1.490473 2.068355,0.193146 4.5605,-0.600137 9.472247,-3.015141 4.187706,-2.059008 6.39578,-2.835807 9.623984,-3.385709 9.808707,-1.670846 18.768957,2.923513 23.409247,12.003064 1.18298,2.314703 1.8504,4.203689 2.31681,6.557273 0.26639,1.344209 0.30289,5.148288 0.0624,6.507055 -0.46414,2.622884 -1.25023,4.96172 -2.58835,7.701009 -1.01313,2.073987 -1.72371,3.201701 -2.85882,4.537029 -0.70622,0.830785 -1.48189,1.690786 -4.70694,5.218674 -0.35285,0.385978 -0.61493,0.728395 -0.58239,0.760925 0.10986,0.109864 4.16416,-4.299788 5.86753,-6.38181 1.86313,-2.277303 4.08303,-7.239985 4.86713,-10.880663 0.23299,-1.081835 0.27066,-1.613653 0.27485,-3.880354 0.004,-2.283747 -0.0311,-2.804413 -0.27082,-3.987804 -1.56713,-7.737563 -7.08953,-14.551638 -13.94176,-17.202712 -2.32756,-0.900514 -4.4336,-1.312534 -7.15852,-1.400473 -4.734763,-0.1528 -8.733219,0.841654 -14.024819,3.488107 -2.05322,1.026863 -4.192717,1.995552 -4.259649,1.92862 -0.03056,-0.03056 0.284059,-0.338792 0.699147,-0.684965 3.135455,-2.614883 8.115717,-4.633321 13.43389,-5.444585 1.647411,-0.251305 6.114361,-0.285628 7.498661,-0.05762 1.4617,0.240761 3.24601,0.714462 4.23854,1.125254 3.38058,1.399175 7.6341,5.001267 10.33952,8.756023 1.01253,1.40525 2.26828,3.924647 2.89255,5.803274 0.94195,2.83461 1.28708,5.207732 1.17725,8.094762 -0.16207,4.260363 -0.90219,6.734791 -3.67832,12.297737 -2.16068,4.329684 -3.08424,5.603841 -6.67069,9.202988 -2.51005,2.518943 -3.90681,3.814593 -14.02984,13.014283 -3.217707,2.92421 -6.179927,5.62268 -6.582709,5.9966 -0.402782,0.37391 -0.769822,0.67984 -0.815643,0.67984 -0.04582,0 2.970125,-3.02846 6.702102,-6.72991 5.82249,-5.77486 12.76216,-12.834973 11.69287,-11.89578 -0.18691,0.16417 -4.02709,3.98183 -8.53372,8.4837 -11.605705,11.59342 -19.486279,19.02529 -21.321317,20.10731 l -0.397855,0.2346 -0.699574,-0.5858 c -1.147743,-0.9611 -23.067158,-22.9345 -25.907454,-25.9713 -6.297166,-6.73282 -9.986311,-10.948727 -12.154296,-13.889773 -1.602478,-2.17389 -2.735608,-5.569185 -3.214252,-9.631139 -0.02708,-0.229837 -0.03066,-0.0041 -0.008,0.501599 0.08472,1.886672 0.88793,5.052553 1.76167,6.943648 0.799191,1.729745 2.474939,3.964342 5.952195,7.93721 4.84079,5.530746 8.749922,9.623845 19.674128,20.600015 8.190359,8.22932 13.237751,13.17621 14.167313,13.88523 0.39799,0.30356 0.430796,0.30899 0.800829,0.13253 0.474725,-0.22638 1.927207,-1.37349 3.317416,-2.61997 0.573806,-0.51448 1.086806,-0.93541 1.139998,-0.93541 0.05319,0 -1.030614,1.12828 -2.40846,2.5073 -1.377845,1.37902 -2.532517,2.50442 -2.565937,2.50089 -0.03342,-0.004 -4.41273,-4.33487 -9.731799,-9.6252 z m 41.07231,-21.510447 c -0.0793,-0.07926 -0.53754,0.344232 -0.53754,0.496739 0,0.06694 0.13411,-0.0043 0.29802,-0.158271 0.16391,-0.153985 0.2717,-0.306296 0.23952,-0.338468 z m 0.53702,-0.63123 c 0,-0.06567 -0.0537,-0.08619 -0.11939,-0.04561 -0.0657,0.04058 -0.1194,0.127518 -0.1194,0.193186 0,0.06567 0.0537,0.08619 0.1194,0.0456 0.0657,-0.04058 0.11939,-0.127518 0.11939,-0.193185 z M 39.745719,71.876091 c 0.748829,-4.50437 2.154102,-7.335717 4.979119,-10.03194 3.851582,-3.675985 9.245447,-6.316232 15.569889,-7.621316 0.131335,-0.0271 0.05074,-0.05544 -0.179093,-0.06297 -0.967047,-0.03169 -4.594737,1.056324 -6.936096,2.080275 -3.62663,1.586042 -6.564189,3.514921 -8.892456,5.839023 -1.954919,1.951423 -2.910103,3.483106 -3.755102,6.021492 -0.868269,2.608287 -1.204343,4.972619 -1.170632,8.235569 l 0.02053,1.987225 0.08268,-2.626701 c 0.04637,-1.473222 0.169839,-3.15101 0.281165,-3.820656 z M 62.298204,54.058613 c -0.277105,-0.02504 -0.760657,-0.02534 -1.074559,-6.61e-4 -0.313902,0.02468 -0.08718,0.04516 0.503828,0.04553 0.591008,3.64e-4 0.847837,-0.01983 0.570731,-0.04487 z"
         id="path6716"
         transform="scale(0.26458333)" />
      <path
         style="fill:#ff0000;stroke-width:0.0211063"
         d="m 79.694331,128.77614 c -0.915302,-0.90794 -4.399753,-4.38184 -7.743225,-7.71979 -3.343472,-3.33795 -6.793503,-6.77184 -7.666736,-7.63087 l -1.587696,-1.56187 3.2e-5,-0.63319 3.2e-5,-0.63319 0.342803,0.34783 c 1.780573,1.80665 7.023186,7.06331 9.007829,9.03196 5.580304,5.53533 8.382131,8.23612 9.140305,8.8107 0.146586,0.11109 0.135446,0.10021 -0.318272,-0.31091 -0.888628,-0.80518 -2.819849,-2.67397 -6.151967,-5.95306 -0.813136,-0.8002 -3.850519,-3.82654 -6.749738,-6.7252 l -5.271309,-5.27029 v -3.61163 -3.61164 h 19.090686 19.090685 v 3.88016 3.88016 l -1.039486,1.03239 c -1.717487,1.70576 -4.57442,4.499 -6.495903,6.35109 -6.340563,6.11157 -10.527602,9.87318 -11.642732,10.45978 -0.161873,0.0851 -0.08181,0.0778 0.108028,-0.01 0.696051,-0.3216 2.391962,-1.74801 5.498716,-4.62493 0.952245,-0.8818 1.510938,-1.37672 1.531217,-1.35644 0.01907,0.0191 -0.801638,0.86691 -2.580145,2.66542 -1.540005,1.55733 -4.64803,4.63773 -4.832404,4.78944 l -0.06654,0.0547 z"
         id="path6794"
         transform="scale(0.26458333)" />
      <path
         style="fill:#ff0000;stroke-width:0.0211063"
         d="m 79.831068,128.91361 c -0.839597,-0.83247 -3.976986,-3.95982 -6.971976,-6.94967 -5.687933,-5.67818 -7.143844,-7.12695 -9.028558,-8.98425 l -1.134786,-1.11829 0.0056,-0.62511 0.0056,-0.62511 3.113185,3.13586 c 5.735691,5.77746 12.013511,11.97385 14.099037,13.91618 0.639005,0.59512 1.305094,1.18044 1.343336,1.18044 0.0066,0 -0.03875,-0.0451 -0.100821,-0.10025 -1.506348,-1.33816 -5.587829,-5.34166 -13.099003,-12.84873 l -5.366287,-5.36336 v -3.61316 -3.61317 h 19.090686 19.090689 v 3.88008 3.88009 l -1.092256,1.0853 c -1.717026,1.7061 -4.530601,4.45678 -6.474719,6.32999 -6.140683,5.91671 -10.205028,9.58079 -11.492029,10.36026 -0.22585,0.13679 -0.220453,0.15251 0.01532,0.0446 0.170771,-0.0781 0.371789,-0.20878 0.723374,-0.47015 0.951104,-0.70704 2.251743,-1.83779 4.484131,-3.8984 1.271518,-1.17368 1.774294,-1.62122 1.796433,-1.59908 0.03454,0.0345 -3.358009,3.47501 -5.712437,5.79314 -0.910307,0.89627 -1.680499,1.64909 -1.711539,1.67294 l -0.05644,0.0434 z"
         id="path6833"
         transform="scale(0.26458333)" />
      <path
         style="fill:#ff0000;stroke-width:0.00390625"
         d=""
         id="path7205"
         transform="scale(0.26458333)" />
      <path
         style="fill:#ff0000;stroke-width:0.00390625"
         d="m 109.63477,104.14191 v -0.0568 l 0.20991,-0.19294 c 1.57043,-1.44344 3.00604,-2.78817 3.89542,-3.64883 l 0.0997,-0.0965 0.0762,1e-5 0.0762,2e-5 -0.0219,0.0203 c -0.012,0.0112 -0.0885,0.0845 -0.16996,0.16291 -0.95928,0.92344 -2.45575,2.31448 -3.98983,3.70872 -0.0849,0.0771 -0.15913,0.14467 -0.16504,0.15008 l -0.0107,0.01 z"
         id="path8058"
         transform="scale(0.26458333)" />
      <path
         style="fill:#ff0000;stroke-width:0.00390625"
         d=""
         id="path8319"
         transform="scale(0.26458333)" />
      <path
         style="fill:#ff0000;stroke-width:0.00390625"
         d="m 109.63477,104.14179 v -0.0529 l 0.0439,-0.0408 c 0.0242,-0.0224 0.20039,-0.18475 0.3916,-0.36077 0.41008,-0.37748 0.93149,-0.85989 1.24024,-1.14746 l 0.2207,-0.20557 h 0.0664 0.0664 l -0.0293,0.0278 c -0.16232,0.15396 -1.75788,1.61615 -1.99122,1.82476 l -0.009,0.008 z"
         id="path8432"
         transform="scale(0.26458333)" />
      <path
         style="fill:#ff0000;stroke-width:0.00390625"
         d="m 105.83411,106.15933 -1.3e-4,-0.036 0.33301,-0.33712 c 0.3663,-0.37082 1.107,-1.1234 1.5639,-1.58896 0.1613,-0.16436 0.31521,-0.31993 0.34202,-0.34571 0.0268,-0.0258 0.1515,-0.14707 0.27707,-0.26953 0.51483,-0.50209 1.02216,-0.99023 1.02915,-0.99023 0.004,0 -0.007,0.0118 -0.32239,0.33396 -0.86627,0.88621 -2.26885,2.31 -3.0322,3.07807 l -0.1903,0.19148 z"
         id="path8582"
         transform="scale(0.26458333)" />
      <path
         style="fill:#ff0000;stroke-width:0.00390625"
         d="m 101.58398,110.41767 v -0.0266 l 1.28626,-1.28733 c 0.70744,-0.70803 1.5946,-1.59846 1.97148,-1.97873 0.37687,-0.38027 0.7543,-0.76084 0.83873,-0.8457 l 0.15351,-0.1543 v 0.0359 0.0359 l -0.74152,0.74538 c -0.78423,0.78828 -3.26895,3.27055 -3.41959,3.41622 l -0.0889,0.0859 z"
         id="path8695"
         transform="scale(0.26458333)" />
      <path
         style="fill:#ff0000;stroke-width:0.00390625"
         d=""
         id="path8771"
         transform="scale(0.26458333)" />
      <path
         style="fill:#ff0000;stroke-width:0.00390625"
         d="m 80.248418,129.5028 c -0.593839,-0.59666 -1.282881,-1.28874 -1.531204,-1.53796 -0.248323,-0.24921 -0.549076,-0.55115 -0.66834,-0.67096 l -0.216843,-0.21785 0.06491,10e-4 0.06491,0.001 0.862827,0.85746 c 1.893386,1.88162 2.52567,2.50386 2.544272,2.50386 0.01131,0 0.10877,-0.09 0.36144,-0.33398 0.290505,-0.28046 0.905126,-0.88437 1.462975,-1.43749 l 0.228516,-0.22657 0.0011,0.033 0.0011,0.033 -0.122241,0.12169 c -0.209529,0.20858 -1.91827,1.90458 -1.946774,1.93225 l -0.02703,0.0262 z"
         id="path8847"
         transform="scale(0.26458333)" />
      <path
         style="fill:#ff0000;stroke-width:0.00390625"
         d="m 80.849156,128.4929 c -0.410939,-0.36065 -0.924587,-0.83418 -1.638173,-1.51021 -0.272311,-0.25799 -1.175511,-1.1287 -1.193059,-1.15015 -0.0051,-0.006 -0.0037,-0.007 0.0219,-0.006 l 0.02741,0.001 0.247631,0.24032 c 1.11005,1.07731 1.988886,1.91454 2.505315,2.38669 0.151488,0.1385 0.145178,0.13256 0.140753,0.1325 -0.0021,-3e-5 -0.05245,-0.0427 -0.111781,-0.0947 z"
         id="path8886"
         transform="scale(0.26458333)" />
      <path
         style="fill:#ff0000;stroke-width:0.00390625"
         d=""
         id="path8925"
         transform="scale(0.26458333)" />
      <path
         style="fill:#ff0000;stroke-width:0.00390625"
         d=""
         id="path8964"
         transform="scale(0.26458333)" />
      <path
         style="fill:#ff0000;stroke-width:0.00390625"
         d="m 81.33116,130.40365 c -0.06197,-0.0576 -0.294377,-0.28456 -0.64659,-0.63131 l -0.346679,-0.3413 v -0.69508 -0.69509 l 0.124023,0.11261 c 0.326212,0.29619 0.627995,0.55749 0.776367,0.67222 l 0.0078,0.006 -0.0078,-0.008 c -0.0043,-0.004 -0.03682,-0.0333 -0.07227,-0.0641 -0.158079,-0.13735 -0.464297,-0.41707 -0.745118,-0.68064 l -0.08301,-0.0779 v -1.08736 -1.08736 h 2.578906 c 1.444941,0 2.577274,0.001 2.575195,0.003 -0.01401,0.0127 -0.184599,0.16492 -0.335742,0.29956 -1.243054,1.10729 -2.181842,1.89704 -2.814453,2.36764 -0.263178,0.19578 -0.482321,0.34139 -0.633481,0.42093 -0.04436,0.0234 -0.06518,0.0374 -0.05539,0.0374 0.01038,0 0.06344,-0.0174 0.100985,-0.0331 0.04703,-0.0197 0.209095,-0.10376 0.263359,-0.13666 0.170578,-0.10344 0.496938,-0.33905 0.830391,-0.5995 0.663071,-0.51791 1.629589,-1.34507 2.669253,-2.2844 l 0.08331,-0.0753 h 0.216834 0.216834 l -0.34047,0.34329 c -0.320019,0.32266 -1.555167,1.55479 -2.197441,2.19205 -1.271803,1.2619 -2.104762,2.07404 -2.127205,2.07404 -0.0018,0 -0.01876,-0.0144 -0.03762,-0.0319 z"
         id="path9003"
         transform="scale(0.26458333)" />
      <path
         style="fill:#ff0000;stroke-width:0.00390625"
         d="m 81.669922,128.94376 c 0.0032,-0.002 0.03311,-0.0181 0.06641,-0.0363 0.524325,-0.28606 1.649878,-1.19726 3.378324,-2.73493 0.08669,-0.0771 0.209396,-0.18661 0.272678,-0.24329 l 0.115058,-0.10307 h 0.04557 c 0.04462,0 0.04541,1.5e-4 0.03787,0.007 -0.01753,0.0166 -0.370704,0.33294 -0.517486,0.46355 -1.348068,1.1996 -2.330203,2.00464 -2.945296,2.41424 -0.142349,0.0948 -0.331561,0.19734 -0.41353,0.22412 -0.03551,0.0116 -0.05139,0.015 -0.0396,0.008 z"
         id="path9042"
         transform="scale(0.26458333)" />
      <path
         style="fill:#ff0000;stroke-width:0.00390625"
         d="m 83.424641,128.47172 0.0011,-0.031 1.309272,-1.30741 1.309271,-1.30742 0.03854,0.001 0.03854,10e-4 -1.344929,1.33593 c -0.739711,0.73477 -1.346739,1.33655 -1.348952,1.3373 -0.0026,8.7e-4 -0.0036,-0.01 -0.0029,-0.0296 z"
         id="path9081"
         transform="scale(0.26458333)" />
      <path
         style="fill:#ff0000;stroke-width:0.00390625"
         d="m 85.505859,125.82463 c 0,-8.5e-4 0.05052,-0.047 0.112265,-0.10254 0.505536,-0.45478 1.471316,-1.3359 1.73199,-1.58016 0.02713,-0.0254 0.05042,-0.0462 0.05176,-0.0462 0.0013,0 0.0024,0.0145 0.0024,0.0323 v 0.0323 l -0.125778,0.11716 c -0.643342,0.59926 -1.061766,0.98401 -1.651402,1.5185 l -0.03337,0.0303 -0.04394,3e-5 c -0.02417,1e-5 -0.04395,-6.7e-4 -0.04395,-0.002 z"
         id="path9120"
         transform="scale(0.26458333)" />
      <path
         style="fill:#ff0000;stroke-width:0.00390625"
         d="m 86.0512,125.82294 c -0.0012,-0.002 0.138726,-0.14569 0.310928,-0.31947 0.680599,-0.68685 1.424754,-1.44463 1.755193,-1.78734 l 0.07408,-0.0768 0.06543,-3.1e-4 c 0.03599,-1.8e-4 0.06543,3.9e-4 0.06543,0.001 0,8.6e-4 -0.494243,0.49261 -1.098317,1.09277 l -1.098317,1.09121 -0.03613,0.001 c -0.01987,6.2e-4 -0.03711,-4.6e-4 -0.0383,-0.002 z"
         id="path9159"
         transform="scale(0.26458333)" />
      <path
         style="fill:#ff0000;stroke-width:0.00390625"
         d="m 87.404297,124.12561 v -0.0332 l 0.125919,-0.11652 c 0.874878,-0.80954 1.901596,-1.77198 2.846737,-2.66851 l 0.177734,-0.16859 0.05151,-6e-5 0.05151,-6e-5 -0.05932,0.0579 c -0.03263,0.0318 -0.185885,0.17979 -0.340573,0.32877 -0.428651,0.41286 -0.756291,0.74121 -0.927719,0.92974 -0.09294,0.10221 -0.161142,0.18811 -0.166592,0.20983 -0.0057,0.0227 0.01194,0.0161 0.06774,-0.0255 0.185548,-0.1384 0.816451,-0.69536 1.661116,-1.46645 l 0.03733,-0.0341 0.04096,-10e-5 0.04096,-1e-4 -0.01557,0.0151 c -0.0086,0.008 -0.222989,0.20645 -0.476505,0.44036 -0.479743,0.44263 -1.066725,0.98527 -1.611328,1.48962 -0.175098,0.16215 -0.378111,0.35335 -0.451141,0.42488 l -0.132781,0.13006 h -0.06592 -0.06593 l 0.08589,-0.0889 c 0.197182,-0.20402 0.421266,-0.44043 0.534242,-0.56362 0.123661,-0.13484 0.163574,-0.18322 0.156758,-0.19004 -0.02427,-0.0243 -0.647078,0.51373 -1.371243,1.18452 -0.08571,0.0794 -0.164369,0.15195 -0.174804,0.16124 l -0.01897,0.0169 z"
         id="path9198"
         transform="scale(0.26458333)" />
      <path
         style="fill:#ff0000;stroke-width:0.00390625"
         d=""
         id="path9237"
         transform="scale(0.26458333)" />
      <path
         style="fill:#ff0000;stroke-width:0.00390625"
         d="m 90.939542,121.12953 c 0.0053,-0.005 0.05274,-0.0485 0.10538,-0.0966 0.14636,-0.13383 0.358796,-0.32988 0.789062,-0.72821 1.173355,-1.08624 2.987659,-2.75909 3.147095,-2.90172 l 0.01623,-0.0145 0.0467,0.001 0.0467,0.001 -0.515858,0.47265 c -0.937957,0.85941 -2.696138,2.47574 -3.402422,3.12793 l -0.159692,0.14746 h -0.04144 -0.04144 z"
         id="path9276"
         transform="scale(0.26458333)" />
      <path
         style="fill:#ff0000;stroke-width:0.00390625"
         d="m 90.568359,121.12566 c 0.0075,-0.007 0.08574,-0.0815 0.173828,-0.16508 0.918521,-0.87105 3.269411,-3.12815 3.666245,-3.51997 l 0.05296,-0.0523 0.03057,10e-4 0.03057,0.001 -0.278846,0.27158 c -1.008128,0.98186 -2.094961,2.03619 -3.243376,3.14638 l -0.339421,0.32813 -0.0531,0.001 -0.0531,0.001 z"
         id="path9315"
         transform="scale(0.26458333)" />
      <path
         style="fill:#ff0000;stroke-width:0.00390625"
         d="m 95.002604,117.38511 c 0.0014,-0.004 0.104681,-0.0989 0.647804,-0.59614 0.895846,-0.82022 1.86093,-1.70013 3.008769,-2.74321 l 0.448241,-0.40733 0.04721,0.001 0.04721,10e-4 -0.141891,0.1289 c -0.156359,0.14205 -1.057301,0.96193 -1.298233,1.18142 -0.602861,0.54922 -2.153021,1.96498 -2.64881,2.41917 l -0.02025,0.0186 h -0.04568 c -0.02589,0 -0.04511,-0.002 -0.04437,-0.004 z"
         id="path9354"
         transform="scale(0.26458333)" />
      <path
         style="fill:#ff0000;stroke-width:0.00390625"
         d="m 94.469783,117.38574 c -7.6e-4,-0.002 0.02858,-0.032 0.0652,-0.0675 1.249181,-1.21175 2.917618,-2.84125 3.67058,-3.58494 l 0.09619,-0.095 0.02551,0.001 0.02551,10e-4 -0.270179,0.26562 c -1.040644,1.02311 -2.178064,2.13686 -3.224471,3.15738 l -0.333283,0.32504 H 94.498 c -0.01476,0 -0.02746,-0.001 -0.02822,-0.003 z"
         id="path9393"
         transform="scale(0.26458333)" />
      <path
         style="fill:#ff0000;stroke-width:0.00390625"
         d="m 98.309253,113.63574 c -9.65e-4,-0.002 0.0732,-0.0767 0.164809,-0.16683 0.29642,-0.29169 0.732881,-0.72257 1.075495,-1.06175 l 0.334712,-0.33136 0.02634,0.001 0.02635,10e-4 -0.441136,0.43552 c -0.242624,0.23953 -0.55803,0.5506 -0.700901,0.69125 -0.142871,0.14065 -0.300244,0.29579 -0.349717,0.34475 l -0.08995,0.089 h -0.02212 c -0.01217,0 -0.02291,-10e-4 -0.02388,-0.003 z"
         id="path9432"
         transform="scale(0.26458333)" />
      <path
         style="fill:#ff0000;stroke-width:0.00390625"
         d="m 99.115234,113.63512 c 0,-0.002 0.12085,-0.1132 0.268555,-0.24721 0.933681,-0.84714 1.760581,-1.59612 2.961061,-2.68202 l 0.90345,-0.81722 h 0.0451 c 0.0248,0 0.0445,10e-4 0.0438,0.003 -7.2e-4,0.002 -0.076,0.0708 -0.16732,0.15323 -0.97194,0.87773 -2.64067,2.38939 -3.6793,3.33298 l -0.286724,0.26048 h -0.04433 c -0.02438,0 -0.04433,-0.002 -0.04433,-0.004 z"
         id="path9471"
         transform="scale(0.26458333)" />
      <path
         style="fill:#ff0000;stroke-width:0.00390625"
         d=""
         id="path9547"
         transform="scale(0.26458333)" />
      <path
         style="fill:#ff0000;stroke-width:0.00390625"
         d="m 99.892578,112.07282 c 0,-0.002 0.201712,-0.20348 0.448242,-0.44808 0.24653,-0.2446 0.59855,-0.59421 0.78226,-0.77692 0.18371,-0.18271 0.36257,-0.3603 0.39746,-0.39465 l 0.0634,-0.0624 v 0.0279 0.0279 l -0.45611,0.45257 c -0.25086,0.24892 -0.62079,0.61561 -0.82205,0.81488 l -0.365935,0.3623 h -0.02365 c -0.01301,0 -0.02365,-0.002 -0.02365,-0.003 z"
         id="path9660"
         transform="scale(0.26458333)" />
      <path
         style="fill:#ff0000;stroke-width:0.00390625"
         d="m 103.29518,109.88867 -0.0447,-0.002 0.85716,-0.77539 c 0.78991,-0.71456 1.79557,-1.62524 2.11461,-1.91491 l 0.13246,-0.12025 h 0.0511 0.0511 l -0.0136,0.0132 c -0.007,0.007 -0.3845,0.34776 -0.83782,0.75674 -0.45332,0.40897 -1.14238,1.03084 -1.53125,1.38193 -0.38887,0.35109 -0.71318,0.64381 -0.7207,0.65048 l -0.0137,0.0122 z"
         id="path9699"
         transform="scale(0.26458333)" />
      <path
         style="fill:#ff0000;stroke-width:0.00390625"
         d="m 106.36726,107.0649 c 0.006,-0.006 0.20501,-0.18675 0.44133,-0.40122 0.71134,-0.64556 1.58474,-1.44144 2.23633,-2.03785 l 0.22461,-0.20559 10e-4,0.0551 c 6e-4,0.0303 6e-4,0.0554 0,0.0558 -6e-4,4.3e-4 -0.12501,0.11317 -0.27648,0.25055 -0.6475,0.58727 -1.43334,1.29838 -2.18514,1.97734 l -0.35115,0.31713 h -0.0511 -0.0511 z"
         id="path9738"
         transform="scale(0.26458333)" />
      <path
         style="fill:#ff0000;stroke-width:0.00552427"
         d=""
         id="path9777"
         transform="scale(0.26458333)" />
      <path
         style="fill:#ff0000;stroke-width:0.00552427"
         d="m 109.27286,104.47003 v -0.0519 l 0.15606,-0.14308 c 0.0858,-0.0787 0.16662,-0.15255 0.17954,-0.16413 l 0.0235,-0.0211 v 0.0553 0.0553 l -0.17661,0.16078 c -0.0971,0.0884 -0.17792,0.16078 -0.17954,0.16078 -0.002,0 -0.003,-0.0234 -0.003,-0.052 z"
         id="path9816"
         transform="scale(0.26458333)" />
      <path
         style="fill:#ff0000;stroke-width:0.0110485"
         d=""
         id="path9892"
         transform="scale(0.26458333)" />
      <path
         style="fill:#ff0000;stroke-width:0.0110485"
         d="m 114.18184,99.821545 c 2.7616,-2.690798 4.18507,-4.352999 5.39511,-6.299952 0.33,-0.53097 0.63964,-1.067011 1.05372,-1.824207 0.74284,-1.358382 1.7901,-3.530939 2.62164,-5.438645 l 0.14809,-0.339743 h 0.0529 c 0.0291,0 0.0529,0.0031 0.0529,0.0068 0,0.0089 -0.62496,1.354137 -0.96694,2.081387 -1.01564,2.15986 -1.64273,3.396108 -2.32115,4.575931 -1.41739,2.464919 -2.97011,4.375219 -5.82346,7.16456 l -0.39978,0.390804 h -0.0691 -0.0691 z"
         id="path9931"
         transform="scale(0.26458333)" />
      <path
         style="fill:#ff0000;stroke-width:0.0110485"
         d="m 112.23273,99.621819 c -0.0151,-0.02438 0.0242,-0.08623 0.11806,-0.186079 0.0696,-0.07399 0.10964,-0.107058 0.15149,-0.125064 0.0313,-0.01346 0.0585,-0.02289 0.0604,-0.02095 0.002,0.0019 -0.0698,0.08031 -0.1593,0.174162 -0.10143,0.106315 -0.16574,0.165842 -0.17063,0.157928 z"
         id="path10007"
         transform="scale(0.26458333)" />
      <path
         style="fill:#ff0000;stroke-width:0.0110485"
         d="m 113.08896,98.70061 c -0.0135,-0.02165 -0.0106,-0.02784 0.0348,-0.07322 0.0483,-0.04832 0.0744,-0.05387 0.0738,-0.01573 -2.2e-4,0.01446 -0.0799,0.112596 -0.0914,0.112596 -0.001,0 -0.009,-0.01064 -0.0172,-0.02365 z"
         id="path10046"
         transform="scale(0.26458333)" />
      <path
         style="fill:#ff0000;stroke-width:0.0110485"
         d="m 113.55119,98.21644 c 0.0276,-0.05415 0.10097,-0.14582 0.20367,-0.254556 3.51857,-3.72555 5.65414,-6.148184 6.39004,-7.248975 0.1901,-0.284362 0.7723,-1.310532 1.12296,-1.979294 0.0732,-0.139588 0.10591,-0.187596 0.10591,-0.155376 0,0.0106 -0.35419,0.693008 -0.49496,0.953633 -0.47509,0.879568 -0.86829,1.472859 -1.4828,2.23733 -1.03084,1.282422 -2.7349,3.187518 -5.1093,5.712097 -0.52629,0.559576 -0.73691,0.778922 -0.74795,0.778922 -0.005,0 1.5e-4,-0.0197 0.0124,-0.04378 z"
         id="path10085"
         transform="scale(0.26458333)" />
      <path
         style="fill:#ff0000;stroke-width:0.0110485"
         d=""
         id="path10124"
         transform="scale(0.26458333)" />
      <path
         style="fill:#ff0000;stroke-width:0.00390625"
         d="m 121.33008,88.60944 c 0,-0.001 0.0372,-0.07355 0.0827,-0.161133 0.25638,-0.493937 0.60314,-1.207156 0.79817,-1.641666 0.0162,-0.03616 0.017,-0.03714 0.0307,-0.03831 l 0.014,-0.0012 -0.01,0.02269 c -0.0202,0.04564 -0.14683,0.319235 -0.20761,0.448471 -0.15656,0.332942 -0.31403,0.656177 -0.51356,1.054204 -0.1095,0.218438 -0.14553,0.287035 -0.14822,0.282227 -0.006,-0.01117 -0.0144,-0.0069 -0.0291,0.01513 -0.0133,0.01997 -0.0171,0.02434 -0.0171,0.0196 z"
         id="path10163"
         transform="scale(0.26458333)" />
      <path
         style="fill:#ff0000;stroke-width:0.00552427"
         d=""
         id="path10313"
         transform="scale(0.26458333)" />
      <path
         style="fill:#ff0000;stroke-width:0.00390625"
         d="m 123.50285,85.941406 c 0.001,-0.0043 0.003,-0.01037 0.004,-0.0135 0.002,-0.0074 -0.0215,-0.01122 -0.0713,-0.0116 l -0.0376,-2.89e-4 0.0488,-0.114258 c 0.35891,-0.840642 0.62007,-1.504335 0.76202,-1.936524 0.0412,-0.125398 0.0588,-0.184662 0.10384,-0.349609 0.22072,-0.808082 0.41709,-1.674993 0.55546,-2.452148 l 0.011,-0.06152 h 0.0384 c 0.0378,0 0.0384,1.4e-4 0.0365,0.0088 -0.001,0.0048 -0.0108,0.05889 -0.0217,0.120117 -0.21302,1.201895 -0.54536,2.50576 -0.95384,3.742188 l -0.0587,0.177734 -0.2071,0.447266 c -0.1139,0.245996 -0.20801,0.448144 -0.20914,0.449219 -0.001,0.0011 -0.001,-0.0016 1e-5,-0.0059 z"
         id="path10574"
         transform="scale(0.26458333)" />
      <path
         style="fill:#ff0000;stroke-width:0.00390625"
         d="m 122.24861,86.723633 c 0.34486,-0.769136 0.61871,-1.441379 0.87683,-2.152386 0.11266,-0.310332 0.28848,-0.828154 0.35544,-1.046833 l 0.007,-0.02246 h 0.0208 c 0.0114,0 0.0208,0.0017 0.0208,0.0037 0,0.0021 -0.0217,0.07017 -0.0483,0.151367 -0.30766,0.940426 -0.69469,1.929717 -1.16264,2.971848 -0.0328,0.07305 -0.0616,0.134104 -0.064,0.135683 -0.002,0.0016 -0.009,0.0029 -0.0149,0.0029 l -0.0106,6e-5 z"
         id="path10650"
         transform="scale(0.26458333)" />
      <path
         style="fill:#ff0000;stroke-width:0.00390625"
         d="m 123.49023,83.498869 c 0,-0.0017 0.0115,-0.03993 0.0256,-0.08496 0.27282,-0.870951 0.51796,-1.848748 0.67275,-2.683439 l 0.007,-0.03906 0.0245,-0.0012 c 0.022,-0.0011 0.0242,-4.67e-4 0.0224,0.0059 -0.001,0.0039 -0.0111,0.05537 -0.0221,0.114453 -0.14985,0.803796 -0.37412,1.691846 -0.64288,2.545621 -0.0229,0.07266 -0.0424,0.135189 -0.0435,0.138949 -0.002,0.0054 -0.006,0.0068 -0.0229,0.0068 -0.0116,0 -0.021,-0.0014 -0.021,-0.0031 z"
         id="path10689"
         transform="scale(0.26458333)" />
      <path
         style="fill:#ff0000;stroke-width:0.00390625"
         d="m 124.88329,80.973633 c 0.0106,-0.05523 0.0677,-0.401503 0.0893,-0.541992 0.17128,-1.110838 0.27059,-2.262028 0.28584,-3.313477 l 0.003,-0.178711 h 0.0351 0.0351 l -0.003,0.166992 c -0.0188,1.167894 -0.12424,2.353941 -0.31517,3.545606 -0.0183,0.114068 -0.052,0.315368 -0.0568,0.33916 l -0.002,0.01074 h -0.0383 -0.0383 z"
         id="path10728"
         transform="scale(0.26458333)" />
      <path
         style="fill:#ff0000;stroke-width:0.00390625"
         d="m 124.19727,80.685745 c 0,-0.002 0.003,-0.02182 0.008,-0.04394 0.0132,-0.06934 0.038,-0.210625 0.0624,-0.356644 0.10893,-0.651448 0.1894,-1.331589 0.23246,-1.964844 0.005,-0.07949 0.0105,-0.151562 0.0112,-0.160156 0.003,-0.03488 0.002,0.125647 -0.001,0.322266 -0.004,0.224966 -0.008,0.274712 -0.0392,0.59375 -0.0495,0.499002 -0.12736,1.060263 -0.21255,1.53125 -0.008,0.04189 -0.0138,0.07749 -0.0138,0.0791 -1e-5,0.0016 -0.0106,0.0029 -0.0235,0.0029 -0.0129,0 -0.0234,-0.0017 -0.0234,-0.0037 z"
         id="path10767"
         transform="scale(0.26458333)" />
      <path
         style="fill:#ff0000;stroke-width:0.00390625"
         d="m 125.26107,76.645503 c -0.002,-0.93113 -0.0611,-1.864971 -0.17445,-2.759761 l -0.009,-0.07129 h 0.0383 c 0.0299,0 0.0384,0.0012 0.0384,0.0054 0,0.003 0.007,0.06404 0.0155,0.135742 0.0715,0.601605 0.12081,1.232165 0.14466,1.851072 0.0104,0.270902 0.0123,0.366759 0.0144,0.737304 l 0.002,0.395508 -0.0347,-5e-6 -0.0347,-4e-6 z"
         id="path10806"
         transform="scale(0.26458333)" />
      <path
         style="fill:#ff0000;stroke-width:0.00390625"
         d="m 124.4987,75.56543 c -0.0658,-0.944632 -0.21151,-1.935833 -0.42631,-2.900923 -0.0213,-0.09552 -0.0777,-0.337326 -0.0897,-0.384234 l -0.007,-0.02832 h 0.0148 0.0148 l 0.006,0.02637 c 0.0776,0.336274 0.10863,0.479314 0.16097,0.741211 0.13468,0.673959 0.23355,1.334119 0.30041,2.00586 0.0277,0.278613 0.0329,0.35324 0.0358,0.514648 10e-4,0.08433 0.002,0.15332 10e-4,0.15332 -9.2e-4,0 -0.006,-0.05757 -0.0106,-0.127929 z"
         id="path10845"
         transform="scale(0.26458333)" />
      <path
         style="fill:#ff0000;stroke-width:0.00390625"
         d="m 125.06886,73.74707 c -0.12381,-0.95079 -0.32155,-1.944048 -0.57892,-2.907872 -0.0213,-0.07985 -0.0388,-0.146205 -0.0388,-0.147461 0,-0.0013 0.0199,-0.0023 0.0443,-0.0023 h 0.0443 l 0.004,0.01465 c 0.009,0.02976 0.0716,0.272417 0.10191,0.393554 0.21362,0.853634 0.38425,1.758536 0.49589,2.629883 l 0.0111,0.08691 h -0.0377 -0.0377 z"
         id="path10884"
         transform="scale(0.26458333)" />
      <path
         style="fill:#ff0000;stroke-width:0.00390625"
         d="m 123.95705,72.176758 c -0.0941,-0.386106 -0.25927,-0.968302 -0.3853,-1.358399 -0.18143,-0.561515 -0.36221,-1.063775 -0.56592,-1.572265 -0.0241,-0.06016 -0.0447,-0.11165 -0.0458,-0.114431 -0.002,-0.0039 0.005,-0.0048 0.0283,-0.0039 l 0.0303,0.0011 0.0426,0.109375 c 0.31785,0.815199 0.59587,1.66848 0.8152,2.501953 0.0259,0.0984 0.0901,0.353516 0.12117,0.481446 l 0.007,0.03027 h -0.0148 -0.0148 z"
         id="path10923"
         transform="scale(0.26458333)" />
      <path
         style="fill:#ff0000;stroke-width:0.00390625"
         d="m 124.4436,70.668945 c -0.01,-0.03821 -0.10864,-0.383186 -0.13881,-0.483398 -0.25874,-0.859594 -0.5445,-1.652186 -0.89818,-2.491199 -0.0292,-0.06928 -0.0531,-0.126902 -0.0531,-0.12805 0,-0.0011 0.0212,-0.0016 0.0472,-9.89e-4 l 0.0472,0.0011 0.0352,0.08203 c 0.39791,0.926578 0.74307,1.907626 1.00945,2.869141 0.0247,0.08916 0.0457,0.164307 0.0466,0.166992 0.001,0.0037 -0.009,0.0049 -0.0443,0.0049 h -0.046 z"
         id="path10962"
         transform="scale(0.26458333)" />
      <path
         style="fill:#ff0000;stroke-width:0.00390625"
         d="m 122.95073,69.108398 c -0.004,-0.0102 -0.0195,-0.04668 -0.0335,-0.08105 -0.11062,-0.270901 -0.26829,-0.633488 -0.40852,-0.939453 -0.25098,-0.547605 -0.55756,-1.160118 -0.84529,-1.688775 -0.0243,-0.04474 -0.0443,-0.0821 -0.0443,-0.08301 0,-9.1e-4 0.0157,-0.0017 0.0349,-0.0017 h 0.0349 l 0.0192,0.03418 c 0.0297,0.05279 0.14202,0.260955 0.20279,0.375976 0.40599,0.7684 0.78455,1.589434 1.09912,2.383789 l 0.007,0.01856 h -0.0294 -0.0294 z"
         id="path11001"
         transform="scale(0.26458333)" />
      <path
         style="fill:#ff0000;stroke-width:0.00390625"
         d="m 123.32822,67.510742 c -0.13688,-0.318326 -0.31233,-0.698287 -0.46922,-1.01619 -0.0481,-0.09753 -0.0875,-0.177948 -0.0875,-0.178711 0,-7.64e-4 0.0199,-0.0014 0.0442,-0.0014 h 0.0442 l 0.10788,0.217774 c 0.16344,0.329888 0.36209,0.756841 0.4671,1.003906 l 0.012,0.02832 h -0.0478 -0.0478 z"
         id="path11040"
         transform="scale(0.26458333)" />
      <path
         style="fill:#ff0000;stroke-width:0.00390625"
         d="m 122.74276,66.260742 c -0.18887,-0.380904 -0.48178,-0.910965 -0.75111,-1.35925 -0.0481,-0.07996 -0.0874,-0.146318 -0.0874,-0.147461 0,-0.0011 0.0198,-0.002 0.0439,-0.002 l 0.0439,9.6e-5 0.0192,0.03213 c 0.2712,0.453911 0.45599,0.780641 0.66329,1.172755 0.08,0.151426 0.18275,0.350828 0.18275,0.35484 0,0.0014 -0.0198,0.0026 -0.044,0.0026 h -0.044 z"
         id="path11079"
         transform="scale(0.26458333)" />
      <path
         style="fill:#ff0000;stroke-width:0.00390625"
         d="m 121.55078,66.19438 c -0.61585,-1.11284 -1.3434,-2.221203 -2.09942,-3.198286 l -0.0907,-0.117188 0.0164,-0.0012 c 0.009,-6.72e-4 0.0186,-3.71e-4 0.0213,6.69e-4 0.009,0.0034 0.23134,0.290042 0.41265,0.531804 0.6562,0.87498 1.26401,1.807527 1.79238,2.75 0.0349,0.0623 0.0687,0.12251 0.075,0.133789 l 0.0115,0.02051 -0.0364,-3.9e-5 -0.0364,-3.9e-5 -0.0664,-0.119996 z"
         id="path11118"
         transform="scale(0.26458333)" />
      <path
         style="fill:#ff0000;stroke-width:0.00390625"
         d="m 121.86697,64.696289 c -0.35828,-0.580897 -0.78873,-1.205514 -1.21147,-1.75792 -0.0243,-0.03175 -0.0442,-0.05855 -0.0442,-0.05957 0,-10e-4 0.0269,-0.0018 0.0598,-0.0018 h 0.0598 l 0.0118,0.0166 c 0.006,0.0091 0.0364,0.05 0.0665,0.09082 0.31712,0.430709 0.65177,0.921275 0.9513,1.394531 0.0647,0.10225 0.21671,0.347916 0.22536,0.364258 l 0.005,0.0088 h -0.0446 -0.0446 z"
         id="path11157"
         transform="scale(0.26458333)" />
      <path
         style="fill:#ff0000;stroke-width:0.00390625"
         d="m 120.52321,62.766701 c -0.42704,-0.549316 -0.89957,-1.104548 -1.4271,-1.676857 -0.0396,-0.04297 -0.0755,-0.08208 -0.0799,-0.08691 l -0.008,-0.0088 h 0.0883 0.0883 l 0.0951,0.106445 c 0.45058,0.50426 0.85979,0.999282 1.2634,1.52832 0.0708,0.09284 0.1782,0.235805 0.18262,0.243164 0.002,0.0038 -0.0101,0.0049 -0.0571,0.0049 h -0.06 z"
         id="path11196"
         transform="scale(0.26458333)" />
      <path
         style="fill:#ff0000;stroke-width:0.00390625"
         d="m 119.34732,62.862305 c -0.0226,-0.03004 -0.21242,-0.26763 -0.2785,-0.348633 -0.40591,-0.497576 -0.82243,-0.968135 -1.25756,-1.420727 l -0.095,-0.0988 h 0.0155 c 0.0152,0 0.0174,0.002 0.13236,0.12207 0.54036,0.564531 1.01419,1.106265 1.49744,1.712035 l 0.0388,0.04871 h -0.021 c -0.0198,0 -0.0217,-9e-4 -0.0321,-0.01465 z"
         id="path11235"
         transform="scale(0.26458333)" />
      <path
         style="fill:#ff0000;stroke-width:0.00390625"
         d="m 118.96065,60.944349 c -0.55838,-0.596717 -1.38457,-1.416299 -1.99776,-1.981782 -0.41543,-0.383106 -0.83346,-0.743959 -1.20312,-1.038545 -0.0333,-0.02654 -0.0622,-0.04974 -0.0643,-0.05157 -0.002,-0.0018 0.0279,-0.0033 0.0669,-0.0033 h 0.0706 l 0.15964,0.127971 c 1.14361,0.916745 2.16017,1.867641 3.12561,2.923732 0.0348,0.0381 0.0633,0.07018 0.0633,0.07129 0,0.0011 -0.0392,0.002 -0.0872,0.002 h -0.0872 z"
         id="path11274"
         transform="scale(0.26458333)" />
      <path
         style="fill:#ff0000;stroke-width:0.00390625"
         d="m 117.50586,60.783475 c -0.53602,-0.537482 -1.0604,-1.012231 -1.64258,-1.487105 -0.47278,-0.385635 -1.0192,-0.792937 -1.4873,-1.108633 l -0.0459,-0.03095 v -0.01901 -0.01901 l 0.0498,0.03416 c 0.98587,0.676284 1.83242,1.360219 2.69434,2.176782 0.18541,0.175657 0.49814,0.483716 0.61203,0.602902 l 0.0588,0.06152 -0.0151,-5.55e-4 c -0.0145,-5.33e-4 -0.0229,-0.0084 -0.22408,-0.210111 z"
         id="path11350"
         transform="scale(0.26458333)" />
      <path
         style="fill:#ff0000;stroke-width:0.00390625"
         d="m 115.64844,57.83511 c -0.29216,-0.231143 -0.67053,-0.513586 -1.00977,-0.753759 -0.28236,-0.199905 -0.5118,-0.357092 -0.87257,-0.597802 l -0.26515,-0.176908 h 0.0793 0.0792 l 0.20739,0.138152 c 0.60469,0.402815 1.15068,0.79398 1.7077,1.22345 0.11962,0.09223 0.24624,0.190908 0.2534,0.197487 0.002,0.002 -0.0262,0.0034 -0.0664,0.0034 l -0.0701,-1.5e-5 -0.043,-0.034 z"
         id="path11389"
         transform="scale(0.26458333)" />
      <path
         style="fill:#ff0000;stroke-width:0.00390625"
         d="m 114.23633,58.094396 c -0.57525,-0.387824 -1.26324,-0.795202 -1.93457,-1.145512 l -0.0967,-0.05045 -1e-5,-0.01855 c 0,-0.0102 0.001,-0.01855 0.003,-0.01855 0.004,0 0.13644,0.06903 0.26495,0.137727 0.59499,0.318081 1.14307,0.645422 1.70024,1.015468 l 0.15723,0.104422 v 0.01768 c 0,0.0097 -0.001,0.01753 -0.003,0.01735 -0.002,-1.78e-4 -0.0425,-0.02699 -0.0908,-0.05958 z"
         id="path11465"
         transform="scale(0.26458333)" />
      <path
         style="fill:#ff0000;stroke-width:0.0110485"
         d=""
         id="path11504"
         transform="scale(0.26458333)" />
      <path
         style="fill:#ff0000;stroke-width:0.0110485"
         d="m 113.36358,56.212957 c -0.85259,-0.565339 -1.66069,-1.01367 -2.32755,-1.291329 -1.71589,-0.714436 -3.62235,-1.160916 -5.74894,-1.346366 -0.68532,-0.05976 -1.17806,-0.08264 -1.96111,-0.09104 -1.07285,-0.01151 -1.99745,0.02967 -3.14884,0.140264 -0.12761,0.01226 -0.243203,0.02474 -0.256875,0.02774 -0.02141,0.0047 -0.02486,9.11e-4 -0.02486,-0.02723 0,-0.03781 -0.01319,-0.03468 0.259645,-0.06159 3.58583,-0.353782 6.92341,-0.06835 9.6509,0.82536 1.01419,0.332318 1.91735,0.738292 2.76766,1.244082 0.21392,0.127246 0.75829,0.466099 0.9336,0.581132 l 0.12706,0.08337 -0.0718,-6.6e-5 c -0.071,-6.6e-5 -0.0733,-0.0011 -0.19887,-0.08432 z"
         id="path11543"
         transform="scale(0.26458333)" />
      <path
         style="fill:#ff0000;stroke-width:0.0110485"
         d=""
         id="path11582"
         transform="scale(0.26458333)" />
      <path
         style="fill:#ff0000;stroke-width:0.00390625"
         d="m 112.11133,56.851278 c -0.52268,-0.26744 -1.15149,-0.550914 -1.73438,-0.781875 -0.89512,-0.354679 -1.79257,-0.639667 -2.75879,-0.876064 l -0.14746,-0.03608 v -0.02101 c 0,-0.01156 8.9e-4,-0.02101 0.002,-0.02101 0.004,0 0.31829,0.07771 0.4238,0.10475 0.93014,0.238364 1.89432,0.560829 2.78516,0.931481 0.45447,0.189094 0.84015,0.365419 1.29395,0.591569 l 0.22949,0.114368 v 0.01954 c 0,0.01075 -0.001,0.01949 -0.003,0.01942 -0.002,-6.5e-5 -0.0425,-0.02035 -0.0908,-0.04509 z"
         id="path11658"
         transform="scale(0.26458333)" />
      <path
         style="fill:#ff0000;stroke-width:0.00390625"
         d=""
         id="path11697"
         transform="scale(0.26458333)" />
      <path
         style="fill:#ff0000;stroke-width:0.00390625"
         d="m 113.56948,56.295937 c 0.0124,-7.77e-4 0.0318,-7.7e-4 0.043,1.6e-5 0.0112,7.87e-4 10e-4,0.0014 -0.0226,0.0014 -0.0236,-9e-6 -0.0328,-6.52e-4 -0.0204,-0.0014 z"
         id="path11736"
         transform="scale(0.26458333)" />
      <path
         style="fill:#ff0000;stroke-width:0.00390625"
         d="m 113.48669,56.29799 c -0.0143,-0.0092 -0.0106,-0.01469 0.004,-0.0063 0.0119,0.0067 0.14606,0.01012 0.14207,0.0037 -0.004,-0.0067 0.003,-0.0049 0.0134,0.0035 l 0.01,0.0076 -0.0781,2.1e-5 c -0.0736,2e-5 -0.0789,-4.69e-4 -0.0914,-0.0085 z"
         id="path11775"
         transform="scale(0.26458333)" />
      <path
         style="fill:#ff0000;stroke-width:0.00390625"
         d=""
         id="path11814"
         transform="scale(0.26458333)" />
      <path
         style="fill:#ff0000;stroke-width:0.00390625"
         d="m 113.49917,56.289256 c -0.0244,-0.0076 -0.0503,-0.02312 -0.17495,-0.104974 -0.76807,-0.504134 -1.43128,-0.879911 -2.04688,-1.159771 -0.38618,-0.175563 -0.99818,-0.408177 -1.49451,-0.568046 l -0.11952,-0.0385 0.11004,-0.001 0.11004,-10e-4 0.14034,0.04844 c 0.94975,0.327848 1.78968,0.715028 2.57896,1.188825 0.29338,0.176112 0.98817,0.611779 1.01821,0.63846 0.006,0.0055 -0.10345,0.0033 -0.12173,-0.0024 z"
         id="path11892"
         transform="scale(0.26458333)" />
      <path
         style="fill:#ff0000;stroke-width:0.00390625"
         d=""
         id="path11931"
         transform="scale(0.26458333)" />
      <path
         style="fill:#ff0000;stroke-width:0.00390625"
         d="m 113.49917,56.289256 c -0.0248,-0.0077 -0.0508,-0.02336 -0.18081,-0.10876 -0.83403,-0.547631 -1.57059,-0.956867 -2.22656,-1.237082 -0.69986,-0.298961 -1.55844,-0.587052 -2.36914,-0.794943 l -0.125,-0.03205 -0.001,-0.03575 c -6.1e-4,-0.01966 1.5e-4,-0.03575 0.002,-0.03575 0.0125,0 0.41089,0.106032 0.58536,0.155786 1.24474,0.354953 2.32751,0.810408 3.33789,1.404046 0.25177,0.147921 1.06972,0.658806 1.09942,0.686684 0.006,0.0057 -0.10291,0.0037 -0.12173,-0.0022 z"
         id="path11970"
         transform="scale(0.26458333)" />
      <path
         style="fill:#ff0000;stroke-width:0.00390625"
         d="m 113.49917,56.289256 c -0.0252,-0.0079 -0.05,-0.02294 -0.2062,-0.12509 -0.86017,-0.562596 -1.60847,-0.974728 -2.26758,-1.248883 -0.72602,-0.30199 -1.50937,-0.562849 -2.30238,-0.766708 l -0.12535,-0.03223 -0.001,-0.03571 c -6.1e-4,-0.01964 1.5e-4,-0.03571 0.002,-0.03571 0.006,0 0.25203,0.06371 0.36446,0.09423 1.38484,0.376018 2.5901,0.87923 3.67404,1.533964 0.31107,0.187898 0.98633,0.612535 0.98633,0.620255 0,0.0041 -0.10907,5.11e-4 -0.12388,-0.0041 z"
         id="path12009"
         transform="scale(0.26458333)" />
      <path
         style="fill:#ff0000;stroke-width:0.00390625"
         d=""
         id="path12048"
         transform="scale(0.26458333)" />
      <path
         style="fill:#ff0000;stroke-width:0.00390625"
         d="m 107.42773,55.148133 c -0.0204,-0.0051 -0.11181,-0.02589 -0.20312,-0.04627 -1.31471,-0.293439 -2.67127,-0.464167 -4.05273,-0.510051 -0.13639,-0.0045 -0.43432,-0.01166 -0.48926,-0.0117 l -0.0361,-3.1e-5 v -0.02148 -0.02148 l 0.0342,2e-5 c 0.0705,4.2e-5 0.39169,0.0081 0.54981,0.01378 1.3136,0.04727 2.58082,0.203533 3.83594,0.473025 0.12679,0.02723 0.35583,0.07879 0.38964,0.08773 l 0.0146,0.0039 v 0.02133 c 0,0.01173 -10e-4,0.02114 -0.003,0.02091 -0.002,-2.35e-4 -0.0196,-0.0046 -0.04,-0.0096 z"
         id="path12161"
         transform="scale(0.26458333)" />
      <path
         style="fill:#ff0000;stroke-width:0.00390625"
         d="m 97.333984,54.004183 v -0.03683 l 0.02051,-0.0041 c 0.126036,-0.02508 0.419108,-0.07717 0.672852,-0.119588 0.577179,-0.09649 1.128823,-0.173789 1.700909,-0.238348 0.192061,-0.02167 0.216464,-0.02381 0.191669,-0.01676 -0.0237,0.0067 -0.02837,0.01373 -0.02649,0.03965 9.06e-4,0.01253 0.0037,0.02405 0.0062,0.0256 0.0025,0.0016 -0.02486,0.0059 -0.06082,0.0097 -0.690173,0.07301 -1.607513,0.209512 -2.367341,0.352268 -0.07369,0.01385 -0.134776,0.02517 -0.135742,0.02517 -9.67e-4,0 -0.0018,-0.01657 -0.0018,-0.03683 z"
         id="path12237"
         transform="scale(0.26458333)" />
      <path
         style="fill:#ff0000;stroke-width:0.00390625"
         d="m 97.333984,55.092215 c 0,-0.0126 0.0018,-0.01982 0.0054,-0.02117 0.0095,-0.0037 0.4143,-0.08368 0.555183,-0.109764 1.160494,-0.214831 2.271463,-0.344983 3.402353,-0.398593 0.3611,-0.01712 0.54983,-0.02187 0.96777,-0.02437 l 0.38183,-0.0023 v 0.02148 0.02148 l -0.38769,0.0023 c -0.36385,0.0022 -0.45941,0.004 -0.73731,0.01441 -1.32908,0.04957 -2.68966,0.213808 -4.043789,0.488136 -0.07457,0.01511 -0.137415,0.02747 -0.139649,0.02747 -0.0023,0 -0.0041,-0.0085 -0.0041,-0.01911 z"
         id="path12276"
         transform="scale(0.26458333)" />
      <path
         style="fill:#ff0000;stroke-width:0.00390625"
         d="m 95.209821,54.481753 0.0011,-0.04035 0.236329,-0.05918 c 0.58825,-0.147319 1.165214,-0.275792 1.725535,-0.384225 0.07898,-0.01528 0.14756,-0.02875 0.152394,-0.02992 0.0087,-0.0021 0.0088,-0.0015 0.0088,0.03533 0,0.03565 -4.24e-4,0.03755 -0.0088,0.03946 -0.0048,0.0011 -0.109863,0.0221 -0.233398,0.04666 -0.47736,0.09492 -0.919747,0.192946 -1.402344,0.310735 -0.160081,0.03907 -0.450232,0.11236 -0.473773,0.119669 -0.0064,0.002 -0.0069,-9.68e-4 -0.0059,-0.03818 z"
         id="path12315"
         transform="scale(0.26458333)" />
      <path
         style="fill:#ff0000;stroke-width:0.00390625"
         d="m 95.208984,55.622731 c 0,-0.01246 0.0013,-0.02348 0.003,-0.02449 0.0081,-0.005 0.409148,-0.114297 0.669173,-0.182377 0.472415,-0.123688 0.875935,-0.220553 1.283781,-0.308173 0.09069,-0.01949 0.16584,-0.03543 0.166992,-0.03543 0.0012,0 0.0021,0.0092 0.0021,0.02053 v 0.02053 l -0.07129,0.01488 c -0.58933,0.122986 -1.29963,0.300196 -1.927734,0.480943 l -0.125977,0.03625 z"
         id="path12354"
         transform="scale(0.26458333)" />
      <path
         style="fill:#ff0000;stroke-width:0.0220971"
         d=""
         id="path12393"
         transform="scale(0.26458333)" />
      <path
         style="fill:#ff0000;stroke-width:0.00390625"
         d="m 90.103516,56.31253 v -0.05651 l 0.01465,-0.0075 c 0.0081,-0.0041 0.07529,-0.03511 0.149414,-0.06889 1.388803,-0.633001 2.880548,-1.171391 4.441406,-1.602958 0.131966,-0.03649 0.395426,-0.107157 0.453125,-0.121543 0.01826,-0.0046 0.03628,-0.0092 0.04004,-0.0103 0.0062,-0.0018 0.0068,0.0017 0.0068,0.03715 v 0.03918 l -0.01465,0.0039 c -0.92116,0.242683 -1.774739,0.502751 -2.59082,0.789372 -0.626461,0.220022 -1.488825,0.580326 -2.29147,0.957395 -0.09213,0.04328 -0.176743,0.08287 -0.188023,0.08796 l -0.02051,0.0093 z"
         id="path12728"
         transform="scale(0.26458333)" />
      <path
         style="fill:#ff0000;stroke-width:0.00390625"
         d=""
         id="path12878"
         transform="scale(0.26458333)" />
      <path
         style="fill:#ff0000;stroke-width:0.00390625"
         d=""
         id="path12991"
         transform="scale(0.26458333)" />
      <path
         style="fill:#ff0000;stroke-width:0.00390625"
         d=""
         id="path13030"
         transform="scale(0.26458333)" />
      <path
         style="fill:#ff0000;stroke-width:0.00390625"
         d="m 95.210311,55.628378 c 0.0014,-0.0083 0.0025,-0.0181 0.0025,-0.02178 5.3e-5,-0.0083 -0.01118,-0.0048 0.253949,-0.07722 0.563765,-0.153909 1.043055,-0.273861 1.513672,-0.378827 l 0.1875,-0.04182 0.0012,0.01734 c 6.65e-4,0.0095 6.65e-4,0.01788 0,0.01853 -6.64e-4,6.52e-4 -0.06927,0.01626 -0.152449,0.03468 -0.419825,0.09296 -0.93988,0.222099 -1.370243,0.34025 -0.09564,0.02626 -0.387852,0.108737 -0.431248,0.121726 -0.0067,0.002 -0.0072,6.79e-4 -0.0049,-0.01288 z"
         id="path13365"
         transform="scale(0.26458333)" />
      <path
         style="fill:#ff0000;stroke-width:0.00390625"
         d="m 95.210311,55.628378 c 0.0014,-0.0083 0.0025,-0.0181 0.0025,-0.02178 5.3e-5,-0.0083 -0.01118,-0.0048 0.253949,-0.07722 0.566362,-0.154618 1.060947,-0.27824 1.539062,-0.38469 l 0.16211,-0.03609 0.0012,0.01741 c 6.65e-4,0.0096 5.83e-4,0.01804 -1.81e-4,0.0188 -7.64e-4,7.64e-4 -0.05402,0.01294 -0.118349,0.02707 -0.432257,0.09489 -0.940571,0.220932 -1.408068,0.349138 -0.11303,0.031 -0.389587,0.108798 -0.427342,0.12022 -0.0067,0.002 -0.0072,7.1e-4 -0.0049,-0.01285 z"
         id="path13404"
         transform="scale(0.26458333)" />
      <path
         style="fill:#ff0000;stroke-width:0.00390625"
         d="m 87.771484,57.54568 v -0.05373 l 0.122071,-0.07282 c 0.610549,-0.364206 1.312334,-0.738757 1.963867,-1.048139 0.121456,-0.05767 0.219228,-0.103651 0.233592,-0.109846 l 0.01289,-0.0056 -6.17e-4,0.05114 c -3.4e-4,0.02812 -0.0014,0.05428 -0.0024,0.05812 -0.0012,0.0047 -0.04766,0.029 -0.143131,0.07484 -0.196685,0.09445 -0.675955,0.333743 -0.867867,0.433311 -0.489819,0.254127 -0.904248,0.482234 -1.298893,0.714925 l -0.01947,0.01148 z"
         id="path13591"
         transform="scale(0.26458333)" />
      <path
         style="fill:#ff0000;stroke-width:0.00390625"
         d="m 87.77171,58.80957 2.25e-4,-0.04785 0.104267,-0.05065 c 0.05735,-0.02786 0.435614,-0.215309 0.840595,-0.416566 1.107917,-0.550583 1.570928,-0.775702 2.158203,-1.049332 1.50756,-0.70242 2.593205,-1.125971 3.890625,-1.517882 l 0.07031,-0.02124 0.0012,0.02353 c 6.47e-4,0.01294 -2.31e-4,0.02482 -0.002,0.0264 -0.0017,0.0016 -0.05499,0.01899 -0.118365,0.03868 -1.226643,0.381237 -2.504245,0.875384 -3.740235,1.446637 -0.338505,0.156452 -0.564237,0.265174 -0.927734,0.446836 -0.312981,0.156417 -0.441907,0.222878 -0.835937,0.430919 -0.292065,0.154204 -0.485939,0.255507 -0.699219,0.365352 -0.161732,0.0833 -0.736173,0.373013 -0.7396,0.373013 -0.0014,0 -0.0025,-0.02153 -0.0024,-0.04785 z"
         id="path13630"
         transform="scale(0.26458333)" />
      <path
         style="fill:#ff0000;stroke-width:0.00390625"
         d="m 84.587891,60.230883 v -0.04503 l 0.0166,-0.0043 c 0.331887,-0.08615 1.580334,-0.643542 3.043564,-1.358856 0.06639,-0.03246 0.121323,-0.05901 0.12207,-0.05901 7.47e-4,0 0.0014,0.0216 0.0014,0.048 v 0.048 l -0.166992,0.08164 c -0.980507,0.479374 -1.793715,0.84544 -2.612373,1.175964 -0.148582,0.05999 -0.378889,0.150793 -0.395439,0.155914 -0.0088,0.0027 -0.0088,0.0026 -0.0088,-0.04232 z"
         id="path13780"
         transform="scale(0.26458333)" />
      <path
         style="fill:#ff0000;stroke-width:0.00390625"
         d="m 84.037109,60.473968 c 0.0075,-0.0067 0.03468,-0.03079 0.06035,-0.0536 0.09623,-0.08548 0.219211,-0.21357 0.317353,-0.330528 0.05417,-0.06455 0.236994,-0.243667 0.442626,-0.433636 0.810349,-0.74863 1.75411,-1.453527 2.823321,-2.108747 0.04785,-0.02933 0.08785,-0.05332 0.08887,-0.05332 0.001,0 0.0019,0.02358 0.0019,0.0524 v 0.0524 l -0.118164,0.07134 c -0.353997,0.213732 -0.6041,0.377731 -0.918945,0.602576 -0.620118,0.442853 -1.369469,1.041784 -1.855469,1.483013 -0.0899,0.08162 -0.289741,0.281542 -0.322126,0.32226 -0.0477,0.05998 -0.06572,0.09625 -0.05452,0.109742 0.0045,0.0054 0.01078,0.0061 0.03867,0.0044 0.01831,-0.0011 0.03637,-0.0033 0.04013,-0.0048 0.0063,-0.0026 0.0068,9.77e-4 0.0068,0.04367 v 0.04645 l -0.0498,0.01892 c -0.24967,0.09483 -0.506365,0.189931 -0.512015,0.189686 -0.0014,-6.3e-5 0.0035,-0.0056 0.01104,-0.01225 z"
         id="path13819"
         transform="scale(0.26458333)" />
      <path
         style="fill:#ff0000;stroke-width:0.00390625"
         d="M 79.736328,61.374319 C 79.188126,61.361134 78.69465,61.269048 78.271484,61.100968 77.952841,60.974403 77.623613,60.757132 77.305514,60.463483 77.19017,60.357004 77.06676,60.206141 76.954188,60.034004 76.789476,59.782136 76.761277,59.742101 76.657856,59.613281 76.545189,59.472946 76.438,59.356146 76.269684,59.190302 c -0.06589,-0.06492 -0.118689,-0.118036 -0.117334,-0.118036 0.0052,0 0.174896,0.156923 0.238482,0.220502 0.134206,0.134193 0.299017,0.320832 0.474471,0.53731 0.174433,0.215218 0.298685,0.353526 0.461471,0.513672 0.134227,0.132051 0.231209,0.216354 0.360726,0.313565 0.454399,0.341059 0.948939,0.519522 1.625,0.586407 0.155572,0.01539 0.183674,0.01712 0.767578,0.04725 0.248145,0.0128 0.465234,0.02438 0.482422,0.02573 0.01962,0.0015 0.0298,0.0011 0.02734,-0.0012 -0.0021,-0.002 -0.05312,-0.01706 -0.113282,-0.03341 -1.08863,-0.295873 -1.342214,-0.370119 -1.59375,-0.466628 -0.103116,-0.03956 -0.12957,-0.05204 -0.18387,-0.08675 -0.07193,-0.04597 -0.160945,-0.111727 -0.156828,-0.115844 9e-4,-9e-4 0.03662,0.01226 0.07937,0.02925 0.543561,0.216014 1.129423,0.391216 1.666418,0.498341 0.265349,0.05293 0.578717,0.09822 0.798034,0.115332 0.03008,0.0023 0.06084,0.0053 0.06836,0.0067 0.01654,0.0029 0.0052,0.0049 -0.158203,0.02845 -0.45023,0.06475 -0.872869,0.09274 -1.259766,0.08343 z"
         id="path13932"
         transform="scale(0.26458333)" />
      <path
         style="fill:#ff0000;stroke-width:0.00390625"
         d="m 78.406455,60.470561 -0.01881,-0.02394 -0.003,-0.04362 c -0.0017,-0.02399 -0.0057,-0.05516 -0.009,-0.06926 -0.06619,-0.283288 -0.507758,-0.742316 -1.281832,-1.332512 -0.405088,-0.308861 -0.96202,-0.694173 -1.5,-1.03777 l -0.03125,-0.01996 0.0981,-6.9e-5 0.0981,-7e-5 0.101993,0.06622 c 1.584726,1.028924 2.506208,1.862424 2.5768,2.330771 0.0071,0.04724 0.0072,0.07259 2.46e-4,0.111455 -0.0082,0.04609 -0.0093,0.04674 -0.03129,0.01875 z"
         id="path13971"
         transform="scale(0.26458333)" />
      <path
         style="fill:#ff0000;stroke-width:0.00390625"
         d="M 75.763672,58.74161 C 75.406363,58.447226 74.854239,58.070411 74.3125,57.751211 73.920116,57.520013 73.558046,57.324341 73.085937,57.088344 l -0.164062,-0.08201 0.05498,-2.37e-4 0.05498,-2.37e-4 0.228223,0.114612 c 0.493641,0.247903 0.892258,0.4638 1.128613,0.611274 0.3942,0.245961 0.748799,0.497232 1.124651,0.796936 0.118811,0.09474 0.30113,0.24531 0.30113,0.248691 0,0.005 -0.0091,-0.0014 -0.05078,-0.03576 z"
         id="path14010"
         transform="scale(0.26458333)" />
      <path
         style="fill:#ff0000;stroke-width:0.00390625"
         d=""
         id="path14049"
         transform="scale(0.26458333)" />
      <path
         style="fill:#ff0000;stroke-width:0.00390625"
         d="m 75.285156,57.768741 c -0.498316,-0.314845 -1.18991,-0.72205 -1.849609,-1.089037 -1.703174,-0.947466 -3.509304,-1.807493 -4.962891,-2.363186 -0.0709,-0.0271 -0.135058,-0.05164 -0.142578,-0.05453 l -0.01367,-0.0052 -0.0011,-0.03922 -0.0011,-0.03921 0.03041,0.0117 c 1.137297,0.437626 2.300417,0.955088 3.551891,1.580207 0.968807,0.483925 1.824226,0.946496 2.69336,1.456446 0.242033,0.142009 0.654022,0.390651 0.764648,0.461478 l 0.02637,0.01688 v 0.06057 c 0,0.03332 -0.0013,0.06042 -0.0029,0.06024 -0.0016,-1.84e-4 -0.04336,-0.02588 -0.09277,-0.0571 z"
         id="path14088"
         transform="scale(0.26458333)" />
      <path
         style="fill:#ff0000;stroke-width:0.00390625"
         d=""
         id="path14127"
         transform="scale(0.26458333)" />
      <path
         style="fill:#ff0000;stroke-width:0.00390625"
         d="m 72.804687,56.950608 c -1.253395,-0.606338 -2.786423,-1.1968 -4.319451,-1.663684 l -0.170783,-0.05201 v -0.02468 c 0,-0.01485 0.0017,-0.02468 0.0042,-0.02468 0.0072,0 0.258597,0.07621 0.452873,0.137289 1.346905,0.423434 2.619082,0.914356 3.822266,1.47498 0.127376,0.05935 0.307203,0.14503 0.384765,0.183322 l 0.04883,0.02411 -0.05469,8.2e-5 -0.05469,8.2e-5 -0.113282,-0.0548 z"
         id="path14166"
         transform="scale(0.26458333)" />
      <path
         style="fill:#ff0000;stroke-width:0.00390625"
         d="m 75.471611,57.885742 -0.09071,-0.05762 -2e-5,-0.06175 c -1.5e-5,-0.04834 0.001,-0.06113 0.0049,-0.05887 0.02539,0.01501 0.347011,0.218595 0.364151,0.230502 0.0066,0.0046 -0.0061,0.0054 -0.08993,0.0054 h -0.09764 z"
         id="path14205"
         transform="scale(0.26458333)" />
      <path
         style="fill:#ff0000;stroke-width:0.00390625"
         d="m 67.941406,55.126579 c -0.483367,-0.140063 -1.118244,-0.304315 -1.644531,-0.425466 -1.009407,-0.232365 -1.989186,-0.403349 -2.885615,-0.503579 -0.124449,-0.01391 -0.147383,-0.01846 -0.141455,-0.02805 0.0012,-0.0019 0.04422,-0.0035 0.09565,-0.0035 0.08206,0 0.107983,0.0017 0.211683,0.01378 1.333948,0.155493 2.810134,0.456029 4.282237,0.87182 0.08809,0.02488 0.164111,0.04606 0.168945,0.04707 0.0081,0.0017 0.0088,0.004 0.0088,0.02873 0,0.01479 -4.39e-4,0.02676 -9.76e-4,0.02661 -5.37e-4,-1.52e-4 -0.04316,-0.0125 -0.09473,-0.02744 z"
         id="path14281"
         transform="scale(0.26458333)" />
      <path
         style="fill:#ff0000;stroke-width:0.00390625"
         d="m 67.822266,54.074586 c -0.685874,-0.251214 -1.173424,-0.407843 -1.601079,-0.514357 -0.06956,-0.01732 -0.141048,-0.03665 -0.158867,-0.04293 -0.01916,-0.0068 -0.04033,-0.01143 -0.05181,-0.01143 -0.01068,0 -0.03675,-0.0037 -0.05793,-0.0082 -0.02118,-0.0045 -0.04643,-0.0097 -0.05609,-0.01146 -0.0097,-0.0018 -0.05449,-0.0103 -0.09961,-0.01896 -0.435809,-0.08361 -0.883571,-0.126219 -1.482422,-0.141063 -0.739366,-0.01833 -2.414626,0.02392 -3.255859,0.08211 -0.03008,0.0021 -0.06216,0.0038 -0.07129,0.0038 l -0.0166,3.8e-5 v -0.04883 c 0,-0.04662 3.62e-4,-0.04883 0.008,-0.04883 0.0044,0 0.06373,-0.0043 0.131836,-0.0096 0.715231,-0.05573 1.369223,-0.08054 2.119923,-0.08041 0.705336,1.23e-4 1.216953,0.0183 1.933593,0.06869 0.104044,0.0073 0.162981,0.01349 0.226563,0.02374 0.667486,0.107599 1.525987,0.350529 2.540021,0.718748 l 0.106429,0.03865 v 0.03809 c 0,0.02806 -0.0013,0.038 -0.0049,0.03774 -0.0027,-1.9e-4 -0.09717,-0.03415 -0.209961,-0.07546 z"
         id="path14320"
         transform="scale(0.26458333)" />
      <path
         style="fill:#ff0000;stroke-width:0.00390625"
         d="m 68.302734,54.252302 c -0.0032,-0.0018 -0.06431,-0.02493 -0.135742,-0.05134 l -0.129883,-0.04802 v -0.03865 c 0,-0.03827 8.7e-5,-0.03862 0.0088,-0.03597 0.04082,0.01243 0.259867,0.09751 0.263672,0.102419 0.0053,0.0068 0.0071,0.07521 0.002,0.075 -0.0016,-6.6e-5 -0.0056,-0.0016 -0.0088,-0.0034 z"
         id="path14359"
         transform="scale(0.26458333)" />
      <path
         style="fill:#ff0000;stroke-width:0.00390625"
         d="m 68.191406,55.199143 c -0.0666,-0.01996 -0.128564,-0.03824 -0.137695,-0.04062 l -0.0166,-0.0043 v -0.02533 c 0,-0.01393 0.0013,-0.02535 0.0029,-0.02537 0.0016,-2e-5 0.06401,0.01782 0.138672,0.03965 l 0.135742,0.03968 v 0.02676 c 0,0.01472 -4.39e-4,0.02656 -9.76e-4,0.02631 -5.38e-4,-2.46e-4 -0.05547,-0.01678 -0.122071,-0.03674 z"
         id="path14398"
         transform="scale(0.26458333)" />
      <path
         style="fill:#ff0000;stroke-width:0.00390625"
         d="m 52.71776,55.907178 9.9e-4,-0.555118 0.05664,-0.02284 c 0.872287,-0.351698 1.8836,-0.6939 2.830078,-0.957623 1.256541,-0.350118 2.346881,-0.591076 3.359375,-0.7424 0.230745,-0.03449 0.609037,-0.08423 0.759765,-0.09991 0.02256,-0.0023 0.04497,-0.0051 0.0498,-0.0061 l 0.0088,-0.0018 v 0.341871 0.341871 h -0.0081 c -0.01156,0 -0.487879,0.09549 -0.652098,0.13073 -1.465169,0.314412 -2.928292,0.746718 -4.419922,1.305947 -0.608467,0.228121 -1.322153,0.521736 -1.899427,0.781435 l -0.08693,0.03911 z"
         id="path14437"
         transform="scale(0.26458333)" />
      <path
         style="fill:#ff0000;stroke-width:0.00390625"
         d="m 52.716797,55.303014 v -0.04269 l 0.118164,-0.04684 c 2.01775,-0.799787 4.219502,-1.385017 6.394548,-1.699685 0.192811,-0.0279 0.536716,-0.07435 0.550407,-0.07435 0.0018,0 0.0033,0.0175 0.0033,0.03889 v 0.03889 l -0.0127,0.0022 c -0.007,0.0012 -0.05137,0.0066 -0.09863,0.01197 -1.199844,0.136872 -2.43013,0.386989 -3.941406,0.801286 -0.995783,0.272982 -2.014235,0.614365 -2.933492,0.983301 -0.04076,0.01636 -0.07548,0.02975 -0.07715,0.02975 -0.0017,0 -0.003,-0.01921 -0.003,-0.04269 z"
         id="path14476"
         transform="scale(0.26458333)" />
      <path
         style="fill:#ff0000;stroke-width:0.00390625"
         d="m 52.717602,56.493847 0.0011,-0.02764 0.0957,-0.04291 c 1.952019,-0.875224 3.994954,-1.561109 6.007813,-2.017033 0.262065,-0.05936 0.861996,-0.1838 0.942382,-0.195474 l 0.01855,-0.0027 v 0.02381 c 0,0.02155 -8.35e-4,0.02398 -0.0088,0.02562 -0.0048,10e-4 -0.09228,0.01874 -0.194336,0.03943 -2.237971,0.453674 -4.523523,1.189207 -6.719864,2.162575 -0.07688,0.03407 -0.14068,0.06195 -0.141773,0.06195 -0.0011,0 -0.0015,-0.01244 -8.39e-4,-0.02764 z"
         id="path14515"
         transform="scale(0.26458333)" />
      <path
         style="fill:#ff0000;stroke-width:0.0078125"
         d="m 59.785156,53.479205 c 0,-0.03576 9.1e-4,-0.03724 0.02539,-0.04136 0.07998,-0.01345 0.593017,-0.06876 0.86914,-0.0937 0.120313,-0.01087 0.233692,-0.02149 0.251954,-0.0236 l 0.0332,-0.0038 v 0.04625 0.04625 l -0.0332,0.0041 c -0.01826,0.0023 -0.131641,0.01139 -0.251954,0.02028 -0.240698,0.01778 -0.570775,0.04739 -0.767578,0.06886 l -0.126953,0.01385 z"
         id="path14554"
         transform="scale(0.26458333)" />
      <path
         style="fill:#ff0000;stroke-width:0.0078125"
         d="m 59.785156,54.230469 c 0,-0.01289 0.0014,-0.02344 0.0031,-0.02344 0.0017,0 0.06413,-0.01054 0.138671,-0.02343 0.139381,-0.0241 0.182981,-0.0278 0.200018,-0.01698 0.01628,0.01034 -0.03733,0.03079 -0.116853,0.04459 -0.03995,0.0069 -0.105548,0.01937 -0.145767,0.02765 -0.04022,0.0083 -0.0745,0.01505 -0.07617,0.01505 -0.0017,0 -0.003,-0.01055 -0.003,-0.02344 z"
         id="path14593"
         transform="scale(0.26458333)" />
      <path
         style="fill:#ff0000;stroke-width:0.00552427"
         d="m 49.32346,56.939198 v -0.04682 l 0.08701,-0.04926 c 0.648115,-0.366937 1.393998,-0.745339 2.122702,-1.076892 0.360294,-0.16393 0.855893,-0.375634 1.153192,-0.492606 l 0.029,-0.01141 -1.06e-4,0.04273 -1.06e-4,0.04273 -0.180814,0.07396 c -1.024547,0.419079 -2.072822,0.926157 -3.056197,1.478364 -0.0714,0.0401 -0.135414,0.07585 -0.14225,0.07946 -0.01243,0.0066 -0.01243,0.0065 -0.01243,-0.04026 z"
         id="path14632"
         transform="scale(0.26458333)" />
      <path
         style="fill:#ff0000;stroke-width:0.00552427"
         d=""
         id="path14671"
         transform="scale(0.26458333)" />
      <path
         style="fill:#ff0000;stroke-width:0.00552427"
         d="m 49.32346,58.262583 v -0.02125 l 0.100818,-0.05991 c 0.943233,-0.56047 1.906468,-1.069112 2.919497,-1.541657 0.203514,-0.09493 0.363868,-0.167907 0.368958,-0.167907 0.0014,0 0.0025,0.01181 0.0024,0.02624 l -2.03e-4,0.02624 -0.122712,0.05499 c -1.006186,0.450929 -2.200161,1.072455 -3.193386,1.662323 -0.03905,0.02319 -0.07199,0.04216 -0.0732,0.04216 -0.0012,0 -0.0022,-0.0096 -0.0022,-0.02125 z"
         id="path14710"
         transform="scale(0.26458333)" />
      <path
         style="fill:#ff0000;stroke-width:0.00552427"
         d="m 42.672237,62.462793 v -0.06983 l 0.131904,-0.155598 c 0.42662,-0.503254 0.745874,-0.848864 1.24887,-1.35197 0.362381,-0.36246 0.566791,-0.557672 0.867857,-0.828807 1.292877,-1.16434 2.726186,-2.199634 4.29625,-3.103224 l 0.106342,-0.0612 -5e-6,0.04811 -6e-6,0.04811 -0.029,0.01606 c -0.01595,0.0088 -0.08866,0.05078 -0.161579,0.09321 -2.20243,1.281612 -4.129742,2.815745 -5.68121,4.522221 -0.220886,0.242954 -0.482435,0.547233 -0.69052,0.803331 l -0.08891,0.10942 z"
         id="path14749"
         transform="scale(0.26458333)" />
      <path
         style="fill:#ff0000;stroke-width:0.00390625"
         d="m 44.544922,61.862297 v -0.02368 l 0.09668,-0.0915 c 1.213701,-1.14866 2.619765,-2.223678 4.202477,-3.21304 0.194147,-0.121362 0.470807,-0.289938 0.475834,-0.289938 0.0013,0 0.0023,0.01011 0.0022,0.02246 l -1.56e-4,0.02246 -0.104246,0.0625 c -0.05734,0.03437 -0.16581,0.100406 -0.241053,0.146736 -1.643733,1.012082 -3.108427,2.126038 -4.334141,3.296279 -0.04408,0.04208 -0.08407,0.07987 -0.08887,0.08396 l -0.0087,0.0074 z"
         id="path14899"
         transform="scale(0.26458333)" />
      <path
         style="fill:#ff0000;stroke-width:0.00552427"
         d="m 77.877378,127.07348 -0.048,-0.002 -2.42116,-2.43185 c -1.331638,-1.33752 -2.536794,-2.54817 -2.678124,-2.69034 l -0.256965,-0.2585 0.04742,0.002 0.04742,0.002 2.694656,2.6917 c 2.256405,2.25394 2.692061,2.69152 2.678705,2.69057 -0.0088,-6.3e-4 -0.03755,-0.002 -0.06395,-0.003 z"
         id="path15345"
         transform="scale(0.26458333)" />
      <path
         style="fill:#ff0000;stroke-width:0.00552427"
         d="m 77.95576,125.7722 c -0.02886,-0.0282 -0.238924,-0.2326 -0.4668,-0.45429 -0.840433,-0.8176 -1.918887,-1.87521 -3.181972,-3.12047 -0.236996,-0.23366 -0.449547,-0.4432 -0.472334,-0.46565 l -0.04143,-0.0408 0.03125,0.002 0.03125,0.002 0.579182,0.57187 c 1.14897,1.13447 2.038027,2.00826 2.841371,2.79258 0.192935,0.18837 0.448151,0.43754 0.567145,0.55372 l 0.216355,0.21122 -0.02577,-7e-5 c -0.02501,-7e-5 -0.0273,-0.002 -0.07825,-0.0513 z"
         id="path15384"
         transform="scale(0.26458333)" />
      <path
         style="fill:#ff0000;stroke-width:0.00390625"
         d="m 77.875699,127.07228 c -0.04437,-0.003 -0.04659,-0.003 -0.05691,-0.014 -0.0059,-0.006 -0.22865,-0.23021 -0.494993,-0.49769 -0.266343,-0.26748 -1.070291,-1.0752 -1.786552,-1.79492 -0.716261,-0.71973 -1.449186,-1.45582 -1.628721,-1.63575 l -0.326428,-0.32715 h 0.04676 0.04676 l 1.870578,1.87012 c 1.768985,1.76855 2.389352,2.39162 2.389352,2.39976 0,0.002 -0.0031,0.003 -0.0068,0.003 -0.0038,-3.3e-4 -0.02762,-0.002 -0.05301,-0.003 z"
         id="path15423"
         transform="scale(0.26458333)" />
      <path
         style="fill:#ff0000;stroke-width:0.00390625"
         d="m 77.923721,127.05187 c -0.01176,-0.0134 -0.09939,-0.10302 -0.19473,-0.19922 -0.09534,-0.0962 -0.171803,-0.17492 -0.169908,-0.17492 0.0019,0 0.09308,0.0897 0.202636,0.19922 0.136972,0.137 0.19672,0.19922 0.191284,0.19922 -0.0048,0 -0.01631,-0.01 -0.02928,-0.0243 z"
         id="path15462"
         transform="scale(0.26458333)" />
      <path
         style="fill:#ff0000;stroke-width:0.00390625"
         d="m 77.876559,127.07232 -0.04532,-0.003 -0.511371,-0.51335 c -0.609015,-0.61138 -1.912849,-1.92089 -2.971127,-2.98406 l -0.764046,-0.76758 0.04541,-10e-4 0.04541,-0.001 1.896002,1.89564 c 1.786023,1.78568 2.364029,2.36625 2.364029,2.37452 0,0.002 -0.0031,0.003 -0.0068,0.003 -0.0038,-3.3e-4 -0.02723,-0.002 -0.05215,-0.003 z"
         id="path15501"
         transform="scale(0.26458333)" />
      <path
         style="fill:#ff0000;stroke-width:0.00390625"
         d="m 73.81102,121.69046 -0.02101,-0.001 -0.363755,-0.36009 c -0.629531,-0.62318 -1.212055,-1.20066 -1.921654,-1.90501 l -0.686805,-0.68172 0.0318,-10e-4 0.0318,-0.001 0.66477,0.66138 c 0.657013,0.65366 1.286635,1.27864 1.960668,1.94622 0.190674,0.18885 0.34668,0.34392 0.34668,0.34461 0,6.8e-4 -0.0048,9.1e-4 -0.01074,5.2e-4 -0.0059,-4e-4 -0.0202,-0.001 -0.03175,-0.002 z"
         id="path15540"
         transform="scale(0.26458333)" />
      <path
         style="fill:#ff0000;stroke-width:0.00390625"
         d="m 72.501723,121.69046 -0.03343,-0.001 -1.376722,-1.38303 -1.376723,-1.38303 -0.0011,-0.0416 -0.0011,-0.0416 0.100714,0.10043 c 0.09362,0.0934 2.747184,2.74745 2.75078,2.75133 8.95e-4,9.7e-4 -0.0053,0.001 -0.01367,9.6e-4 -0.0084,-4.5e-4 -0.03034,-0.001 -0.04873,-0.002 z"
         id="path15579"
         transform="scale(0.26458333)" />
      <path
         style="fill:#ff0000;stroke-width:0.00390625"
         d="m 68.730469,117.93484 c -0.539258,-0.54166 -1.139362,-1.14461 -1.333566,-1.33988 l -0.353096,-0.35505 0.03367,0.001 0.03367,0.001 1.298691,1.296 c 1.248056,1.24547 1.298786,1.29665 1.301116,1.3125 0.0013,0.009 0.0019,0.0283 0.0012,0.0427 l -0.0012,0.0263 z"
         id="path15618"
         transform="scale(0.26458333)" />
      <path
         style="fill:#ff0000;stroke-width:0.00390625"
         d="m 69.564083,117.49121 -1.250631,-1.24902 0.03058,-10e-4 0.03058,-0.001 0.58418,0.58327 c 0.3213,0.32081 0.884965,0.88339 1.252589,1.25018 l 0.668409,0.6669 h -0.03254 -0.03254 z"
         id="path15657"
         transform="scale(0.26458333)" />
      <path
         style="fill:#ff0000;stroke-width:0.00390625"
         d="m 67.245693,115.16891 c -0.586744,-0.58919 -1.076032,-1.08136 -1.087306,-1.09371 l -0.0205,-0.0225 h 0.02699 0.02699 l 1.090938,1.09375 1.090937,1.09375 -0.03062,-3e-5 -0.03062,-4e-5 -1.066807,-1.07125 z"
         id="path15696"
         transform="scale(0.26458333)" />
      <path
         style="fill:#ff0000;stroke-width:0.00390625"
         d="m 67.046067,116.23692 c -0.0047,-0.001 -0.496928,-0.49297 -1.09375,-1.09239 l -1.08513,-1.08984 0.01723,-10e-4 0.01723,-0.001 0.103865,0.10291 c 0.05713,0.0566 0.231307,0.2285 0.387069,0.38201 0.304279,0.29986 0.748335,0.74093 1.341925,1.33289 l 0.371222,0.3702 -0.02552,-3.9e-4 c -0.01404,-2.1e-4 -0.0294,-0.002 -0.03414,-0.003 z"
         id="path15735"
         transform="scale(0.26458333)" />
      <path
         style="fill:#ff0000;stroke-width:0.353553"
         d="m 172.3341,114.96028 c -11.77593,-11.67881 -18.13592,-18.249321 -19.38939,-20.031195 -4.09337,-5.818958 -5.71059,-10.4609 -5.72765,-16.440233 -0.0205,-7.166033 1.46901,-11.193035 5.709,-15.435234 2.27046,-2.271641 3.29779,-2.991579 6.38398,-4.473766 5.29277,-2.541939 10.94218,-3.655317 14.77358,-2.911564 3.49977,0.679376 10.88688,4.58435 12.6263,6.674517 0.60214,0.723552 1.13467,0.918711 2.84431,1.042376 2.0788,0.150366 2.12609,0.132689 4.03213,-1.507147 4.1168,-3.541827 10.16188,-5.756043 16.60113,-6.080731 6.50691,-0.328099 10.64509,1.191098 15.43871,5.667814 5.4987,5.135182 7.87917,10.387238 7.89059,17.409122 0.007,4.254155 -0.87728,7.581803 -3.2961,12.404796 -3.30212,6.584246 -3.58995,6.901472 -18.97254,20.910505 -6.31977,5.75545 -13.71787,12.64377 -16.44023,15.30737 l -4.94975,4.84292 z"
         id="path23218"
         transform="scale(0.26458333)" />
      <path
         style="fill:#ff0000;stroke-width:0.00390625"
         d="m 189.34761,132.14665 c -0.27718,-0.27831 -0.90289,-0.90681 -1.39048,-1.39665 -0.48758,-0.48984 -1.09664,-1.10156 -1.35346,-1.35938 l -0.46695,-0.46875 0.13437,-0.001 0.13437,-0.001 0.11755,0.11626 c 0.0647,0.064 0.8407,0.83345 1.72454,1.71001 0.88383,0.87657 1.60809,1.5942 1.60945,1.59475 0.001,5.5e-4 0.31271,-0.30253 0.69188,-0.6735 l 0.6894,-0.6745 0.001,0.1403 0.001,0.1403 -0.38012,0.37813 c -0.20907,0.20798 -0.52164,0.5183 -0.69458,0.68962 l -0.31446,0.31148 z"
         id="path23333"
         transform="scale(0.26458333)" />
      <path
         style="fill:#ff0000;stroke-width:0.00390625"
         d="m 185.15458,127.93512 -0.98075,-0.9848 v -0.12156 -0.12156 l 0.0322,0.0315 c 0.0482,0.0472 1.94326,1.92539 2.08105,2.06258 l 0.11913,0.1186 h -0.13545 -0.13546 z"
         id="path23372"
         transform="scale(0.26458333)" />
      <path
         style="fill:#ff0000;stroke-width:0.0220971"
         d="m 191.25281,131.18901 c -0.007,-0.0195 -0.0136,-0.0682 -0.0136,-0.10826 0,-0.0675 0.13913,-0.20899 1.87273,-1.90468 2.29613,-2.24593 2.48011,-2.4243 3.54203,-3.43415 2.62411,-2.49546 6.75452,-6.34317 10.83352,-10.09206 l 1.25541,-1.1538 h 0.14733 0.14733 l -0.0659,0.0632 c -0.0362,0.0348 -0.39401,0.36017 -0.79507,0.72317 -1.63727,1.48185 -4.61923,4.20633 -6.93849,6.33936 -3.92832,3.6129 -3.89918,3.5853 -6.31977,5.987 -3.56427,3.53646 -3.65019,3.62038 -3.66559,3.58025 z"
         id="path23411"
         transform="scale(0.26458333)" />
      <path
         style="fill:#ff0000;stroke-width:0.0220971"
         d="m 178.3972,121.13283 c -9.08924,-9.13046 -9.15049,-9.19085 -12.55855,-12.38203 -0.66842,-0.62589 -1.26007,-1.18002 -1.31477,-1.23139 l -0.0995,-0.0934 0.16459,-5.1e-4 0.16459,-5.1e-4 2.9953,2.98955 c 1.64741,1.64425 5.41658,5.38961 8.37593,8.32301 2.95935,2.93341 5.98011,5.93102 6.71279,6.66136 l 1.33215,1.32788 -0.006,0.096 -0.006,0.096 z"
         id="path23450"
         transform="scale(0.26458333)" />
      <path
         style="fill:#ff0000;stroke-width:0.0220971"
         d="m 164.14821,107.16674 c -4.49534,-4.20275 -6.97938,-6.71849 -9.12701,-9.243499 -1.25716,-1.478058 -2.50675,-3.12677 -3.32864,-4.391796 l -0.16151,-0.248593 h 0.14182 0.14183 l 0.36432,0.546903 c 0.50876,0.763744 0.82804,1.215345 1.10089,1.557169 0.78148,0.978999 2.52098,2.868447 5.11152,5.552126 1.19852,1.24162 3.16562,3.24996 4.78392,4.88424 0.60192,0.60785 1.2036,1.2169 1.33709,1.35344 l 0.24269,0.24826 -0.16536,-10e-6 h -0.16535 z"
         id="path23489"
         transform="scale(0.26458333)" />
      <path
         style="fill:#ff0000;stroke-width:0.0220971"
         d=""
         id="path23528"
         transform="scale(0.26458333)" />
      <path
         style="fill:#ff0000;stroke-width:0.0220971"
         d="m 151.42963,93.125507 c -1.05931,-1.652624 -1.9618,-3.379636 -2.64297,-5.057567 -0.96581,-2.3791 -1.55983,-4.828012 -1.78488,-7.35833 -0.0761,-0.856025 -0.11559,-2.017285 -0.0956,-2.811854 l 0.0132,-0.524806 h 0.15049 0.15049 l -0.0131,0.535854 c -0.0229,0.93836 0.0405,2.431497 0.14781,3.480156 0.40639,3.972654 1.69001,7.481048 4.20005,11.479572 l 0.26009,0.41432 h -0.14243 -0.14242 z"
         id="path23567"
         transform="scale(0.26458333)" />
      <path
         style="fill:#ff0000;stroke-width:0.0220971"
         d="m 146.92592,77.1796 c 0.006,-0.106342 0.0258,-0.41211 0.0435,-0.679485 0.15338,-2.312701 0.6075,-4.749935 1.36076,-7.303087 0.14351,-0.486432 0.25309,-0.735879 0.62127,-1.414214 1.42522,-2.625822 3.52665,-5.026631 6.11483,-6.985964 1.29448,-0.979965 2.86597,-1.93753 4.37113,-2.663484 l 0.42681,-0.205853 0.42393,1.14e-4 0.42393,1.14e-4 -0.46404,0.207049 c -0.95354,0.42546 -2.25138,1.065588 -2.96101,1.460444 -1.58713,0.883129 -2.52877,1.621599 -4.2115,3.302821 -1.07653,1.075573 -1.63667,1.707105 -2.32361,2.619808 -2.29728,3.052269 -3.32685,6.32174 -3.51229,11.153504 l -0.0269,0.701583 h -0.14906 -0.14905 z"
         id="path23606"
         transform="scale(0.26458333)" />
      <path
         style="fill:#ff0000;stroke-width:0.0220971"
         d="m 160.09339,57.825486 c 2.96399,-1.35647 6.51303,-2.249758 9.77797,-2.461097 0.20053,-0.01298 0.40189,-0.02604 0.44746,-0.02903 0.0789,-0.0052 0.0829,-0.0022 0.0829,0.06233 v 0.06776 l -0.37946,0.02782 c -2.65854,0.194881 -5.96294,1.037972 -8.93841,2.280563 l -0.36801,0.153683 -0.42169,-4.5e-4 -0.4217,-4.5e-4 z"
         id="path23645"
         transform="scale(0.26458333)" />
      <path
         style="fill:#ff0000;stroke-width:0.0220971"
         d="m 186.66801,62.275115 c -0.34141,-0.381151 -0.74611,-0.739081 -1.32996,-1.176268 -2.96191,-2.217852 -8.39518,-4.858584 -11.15776,-5.423005 -0.97241,-0.198672 -2.32503,-0.286293 -3.4969,-0.226525 l -0.28177,0.01437 4e-5,-0.06933 3e-5,-0.06933 0.5469,-0.01666 c 1.05824,-0.03223 2.53271,0.01734 3.05141,0.102584 1.4021,0.23043 3.74392,1.113378 6.26803,2.363266 3.55445,1.760083 6.34568,3.662506 6.65344,4.534782 0.0353,0.100192 0.0411,0.236804 0.01,0.236804 -0.0115,0 -0.13007,-0.12181 -0.26343,-0.270689 z"
         id="path23684"
         transform="scale(0.26458333)" />
      <path
         style="fill:#ff0000;stroke-width:0.0220971"
         d="m 189.96866,63.406391 c -1.68257,-0.124067 -2.20144,-0.232672 -2.70161,-0.565473 -0.10164,-0.06763 -0.18104,-0.126728 -0.17644,-0.131328 0.005,-0.0046 0.0823,0.02001 0.17262,0.05468 0.72625,0.278733 1.56534,0.485152 2.25922,0.555774 0.33435,0.03403 1.15271,0.01665 1.39638,-0.02965 0.4252,-0.0808 0.70689,-0.172727 1.03607,-0.338106 0.34413,-0.172897 0.50806,-0.303287 0.99686,-0.792921 0.467,-0.467792 0.86105,-0.82042 1.34897,-1.20717 1.89163,-1.499401 4.34561,-2.788409 7.11974,-3.7398 l 0.35908,-0.123146 v 0.128767 0.128767 l -0.35908,0.127509 c -2.2196,0.788181 -4.09257,1.711237 -5.82811,2.872266 -0.80079,0.535712 -1.36479,0.966503 -2.20889,1.687181 -0.88348,0.75429 -1.20077,0.991361 -1.55866,1.164585 -0.38052,0.184174 -0.52648,0.213387 -1.10485,0.221121 -0.26738,0.0036 -0.60546,-0.0023 -0.7513,-0.01305 z"
         id="path23760"
         transform="scale(0.26458333)" />
      <path
         style="fill:#ff0000;stroke-width:0.0220971"
         d="m 227.64295,63.490493 c -0.71923,-0.797772 -1.58548,-1.659196 -2.47222,-2.458436 -2.8681,-2.585075 -5.46448,-4.049686 -8.441,-4.761535 -1.0672,-0.255227 -2.06471,-0.396442 -3.4597,-0.48978 -0.52725,-0.03528 -2.33552,-0.03537 -2.9831,-1.49e-4 -2.84952,0.154975 -5.343,0.589196 -7.8939,1.374661 -0.27852,0.08576 -0.5305,0.165091 -0.55994,0.176286 -0.0529,0.02012 -0.0535,0.01886 -0.0535,-0.110889 v -0.131245 l 0.31488,-0.09887 c 2.70294,-0.848724 5.36361,-1.328748 8.15935,-1.47207 0.57749,-0.0296 2.12664,-0.02936 2.68005,4.24e-4 3.28267,0.176666 6.00177,0.902325 8.13204,2.170238 1.72318,1.025616 3.32146,2.204537 4.79915,3.539931 0.42654,0.38547 1.35558,1.311222 1.74276,1.736593 l 0.31176,0.342505 4.4e-4,0.237544 c 2.4e-4,0.130649 -0.003,0.237543 -0.006,0.237543 -0.004,0 -0.12554,-0.131736 -0.27069,-0.292748 z"
         id="path23799"
         transform="scale(0.26458333)" />
      <path
         style="fill:#ff0000;stroke-width:0.0220971"
         d=""
         id="path23912"
         transform="scale(0.26458333)" />
      <path
         style="fill:#ff0000;stroke-width:0.0220971"
         d="m 208.76223,114.48754 c 0,-0.01 0.69316,-0.64433 3.49134,-3.19566 6.76664,-6.1697 8.83558,-8.09394 10.85254,-10.09351 l 0.85362,-0.84625 0.19599,0.006 0.196,0.006 -0.86178,0.86295 c -1.87392,1.87645 -3.23921,3.13851 -10.06523,9.30421 -1.56171,1.41064 -3.1873,2.8796 -3.61242,3.26436 l -0.77294,0.69957 h -0.13856 c -0.0762,0 -0.13856,-0.004 -0.13856,-0.009 z"
         id="path24062"
         transform="scale(0.26458333)" />
      <path
         style="fill:#ff0000;stroke-width:0.0220971"
         d="m 224.00201,100.33735 c -0.005,-0.009 0.18451,-0.22042 0.422,-0.469566 2.11381,-2.217496 3.20609,-3.679384 4.45777,-5.966213 0.5748,-1.050174 1.71877,-3.332811 2.19269,-4.375223 0.4768,-1.048768 0.97967,-2.303429 1.24213,-3.099117 l 0.0711,-0.215447 h 0.16539 c 0.14727,0 0.16411,0.0042 0.15363,0.03867 -0.23343,0.767099 -0.25406,0.817666 -0.90845,2.226282 -1.73161,3.727382 -2.45322,5.160737 -3.34296,6.640174 -1.04917,1.744559 -2.17475,3.203692 -3.78839,4.91108 l -0.30803,0.32593 h -0.17351 c -0.0954,0 -0.17793,-0.007 -0.18333,-0.0166 z"
         id="path24101"
         transform="scale(0.26458333)" />
      <path
         style="fill:#ff0000;stroke-width:0.0220971"
         d="m 232.49904,85.864635 c 0.35752,-1.138675 0.62779,-2.317596 0.79055,-3.44849 0.2819,-1.95862 0.31348,-4.260007 0.088,-6.413215 -0.26965,-2.574909 -0.9597,-5.015976 -2.01293,-7.120786 l -0.17415,-0.348029 h 0.12917 0.12917 l 0.15665,0.325932 c 1.24134,2.582669 1.93752,5.224166 2.18538,8.291932 0.0553,0.684936 0.0555,2.569359 2.4e-4,3.270369 -0.15274,1.938326 -0.45657,3.648903 -0.95963,5.402737 l -0.10775,0.375651 -0.16712,0.0064 -0.16713,0.0064 0.10955,-0.34891 z"
         id="path24140"
         transform="scale(0.26458333)" />
      <path
         style="fill:#ff0000;stroke-width:0.0220971"
         d="m 231.12183,68.396008 c -0.0383,-0.07596 -0.15895,-0.297206 -0.26819,-0.49166 -0.74459,-1.32538 -1.64932,-2.609917 -2.69833,-3.831084 l -0.23491,-0.273453 v -0.242165 -0.242165 l 0.17952,0.206259 c 0.91099,1.046684 1.8332,2.331428 2.56695,3.576064 0.28806,0.488637 0.76697,1.378339 0.76697,1.424861 0,0.0063 -0.0546,0.01145 -0.12122,0.01145 h -0.12121 z"
         id="path24179"
         transform="scale(0.26458333)" />
    </g>
  </g>
</svg>
