<?xml version="1.0" encoding="UTF-8" standalone="no"?>
<!-- Created with Inkscape (http://www.inkscape.org/) -->

<svg
   width="102mm"
   height="47mm"
   viewBox="0 0 102 47"
   version="1.1"
   id="svg5"
   inkscape:version="1.1.2 (b8e25be833, 2022-02-05)"
   sodipodi:docname="vidas0.svg"
   xmlns:inkscape="http://www.inkscape.org/namespaces/inkscape"
   xmlns:sodipodi="http://sodipodi.sourceforge.net/DTD/sodipodi-0.dtd"
   xmlns="http://www.w3.org/2000/svg"
   xmlns:svg="http://www.w3.org/2000/svg">
  <sodipodi:namedview
     id="namedview7"
     pagecolor="#ffffff"
     bordercolor="#666666"
     borderopacity="1.0"
     inkscape:pageshadow="2"
     inkscape:pageopacity="0.0"
     inkscape:pagecheckerboard="0"
     inkscape:document-units="mm"
     showgrid="false"
     inkscape:zoom="0.74029882"
     inkscape:cx="84.425367"
     inkscape:cy="386.33048"
     inkscape:window-width="1920"
     inkscape:window-height="1017"
     inkscape:window-x="-8"
     inkscape:window-y="-8"
     inkscape:window-maximized="1"
     inkscape:current-layer="layer1" />
  <defs
     id="defs2" />
  <g
     inkscape:label="Capa 1"
     inkscape:groupmode="layer"
     id="layer1">
    <path
       style="fill:#000000;stroke-width:0.264583"
       d="m 6.2632786,43.550072 c -1.172817,-0.35354 -2.303572,-1.30301 -2.866949,-2.40732 -0.514716,-1.00893 -0.526991,-1.48677 -0.457031,-17.7917 l 0.07189,-16.7549195 0.763035,-1.00024 c 0.41967,-0.55013 1.253107,-1.22279 1.852084,-1.49479 1.049696,-0.47669 2.701774,-0.49477 45.7202674,-0.50037 30.904084,-0.004 44.860294,0.0807 45.376034,0.2756 1.05892,0.40009 2.18644,1.52946 2.75676,2.7613 0.45987,0.99327 0.48999,2.04229 0.48999,17.0656195 0,15.00397 -0.0306,16.07363 -0.48845,17.06563 -0.59115,1.28084 -1.42876,2.08692 -2.73619,2.6332 -0.87215,0.36441 -5.86875,0.407 -45.372424,0.38676 -24.415796,-0.0125 -44.7148524,-0.11995 -45.1090164,-0.23877 z m 90.8049804,-2.60589 c 0.49951,-0.49951 0.80735,-1.14141 0.91991,-1.91823 0.093,-0.64212 0.13302,-7.95941 0.0888,-16.26066 -0.0751,-14.0953295 -0.11235,-15.1419295 -0.56397,-15.8309495 -1.03201,-1.57445 1.67584,-1.48734 -46.233014,-1.48734 -40.1348,0 -44.0347314,0.0376 -44.8670364,0.43255 -1.736828,0.82418 -1.681977,0.23818 -1.681977,17.9693095 v 16.04689 l 0.899583,0.89958 0.899584,0.89959 H 51.423825 96.317509 Z M 15.000663,30.913152 c -3.506973,-3.52018 -5.9638964,-6.2056 -6.3274834,-6.91595 -0.410929,-0.80284 -0.629043,-1.78279 -0.706681,-3.175 -0.204631,-3.66941 1.382075,-6.41735 4.6282474,-8.01543 1.514041,-0.74536 2.021887,-0.86221 3.683884,-0.84761 1.603809,0.0141 2.206548,0.15511 3.586869,0.83927 l 1.65912,0.82233 1.703001,-0.83838 c 4.160804,-2.04836 9.065499,-0.33789 11.145322,3.88683 1.382925,2.80912 1.082546,6.09491 -0.795387,8.70056 -0.440632,0.61138 -3.097298,3.40356 -5.903699,6.20483 -4.665686,4.65717 -5.181209,5.09323 -6.021319,5.09323 -0.844754,0 -1.380657,-0.46362 -6.651874,-5.75468 z m 17.786502,-8.40908 c 1.036783,-3.07454 -0.118123,-6.06472 -3.009067,-7.7908 -1.961967,-1.17142 -5.791,-0.46973 -7.434898,1.17417 -0.456429,0.56684 -1.335968,0.24428 -1.59903,0.13328 0.199744,-0.32319 -2.381915,-1.75321 -3.462056,-1.91768 -2.681568,-0.21216 -5.576954,1.14132 -6.714306,3.52923 -1.7839904,5.77012 2.52425,8.45779 5.996905,11.94489 l 4.953576,4.9753 1.911974,-1.89921 c 8.268851,-7.66253 7.635476,-6.43555 9.356902,-10.14918 z m 10.926915,8.95544 c -3.506973,-3.52018 -5.963896,-6.2056 -6.327484,-6.91595 -0.410927,-0.80284 -0.629041,-1.78279 -0.706681,-3.175 -0.204629,-3.66941 1.382075,-6.41735 4.628248,-8.01543 1.514041,-0.74536 2.021888,-0.86221 3.683884,-0.84761 1.603809,0.0141 2.206548,0.15511 3.586869,0.83927 l 1.65912,0.82233 1.702997,-0.83838 c 4.16081,-2.04836 9.0655,-0.33789 11.14533,3.88683 1.38292,2.80912 1.08254,6.09491 -0.79539,8.70056 -0.44063,0.61138 -3.0973,3.40356 -5.9037,6.20483 -4.665687,4.65717 -5.181209,5.09323 -6.021319,5.09323 -0.844754,0 -1.380657,-0.46362 -6.651874,-5.75468 z m 17.786503,-8.40908 c 1.03678,-3.07454 -0.11812,-6.06472 -3.00907,-7.7908 -1.96196,-1.17142 -5.791,-0.46973 -7.434896,1.17417 -0.456428,0.56684 -1.335969,0.24428 -1.599031,0.13328 0.199745,-0.32319 -2.381914,-1.75321 -3.462054,-1.91768 -2.681568,-0.21216 -5.576954,1.14132 -6.714308,3.52923 -1.78399,5.77012 2.524252,8.45779 5.996906,11.94489 l 4.953577,4.9753 1.911976,-1.89921 c 8.26885,-7.66253 7.63547,-6.43555 9.3569,-10.14918 z m 11.699056,8.14103 c -3.50698,-3.52018 -5.9639,-6.2056 -6.32749,-6.91595 -0.41092,-0.80284 -0.62904,-1.78279 -0.70668,-3.175 -0.20463,-3.66941 1.38208,-6.41735 4.62825,-8.01543 1.51404,-0.74536 2.02189,-0.86221 3.68388,-0.84761 1.60381,0.0141 2.20655,0.15511 3.58687,0.83927 l 1.65912,0.82233 1.703,-0.83838 c 4.16081,-2.04836 9.0655,-0.33789 11.14533,3.88683 1.38292,2.80912 1.08254,6.09491 -0.79539,8.70056 -0.44063,0.61138 -3.0973,3.40356 -5.9037,6.20483 -4.66569,4.65717 -5.18121,5.09323 -6.02132,5.09323 -0.84475,0 -1.38066,-0.46362 -6.65187,-5.75468 z m 17.7865,-8.40908 c 1.03678,-3.07454 -0.11812,-6.06472 -3.00907,-7.7908 -1.96196,-1.17142 -5.791,-0.46973 -7.4349,1.17417 -0.45642,0.56684 -1.33597,0.24428 -1.59903,0.13328 0.19975,-0.32319 -2.38191,-1.75321 -3.46205,-1.91768 -2.68157,-0.21216 -5.57696,1.14132 -6.71431,3.52923 -1.78399,5.77012 2.52425,8.45779 5.99691,11.94489 l 4.95357,4.9753 1.91198,-1.89921 c 8.26885,-7.66253 7.63547,-6.43555 9.3569,-10.14918 z"
       id="path1506"
       sodipodi:nodetypes="ssscssscssssssscssssscccccssssssscsssssscscccccccc" />
  </g>
</svg>
